<svg xmlns="http://www.w3.org/2000/svg" id="Camada_1" data-name="Camada 1" viewBox="0 0 500 500"><defs><style>.cls-1{fill:#010101}.cls-2{fill:#dc1212}.cls-3{fill:#fefefe}</style></defs><path d="M423 126.65c0 .63.05 1.26.05 1.89v140.59a4.92 4.92 0 0 1-1.15 3.27q-85.63 108.86-171.22 217.75c-.19.25-.4.48-.71.85l-7.47-9.5Q160.24 376.89 78 272.3c-.29-.38-.43-1-1.06-1V126.74c.54 0 .84.39 1.21.66 3.19 2.3 6.38 4.62 9.57 6.93 0 .68.1 1.36.1 2v129.24a4 4 0 0 0 .9 2.73q16.35 20.73 32.68 41.5c.26.33.44.79 1.06.9V160c.67 0 1 .48 1.4.77l28.78 21a3.06 3.06 0 0 1 1.45 2.82Q154 267 154 349.49a5.16 5.16 0 0 0 1.18 3.42q15.69 19.86 31.32 39.76c.62.8 1.27 1.58 2.15 2.66V210.21c0-.69 0-1.37.06-2.05l1.28.89 9.5 6.79c0 .68.07 1.36.07 2v189.68a4.71 4.71 0 0 0 1.1 3.14q19.66 24.94 39.28 49.94L250 473.46c.17-.25.26-.38.36-.5q24.71-31.43 49.43-62.83a2.83 2.83 0 0 0 .61-1.87V247.61c0-.32.21-.75-.33-1l-1 .75q-16 12.94-32 25.85a3.13 3.13 0 0 0-1.31 2.77v147.39a2.75 2.75 0 0 1-.46 2.07c-5.11 5.94-10.18 11.9-15.31 17.91-.41-.44-.76-.82-1.09-1.21-4.54-5.32-9.05-10.66-13.63-15.95a4.37 4.37 0 0 1-1.16-3.09V241.46c.45.27.92.5 1.34.8 4.42 3.21 8.84 6.41 13.22 9.68a1.7 1.7 0 0 0 2.43 0q16-11.76 32-23.43 14-10.22 28-20.4c0 .68.06 1.36.06 2v183.2a2.9 2.9 0 0 0 .21 1.79c.37-.46.67-.82 1-1.19q49.11-62.47 98.25-124.91a6.45 6.45 0 0 0 1.45-4.29q-.06-64.21 0-128.43c0-.68.07-1.36.1-2Z" class="cls-1"/><path d="m423 126.65-10.73 7.68c0-4.31-.09-8.62-.11-12.92s0-8.62 0-12.93c0-1.13-.28-1.32-1.2-.67s-1.59 1-2.39 1.52l-45.87 28.82c-.59.37-1.22.62-1.21 1.6.06 10.52.07 21 .09 31.54L346 182.65c0-.36-.09-.73-.09-1.09v-119a1.68 1.68 0 0 1 1.35-1.89c9.55-3.48 19.09-7 28.63-10.55 1.66-.61 1.67-.61 1.67 1.16v53.25c.51-.25.75-.35 1-.47q16.29-8.92 32.6-17.82c1-.55 1-1.28 1-2.19v-59c0-1.94 0-1.95-1.78-1.48l-97.3 26c-1.43.38-1.84.92-1.84 2.4q.08 77.17 0 154.34c0 .63 0 1.26-.06 1.89l-28 20.4q-16 11.69-32 23.43a1.7 1.7 0 0 1-2.43 0c-4.38-3.27-8.8-6.47-13.22-9.68-.42-.3-.89-.53-1.34-.79V92.26c0-1.14.16-1.46 1.37-1 3.66 1.42 7.44 2.58 11 4.12a8.06 8.06 0 0 0 6.87 0c4-1.69 8.11-3 12.4-4.61v75.14a6.16 6.16 0 0 0 .59-.21q16.57-9.09 33.15-18.15c.84-.46.83-1.08.83-1.82V54.67c0-1.21-.12-1.65-1.53-1.27-15.72 4.22-31.49 8.4-47.24 12.6a6.22 6.22 0 0 1-3.37 0q-23.32-6.28-46.66-12.49c-2-.54-2-.53-2 1.52v158.76c0 .68 0 1.37-.07 2.05l-9.5-6.79-1.28-.89c0-.63-.06-1.26-.06-1.89V51.93c0-1.37-.28-1.93-1.72-2.31q-48.66-13-97.29-26c-1.86-.5-1.86-.5-1.86 1.39v107.44c0 .63-.07 1.25-.11 1.88-3.19-2.31-6.38-4.63-9.57-6.93-.37-.27-.67-.7-1.21-.66V9c4.24 1.08 8.49 2.13 12.72 3.26q47.1 12.57 94.18 25.17 32.57 8.7 65.17 17.42a3.82 3.82 0 0 0 2.12 0q58.34-15.62 116.69-31.2 27-7.2 54-14.39c1.14-.31 1.3-.12 1.3 1v116a4 4 0 0 1-.11.39Z" class="cls-2"/><path d="M199.5 215.84c0-.68.07-1.37.07-2.05V55c0-2.05 0-2.06 2-1.52q23.36 6.27 46.69 12.52a6.22 6.22 0 0 0 3.37 0c15.75-4.24 31.52-8.42 47.27-12.69 1.41-.38 1.53.06 1.53 1.27v91.06c0 .74 0 1.36-.83 1.82q-16.59 9-33.15 18.15a6.16 6.16 0 0 1-.59.21v-75.1c-4.29 1.57-8.42 2.92-12.4 4.61a8.06 8.06 0 0 1-6.87 0c-3.61-1.54-7.39-2.7-11-4.12-1.21-.47-1.37-.15-1.37 1V423.14a4.37 4.37 0 0 0 1.16 3.09c4.58 5.29 9.09 10.63 13.63 15.95.33.39.68.77 1.09 1.21 5.13-6 10.2-12 15.31-17.91a2.75 2.75 0 0 0 .46-2.07V276.02a3.13 3.13 0 0 1 1.31-2.77q16-12.88 32-25.85l1-.75c.54.21.33.64.33 1V408.3a2.83 2.83 0 0 1-.61 1.87q-24.82 31.37-49.52 62.83c-.1.12-.19.25-.36.5l-10.09-12.82q-19.63-25-39.28-49.94a4.71 4.71 0 0 1-1.1-3.14V217.92c.02-.72-.03-1.4-.05-2.08ZM87.71 134.33c0-.63.11-1.25.11-1.88V25c0-1.89 0-1.89 1.86-1.39q48.64 13 97.29 26c1.44.38 1.72.94 1.72 2.31q-.06 77.17 0 154.34c0 .63 0 1.26.06 1.89s-.06 1.36-.06 2.05v185.13c-.88-1.08-1.53-1.86-2.15-2.66q-15.66-19.89-31.32-39.76a5.16 5.16 0 0 1-1.18-3.42q0-82.46.06-164.91a3.06 3.06 0 0 0-1.45-2.82q-14.43-10.44-28.78-21c-.4-.29-.73-.75-1.4-.77v150.75c-.62-.11-.8-.57-1.06-.9Q105 289.1 88.7 268.34a4 4 0 0 1-.9-2.73V136.37c.01-.68-.05-1.37-.09-2.04Zm66.29 14.3c0-.59.06-.9.06-1.22V62.5a1.6 1.6 0 0 0-1.3-1.76c-9.65-3.52-19.29-7.1-28.94-10.64-.41-.15-.83-.52-1.37-.24v77.77a2 2 0 0 0 1.09 1.85q10 6.21 19.89 12.47ZM361.59 171.29c0-10.51 0-21-.09-31.54 0-1 .62-1.23 1.21-1.6l45.87-28.82c.8-.5 1.62-1 2.39-1.52s1.21-.46 1.2.67v12.93c0 4.3.07 8.61.11 12.92 0 .68-.1 1.36-.1 2v128.43a6.45 6.45 0 0 1-1.45 4.29Q361.58 331.52 312.5 394c-.29.37-.59.73-1 1.19a2.9 2.9 0 0 1-.21-1.79V210.2c0-.68 0-1.36-.06-2s.06-1.26.06-1.89V51.97c0-1.48.41-2 1.84-2.4q48.66-12.93 97.3-26c1.78-.47 1.79-.46 1.78 1.48v59c0 .91 0 1.64-1 2.19q-16.32 8.86-32.6 17.82c-.22.12-.46.22-1 .47V51.29c0-1.77 0-1.77-1.67-1.16-9.54 3.53-19.08 7.07-28.63 10.55a1.68 1.68 0 0 0-1.35 1.89v119c0 .36.06.73.09 1.09a10.19 10.19 0 0 0-.09 1.1v145.82c0 .37-.23.85.32 1.13.38-.43.76-.85 1.13-1.29q14.34-16.79 28.71-33.56a5.69 5.69 0 0 0 1.48-4.08V159.87c-.6.4-1 .67-1.43 1Z" class="cls-3"/><path d="m361.59 171.29 14.55-10.51c.4-.29.83-.56 1.43-1v131.91a5.69 5.69 0 0 1-1.48 4.08q-14.42 16.72-28.71 33.56c-.37.44-.75.86-1.13 1.29-.55-.28-.32-.76-.32-1.13V183.67a10.19 10.19 0 0 1 .09-1.1Z" class="cls-1"/><path d="M154 148.63 143.37 142q-9.93-6.24-19.89-12.47a2 2 0 0 1-1.09-1.85V49.91c.54-.28 1 .09 1.37.24 9.65 3.54 19.29 7.12 28.94 10.64a1.6 1.6 0 0 1 1.3 1.76v86.08Z" class="cls-2"/></svg>