<svg xmlns="http://www.w3.org/2000/svg" xml:space="preserve" width="501" height="501" viewBox="-0.378 -0.723 501 501"><path fill="#F10" fill-rule="evenodd" d="M0 499.31zM250.547 0C387.887 0 500 112.111 500 249.587c0 137.342-112.113 249.59-249.453 249.59C113.071 499.178.892 386.93.892 249.588.892 112.11 113.072 0 250.547 0z" clip-rule="evenodd"/><path fill="#FFF" fill-rule="evenodd" d="M250.547 7.015c133.429 0 242.437 109.008 242.437 242.572 0 133.563-109.008 242.506-242.437 242.506-133.63 0-242.64-108.943-242.64-242.506 0-133.564 109.01-242.572 242.64-242.572z" clip-rule="evenodd"/><path fill="#F10" fill-rule="evenodd" d="m435.243 289.183 36.63 9.445-7.288 26.578-6.477-1.756 5.332-18.954-7.556-2.089-4.655 17.27-6.678-1.69 4.656-17.27-9.31-2.36-5.532 19.63-6.34-1.756 7.218-27.048zM439.019 269.823l.878-17.198 37.64 2.09-.808 18.548c-.269 2.227-.878 4.656-1.417 5.8-1.214 1.69-2.631 3.107-3.779 3.646-1.214.944-2.9 1.483-4.317 1.483-4.654-.338-7.554-2.022-8.432-5.129-.875 1.69-2.022 3.374-3.778 4.251-1.754 1.217-3.777 1.417-6.071 1.417-1.82-.2-3.506-1.078-4.587-1.755-1.214-.54-2.698-2.023-3.237-3.035-.539-1.21-1.417-2.695-1.753-4.45-.34-1.69-.34-3.78-.34-5.668zM450.69 215.32l25.16-1.552.338 8.432-24.623 1.484c-1.752 0-3.575.27-4.653.876-1.214.878-1.753 1.755-2.022 2.631-.34.81-.542 2.024-.542 3.103.203 4.656 3.103 7.016 7.756 7.016l24.625-1.484.606 8.364-24.892 1.552c-2.63 0-4.992-.675-6.745-.878-1.686-.877-3.44-2.36-4.587-3.237-1.214-1.417-2.092-3.103-2.63-4.99-.337-1.687-.609-3.98-.877-6.005 0-2.293.268-4.99.876-7.218.878-2.428 2.292-4.653 3.98-5.87 1.888-1.145 4.655-2.225 7.892-2.225h.338zM428.9 186.583l36.563-9.849 1.956 7.826-29.547 7.825 4.926 18.28-6.88 1.686-7.018-25.768zM430.926 143.074c2.63-1.147 5.192-1.686 7.554-2.227 2.292-.336 4.993.203 6.68.81 2.291.54 4.314 1.753 5.73 3.17 1.756 1.485 3.779 3.441 4.657 5.464 1.483 2.632 2.022 5.531 2.022 8.096 0 2.697-.807 5.328-2.022 7.284-1.08 2.024-2.9 4.385-4.857 5.263l-3.575-7.016c3.237-2.834 4.45-6.341 2.697-9.849-1.483-2.563-3.575-4.587-6.34-5.127-2.9-.337-6.678.54-10.457 2.226v.338c-1.753.877-3.776 2.294-5.328 3.44-1.079 1.215-1.957 3.44-2.226 4.655-.54 1.753-.336 3.777.539 5.194 2.025 4.384 5.262 5.8 9.919 4.655l3.44 7.015c-2.565.539-5.533.81-7.894.539-2.226 0-4.653-1.214-6.543-2.631-2.092-1.417-3.778-3.777-5.33-6.34-1.416-2.9-2.025-6.072-2.025-8.972 0-2.9.946-6.138 2.902-8.432 2.025-2.36 5.531-4.925 9.04-6.678.27-.337.878-.54 1.078-.54l.339-.337zM364.21 98.418l24.758-28.602 6.004 5.465-19.968 23.137 14.167 12.21-4.656 5.463-20.304-17.673zM337.566 61.924l.675-1.214c1.956-3.44 4.655-6.342 6.88-8.095 2.631-2.024 5.867-2.9 8.97-3.103 3.24 0 7.016.877 10.459 2.834 2.089 1.146 3.775 2.9 5.192 4.384 1.484 1.754 2.697 3.98 3.237 6.07.542 2.362.542 5.196 0 7.556-.336 2.9-1.484 5.801-3.237 8.971-1.417 2.362-3.778 4.925-5.192 6.342-2.026 1.754-4.319 2.9-6.343 3.44-2.629.674-4.99.674-7.219 0-2.427-.202-4.989-1.08-7.284-2.564-2.9-1.754-5.463-4.317-7.016-6.947-1.347-2.564-2.225-5.802-2.022-8.703.336-2.899 1.214-6.07 2.9-8.971zM311.798 70.694l-15.854-6.207 13.559-35.279 17.067 6.61c2.362.877 4.318 2.361 5.532 3.24 1.147 1.415 2.022 3.439 2.022 4.653.542 1.349.542 3.44.339 4.858-1.753 4.046-4.453 6.474-7.557 6.474 1.417 1.08 2.565 2.766 2.904 4.587.2 1.956.2 4.318-.675 6.409-.542 1.686-1.89 2.767-3.104 3.777-.878.878-2.361 1.957-3.778 1.957-1.484.27-2.901.607-4.654.27-1.687-.27-3.779-.81-5.801-1.35zM262.892 60.507l5.261-37.438 27.117 3.778-.875 6.678-19.632-2.564-.875 7.42 17.606 2.699-.878 6.61-17.606-2.63-1.35 9.983 20.17 2.766-.878 6.678-28.06-3.98zM240.091 61.047l-1.754-30.963-11.332.541-.202-6.68 30.624-1.415.339 6.34-11.333.879 1.754 30.758-8.096.54zM193.142 55.854l-6.07-24.353 8.094-2.091 6.07 23.746c.338 1.887 1.147 3.574 2.025 4.45.876.878 1.754 1.755 2.63 1.755.81 0 2.362 0 3.507-.338 4.319-1.214 6.41-4.317 5.195-8.634l-6.138-24.42 8.23-2.023 6.003 24.352c.54 2.293.54 4.858.54 6.745-.54 1.89-1.416 3.98-2.227 5.128-1.214 1.415-2.63 2.63-4.317 3.17-1.754.945-3.777 1.821-5.87 2.022-2.36.676-4.922.878-7.216.878-2.563-.202-4.993-1.754-6.341-2.9-1.754-1.417-3.238-3.98-4.115-7.218v-.27zM167.307 78.991l-13.223-35.01 24.892-9.579 2.632 6.07-17.74 6.68 2.9 7.891 15.649-5.867 2.293 6.408-15.313 5.8 5.465 14.773-7.555 2.834zM103.897 131.202 85.011 95.787l6.138-6.678 37.1 15.109-5.8 6.41-7.556-3.172-9.309 10.187 3.777 7.42-5.464 6.14zM68.28 150.022c-2.698-1.417-4.451-3.17-6.204-4.857-1.688-2.09-2.565-4.318-3.104-6.409-.675-2.024-.878-4.654-.337-6.677.337-2.024.876-4.655 2.09-6.68 1.35-2.629 3.44-4.653 5.667-6.07 2.092-1.483 4.992-2.022 7.015-2.361 2.631 0 5.196.339 7.286 1.485l-4.115 6.61c-3.98-1.08-7.487-.202-9.511 3.237-1.485 2.563-2.024 5.532-.877 8.095 1.213 2.564 3.98 5.262 7.555 7.556l.202-.337c1.753 1.213 3.778 2.09 5.532 2.698 2.022.202 4.115 0 5.532-.608 1.483-.336 3.236-1.753 4.046-3.507 2.294-3.778 1.753-7.555-1.686-10.658l3.98-6.678c2.024 1.686 3.575 3.98 4.655 6.002 1.146 2.43 1.82 4.993 1.82 7.286-.337 2.698-1.213 5.261-2.9 7.826-1.551 2.63-3.777 4.99-6.408 6.745-2.361 1.35-5.465 2.226-8.364 1.687-3.238 0-7.286-1.484-10.794-3.441-.27-.337-.54-.675-.876-.675l-.203-.269zM79.479 170.934 45.886 153.8l3.778-7.286 33.592 17.201-3.777 7.219zM66.19 204.256l-35.077-13.693 6.678-17.607c.877-2.36 2.293-4.047 3.776-5.463 1.755-1.215 3.51-2.091 5.196-2.091 1.416-.27 3.777-.27 5.53.27.877.269 2.227 1.147 3.103 1.82.877 1.08 2.093 2.227 2.093 3.442a7.346 7.346 0 0 1 .808 3.439c1.214-1.146 2.631-2.226 4.115-2.226 1.417 0 3.778 0 5.531.81l1.687.54c.54.337.876.54 1.417.876 1.552.54 2.9.54 3.576.878.876.336 1.955-.338 1.955-.878l.943.337-3.237 8.433c-.54 0-1.685 0-2.562-.338-.878-.337-2.092-.539-3.238-.876-1.081-.54-2.294-.877-3.17-1.484-1.149-.203-2.362-.203-2.902-.203-.54-.337-1.686.203-2.024.54-.877.27-1.753 1.686-2.294 3.237l-2.899 7.42 13.896 5.6-2.9 7.217zM16.88 207.426l6.677 9.242-.876 5.194-6.882-6.004 1.08-8.432zM62.076 237.849l-37.305-5.193 3.779-27.32 6.543.878-2.563 19.763 7.554.877 2.564-17.741 6.745.878-2.63 17.74 9.848 1.484 2.9-20.305 6.68.878-4.115 28.06zM63.829 280.414l-37.371 2.023-.809-11.536 29.546-8.09v-.34l-30.22-5.195-.541-11.534 37.642-2.09.336 7.553-31.3 1.754v.339l31.638 5.195.539 7.757-30.962 8.43 31.299-1.751.203 7.485zM73.407 318.865l-40-3.778-1.958-8.901 33.055-22.332 2.225 8.434-6.88 4.317 3.103 13.692 8.432.878 2.023 7.69zM374.465 439.41l-22.33-30.422 7.016-4.995 27.522 12.546-15.447-21.515 6.207-4.317 21.99 30.422-6.34 4.856-28.197-12.68 15.65 21.788-6.071 4.317zM339.726 458.497l-17.134-33.589 17.134-8.702a12.737 12.737 0 0 1 6.406-1.756c2.025.34 3.981.878 5.126 2.09 1.554.81 3.24 2.228 4.117 3.778.203 1.078.876 2.562 1.078 3.779 0 1.078-.202 2.766-.539 3.644-.539 1.212-1.147 2.696-2.025 3.235 1.69-.333 3.576.338 4.657.878 1.144 1.144 2.561 2.561 3.506 4.317l.878 1.683c.203.678.203 1.217.539 1.89.539 1.083 1.753 2.228 2.092 2.568.203.877 1.347 1.077 2.022.877l.542.873-8.096 3.984c-.675-.206-1.483-1.084-1.756-1.962-.266-.872-1.144-1.817-1.82-2.695a54.086 54.086 0 0 1-1.417-3.106c-.539-.873-1.685-1.75-2.022-2.429 0-.539-1.08-.805-2.026-.805-.539-.273-1.956.266-3.709.805l-7.351 3.779 7.015 13.086-7.217 3.778zM290.077 461.737l-1.417-7.018 14.503-3.1 1.687 6.545-14.773 3.573zM235.032 476.512v-37.78h8.094v30.762h18.687v7.018h-26.781zM191.727 470.372l19.224-35.079 8.97 1.483 7.557 39.397-8.433-1.484-1.551-8.095-13.56-2.023-3.98 7.284-8.227-1.483zM173.783 463.493l10.185-29.411-10.792-3.645 2.022-6.14 29.075 9.785-2.092 6.474-10.659-3.78-10.185 29.279-7.554-2.562zM130.88 443.728l29.007-27.522 8.093 4.112-4.99 39.935-7.758-4.05 1.417-8.157-12.412-6.413-6.072 5.868-7.285-3.773zM101.065 421.396l22.53-30.15 6.746 5.195-4.114 29.884.336.333 15.92-21.181 5.869 4.656-22.666 30.15-6.408-4.99 3.777-30.622-16.257 21.314-5.733-4.589z" clip-rule="evenodd"/><path fill="#F10" fill-rule="evenodd" d="M250.413 69.074c99.228 0 180.31 81.015 180.31 180.445 0 99.23-81.082 180.378-180.31 180.378-99.364 0-180.446-81.148-180.446-180.378 0-99.43 81.082-180.445 180.446-180.445z" clip-rule="evenodd"/><path fill="#FFF" fill-rule="evenodd" d="m386.337 296.467 20.978 9.512c-14.502 35.958-42.566 72.514-78.586 90.595V101.993c36.562 18.01 64.084 53.965 78.586 90.527l-20.978 8.972c-9.58-19.429-18.55-35.01-32.581-52.01v200.006c14.03-17.47 23-33.996 32.58-53.021zM229.838 414.045V84.927c23.071-3.441 51.94 2.024 74.403 7.015v25.026c-3.44-3.574-43.91-9.512-49.376-10.051v126.616h43.442v24.488h-43.442v157.507c-7.015 0-18.012-.944-25.027-1.483zM86.292 246.619c4.924-80.678 49.513-128.705 113.124-154.677v314.074c-7.555-2.43-17.606-6.54-25.633-10.519V258.021h-64.489c1.484 16.12 6.475 34.062 12.479 48.498l-21.045 12.952c-8.972-24.894-15.987-47.96-14.436-72.852z" clip-rule="evenodd"/><path fill="#F10" fill-rule="evenodd" d="M109.834 233.533h63.949V129.516c-37.506 25.43-55.045 52.008-63.949 104.017z" clip-rule="evenodd"/><path fill="#FFF" fill-rule="evenodd" d="m446.034 260.716-.605 9.918c0 1.417.605 2.968.808 3.78.675 1.076 2.092 2.288 3.779 2.288 1.753 0 3.505-.334 4.114-1.411.876-1.15 1.417-2.701 1.417-4.118l.676-9.78-10.189-.677zM470.655 262.271l-8.092-.677-.675 9.307c0 1.484.336 2.9.675 3.779.539.81 2.022 1.688 3.103 1.688 1.214 0 2.428-.538 2.967-1.077.608-.611 1.483-2.362 1.483-4.39l.54-8.63zM345.999 63.677c-2.025 3.441-3.103 7.017-3.103 9.782 0 2.9 1.686 5.868 4.586 7.555 1.956 1.214 4.048 1.754 5.735 1.551 1.753-.337 3.775-1.551 5.329-2.63 1.347-1.147 3.102-2.901 3.978-4.385 1.687-2.967 2.565-6.07 3.24-9.309.539-3.103-1.553-6.07-4.993-8.432-1.148-.538-2.9-1.079-4.318-1.079-1.483 0-3.44.54-5.262 1.417-1.753.876-3.709 2.9-5.192 5.53zM305.389 61.384l9.31 3.44c1.483.54 2.9.54 4.114.338 1.078-.338 2.564-1.214 3.103-2.9.676-1.552.676-3.575-.202-4.453-.945-.876-2.023-1.955-3.237-2.563l-9.31-3.44-3.778 9.578zM314.36 38.18l-2.765 7.758 8.634 3.238c1.148.539 2.565.876 3.777.539.811-.203 2.025-1.417 2.361-2.563.54-.878.203-2.295 0-2.902-.336-.877-1.82-2.09-3.775-2.967l-8.233-3.104zM94.251 98.215l7.894 13.56 6.34-7.015-13.896-6.342-.338-.203zM49.393 189.483l3.238-9.038c.81-1.755.81-3.441.539-4.318-.54-1.214-1.753-2.09-3.237-2.63-.876-.54-2.631-.27-3.508-.27-1.147.607-2.226 2.024-2.9 3.777l-3.441 8.702 9.309 3.777zM40.625 308.475l15.648 1.216-2.294-9.306-13.354 8.09zM337.161 435.97l8.635-4.455c1.483-.54 2.9-1.956 2.9-2.9.54-1.079.336-2.63-.339-3.707-.539-1.15-1.686-2.362-2.561-2.701-1.214-.539-2.9-.2-4.656.673l-8.43 4.317 4.451 8.774zM214.053 444.267l-7.217 14.23 9.579 1.484-2.362-15.38v-.334zM160.223 425.78l-11.332 11.269 8.634 4.385 2.362-15.449.336-.205z" clip-rule="evenodd"/></svg>