<svg xmlns="http://www.w3.org/2000/svg" xml:space="preserve" id="Camada_1" x="0" y="0" style="enable-background:new 0 0 420 446" version="1.1" viewBox="0 0 420 446"><style>.st0{fill-rule:evenodd;clip-rule:evenodd}.st0,.st3{fill:#0b5b8d}</style><path d="M7 6.5v153.8c0 106 128.5 232.5 203.1 279.6l.5-.3C396.8 321 413.1 160.3 413.1 160.3V6.5l-203-.5L7 6.5z" class="st0"/><path d="M16.2 16.3v146.9c0 101.2 122.7 222 193.9 267l.4-.3C388.4 316.6 404 163.2 404 163.2V16.3l-193.9-.5-193.9.5z" style="fill-rule:evenodd;clip-rule:evenodd;fill:#fff"/><path d="M99 89.4h48.4v299.8c-16.2-14.5-32.7-30.8-48.4-48.3V89.4zM185.8 89.9h48.4v331.5c-7.5 5.4-15.4 10.7-23.6 15.9l-.5.3c-7.6-4.8-15.8-10.5-24.3-16.8V89.9z" class="st0"/><path d="M273.3 88.1h48.4v254.1c-13.9 16.1-29.9 32.4-48.4 48.5V88.1z" style="fill-rule:evenodd;clip-rule:evenodd;fill:#1a66a9"/><path d="M360.7 87.8H409v84.8c-4 20.2-15.9 64.8-48.4 116.8V87.8h.1zM11.1 89.4h48.4v202c-24.3-34.9-42.6-72-48.4-107.7V89.4z" class="st0"/><path d="M15.8 82.2h388.8v8.1H15.8v-8.1z" class="st0"/><path d="M109.6 72.3H99.5l-4-10.6H77.2l-3.8 10.6h-9.8l17.9-46.8h9.8l18.3 46.8zm-17-18.5-6.3-17.4L80 53.8h12.6zM121.5 72.3l-16.4-46.8h10l11.7 34.6L138 25.5h9.8l-16.4 46.8h-9.9zM189.2 72.3h-10.1l-4-10.6h-18.4L153 72.3h-9.8L161 25.5h9.8l18.4 46.8zm-17.1-18.5-6.3-17.4-6.2 17.4h12.5zM193.8 72.3V25.5h9.3v46.8h-9.3zm-1-49.5 4.3-9.5h9.9l-8.6 9.5h-5.6zM247.6 72.3V25.5h31.5v7.9h-22.2v11.1h19.2v7.9h-19.2v19.9h-9.3zM279.6 72.3v-9h8.8v9h-8.8zM326.8 55.1l9 2.9c-1.4 5.1-3.7 8.9-6.9 11.4s-7.3 3.7-12.2 3.7c-6.1 0-11.1-2.1-15-6.4-3.9-4.2-5.9-10-5.9-17.4 0-7.8 2-13.8 5.9-18.1 3.9-4.3 9.1-6.5 15.6-6.5 5.6 0 10.2 1.7 13.7 5.1 2.1 2 3.7 4.9 4.7 8.6l-9.2 2.2c-.5-2.4-1.7-4.3-3.4-5.7-1.7-1.4-3.8-2.1-6.3-2.1-3.4 0-6.2 1.2-8.3 3.7-2.1 2.5-3.2 6.5-3.2 12.1 0 5.9 1 10.1 3.1 12.6s4.8 3.8 8.1 3.8c2.5 0 4.6-.8 6.4-2.4 1.9-1.6 3.1-4.1 3.9-7.5zM343.7 72.3v-9h8.8v9h-8.8z" class="st3"/></svg>