<svg xmlns="http://www.w3.org/2000/svg" width="200" height="271.95" viewBox="0 0 160 217.557"><path fill="#f5e145" fill-rule="evenodd" d="M33.894 18.571h10.084l3.124-9.598 3.116 9.598h10.086l-8.148 5.939 3.115 9.598-8.165-5.939-8.176 5.94 3.118-9.6-8.15-5.937M99.703 18.571h10.084l3.122-9.598 3.116 9.598h10.088l-8.151 5.937 3.115 9.6-8.168-5.938-8.174 5.937 3.115-9.6-8.147-5.936M66.796 9.598h10.086L80.002 0l3.116 9.598h10.088l-8.151 5.937 3.115 9.6-8.168-5.938-8.172 5.937 3.116-9.6-8.15-5.936"/><path fill="#FFF" fill-rule="evenodd" d="M1.936 64.175c40.274-33.999 115.848-35.314 156.128 0-2.162 1.468-3.901 3.461-5.288 5.895.337 2.432.642 4.859.915 7.278l1.693 1.465 2.634 6.556-.293 6.75-.587 3.525 1.467 5.772s.293 6.754-.781 9.101c-1.074 2.35-2.44 3.916-2.44 3.916l-.377.185c-2.533 46.041-22.479 84.898-75.008 101.27-52.697-16.426-72.61-55.477-75.035-101.7l-1.322-1.15-1.9-5.133-.189-5.798 1.044-6.841-.854-6.562.665-5.796 3.42-6.463.574.038c.25-2.13.524-4.267.82-6.41-1.385-2.434-3.124-4.428-5.288-5.895"/><path fill="#f5e145" fill-rule="evenodd" d="M108.31 44.197c-.242 4.198-.474 8.396-.701 12.591-6.225-1.248-15.84-2.048-26.624-2.048-10.838 0-20.49.806-26.713 2.067-.194-4.284-.398-8.566-.613-12.844l.07-.012a142.764 142.764 0 0 1 26.287-2.51c8.844-.027 17.697.756 26.284 2.362.67.129 1.34.257 2.01.394zm-3.114 64.375c-1.17 30.008-1.934 60.032-2.19 90.056-6.789 3.886-14.424 7.197-22.99 9.835-8.726-2.688-16.486-6.07-23.37-10.052.331-29.972.14-59.956-.587-89.904l26.515-1.114 22.623 1.177"/><path fill="#cf192e" fill-rule="evenodd" d="M37.36 183.565c-.287-24.398-.977-48.88-1.992-73.327l-17.178 1.57-8.528 1.55c1.303 21.534 6.631 41.552 17.787 58.07v-.003a85.482 85.482 0 0 0 9.911 12.139zm-3.916-112.89a3143.18 3143.18 0 0 0-1.213-20.652 108.251 108.251 0 0 0-4.783 1.962c-7.576 3.314-14.567 7.396-20.687 12.238 2.048 1.368 3.692 3.235 5.006 5.513a273.952 273.952 0 0 0-.756 5.827l14.939-3.6 7.494-1.289"/><path fill="#003568" d="m159.66 63.847-1.04.705c-2.047 1.385-3.653 3.271-4.88 5.364.29 2.099.553 4.202.793 6.307l.118.034c4.911 6.557 5.737 12.896 3.766 19.085 2.907 9.726 1.726 16.35-2.846 20.406l-.009-.006c-3.276 45.318-23.61 85.625-75.304 101.739l-.274.084-.272-.084c-51.7-16.114-72.028-56.432-75.299-101.745-4.562-4.052-5.738-10.673-2.833-20.387C-.39 89.16.436 82.822 5.346 76.264l.092-.025c.238-2.11.5-4.215.79-6.316-1.225-2.093-2.834-3.983-4.882-5.364l-1.009-.684c43.283-37.26 115.844-35.677 159.319-.021zm-36.473 119.179c.357-23.452 1.06-47.405 2.084-71.824-14.76-1.379-32.098-2.419-45.27-2.235-24.55-.34-63.578 3.564-73.408 6.01 2.71 43.902 21.955 81.087 73.391 97.228 51.451-16.144 70.724-53.32 73.43-97.228-.84-.209-1.895-.43-3.135-.657-1.398 21.157-6.724 40.817-17.696 57.089a86.118 86.118 0 0 1-9.4 11.619zm4.113-113.38c.35-6.329.718-12.69 1.107-19.076l.064-.465c1.389.543 2.76 1.118 4.115 1.713 7.516 3.32 14.488 7.446 20.654 12.398-2.046 1.368-3.69 3.236-5.008 5.513.231 1.64.448 3.276.648 4.914 1.032.276 2.068.562 3.108.852a266.81 266.81 0 0 0-.75-5.8c1.23-2.155 3.373-4.248 5.352-5.82C115.972 31.11 45.327 29.746 3.377 63.871c1.979 1.573 4.166 3.615 5.398 5.773a283.687 283.687 0 0 0-.756 5.85l-.16.857-1.448 1.387c-3.423 4.419-4.583 9.612-2.436 15.949 2.023-1.118 4.874-1.541 7.896-1.817-3.349 1.221-6.248 2.596-8.157 4.307-2.05 5.678-1.527 12.394 1.294 16.943 25.4-4.526 50.159-6.383 74.987-6.153 24.83-.23 49.405 1.697 74.804 6.223 3.339-3.592 3.254-11.334 1.482-17.012-1.912-1.712-4.809-3.086-8.16-4.307 3.025.276 5.873.699 7.9 1.817 2.146-6.337.984-11.53-2.44-15.95l-.982-.275 1.73-.287c-7.22-2.616-16.517-4.778-27.155-6.397l.071-1.143.049.008"/><path fill="#003568" d="M71.797 196.418h-5.76v-1.46h1.821v-4.418h-1.82v-1.362c.277 0 .544-.016.8-.048s.467-.086.635-.164c.2-.093.354-.217.453-.367a1.13 1.13 0 0 0 .174-.56h1.918v6.918h1.78v1.461M80.593 191.772c0 .7-.09 1.35-.276 1.954a3.878 3.878 0 0 1-.846 1.52 3.815 3.815 0 0 1-1.525 1c-.604.223-1.313.335-2.117.335-.29 0-.598-.017-.929-.05a6.23 6.23 0 0 1-.657-.09v-1.645h.232c.118.052.282.111.497.168.215.061.505.09.878.09.3 0 .595-.037.886-.107a2.022 2.022 0 0 0 1.31-.981c.145-.253.246-.554.294-.91a6.048 6.048 0 0 1-.935.43c-.288.1-.646.15-1.073.15a3.73 3.73 0 0 1-.93-.116 2.613 2.613 0 0 1-.81-.356 2.374 2.374 0 0 1-.766-.874c-.193-.36-.288-.814-.288-1.364 0-.897.318-1.62.964-2.185.644-.564 1.487-.844 2.529-.844.539 0 1.012.065 1.429.204.415.135.773.345 1.076.623.35.322.612.733.791 1.23.18.496.266 1.103.266 1.818zm-2.217-.315c0-.455-.044-.83-.137-1.124-.09-.295-.217-.52-.375-.683a.948.948 0 0 0-.387-.256 1.356 1.356 0 0 0-.463-.08 1.17 1.17 0 0 0-.827.336c-.123.12-.217.278-.293.472a1.92 1.92 0 0 0-.116.695c0 .263.042.484.124.66.08.178.194.319.337.424.135.101.295.17.478.213a2.791 2.791 0 0 0 1.166-.003c.202-.042.365-.086.476-.13 0-.042.002-.101.008-.179.007-.076.009-.19.009-.345M89.237 194.084c0 .742-.328 1.348-.98 1.817-.65.474-1.544.71-2.679.71a6.397 6.397 0 0 1-1.64-.19c-.454-.13-.831-.307-1.128-.53a2.065 2.065 0 0 1-.653-.775 2.203 2.203 0 0 1-.21-.954c0-.419.126-.789.379-1.113.252-.324.688-.604 1.313-.85v-.034c-.503-.224-.871-.506-1.11-.847a2.041 2.041 0 0 1-.35-1.183c0-.66.315-1.204.949-1.627.636-.423 1.459-.634 2.473-.634 1.068 0 1.903.192 2.506.575.606.385.905.895.905 1.535 0 .397-.124.749-.38 1.06-.254.308-.643.573-1.17.79v.034c.602.22 1.047.518 1.34.892.288.373.435.815.435 1.324zm-2.396-3.858a.805.805 0 0 0-.339-.68c-.225-.17-.526-.255-.9-.255a1.894 1.894 0 0 0-.822.198.817.817 0 0 0-.277.25.586.586 0 0 0-.112.35c0 .223.063.391.196.516.128.124.339.246.631.37.11.044.257.101.445.168.187.064.416.137.682.22.179-.2.305-.382.38-.546.076-.16.116-.358.116-.591zm.18 3.955c0-.271-.07-.473-.209-.614-.137-.14-.423-.297-.857-.476a6.172 6.172 0 0 0-.556-.207 21.095 21.095 0 0 1-.612-.214c-.166.145-.32.322-.45.532-.135.205-.2.44-.2.697 0 .39.145.697.43.929.287.231.664.345 1.13.345.121 0 .265-.02.43-.053.167-.038.312-.092.43-.166.14-.086.253-.188.337-.301.084-.118.126-.274.126-.472M97.467 191.772a6.63 6.63 0 0 1-.28 1.954 3.901 3.901 0 0 1-.845 1.52c-.41.444-.917.777-1.526 1-.606.223-1.313.335-2.118.335-.286 0-.598-.017-.93-.05a6.245 6.245 0 0 1-.655-.09v-1.645h.232c.12.052.282.111.499.168.212.061.505.09.878.09.3 0 .595-.037.884-.107.288-.076.539-.19.747-.345.23-.169.417-.38.564-.636.143-.253.244-.554.295-.91a5.99 5.99 0 0 1-.939.43c-.286.1-.644.15-1.074.15-.322 0-.633-.04-.928-.116a2.559 2.559 0 0 1-.806-.356 2.366 2.366 0 0 1-.77-.874c-.192-.36-.287-.814-.287-1.364 0-.897.322-1.62.964-2.185.644-.564 1.486-.844 2.528-.844.54 0 1.013.065 1.43.204.415.135.772.345 1.076.623.35.322.612.733.791 1.23.177.496.27 1.103.27 1.818zm-2.221-.315c0-.455-.047-.83-.137-1.124-.09-.295-.217-.52-.375-.683a.942.942 0 0 0-.385-.256 1.365 1.365 0 0 0-.463-.08 1.134 1.134 0 0 0-.83.337c-.122.12-.217.277-.292.471a1.92 1.92 0 0 0-.116.695c0 .263.042.484.124.66.082.178.194.319.337.424.132.101.295.17.478.213a2.797 2.797 0 0 0 1.166-.003c.206-.042.362-.086.476-.13 0-.042.004-.101.008-.179.005-.076.009-.19.009-.345"/><path fill="#003a68" d="M15.555 79.001a401.256 401.256 0 0 1 10.806-2.13h.008l.013-.002v-.007h.008c.061-.012.12-.019.183-.027.301-.05.56-.084.773-.103v-.002c.276-.023.6-.032.97-.023 6.636.143 8.263 8.121 5.493 12.803.286.287.547.603.78.948l.003.006.01.01.009-.006.002.002.04.061.375-1.332a5750.94 5750.94 0 0 1 3.551-12.688 2.652 2.652 0 0 1 2.234-1.918v-.002l.01-.002.08-.009c2.09-.257 4.179-.516 6.267-.774a2.663 2.663 0 0 1 2.918 2.058c1.166 3.981 2.337 7.96 3.49 11.947l.003.005v.006h.008l.002.004c.017.055.03.114.042.173l.245.842V75.57a2.66 2.66 0 0 1 2.629-2.659 1102.3 1102.3 0 0 1 7.442-.486v1.158c-1.699.103-3.994.254-5.65.366l-1.781.12a1.506 1.506 0 0 0-1.484 1.503v21.38l-2.529-8.704-.025-.101v-.007h-.006v-.006c-1.017-3.507-1.859-6.374-2.695-9.23l-.819-2.782a1.503 1.503 0 0 0-1.646-1.167l-2.448.304c-1.468.18-2.887.357-3.847.473l-.052.007-.015.002v.002a1.502 1.502 0 0 0-1.263 1.084c-.594 2.114-1.185 4.23-1.777 6.343-.377 1.335-.943 3.364-1.775 6.34-.408 1.462-.871 3.115-1.36 4.847a8.07 8.07 0 0 0-.532-2.117 6.465 6.465 0 0 0-.213-.464.875.875 0 0 0-.054-.12 8.87 8.87 0 0 0-.253-.42c-.021-.04-.048-.079-.072-.119l-.002-.002-.006.002-.004-.006-.003-.002a5.115 5.115 0 0 0-1.372-1.377 5.623 5.623 0 0 0 .455-.642l.004-.002h-.004a8.155 8.155 0 0 0 .806-1.707l.03-.076c.046-.154.086-.28.11-.377l-.003-.002c.208-.764.313-1.57.313-2.415h.005v-.004h-.005c0-1.493-.324-2.787-.966-3.884a6.705 6.705 0 0 0-.423-.638 6.823 6.823 0 0 0-.415-.484c-.03-.04-.063-.074-.097-.11l-.004-.002-.004.002c-.97-.99-2.236-1.494-3.775-1.53a8.867 8.867 0 0 0-.842.025 9.704 9.704 0 0 0-.766.101c-.032.006-.07.009-.1.017h-.008v.004h-.012c-2.015.367-3.825.712-5.487 1.04-1.667.333-3.473.703-5.37 1.103a1.504 1.504 0 0 0-1.297 1.49v23.124h.002a1.503 1.503 0 0 0 1.714 1.488c1.791-.26 3.482-.503 5.015-.713 1.482-.202 3.136-.421 5.014-.657.375-.048.977-.183 1.798-.404v-.002l.484-.135.535-.158.036-.01a10.155 10.155 0 0 0 1.518-.558 5.818 5.818 0 0 0 1.145-.7c.036-.027.071-.052.105-.081a7.83 7.83 0 0 0 .832-.82l-.009.03-.002.005h.002a1.5 1.5 0 0 0 1.594 1.903l.543-.057c1.853-.192 3.718-.388 5.38-.537l.018-.004a1.492 1.492 0 0 0 1.326-1.167l.223-.993.461-2.063c1.055-.097 2.152-.194 4.246-.375l.169.737c.217.922.387 1.659.473 2.025h.003a1.505 1.505 0 0 0 1.553 1.154c1.81-.118 3.621-.236 5.43-.352l.637-.042.025-.002v-.002a1.477 1.477 0 0 0 .942-.415c.271.208.612.328.978.311 1.737-.075 3.472-.155 5.209-.233l.534-.023.045.002c.83 0 1.503-.674 1.503-1.505v-7.554c.027.067.054.132.084.2a.38.38 0 0 0 .025.074c.516 1.273 1.034 2.553 1.554 3.829.518 1.276 1.038 2.556 1.56 3.831l.002-.002c.23.56.785.95 1.425.935 1.112-.027 2.213-.055 3.284-.072 1.087-.019 2.169-.033 3.23-.042a1.499 1.499 0 0 0 1.448-2.038l-.627-1.614a901.136 901.136 0 0 1-2.198-5.714v-.002a9.166 9.166 0 0 0-.541-1.116.906.906 0 0 0-.055-.111l-.166-.278-.11-.188c-.02-.042-.046-.082-.07-.122l-.003-.006a13.828 13.828 0 0 0-.765-1.13c-.016-.028-.042-.057-.063-.087l.063-.053.038-.029.002-.002.009-.007.002-.004c.486-.41.922-.876 1.301-1.398.337-.467.638-.993.899-1.574a3.44 3.44 0 0 0 .061-.127 9 9 0 0 0 .53-1.67c.007-.022.022-.115.055-.296l.009-.044c.063-.345.111-.703.145-1.074v6.905c0 .657.053 1.391.156 2.196.105.798.246 1.604.425 2.42.128.588.316 1.173.564 1.754.238.567.533 1.122.884 1.663.508.79 1.06 1.453 1.655 1.998.112.1.234.204.368.312.068.057.16.124.274.208.034.028.067.057.107.082a7.471 7.471 0 0 0 2.148 1.03c.044.019.092.033.143.048.137.038.305.082.497.124h.006c.196.049.373.082.52.108h.008c.794.139 1.55.23 2.263.28.093.006.232.012.432.023.107.006.246.008.406.01H85.897l.112.003h.006c1.202.016 2.303-.112 3.3-.386.043-.008.085-.017.132-.03a8.14 8.14 0 0 0 .619-.201c.202-.074.398-.156.593-.242v-.005l.01-.004.079-.034v-.004l.006-.004a6.618 6.618 0 0 0 1.543-1.015 9.938 9.938 0 0 0 1.354-1.465l-.002-.002.002-.003a10.766 10.766 0 0 0 1.503-2.753c.067-.183.137-.381.202-.592.074-.236.135-.442.181-.612v-.005c.196-.743.34-1.49.432-2.248a19.33 19.33 0 0 0 .143-2.366V74.992h-.004a1.5 1.5 0 0 0-1.428-1.499l-.11-.006a245.58 245.58 0 0 0-5.616-.23 1.501 1.501 0 0 0-1.672 1.495v15.526c0 .815-.105 1.467-.311 1.952-.436 1.018-1.861 1.29-2.562.332-.482-.663-.56-1.596-.56-2.39V74.619h-.006c0-.826-.67-1.497-1.497-1.497-1.825.008-3.63.02-5.43.036l-.4.002a1.496 1.496 0 0 0-1.49 1.497v5.939a10.56 10.56 0 0 0-.492-2.413 8.577 8.577 0 0 0-.527-1.231l-.004-.005H74c-.53-1.008-1.202-1.785-2.002-2.337a4.813 4.813 0 0 0-.508-.313 6.655 6.655 0 0 0-.513-.247l-.007-.002-.014-.004-.002-.002c-.832-.337-1.908-.545-3.213-.594a16.698 16.698 0 0 0-.745-.01c-.282.002-.545.01-.79.02l-.03.003c-.755.038-1.494.08-2.228.122v-1.158c.724-.042 1.45-.082 2.176-.118l.026-.004c2.797-.133 5.747.238 7.711 2.42v-.069a2.66 2.66 0 0 1 2.87-2.65l.153-.002c1.809-.015 3.617-.028 5.461-.036a2.648 2.648 0 0 1 2.646 2.65h.015v15.556c0 1.892 1.118 2.875 1.118.105V74.748a2.66 2.66 0 0 1 2.956-2.642c1.937.049 3.736.14 5.547.225l.105.007a2.645 2.645 0 0 1 1.886.92 2.647 2.647 0 0 1 2.163-.718 534.37 534.37 0 0 1 15.574 1.402 2.647 2.647 0 0 1 1.728.895 2.632 2.632 0 0 1 1.846-.445v-.002c3.27.432 6.535.9 9.796 1.423 1.012.165 1.926.367 2.736.613.887.27 1.664.6 2.327.996l.008.004.002-.004v.002c.19.112.381.24.577.379l.009.006.002-.006c.164.118.345.263.545.436a9.007 9.007 0 0 1 1.667 1.953 2.66 2.66 0 0 1 3.421-2.35c2.11.43 3.507.73 4.903 1.032l.716.152a2.657 2.657 0 0 1 2.105 2.598h.002v9.139h-1.153v-9.137h-.005c0-.695-.484-1.318-1.19-1.467-1.906-.409-3.814-.821-5.727-1.21a1.503 1.503 0 0 0-1.924 1.444v20.727c-.678-1.732-1.344-3.473-2.009-5.212-.373-.977-1.08-2.192-1.697-3.038.98-.638 1.737-1.53 2.253-2.573.954-1.932 1.015-4.389.577-6.43a9.348 9.348 0 0 0-.781-2.239c-1.112-2.194-2.689-3.404-4.962-4.097-3.838-1.17-8.244-1.452-12.225-1.979a1.504 1.504 0 0 0-1.821 1.47v24.732a1.5 1.5 0 0 0 1.372 1.495l.973.09c1.831.16 3.676.324 4.753.427a1.503 1.503 0 0 0 1.773-1.48v-6.808c.983 2.436 1.951 4.878 2.937 7.308l.286.707h.002c.2.49.653.863 1.22.926 2.195.255 4.386.52 6.58.785.39.045.787-.065 1.097-.305.231.295.574.503.977.558 1.907.259 3.818.526 5.726.796.913.191 1.814-.514 1.814-1.472V90.763h1.154v14.016a2.659 2.659 0 0 1-3.212 2.602c-.914-.128-1.824-.259-2.735-.385-1.2-.164-2.213-.307-2.903-.4a2.582 2.582 0 0 1-.99-.339c-1.254.375-3.1-.154-4.362-.307-1.288-.154-2.425-.287-3.28-.388a2.657 2.657 0 0 1-2.161-1.644l-.329-.812-.663-1.647v.825a2.663 2.663 0 0 1-3.135 2.62c-.86-.083-2.791-.253-4.728-.426l-.89-.078a2.66 2.66 0 0 1-1.567-.684c-.406.257-.89.408-1.412.408-.063 0-.125 0-.188-.006v.006a881.052 881.052 0 0 0-4.703-.322v-1.151c1.57.1 3.141.21 4.71.32.06.004.12.01.18.01.832 0 1.504-.673 1.504-1.503v-5.633c0-.777-.598-1.434-1.383-1.497-2.897-.23-5.79-.453-8.688-.65v-1.946c2.385.18 4.877.388 7.376.598a1.504 1.504 0 0 0 1.695-1.493v-5.075h-.004a1.5 1.5 0 0 0-1.364-1.493l-4.547-.417c-1.011-.088-2.055-.174-3.156-.26v-.982c1.187.097 2.254.192 3.25.283 1.402.132 3.06.292 4.756.458a1.504 1.504 0 0 0 1.773-1.478v-5.309h-.005c0-.76-.575-1.412-1.347-1.49a529.663 529.663 0 0 0-15.604-1.404 1.501 1.501 0 0 0-1.68 1.493v25.325h.002c0 .795.626 1.46 1.43 1.496 3.488.177 7.614.421 11.103.647v1.151c-3.503-.225-7.65-.471-11.156-.65a2.65 2.65 0 0 1-2.528-2.647h-.008v-3.134a11.588 11.588 0 0 1-1.23 2.019l-.004.004.004.006c-.475.626-.98 1.17-1.515 1.634a7.844 7.844 0 0 1-1.809 1.19l-.012.006.002.004-.076.034-.013.006.002.004a9.848 9.848 0 0 1-1.37.495c-.046.013-.09.027-.137.038-1.105.305-2.322.446-3.638.431l-.01-.002v.002l-.108-.002h-.01a12.13 12.13 0 0 1-.446-.014c-.26-.01-.4-.02-.46-.021-.76-.053-1.555-.15-2.387-.293l-.008-.002c-.177-.032-.375-.07-.59-.118-.048-.013-.096-.028-.147-.04-.113-.03-.252-.065-.404-.11l-.004.009a8.628 8.628 0 0 1-2.638-1.257l-.002-.002-.06-.04-.001.002-.003-.002-.048-.036a8.11 8.11 0 0 1-.747-.602c-.068-.063-.135-.124-.202-.19a2.645 2.645 0 0 1-1.663 2.057c-.346.135-.697.19-1.045.18a336.698 336.698 0 0 0-6.45.113 2.653 2.653 0 0 1-2.518-1.655l-.006.002-.994-2.444v1.63a2.663 2.663 0 0 1-2.66 2.66l-.087-.002c-4.657.211-8.974.457-13.641.752a2.647 2.647 0 0 1-2.748-2.036h-.006c-.036-.15-.185-.808-.415-1.791l-2.406.21-.162.73-.337 1.502a2.654 2.654 0 0 1-2.402 2.074c-1.579.14-3.499.34-5.404.54l-.467.049a2.647 2.647 0 0 1-2.339-.977 7.199 7.199 0 0 1-.956.537 10.99 10.99 0 0 1-1.69.623l-.034.01c-.507.148-.379.114-.545.163l-.493.139c-.871.235-1.528.38-1.962.435-3.343.42-6.675.88-10.008 1.367a2.655 2.655 0 0 1-3.027-2.63h-.006V81.635a2.661 2.661 0 0 1 2.3-2.634"/><path fill="#cf192e" d="M15.916 81.647A388.753 388.753 0 0 1 26.83 79.49c1.815-.329 3.223-.013 4.181.968.979 1.002 1.47 2.358 1.47 4.055 0 1.427-.346 2.698-1.045 3.812-.465.743-1.15 1.377-2.03 1.903 1.35.213 2.359.79 2.992 1.726.634.933.95 2.177.95 3.712 0 1.255-.23 2.404-.682 3.455-.455 1.05-1.065 1.905-1.857 2.572-.49.415-1.23.76-2.217 1.05-1.324.384-2.191.6-2.617.655-3.353.42-6.709.884-10.06 1.375V81.647zm5.877 7.99c.842-.14 1.682-.278 2.537-.413.91-.145 1.541-.442 1.899-.897.362-.45.532-1.055.532-1.796 0-.692-.172-1.206-.532-1.534-.362-.333-.975-.421-1.859-.274-.87.15-1.72.295-2.577.45v4.463zm0 9.233c.988-.137 1.977-.276 2.98-.413 1.001-.136 1.713-.452 2.123-.96.407-.5.613-1.136.613-1.898 0-.706-.202-1.238-.613-1.613-.402-.362-1.122-.472-2.137-.32-.989.143-1.978.29-2.966.438v4.766zm25.768-1.718c-2.215.19-4.434.392-6.638.592-.31 1.379-.615 2.75-.922 4.126-1.991.181-3.98.39-5.958.598 1.177-4.166 2.366-8.347 3.539-12.553a5520.78 5520.78 0 0 1 3.554-12.676c2.111-.26 4.235-.524 6.36-.785 1.174 4.012 2.366 8.048 3.538 12.102 1.177 4.066 2.367 8.143 3.554 12.23-2.03.13-4.061.265-6.09.395-.32-1.347-.628-2.688-.937-4.03zm-1.215-5.254c-.362-1.445-.707-2.89-1.057-4.333l-1.04-4.318c-.35 1.516-.71 3.032-1.044 4.541-.33 1.508-.695 3.021-1.027 4.524 1.389-.139 2.778-.273 4.168-.414zm10.191 8.78v-25.1c3.234-.214 6.465-.45 9.713-.612 1.802-.093 3.19.09 4.141.473.945.383 1.716 1.12 2.299 2.23.577 1.107.88 2.467.88 4.088 0 1.41-.223 2.634-.667 3.665-.45 1.04-1.064 1.889-1.847 2.543-.5.423-1.185.777-2.042 1.057.695.293 1.188.596 1.51.897.212.198.53.638.937 1.3.41.679.675 1.192.812 1.557.93 2.45 1.884 4.894 2.834 7.345-2.204.012-4.41.057-6.6.113a3074.433 3074.433 0 0 1-3.114-7.658c-.395-.986-.74-1.626-1.054-1.912a1.894 1.894 0 0 0-1.43-.51c-.172.01-.345.013-.52.026v10.238c-1.95.09-3.9.176-5.852.26zm5.852-15.269c.815-.044 1.63-.088 2.457-.13.267-.01.785-.154 1.552-.4.383-.124.705-.396.947-.832.238-.431.36-.924.36-1.48 0-.814-.187-1.433-.573-1.86-.391-.428-1.111-.626-2.176-.573-.855.042-1.712.095-2.567.15v5.125zm26.397-10.652c1.937.05 3.874.145 5.823.24v15.132c0 1.499-.17 2.907-.522 4.231-.343 1.312-.89 2.466-1.627 3.438-.745.977-1.522 1.65-2.339 2.036-1.135.53-2.499.787-4.088.766-.908-.008-1.91-.11-3.004-.297-1.082-.187-1.988-.545-2.714-1.058-.728-.518-1.398-1.243-2.002-2.184-.61-.947-1.025-1.92-1.242-2.924-.356-1.62-.547-3.052-.547-4.3V74.661c1.936-.014 3.873-.027 5.823-.036V90.18c0 1.394.282 2.484.854 3.27.577.789 1.365 1.193 2.377 1.21 1.002.019 1.794-.358 2.366-1.12.563-.754.843-1.844.843-3.255V74.757zm9.671.432a529.4 529.4 0 0 1 15.627 1.404V81.9a491.755 491.755 0 0 0-9.779-.895v4.002c3.021.223 6.04.5 9.071.78v5.075c-3.031-.253-6.05-.506-9.07-.716v4.958c3.355.22 6.706.48 10.072.747v5.631a814.179 814.179 0 0 0-15.921-.968V75.189zm19.128 26.57V77.027c3.234.428 6.478.893 9.726 1.413 1.802.29 3.181.703 4.128 1.267.95.565 1.72 1.436 2.31 2.602.587 1.162.87 2.5.87 4.015 0 1.324-.23 2.423-.668 3.314-.442.894-1.057 1.572-1.846 2.056-.495.303-1.173.522-2.042.649.694.391 1.2.76 1.522 1.105.212.23.528.688.936 1.396.405.7.674 1.238.813 1.604a767.795 767.795 0 0 0 2.821 7.271c-2.204-.265-4.398-.533-6.587-.787-1.042-2.57-2.093-5.158-3.127-7.758-.393-.998-.734-1.676-1.054-2.009-.413-.425-.895-.671-1.43-.738a34.082 34.082 0 0 0-.507-.066V102.293c-1.962-.192-3.914-.36-5.865-.535zm5.863-14.018c.817.116 1.63.227 2.46.339.265.038.772-.007 1.536-.112.385-.057.701-.26.947-.631.247-.373.373-.821.373-1.352 0-.779-.2-1.404-.587-1.884-.388-.476-1.11-.792-2.162-.947-.857-.127-1.712-.257-2.566-.386v4.973zm14.802-7.337c1.937.394 3.888.82 5.838 1.236v23.155c-1.95-.276-3.901-.548-5.838-.81V80.403"/><path fill="#003568" d="M5.687 75.913c8.507-2.934 19.662-5.273 32.36-6.882 3.997-.505 8.144-.937 12.409-1.292v1.802c-4.192.349-8.263.774-12.183 1.269-12.563 1.59-23.595 3.903-32.001 6.806l-.585-1.703zm104.175-8.073c4.177.362 8.235.802 12.147 1.31 12.913 1.68 24.18 4.126 32.635 7.191l-.61 1.684c-8.333-3.019-19.47-5.436-32.257-7.099a287.69 287.69 0 0 0-11.915-1.286v-1.8M63.444 67.964c-.366.166-.853.337-1.461.514-.61.177-1.221.28-1.832.313-1.418.074-2.549-.252-3.393-.985-.844-.728-1.301-1.77-1.37-3.13-.072-1.3.277-2.364 1.05-3.2.766-.838 1.876-1.293 3.326-1.367a7.89 7.89 0 0 1 1.575.066c.503.071 1.065.24 1.69.503l.103 1.956-.24.012-.475-.31a5.388 5.388 0 0 0-.605-.334 3.682 3.682 0 0 0-.776-.27 3.341 3.341 0 0 0-.929-.082 2.99 2.99 0 0 0-1.025.226 2.39 2.39 0 0 0-.808.558c-.224.235-.396.53-.514.884a3.297 3.297 0 0 0-.141 1.204c.046.924.33 1.617.844 2.082.516.463 1.25.667 2.208.619.083-.002.173-.01.272-.021.099-.006.19-.02.27-.03l-.085-1.635-1.665.088-.082-1.577 3.85-.202.213 4.118M69.453 62.418c-.004-.21-.05-.39-.143-.536-.086-.148-.236-.266-.446-.348a1.675 1.675 0 0 0-.514-.099c-.192-.008-.417-.01-.678-.008l-.779.015.038 2.248.665-.01c.341-.009.632-.03.86-.066.23-.04.427-.118.58-.24.148-.118.257-.25.322-.391.066-.14.097-.329.095-.565zm3.457 5.735-2.628.044-2.332-3.02-.992.016.055 3.063-2.145.036-.143-8.35 3.61-.062c.495-.009.92.012 1.276.063a2.68 2.68 0 0 1 1.002.345c.318.181.57.421.764.712.19.294.289.667.297 1.115.008.617-.124 1.123-.406 1.514-.276.396-.68.726-1.204.992l2.846 3.532M79.359 68.083h-6.042v-8.354h6.042v1.615h-3.901v1.442h3.618v1.617h-3.618v2.065h3.9v1.615zm-.516-9.293H77.36l-1.04-1.227-1.032 1.227h-1.457l1.802-2.204h1.407l1.802 2.204M89.372 68.255l-2.143-.038.097-5.591-1.613 3.6-1.484-.028-1.484-3.652-.1 5.589-2.029-.034.146-8.349 2.5.042 1.807 4.223 1.945-4.155 2.501.04-.143 8.353M95.365 68.508l-4.888-.168.05-1.482 1.366.046.19-5.385-1.369-.048.053-1.482 4.89.17-.052 1.482-1.367-.05-.191 5.387 1.37.05-.052 1.48M104.915 64.741c-.072 1.329-.508 2.364-1.312 3.107-.802.744-1.876 1.08-3.22 1.009-1.342-.072-2.371-.518-3.096-1.34-.717-.824-1.044-1.898-.974-3.228.07-1.34.507-2.384 1.31-3.12.801-.74 1.875-1.074 3.216-1.002 1.337.071 2.368.515 3.092 1.332.725.821 1.053 1.899.984 3.242zm-2.962 1.962c.219-.244.391-.537.51-.876a4.37 4.37 0 0 0 .214-1.21c.027-.503-.007-.928-.108-1.286-.096-.358-.231-.65-.406-.874a1.73 1.73 0 0 0-.631-.524 2.092 2.092 0 0 0-1.55-.086 1.801 1.801 0 0 0-.688.446c-.198.2-.367.48-.5.842-.14.362-.218.785-.246 1.271-.025.497.009.923.106 1.276.094.356.23.649.406.88.177.228.383.402.627.522a2.039 2.039 0 0 0 1.583.078 1.77 1.77 0 0 0 .683-.459"/></svg>