<svg xmlns="http://www.w3.org/2000/svg" xml:space="preserve" id="Layer_1" x="0" y="0" style="enable-background:new 0 0 600 600" version="1.1" viewBox="0 0 600 600"><style>.st0,.st1{fill-rule:evenodd;clip-rule:evenodd}.st1{fill:#fff}</style><path d="M179.3 46.9C146.1 64 114.8 80.1 73.1 80.3l-21.6.1-1.4 21.6c-9.3 148.4 5.3 359.9 239.3 482.6l10.7 5.6 10.7-5.6c234-122.7 248.6-334.2 239.3-482.6l-1.4-21.6-21.6-.1c-41.7-.1-73-16.3-106.2-33.3-35.1-18.2-71.6-37-120.7-37-49.1 0-85.6 18.8-120.9 36.9" class="st0"/><path d="M300.2 564C102.5 460.3 61.4 290.9 73.2 103.3c93.3-.3 138.8-70.2 227-70.2 88.2 0 133.7 69.9 227 70.2 11.8 187.6-29.3 357-227 460.7" class="st1"/><path d="M203.9 94.8c32.3-16.6 60.2-30.9 96.2-30.9 36.1 0 64 14.3 96.2 30.9 28.9 14.9 61.1 31.2 101.3 37 .3 9.1.5 18 .5 26.8 0 177.8-62.5 293.7-198 370.2-135.5-76.5-198-192.4-198-370.2 0-8.8.2-17.7.5-26.8 40.2-5.8 72.4-22.1 101.3-37" class="st0"/><path d="m300.2 121.6 34.5 106.3h111.8l-90.4 65.7L390.6 400l-90.4-65.8-90.5 65.8 34.6-106.4-90.5-65.7h111.8z" class="st1"/></svg>