<?xml version="1.0" encoding="UTF-8"?>
<svg id="Layer_1" data-name="Layer 1" xmlns="http://www.w3.org/2000/svg" viewBox="0 0 606.28 500">
  <defs>
    <style>
      .cls-1 {
        fill: #005c24;
      }

      .cls-1, .cls-2, .cls-3, .cls-4, .cls-5, .cls-6, .cls-7 {
        fill-rule: evenodd;
      }

      .cls-2 {
        fill: #fff;
      }

      .cls-3 {
        fill: #ffed00;
      }

      .cls-4 {
        fill: #b1b3b4;
      }

      .cls-5 {
        fill: #fde836;
      }

      .cls-6 {
        fill: #d9dadb;
      }
    </style>
  </defs>
  <path class="cls-1" d="m202.6,409.61c-11.29-2.49-22.38-4.98-33.48-8.23l-19.9,5.74c17.79,3.63,35.39,6.5,53.38,8.99,3.06.38,6.31.77,9.37,1.15,14.73,1.72,29.27,2.87,44,3.83-17.22-4.4-34.63-7.65-52.04-11.29-.38,0-.95-.19-1.34-.19h0Zm254.45-2.49l-20.47-5.93c-11.1,3.44-22.39,5.93-33.67,8.23-2.11.57-4.02.96-6.12,1.34-16.07,3.25-31.95,6.32-47.83,10.52,7.65-.57,15.31-.96,22.77-1.72,10.52-.96,20.85-2.11,31.19-3.45,11.86-1.53,23.53-3.25,35.39-5.36l18.75-3.63h0ZM402.91,19.71c4.97-.57,9.76-1.34,14.73-2.49,7.85-1.91,15.12-4.02,22.77-6.89,7.65-3.06,15.12-6.7,22.77-10.33l56.82,55.67c-2.87,5.74-5.74,11.29-8.61,17.03-8.23,17.98-13.77,36.35-17.41,55.87-2.87,18.17-4.97,36.54-3.44,54.72.38,4.78,1.15,9.37,1.91,14.16,4.78,22.77,13.77,44.19,18.37,66.96,2.3,12.63,3.06,25.06,2.49,38.07-.57,6.69-1.34,13.01-2.49,19.7-1.91,8.03-4.21,15.31-7.27,22.96-2.11,4.59-4.21,8.61-6.7,12.82-3.82,5.93-7.84,10.91-12.43,15.69,12.43-1.53,25.06-2.29,37.88-1.91,11.67.38,22.96,1.91,34.44,4.4,14.54,3.64,28.89,8.42,43.24,12.82l-41.13,22,47.45,40.94-57.2-11.67c-17.03-3.25-33.86-4.02-51.08-.96v33.29l-29.84,8.8c-14.35,3.63-28.7,6.69-43.43,9.18-7.27,1.15-14.54,2.29-21.81,3.25-8.42,1.15-16.84,2.11-25.44,2.87-16.26,1.53-32.71,2.49-49.17,3.06-16.84.38-33.48.38-50.12,0-16.65-.58-33.1-1.72-49.55-3.06-8.61-.96-17.41-1.91-26.02-3.06-7.08-.96-13.97-1.91-21.05-3.06-14.73-2.49-29.08-5.55-43.62-9.18l-29.65-8.8v-33.29c-17.79-3.06-35.2-2.11-52.8,1.34L0,451.88l47.45-40.94-41.13-22c16.64-4.98,33.1-10.72,50.12-14.16,13.97-2.68,27.55-3.44,41.71-3.06,7.46.38,14.92.95,22.38,1.72-4.4-4.78-8.42-9.76-12.05-15.5l-6.89-12.82c-3.06-7.65-5.36-14.92-7.27-22.96l-1.53-9.76c-1.91-17.6-1.15-34.44,2.3-51.85,4.59-20.28,12.24-39.6,16.84-59.88,1.91-9.57,3.06-18.75,3.25-28.51,0-14.54-1.72-29.27-4.02-43.62-3.25-17.6-8.04-34.25-15.11-50.7-3.45-7.65-7.08-14.92-10.9-22.19L141.96,0c7.65,3.63,15.11,7.27,22.77,10.33,10.52,3.83,20.85,6.69,31.76,8.61,2.1.38,4.02.57,6.12.96,6.89.77,13.77,1.15,21.04,1.15,6.12-.19,12.05-.57,17.98-1.34,14.35-1.91,27.74-5.36,41.32-10.14,6.7-2.49,13.2-5.16,19.7-7.84l14.92,6.12c15.31,5.55,30.04,9.57,46.11,11.86,8.99,1.15,17.79,1.53,26.97,1.15,4.21-.19,8.23-.57,12.25-1.15h0Z"/>
  <path class="cls-2" d="m214.08,408.26c-14.16-2.87-28.12-5.74-41.71-9.76l-3.25-.96-34.82,10.14,16.07,3.25c15.11,3.06,30.23,5.74,45.34,7.85,6.12.76,12.25,1.72,18.37,2.29.96.19,2.1.19,3.06.38l37.31,3.06,39.22,2.49-39.98-10.14c-3.83-.96-7.65-1.91-11.48-2.68-9.37-2.11-18.75-4.02-28.12-5.93h0Zm220.2-10.14c-13.77,4.02-27.93,7.08-41.9,9.95-1.34.19-2.68.38-3.83.77-13.2,2.68-26.02,5.16-39.03,8.41l-36.92,9.57c19.9-1.15,39.79-2.11,59.5-3.63,6.69-.58,13.39-1.34,20.28-2.11,9.95-1.15,19.9-2.49,29.84-4.02,5.55-.96,11.1-1.72,16.65-2.68l33.48-6.7-35.77-10.14-2.3.57h0ZM392.38,23.92l26.02-3.25c6.89-1.53,13.58-3.64,20.28-5.93,5.93-2.1,11.67-4.78,17.41-7.46,2.11-.96,4.21-1.91,6.31-3.06l53.19,52.23c-1.91,3.83-3.83,7.65-5.74,11.48-4.78,9.57-8.61,19.32-11.86,29.46-3.44,11.1-6.12,22.57-8.03,34.05-1.15,7.46-2.11,14.92-2.87,22.38-.19,3.06-.38,5.93-.57,8.8-.19,7.84-.19,15.88.76,23.91.57,4.59,1.15,9.18,2.11,13.77.96,3.44,1.72,7.08,2.68,10.71,3.06,11.1,6.69,22.19,9.95,33.29,2.29,7.46,4.4,15.31,5.74,22.96.95,6.89,1.72,13.97,1.91,21.05.19,4.59.19,9.38,0,13.97l-2.29,19.13c-1.15,4.78-2.49,9.37-4.02,14.16-1.15,3.25-2.29,6.5-3.82,9.76l-7.08,12.82c-2.87,4.02-5.74,7.65-8.99,11.29l-8.23,8.99,14.35-1.72c12.25-1.15,24.49-1.91,36.73-1.15l4.4.19,27.93,4.59c1.34.38,2.68.76,4.02,1.15l28.12,8.23-38.26,20.47,41.13,35.58-45.53-9.38c-6.5-1.15-13.01-1.91-19.52-2.29-5.55-.38-10.9-.38-16.26,0l-13.2,1.34-4.59.76v33.67l-28.51,8.42c-13.96,3.44-27.93,6.31-41.9,8.8-10.52,1.72-21.23,3.06-31.76,4.4-5.16.57-10.14,1.15-15.31,1.72-16.07,1.34-32.52,2.29-48.98,2.87-16.65.38-33.29.38-49.93,0-16.45-.58-32.71-1.53-49.17-2.87-4.97-.58-9.95-1.15-14.92-1.72-10.71-1.34-21.43-2.68-31.95-4.4-14.54-2.68-28.89-5.55-43.24-9.18l-27.17-8.04v-33.67l-6.31-.95c-6.12-.96-12.43-1.34-18.75-1.53l-16.83.96-15.11,2.3-42.09,8.8,41.13-35.58-38.26-20.47c12.24-3.83,24.49-7.65,36.92-10.52,2.87-.57,5.55-1.15,8.42-1.53,8.42-1.34,17.03-2.11,25.44-2.3,2.68-.19,5.17-.19,7.84-.19,8.23.19,16.45.76,24.68,1.72l10.9,1.34c-3.83-4.21-7.65-8.23-11.29-12.43-2.49-3.06-4.78-6.31-6.89-9.57l-6.69-12.43c-1.92-4.97-3.64-10.14-5.17-15.31-.57-2.3-1.34-4.59-1.72-7.08l-1.72-9.57c-.57-5.74-.77-11.48-.96-17.41,0-5.16.38-10.52.77-15.69.57-6.5,1.53-12.82,2.87-19.13,2.87-11.29,6.31-22.38,9.76-33.48,2.1-6.89,4.21-13.77,5.93-20.85l.76-3.83,3.06-20.09.38-10.71-2.11-28.89c-.96-6.89-1.91-13.58-3.44-20.47-1.53-7.65-3.44-15.11-5.74-22.76-2.49-8.04-5.36-15.88-8.8-23.53-2.87-6.31-6.12-12.43-9.18-18.56L142.72,4.21c5.93,2.87,11.86,5.74,17.79,8.23,5.55,2.3,11.29,4.21,17.03,5.93,7.27,1.91,14.54,3.63,21.81,4.59,2.87.38,5.74.76,8.61.96,2.1.19,4.02.38,6.12.38,3.83.19,7.84.38,11.86.19,5.36-.19,10.9-.57,16.26-1.15,8.03-1.15,16.07-2.87,23.92-4.78,6.12-1.72,12.24-3.64,18.18-5.55,6.12-2.49,12.24-4.98,18.36-7.46,5.55,2.3,11.1,4.59,16.65,6.7,6.69,2.3,13.39,4.4,20.09,6.32,6.89,1.72,13.77,3.25,20.66,4.21,8.99,1.34,18.18,1.91,27.17,1.72l5.16-.57h0Z"/>
  <path class="cls-5" d="m302.66,422.61c-39.41-19.7-90.11-22.57-134.11-36.35-50.51-15.69-67.92-61.6-61.22-112.49,4.78-36.73,25.44-65.43,21.81-114.98-3.25-41.71-11.67-71.55-26.59-100.25l42.28-41.32c52.61,25.64,105.22,22.57,157.83,0,52.61,22.57,105.03,25.64,157.64,0l42.28,41.32c-14.92,28.7-23.34,58.54-26.59,100.25-3.63,49.55,17.03,78.25,21.81,114.98,6.89,50.89-10.71,96.81-61.22,112.49-44.01,13.78-94.51,16.65-133.92,36.35h0Z"/>
  <path class="cls-7" d="m220.78,127.61c-.38-1.15-.57-2.3-.38-3.45,0-.96,0-2.1.38-3.25.19-.96.57-2.1,1.15-3.06.96-2.1,2.49-3.83,4.59-5.17,2.1-1.34,4.97-2.1,8.42-1.53.19-.76.57-1.53.96-2.11,1.34-2.3,3.45-3.63,5.55-3.63s4.02,1.34,5.36,3.25c.57-.76,1.15-1.34,1.72-1.72.96-.77,2.1-1.15,3.25-1.15,2.11,0,4.02,1.34,5.36,3.63,1.34,1.91,2.1,4.78,2.1,7.84,0,2.68-.57,5.17-1.53,7.08,1.91.38,3.83.76,5.74.57,4.02-.38,7.46-.77,10.14-.57,2.3.19,4.02.76,4.97,1.53,1.72-1.15,3.63-2.1,5.55-2.49,2.11-.38,4.02-.19,6.12.96,2.11-2.1,5.74-5.93,10.71-4.78,4.21,1.15,6.7,3.63,7.84,6.5.96,1.91.96,4.21.58,6.5-.38,2.11-1.34,4.4-2.49,6.32-2.68,4.21-6.89,7.27-11.67,7.84,0,.19-.19.57-.19.77-1.34,3.06-3.83,4.78-7.27,5.55-3.25.57-7.46.19-12.24-.96-3.06-.76-6.31-1.91-9.95-3.25-1.34.57-3.06,1.15-4.59,1.53-1.34.38-2.68.57-3.83.76,2.1,2.49,3.83,4.97,5.16,7.46,2.1-.19,4.21-.19,6.12.38,1.53.19,3.06.96,4.02,1.72,1.15.96,2.1,2.3,2.3,3.83.19.77.19,1.72,0,2.68,2.3.96,3.83,2.49,5.36,3.83.57.57,1.15.96,1.72,1.34,4.78,1.15,10.9,1.53,16.65.76,4.97-.57,9.76-2.1,13.2-4.59l1.15-.96.19,1.53c0,1.72.19,3.25.19,4.98h1.34c12.05-.96,25.44-1.91,35.97-12.82,2.1-2.1,3.25-5.16,4.21-8.23.96-3.06,1.91-5.93,3.63-8.23,1.91-2.3,3.63-3.45,5.16-3.83.96-.19,1.91,0,2.68.38s1.34,1.15,1.91,1.91c.76,1.72.96,4.02.38,6.31-.76,3.83-3.06,6.89-5.17,9.95-.76,1.15-1.53,2.1-2.1,3.06,1.15,0,2.68,0,3.83.38,2.1.38,3.82,1.34,4.21,3.63.38,1.34-.19,2.49-.96,3.83.19.19.38.38.57.77,1.34,1.91,1.91,4.4,1.91,6.89-.19,2.49-1.15,4.78-2.68,6.12-.19.19-.38.38-.76.57-2.11,1.53-4.4,2.1-6.5,1.91-1.15,0-2.49-.19-3.44-.57s-1.72-.96-2.3-1.72c0-.19-.19-.38-.19-.57-3.83.57-6.12-.96-8.04-2.49-6.31,3.83-12.24,6.5-18.18,7.84-5.74,1.53-11.29,1.91-16.83,1.34-.19.57-.19.96-.38,1.34-1.53,6.5-4.4,12.24-8.23,17.03,7.27,15.31,12.44,30.23,14.35,44.96,2.11,14.92.96,29.65-4.78,44.19l-.38.96-.96-.76c-.57-.57-1.34-.96-1.91-1.53-.57,2.11-1.34,4.4-2.1,6.5.76.57,1.34,1.15,1.72,1.91,5.55,6.89,4.02,13.58,0,19.32-2.87,4.21-7.08,8.03-11.1,11.1,4.21,6.31,6.5,13.77,6.5,21.81v.19c6.5,2.3,11.48,5.16,15.12,8.42,4.59,4.02,7.08,8.8,7.65,13.39v.57l-.38.19c-1.91,1.53-4.02,2.68-6.12,3.63l.38,4.4v.77l-.58.19c-1.53.38-3.06.76-4.59.96-1.34.38-2.87.57-4.21.57l-.76.19v-.76l-.38-3.44c-.57.19-1.15.19-1.53.19-5.55.76-10.9.38-16.64-.76-6.12,6.12-14.16,10.14-22.96,11.29h-.96q-.19.19-.38.19h-1.34c-.76,0-1.72.19-2.49.19-22.19,0-40.17-18.18-40.17-40.18,0-6.31,1.34-12.25,3.83-17.41,0,0,.19,0,.19-.19h0s0-.19.19-.38h0s0-.19.19-.38c1.15-2.29,2.49-4.4,4.02-6.5-.96-.57-1.91-1.15-2.68-1.91-.76-.76-1.53-1.72-2.1-2.68h-.38l-.19-.19h-.19c-2.1.38-4.21.95-6.31,1.34-9.37,1.72-19.51,3.06-29.08,1.72-12.24-1.91-23.72-7.65-32.14-21.81-4.78-7.65-6.31-16.65-5.74-25.44.57-10.33,4.02-20.66,8.8-29.65,5.16-9.57,9.95-25.44-.57-30.99-.38-.19-.96-.38-1.34-.77-12.43-4.97-20.85,7.46-25.83,14.73-.57.77-1.15,1.34-1.53,1.91-1.72,2.49-4.02,3.25-5.93,2.87-.96,0-1.72-.38-2.49-.96-.77-.57-1.34-1.15-1.92-1.92-.96-2.1-1.15-4.97.77-8.03,3.25-4.78,7.08-9.95,11.48-14.35,4.4-4.4,9.57-7.84,15.31-9.18,8.23-1.72,15.11-1.15,21.05,1.34,6.5,2.87,11.48,7.84,14.54,14.16,7.27,13.97,7.85,25.64,8.42,35.97.19,5.74.38,10.9,1.72,16.07.38-5.36,1.53-11.29,3.25-17.22h-.76l.38-.96c5.16-15.11,12.05-24.49,18.37-32.91.38-.57.76-1.34,1.34-1.91-7.46-2.49-13.39-6.7-18.37-11.67-5.17-5.17-9.37-11.48-13.39-18.18-1.72-2.87-1.53-6.7-.19-10.52,1.34-4.4,4.02-8.8,6.31-11.1-.57-.96-1.15-1.91-1.72-3.06l-.76-1.34,1.53.19c9.37,1.53,18.75,2.49,28.51,3.06,3.06.19,6.12.38,9.18.38q0-.19-.19-.38c0-.96.19-1.91.57-3.06.57-1.34,1.53-2.68,3.06-3.83-.77-4.78-4.78-8.61-10.33-13.58-.77-.76-1.53-1.53-2.3-2.3-.96-.76-1.91-1.72-2.87-2.68-1.34-1.34-1.91-3.25-2.11-5.55,0-.96.19-2.1.57-3.25.38-1.15.96-2.1,1.72-2.87.77-.76,1.53-1.34,2.68-1.72.38-.19.77-.38,1.15-.38-.57-.77-.96-1.72-1.15-2.49h0Zm0,81.88c.57.57,1.15.76,1.72,1.15.76.19,1.53.38,2.1.19.57-.19,1.15-.38,1.53-.77.57-.57.96-1.34,1.34-2.3.76-2.1,1.53-3.83,2.49-5.55.38-1.34.77-2.68,1.15-4.21-3.63.19-6.89.19-10.14.38h-.19c-3.25.19-6.7.57-10.33.76,1.72,1.53,3.45,3.45,5.17,5.36.96.96,1.91,2.11,2.68,2.87.95.96,1.72,1.53,2.48,2.11h0Zm10.14-106.37c.57-3.25,2.87-5.74,5.36-6.7,2.49-.76,5.36.19,6.7,3.63l-.57.38-.38.38c-1.91-1.91-3.83-2.1-5.55-1.53-1.72.76-3.25,2.49-4.21,4.4l-.57-.19-.76-.38h0Zm15.5-3.63c1.91-2.11,4.21-2.87,6.12-2.49,1.92.38,3.45,2.1,3.83,5.17l-.57.38-.76.19c-.76-2.1-1.72-3.25-3.25-3.44-1.34-.19-2.87.19-4.78,1.34l-.38-.57-.19-.57h0Z"/>
  <path class="cls-2" d="m255.79,110.77c-.96-1.72-2.3-2.68-3.83-2.68-.76,0-1.53.19-2.3.76-.57.38-1.15,1.15-1.72,1.91.38.96.76,1.91.96,2.87.38,1.15.38,2.49.38,3.83s0,2.68-.38,3.83c-.19,1.15-.57,2.11-1.15,3.06.57.76,1.15,1.53,1.91,2.1.38.38.96.57,1.34.57-.96-.57-1.72-2.3-1.72-4.4,0-2.49,1.34-4.78,2.87-4.78,1.72,0,3.06,2.3,3.06,4.78,0,1.53-.38,3.06-1.15,3.83.57-.38,1.34-1.15,1.72-1.91,1.15-1.72,1.91-4.21,1.91-6.89,0-2.68-.76-5.17-1.91-6.89h0Z"/>
  <path class="cls-2" d="m245.65,110.2c-1.15-1.72-2.49-2.68-4.02-2.68s-3.06.96-4.21,2.68c-.96,1.91-1.72,4.4-1.72,7.08,0,2.87.77,5.36,1.72,7.08.96,1.34,2.1,2.3,3.25,2.68-1.15-.77-1.91-2.49-1.91-4.59,0-2.87,1.34-4.97,3.06-4.97,1.91,0,3.25,2.11,3.25,4.97,0,1.53-.57,3.06-1.34,4.02.76-.57,1.34-1.15,1.91-2.1,1.15-1.72,1.91-4.21,1.91-7.08,0-2.68-.77-5.17-1.91-7.08h0Z"/>
  <path class="cls-1" d="m307.44,126.65c-.96-2.49-3.25-4.59-6.89-5.55-2.49-.57-4.59.38-6.31,1.72-.57.38-.96.76-1.53,1.15-.57.57-.96,1.15-1.53,1.53,0,.19-.19.38-.38.38l-.38.57c-1.15.96-1.91,2.3-3.06,3.83l-1.15-.96c.96-1.53,1.72-2.68,2.68-3.83-1.53-.57-2.87-.76-4.4-.57-1.91.38-3.63,1.34-5.55,2.68-.19.19-.38.38-.57.57-1.34.96-2.3,2.29-3.25,4.02l-1.34-.57c.96-1.91,2.1-3.44,3.44-4.59-.57-.57-1.91-.96-3.83-.96-2.49-.19-5.74,0-9.76.38-2.3.38-4.59-.19-6.89-.57-1.34,1.72-3.06,2.87-4.97,2.87-1.15,0-2.3-.38-3.44-1.15-.57-.38-1.15-1.15-1.72-1.91-1.34,1.91-3.25,3.06-5.17,3.06-2.1,0-4.21-1.34-5.55-3.63-1.34-2.1-2.1-4.97-2.1-8.03,0-1.53.19-3.06.57-4.4-2.87-.38-5.17.19-7.08,1.34-1.72,1.15-3.06,2.68-4.02,4.59-.76,1.72-1.34,3.64-1.34,5.55,0,3.25,1.34,4.78,3.06,7.08-2.1.38-4.21.38-5.74,1.91-.77.77-1.15,1.53-1.34,2.49-.38.76-.57,1.72-.38,2.68,0,1.72.57,3.44,1.53,4.4,1.72,1.72,3.45,3.44,5.17,4.78,5.93,5.55,10.14,9.57,10.71,15.11,12.05,3.06,20.47,8.61,26.59,15.88,1.92-4.4,2.3-8.99,1.34-13.58-1.15-4.59-3.63-9.18-7.65-13.39-4.02.19-8.23-.57-12.24-2.3l.76-1.53c3.44,1.53,6.89,2.3,10.33,2.3l1.34-.19c1.34-.19,3.25-.57,5.17-.96,1.53-.38,3.25-.96,4.78-1.72h.57c3.45,1.53,6.89,2.68,9.95,3.44,4.59,1.15,8.42,1.53,11.67.77,2.87-.38,4.78-1.92,5.93-4.21-3.63.57-7.46.57-11.29.19-6.5-.57-13.39-2.49-20.47-5.74-4.4.96-8.42,1.53-12.24,1.53-3.83-.19-7.46-1.15-11.1-2.87-1.15,1.72-2.68,3.25-4.59,4.59l-.96-1.34c1.91-1.34,3.25-2.87,4.4-4.4,1.15-1.72,1.91-3.44,2.49-5.55l1.53.38c-.38,1.72-1.15,3.44-1.91,4.97,3.25,1.72,6.7,2.49,10.14,2.49,3.83.19,7.84-.38,12.05-1.34l.38-.19.19.19c7.08,3.06,13.77,5.17,20.28,5.74,4.02.38,7.84.19,11.67-.38v-.38h1.34c1.15-.19,2.3-.57,3.45-.96,2.68-1.15,4.97-3.44,6.7-5.93,1.15-1.91,1.91-3.83,2.3-5.93.38-1.92.19-3.83-.38-5.55h0Z"/>
  <path class="cls-2" d="m233.98,163.96c-.96.96-1.72,1.92-2.11,3.06-.38.76-.57,1.34-.38,2.1,0,.57.19,1.34.76,1.91.38.57,1.15.96,2.11,1.34,4.78,2.11,9.18,4.02,13.39,6.31,4.02,1.91,7.65,4.21,11.29,6.31.96-1.15,2.11-2.29,3.25-3.44-7.65-8.23-16.84-14.16-28.31-17.6h0Zm29.65,16.65c.19-.19.19-.38.38-.57,4.02-3.64,8.04-7.27,8.99-12.25.38-1.15.38-2.1.19-2.87-.19-1.34-.76-2.3-1.72-2.87-.96-.77-2.1-1.34-3.45-1.53-1.53-.38-3.25-.38-4.97-.38.57,1.53.96,3.06,1.34,4.4,1.15,5.17.57,10.33-1.72,15.11l.96.96h0Z"/>
  <path class="cls-1" d="m194.18,171.8c-2.11,2.3-4.59,6.12-5.93,10.33-.96,3.25-1.15,6.7.19,9.18,4.02,6.5,8.03,12.82,13.2,17.79,5.17,5.17,11.29,9.38,18.94,11.86,3.83,1.15,8.23-.19,12.63-1.53.96-.19,1.72-.38,2.68-.77,1.72-.38,3.25-.76,4.97-.96,2.11-.38,4.21-.77,5.93-1.53,1.72-.57,3.63-1.91,4.97-3.45.76-1.15,1.34-2.3.96-3.44-.38-1.34-1.72-1.53-3.06-1.34-2.11.19-4.21.57-5.93,1.53l-.57-1.15c.76-.38,1.72-.76,2.68-1.15,3.25-1.34,7.27-3.06,7.08-5.36-.38-2.49-2.29-2.87-4.4-2.49-2.3.19-4.4,1.34-6.7,1.72l-.38-1.15c.76-.19,1.53-.77,2.49-1.15.96-.38,2.11-.96,2.87-1.72.96-.57,1.53-1.34,2.11-1.91.38-.76.57-1.34.38-1.91,0-.19-.19-.57-.38-.76-.77-1.15-2.11-1.53-3.83-1.34h0c-1.72.19-3.83,1.15-5.74,2.68-3.25,2.49-5.17,4.59-6.7,6.89-.19,0-.19.19-.19.38h-.19v.19c-.38.57-.76,1.34-1.15,2.11h.19l-.19.19h-.19c-.57,1.53-1.15,3.06-1.91,4.78-.38,1.15-.96,2.1-1.72,2.87-.57.57-1.53.96-2.3,1.15-.96.19-1.91,0-3.06-.38-1.34-.57-2.87-1.53-4.78-3.44-.96-.96-1.72-1.91-2.68-2.87-1.91-2.11-3.63-4.21-5.55-5.74l-.38-.19v-.38h-.19v-.77c0-10.52-4.4-15.49-9.18-20.66-1.72-1.91-3.44-3.82-4.97-6.12h0Z"/>
  <path class="cls-1" d="m125.12,231.87c-1.53,2.49-1.53,4.59-.57,6.31.38.57.76.96,1.34,1.34.38.38,1.15.77,1.72.77,1.53.19,3.06-.38,4.4-2.11.57-.76.96-1.34,1.53-2.1,5.16-7.65,14.16-20.66,27.74-15.11.57.19.96.38,1.53.57,11.48,6.31,6.7,23.15,1.34,33.29-4.78,8.8-8.23,18.94-8.8,28.89-.57,8.61.96,17.22,5.55,24.68,8.03,13.58,19.13,19.32,30.99,20.85,10.9,1.53,22.57-.19,32.91-2.49-13.39-6.7-21.81-16.07-25.83-27.36-2.29-6.12-3.06-12.63-2.87-19.7-.19-.58-.38-.96-.57-1.34-1.91-6.31-2.3-12.63-2.68-19.32-.38-10.33-.96-21.81-8.03-35.39-3.06-5.93-7.65-10.71-13.77-13.39-5.55-2.49-12.24-3.06-20.09-1.34-5.55,1.34-10.33,4.59-14.54,8.8-4.4,4.21-8.03,9.37-11.29,14.16h0Z"/>
  <path class="cls-6" d="m318.54,367.13c-3.45-3.06-8.03-5.74-13.97-7.84-.38,9.76-4.4,18.75-10.71,25.44,5.16.96,10.14,1.15,15.11.57,5.74-.57,11.29-2.49,16.65-6.12-.57-4.21-2.87-8.42-7.08-12.05h0Z"/>
  <path class="cls-2" d="m312.23,386.45l.38,2.68c.96-.19,2.11-.38,3.25-.57,1.15-.19,2.49-.58,3.63-.96l-.19-3.25c-2.3.96-4.59,1.53-7.08,2.11h0Z"/>
  <path class="cls-3" d="m302.47,207.39c3.44-4.4,5.93-9.76,7.46-15.88,1.53-6.12,2.11-13.2,1.53-21.05-3.44,2.3-8.03,3.64-12.82,4.21-5.17.76-10.71.57-15.31-.19,8.8,9.95,13.97,21.24,18.94,32.71l.19.19h0Z"/>
  <path class="cls-3" d="m239.34,176.39c-1.91-.96-3.64-1.72-5.55-2.49-1.34-.38-2.3-1.15-2.87-1.91-.19-.19-.19-.38-.38-.57-12.44-.57-24.87-1.34-36.92-3.25,2.1,3.44,4.4,6.12,6.7,8.61,4.78,5.36,9.38,10.33,9.57,20.85,4.21-.38,7.65-.57,10.9-.77,3.63-.19,7.08-.38,11.1-.57,1.34-2.87,2.68-5.74,3.83-8.61,1.53-3.82,2.68-7.65,3.64-11.29h0Z"/>
  <path class="cls-3" d="m220.39,222.5c-.57.77-1.15,1.53-1.72,2.3-5.93,8.03-12.63,17.03-17.6,31.38,13.01.19,24.87,1.53,36.16,3.82,3.06-13.39,5.36-26.78,6.89-39.98v-1.34c-.96.19-1.91.38-3.06.57-1.53.19-3.06.57-4.78.96-.76.19-1.72.57-2.49.76-4.59,1.53-9.18,2.87-13.39,1.53h0Z"/>
  <path class="cls-3" d="m245.46,179.26c-1.53-.77-3.06-1.53-4.59-2.3-.96,3.83-2.3,7.46-3.63,11.29-1.34,2.87-2.68,5.93-4.02,8.99,1.34-1.53,2.87-3.06,4.97-4.59,2.3-1.72,4.59-2.87,6.89-3.06h.57c0-3.44,0-6.89-.19-10.33h0Z"/>
  <path class="cls-3" d="m245.84,218.29c0,.57-.19,1.15-.19,1.72-1.53,13.58-3.83,26.97-6.89,40.37,3.25.76,6.31,1.34,9.18,2.29,5.16-2.29,10.52-3.25,16.64-1.53,2.68.76,4.4,2.87,5.36,5.74.38,1.15.76,2.68.96,4.02,10.14,4.59,19.9,10.14,29.08,16.65,2.49-21.43,1.72-41.9-2.68-60.84-.57-2.3-1.15-4.59-1.72-6.7-8.04-1.91-16.26-3.25-24.49-4.02-6.5-.57-13.01-.96-19.32-.96-1.34,1.15-2.87,2.11-4.21,2.68-.57.19-1.15.38-1.72.57h0Z"/>
  <path class="cls-1" d="m253.11,213.51c6.12,0,12.05.19,17.98.76,8.03.76,16.07,2.1,24.11,3.83-2.3-7.27-4.98-14.54-8.42-21.62-5.74-.76-12.24-1.15-18.94-1.34-5.55-.19-11.29-.19-17.22,0,0,.19-.19.57-.38.76-.38.57-.96,1.15-1.53,1.72,2.87-.19,5.17.57,5.74,4.02.19,1.91-1.15,3.44-3.06,4.59,1.34.19,2.3.96,2.87,2.49.57,1.72,0,3.25-1.15,4.78h0Z"/>
  <path class="cls-3" d="m272.62,172.95c-1.72,3.06-4.59,5.74-7.46,8.23-1.91,1.72-3.83,3.44-5.36,5.36l-.38.57-.57-.38c-3.83-2.3-7.65-4.59-11.86-6.7.19,3.25.38,6.5.38,9.76,1.15.19,2.1.76,2.87,1.72.38.38.57.96.57,1.34.19.19.19.38.19.57,5.74,0,11.48,0,16.84.19,6.5.19,12.44.57,18.18,1.15-3.64-7.46-8.23-14.73-13.39-21.81h0Z"/>
  <path class="cls-3" d="m278.94,172.18c-1.34-1.34-2.68-2.49-4.4-3.45-.38.96-.57,1.72-.96,2.68,12.44,16.83,20.85,35.2,25.25,54.91,4.59,19.51,5.36,40.37,2.68,62.18,3.44,2.49,6.89,5.16,10.14,7.84,5.36-13.77,6.31-27.93,4.4-42.28-1.53-11.67-5.16-23.53-10.33-35.58-1.72-3.45-3.25-7.08-4.78-10.71-5.74-12.44-11.29-24.87-21.81-35.58t-.19,0h0Z"/>
  <path class="cls-1" d="m247.37,264.78c-4.97,2.49-9.76,6.31-14.54,10.33-.96,5.36-1.53,10.52-.96,14.92.57,4.02,1.91,7.27,4.21,9.95,2.68-1.91,5.74-3.06,9.18-4.21,0,0,.19,0,.38-.19.19,0,.38-.19.57-.19.38-1.72,1.34-3.06,2.49-4.59,1.34-1.53,2.87-3.06,4.78-4.4,0-.96.19-1.91.57-2.87.77-1.91,2.3-3.82,4.21-5.16,1.72-1.53,4.02-2.49,6.5-2.68,1.34-.19,2.68,0,4.21.38.57-2.49.38-5.93-.57-8.61-.77-2.29-2.11-4.21-4.21-4.78-6.31-1.72-11.67-.57-16.84,2.1h0Z"/>
  <path class="cls-3" d="m233.02,309.93c.19,1.15.57,2.11,1.15,3.06.96-.96,2.3-1.91,3.45-2.87,6.69-4.59,15.88-8.42,25.44-11.1,0-.38-.19-.96-.19-1.15-.38-.76-.77-1.34-1.34-1.91-.57-.58-1.34-.96-2.49-1.15-2.3-.57-5.93-.19-11.1,1.72-.77.38-1.53.57-2.3.76-4.78,1.72-8.99,3.25-11.67,7.46-.96,1.72-1.34,3.44-.96,5.16h0Z"/>
  <path class="cls-2" d="m201.07,257.89c-4.21,15.69-4.78,29.46-.57,40.94,4.02,11.48,12.82,20.66,26.78,27.35v-.95c.38-4.21,2.49-7.85,5.74-11.1-.76-1.15-1.34-2.49-1.53-3.83-.38-2.11,0-4.4,1.15-6.5.77-.96,1.53-1.91,2.3-2.68-2.68-3.06-4.02-6.7-4.59-10.9-.57-4.02-.19-8.8.57-13.77-2.49,1.91-5.16,4.4-7.27,7.27l-1.34-.96c2.3-3.44,4.97-6.31,9.18-8.99-3.83-2.11-7.84-1.34-12.63,1.15l-.57-1.15c4.59-3.25,9.76-3.83,14.54-1.15,4.21-3.25,8.23-6.5,13.01-8.99-13.39-3.44-27.93-5.55-43.81-5.93-.39.19-.57.19-.96.19h0Zm105.23,44c.57-1.91,1.34-4.02,1.91-6.31-11.67-9.18-23.91-16.83-37.31-22.96,0,1.53-.19,2.87-.57,4.02.38.19.57.57.77.76.38.57.57,1.15.38,1.72,0,.76,0,1.34-.38,2.11-.38,1.15-1.34,2.49-2.68,3.63.76.19,1.34.57,1.91.96.96.76,1.34,1.72,1.53,2.87,0,.96-.38,2.29-.96,3.44-1.15,1.91-3.25,4.21-6.31,6.31h0c8.03-2.29,18.18-3.63,26.98-2.29,5.55.77,10.71,2.49,14.73,5.74h0Z"/>
  <path class="cls-4" d="m290.03,326.57c1.15-1.34,2.3-3.06,3.06-4.98.96-2.49,1.34-4.97,0-7.08-.19-.38-.38-.57-.76-.96-2.49-2.68-6.31-3.44-10.52-3.44-4.21.19-8.8,1.15-12.63,1.91-6.5,1.53-12.05,4.21-16.84,7.08,3.83-1.15,7.84-1.72,12.05-1.72,9.76,0,18.56,3.44,25.64,9.18h0Z"/>
  <path class="cls-6" d="m231.11,329.64c.76.76,1.72,1.34,2.68,1.91,1.72-2.3,4.02-4.21,6.31-5.93h-.19l1.34-.96c.38-.38.77-.57,1.15-.76.57-.38,1.15-.76,1.53-1.15,6.31-4.21,14.35-9.95,24.87-12.24,4.02-.77,8.61-1.91,13.01-1.91,4.59-.19,8.8.76,11.67,3.82.38.38.77.77.96,1.15,1.72,2.68,1.34,5.74.19,8.8-.96,1.91-2.1,3.63-3.44,5.36,2.29,1.91,4.21,4.21,5.93,6.7,4.02-3.06,8.03-6.7,10.9-10.72,3.63-5.36,4.78-11.48,0-17.6-3.83-4.97-9.95-7.46-16.64-8.41-8.61-1.34-18.56,0-26.4,2.29-9.76,2.87-19.51,6.7-26.4,11.48-5.55,4.02-9.18,8.42-9.57,13.77-.19,1.53.77,3.06,2.11,4.4h0Z"/>
  <path class="cls-1" d="m141.38,53.57l1.53.38c.96.19,1.53.38,2.1.38.96,0,1.53,0,2.1-.19.77-.19,1.15-.96,1.53-1.91.19-1.15,0-1.91-.57-2.49-.57-.38-1.53-.96-3.06-1.34-.19,0-.38,0-.76-.19l-1.53-.19-1.34,5.55h0Zm275.11,21.62l.19-.19c.58-.96,1.53-1.53,2.68-1.72,1.15-.19,2.11.19,2.87.77.96.57,1.53,1.53,1.72,2.68.19.96-.19,2.1-.77,2.87-.57.96-1.53,1.53-2.68,1.72-.96.19-2.1-.19-2.87-.76-.38-.38-.76-.76-1.15-1.15-.19-.38-.38-.96-.38-1.53-.19-.96,0-1.91.38-2.68h0Zm0-9.57l.57,4.21h-.57l-8.8,1.34,1.72,11.29-7.65.96-4.02-28.7,17.6-2.49.76,6.32-9.95,1.53.76,4.97,9.38-1.34.19,1.91h0Zm40.37-20.85l1.91,8.42c-1.34-.96-2.68-1.53-3.83-1.92-1.15-.38-2.29-.38-3.44,0-2.29.38-4.02,1.53-4.97,3.25-1.15,1.91-1.34,4.02-.77,6.5.38,2.3,1.53,4.02,3.25,5.16,1.72,1.15,3.63,1.53,5.74,1.15,1.34-.38,2.29-.76,3.25-1.53.96-.76,1.91-1.91,2.68-3.25l1.72,8.42c-1.15.76-2.11,1.53-3.25,2.11-1.15.57-2.49.96-3.63,1.15-1.53.38-3.06.57-4.4.38-1.34,0-2.68-.38-4.02-.96-2.49-.96-4.4-2.3-5.93-4.21-1.53-1.91-2.68-4.21-3.25-6.89-.38-2.3-.57-4.21-.19-6.31.38-1.92,1.15-3.63,2.11-5.36,1.15-1.72,2.49-3.06,4.02-4.21,1.53-.96,3.25-1.72,5.36-2.11,1.15-.38,2.49-.38,3.83-.38,1.15,0,2.49.19,3.82.57h0Zm8.8,23.15c-.19-.96-.19-1.91.38-2.87.58-.96,1.34-1.53,2.49-1.91,1.15-.19,2.11,0,3.06.57.96.38,1.53,1.34,1.91,2.3.19,1.15,0,2.1-.57,3.06-.58.96-1.34,1.53-2.49,1.91-.96.19-2.11,0-2.87-.38-.96-.57-1.53-1.53-1.91-2.68h0Zm-269.75,3.25l4.02.57-1.72-9.95c0-.19,0-.77-.19-1.34,0-.76-.19-1.53-.19-2.68-.19.77-.57,1.34-.76,1.91-.38.76-.57,1.34-.77,1.91l-.38.57-3.83,8.42,3.83.57h0Zm0-18.37l7.46,1.15,5.74,30.04-7.65-1.15-.77-5.36-4.78-.57-6.31-.96-2.3,4.97-6.31-.96-1.34-.19.1-.21-8.51-1.7-.19-.19-4.21-12.24-2.3,11.1-7.27-1.34,5.55-28.51,8.23,1.53v.19c3.06.57,5.36,1.15,6.5,1.53,1.15.57,2.11,1.34,2.87,2.1.19.38.38.57.57.76.57.77.96,1.72,1.34,2.68.19,1.34.19,2.68,0,4.21-.19,1.34-.76,2.49-1.34,3.44-.38.57-.76,1.15-1.34,1.53-1.34,1.34-3.06,1.91-5.17,1.91l5.31,12.89,1.2-2.56,12.63-24.49,2.3.38h0Zm18.17,22.57c.96,1.53,2.1,2.68,3.06,3.45,1.15.76,2.29,1.15,3.44,1.34.96,0,1.91-.19,2.68-.57.76-.57,1.15-1.15,1.15-2.1.19-.96,0-1.72-.57-2.3-.57-.57-1.91-1.15-3.83-1.91-2.68-1.15-4.59-2.3-5.74-3.63-.96-1.34-1.34-3.06-1.15-5.16.19-2.87,1.34-4.97,3.45-6.5,2.1-1.53,4.59-2.3,7.46-1.91,1.53.19,3.06.57,4.4,1.15,1.34.57,2.68,1.34,3.83,2.3l-3.06,5.36c-.76-.77-1.53-1.53-2.49-1.91-.96-.57-1.72-.76-2.68-.96-.96,0-1.72.19-2.49.57-.57.38-.96.96-.96,1.53-.19.77,0,1.34.57,1.91.38.38,1.34.96,2.87,1.53,0,0,.19,0,.38.19,3.06,1.15,4.97,2.29,5.93,3.44.57.76,1.15,1.72,1.34,2.68.19,1.15.19,2.1.19,3.44-.38,3.06-1.53,5.36-3.83,7.08-2.29,1.53-4.97,2.29-8.23,1.91-2.11-.19-3.83-.76-5.55-1.72-1.53-.76-3.06-2.1-4.4-3.63l4.21-5.55h0Zm21.43,11.67l2.68-28.89,7.84.77-2.49,28.7-8.03-.57h0Zm13.97,1.53l2.11-28.89,7.84.57-1.53,22.19,9.76.57-.38,6.7-17.79-1.15h0Zm21.81,1.15l.96-29.08,8.04.38-.96,28.89-8.04-.19h0Zm14.35.57v-28.89h17.79v6.32h-10.14v4.97h9.57v6.32h-9.57v4.78h10.14v6.5h-17.79Zm22.96.38l-.58-28.89,7.65-.19,11.29,14.73c.19.38.58.96.96,1.91.58.77,1.15,1.91,1.72,3.06-.19-1.15-.38-2.1-.38-3.06-.19-.96-.19-1.72-.19-2.49l-.19-14.35,7.46-.19.58,29.08h-7.46l-11.29-14.73c-.19-.19-.57-.96-1.15-1.72-.38-.96-.96-2.11-1.53-3.25.19,1.15.19,2.3.38,3.25,0,.96.19,1.72.19,2.49l.19,14.35h-7.65Zm35.2-10.71c1.15,1.15,2.49,2.11,3.63,2.68,1.15.57,2.29.77,3.44.77s1.91-.38,2.49-.96c.77-.76.96-1.34.96-2.3s-.38-1.72-.96-2.11c-.76-.57-2.1-.96-4.21-1.34-2.87-.57-4.98-1.53-6.12-2.68-1.34-1.15-1.91-2.68-2.11-4.78-.19-2.87.57-5.17,2.29-7.08,1.72-1.72,4.02-2.87,6.89-3.06,1.72-.19,3.25,0,4.59.38,1.53.19,2.87.76,4.21,1.53l-2.1,5.93c-.96-.77-1.91-1.15-2.87-1.53s-1.91-.38-2.68-.38c-.96,0-1.72.38-2.3.76-.57.57-.76,1.15-.76,1.92s.38,1.15.96,1.72c.38.38,1.53.57,3.06.96h.38c3.25.76,5.36,1.53,6.5,2.49.76.57,1.34,1.53,1.72,2.49.38.96.57,2.11.76,3.25.19,3.06-.57,5.55-2.49,7.65-1.91,1.91-4.59,3.06-7.84,3.25-2.11.19-4.02,0-5.55-.57-1.72-.57-3.44-1.53-5.17-2.87l3.25-6.12h0Zm22.96,7.65l-2.68-28.89,17.6-1.53.57,6.31-10.14.96.57,4.97,9.37-.76.58,6.12-9.38.96.38,4.78,9.95-.96.57,6.5-17.41,1.53h0Zm-195.72-25.64c.76,0,1.34,0,1.72-.19.96-.57,1.53-1.34,1.72-2.49.19-1.53.19-2.49-.57-3.25-.38-.76-1.34-1.15-2.87-1.53-.19,0-.38,0-.57-.19l-1.53-.19-1.34,7.46,1.34.19c.77.19,1.53.39,2.11.19h0Zm-26.02-2.11c-.57-.19-1.15-.38-1.72-.57l-2.87-.57-1.34,6.12,2.68.57c1.34.38,2.49.38,3.25.38.38-.19.57-.19.76-.19.96-.38,1.34-.96,1.72-2.11.19-1.15,0-2.1-.57-2.68-.38-.38-.96-.76-1.91-.96h0Zm0,12.05c-1.34-.19-3.63-.57-6.31-1.15l-8.03-1.72,5.93-28.31,7.84,1.72c.19,0,.38,0,.57.19,2.87.57,4.97,1.15,6.12,1.53,1.15.38,2.3,1.15,3.06,1.72.96.77,1.53,1.72,1.91,2.87.19,1.15.38,2.3,0,3.63-.38,1.53-.96,2.68-2.11,3.45-.96.76-2.3,1.34-4.21,1.34,1.91.57,3.25,1.72,4.21,3.25.76,1.34,1.15,3.25.57,5.36-.19,1.53-.96,2.68-1.72,3.83-.96.96-2.1,1.72-3.45,1.91-.96.38-2.3.57-3.63.38-.19,0-.57,0-.77,0h0Z"/>
  <path class="cls-5" d="m135.45,418.6c-4.4-.96-8.61-1.91-13.01-3.06v46.49c4.21,1.34,8.61,2.68,13.01,3.83,94.7,26.59,240.48,26.59,335.37,0,4.4-1.15,8.8-2.49,13.01-3.83v-46.49c-4.4,1.15-8.61,2.11-13.01,3.06-104.65,24.3-230.53,24.3-335.37,0h0Zm359.29,6.69v-23.34c-7.85-2.29-15.88-4.02-23.92-6.12-4.4-.96-8.61-2.11-13.01-3.44,4.4-.76,8.8-1.53,13.01-2.3,32.33-5.55,63.13-6.5,91.83,2.49l-28.89,15.5,21.81,18.94c-20.28-4.41-40.56-5.36-60.84-1.73h0Zm-359.29-35.2c4.4.76,8.61,1.53,13.01,2.3-4.4,1.34-8.61,2.49-13.01,3.44-8.03,2.11-16.07,3.83-23.92,6.12v23.34c-20.28-3.63-40.56-2.68-60.84,1.72l21.81-18.94-28.89-15.5c28.7-8.99,59.5-8.03,91.83-2.48h0Z"/>
  <path class="cls-1" d="m144.06,442.32c.77,0,1.34.19,2.1.38.77.19,1.53.38,2.11.38,1.34.19,2.3.38,2.87.19.96-.19,1.34-.77,1.34-1.72s-.38-1.72-1.15-2.3c-.57-.57-1.53-.96-3.06-1.34-.57-.19-1.15-.38-1.91-.58-.76,0-1.53-.19-2.3-.38v5.36h0Zm287.16,15.88c1.53-.57,2.87-1.34,3.83-2.1,1.72-1.34,2.68-3.45,2.68-5.93s-.96-4.02-2.68-4.78c-.96-.57-2.29-.76-3.83-.76-1.34,0-2.87.19-4.78.58-.58,0-1.15.19-1.72.19v14.16c.57,0,1.15-.19,1.72-.19,1.91-.38,3.44-.76,4.78-1.15h0Zm0-19.51c1.34,0,2.49-.19,3.45-.19,2.29,0,4.4,0,6.12.57,2.29.76,4.02,1.91,5.36,3.44,1.15,1.53,1.72,3.45,1.72,5.74s-.57,4.4-1.72,6.5c-1.34,1.91-3.06,3.83-5.36,5.36-1.72,1.15-3.83,2.11-5.93,3.06-.96.19-2.3.57-3.64.96-1.91.38-4.21.76-6.89,1.15-.57.19-1.15.19-1.72.38-2.49.38-5.16.76-7.65,1.15v-25.44c2.49-.38,5.17-.76,7.65-1.34,3.44-.57,6.31-.96,8.61-1.34h0Zm22.77,21.43v-26.21c7.65-1.72,15.12-3.44,22.58-5.36v5.93c-4.4.96-8.61,1.91-12.82,2.87v4.59c4.02-.96,8.03-1.72,12.05-2.68v5.74c-4.02.76-8.04,1.72-12.05,2.68v10.33c-3.26.57-6.51,1.34-9.76,2.1h0Zm-106.75,4.4c1.72,0,3.25-.19,4.98-.19-1.34-2.68-2.49-5.36-3.83-8.04,0-.19-.19-.57-.38-1.15-.19-.38-.38-1.15-.76-1.91-.19.57-.38,1.15-.57,1.72-.19.57-.58,1.15-.76,1.53-1.15,2.87-2.49,5.55-3.63,8.42,1.72-.19,3.25-.19,4.97-.38h0Zm0-15.5c2.11,0,4.02-.19,6.12-.38,1.15,1.91,2.11,4.02,3.25,5.93.96,2.11,2.1,4.02,3.06,5.93.95,2.1,2.1,4.02,3.06,6.12,1.15,1.91,2.3,3.83,3.25,5.93-3.25.19-6.5.38-9.95.57-.57-1.34-1.15-2.87-1.72-4.21-2.29.19-4.78.38-7.08.38-2.29.19-4.78.38-7.08.38-.57,1.53-1.34,3.06-1.91,4.59-3.25.19-6.7.19-9.95.38,1.15-2.1,2.11-4.21,3.25-6.31.96-2.1,2.11-4.21,3.06-6.31s2.11-4.21,3.06-6.31c1.15-2.11,2.1-4.21,3.25-6.31,2.11,0,4.21-.19,6.31-.38h0Zm32.52,16.26v-5.54c5.74-.58,11.29-1.15,17.03-1.91v5.55c-5.74.76-11.29,1.34-17.03,1.91h0Zm-162.81-4.59c1.53.19,3.25.38,4.97.57-1.34-2.87-2.68-5.74-3.83-8.8-.19-.19-.38-.58-.57-1.15,0-.58-.38-1.34-.57-2.3-.38.58-.57,1.15-.77,1.72-.19.58-.38.96-.57,1.53-1.34,2.49-2.49,5.16-3.63,7.65,1.53.38,3.25.58,4.97.77h0Zm0-15.69c1.91.19,4.02.38,6.12.76.96,2.11,2.1,4.4,3.06,6.5,1.15,2.11,2.1,4.4,3.25,6.5.96,2.29,2.11,4.4,3.06,6.69.96,2.11,2.1,4.21,3.25,6.5-3.44-.38-6.7-.76-9.95-.96-.57-1.53-1.15-3.25-1.91-4.78-2.3-.19-4.59-.38-6.89-.77-2.49-.19-4.78-.57-7.27-.76-.57,1.34-1.15,2.68-1.72,4.21-3.25-.38-6.5-.77-9.76-1.34h-.19c0-.19.19-.19.19-.38.96-1.91,1.91-3.63,2.87-5.55,1.15-1.91,2.11-3.82,3.25-5.93.96-1.91,2.11-3.83,3.06-5.74s2.1-4.02,3.25-5.93c2.1.38,4.21.57,6.31.96h0Zm23.91,19.32c1.34,1.34,2.87,2.29,4.21,2.87,1.53.76,2.87,1.15,4.4,1.34,1.34,0,2.49-.19,3.25-.58.76-.38,1.34-.95,1.34-1.72s-.38-1.53-1.15-1.91c-.76-.58-2.49-1.15-4.97-1.91-3.64-.96-6.12-1.91-7.65-3.06-1.53-1.15-2.3-2.68-2.3-4.59,0-2.29,1.15-4.21,3.63-5.55,2.3-1.15,5.36-1.72,8.99-1.34,2.1,0,4.02.38,5.74.96,1.91.38,3.45,1.15,5.16,1.91-.96,1.72-2.1,3.25-3.06,4.78-1.15-.76-2.3-1.34-3.63-1.91-1.15-.38-2.3-.57-3.45-.76-1.15,0-2.1.19-2.87.38-.77.38-1.15.76-1.15,1.53,0,.57.38,1.15.96,1.53.76.38,1.91.77,3.83,1.34,0,0,.19,0,.38.19,4.02.96,6.7,1.91,8.04,3.06.96.58,1.53,1.34,1.91,2.11.57.96.76,1.91.76,2.87,0,2.68-1.34,4.78-3.83,6.12-2.49,1.53-5.93,1.91-10.14,1.72-2.49-.19-4.98-.57-7.08-1.34s-4.02-1.91-5.93-3.25c1.53-1.53,3.06-3.06,4.59-4.78h0Zm28.12,9.95v-24.68c3.44.19,6.7.38,10.14.38v24.68c-3.44-.19-6.7-.38-10.14-.38h0Zm12.24-32.71c-2.49,1.91-4.97,3.82-7.65,5.54-1.34,0-2.49,0-3.83-.19,1.53-1.91,3.06-3.63,4.59-5.55,2.3,0,4.59.19,6.89.19h0Zm5.93,33.29v-24.49h9.95v18.94h12.24v5.74c-7.46,0-14.73,0-22.19-.19h0Zm27.36.19v-24.68c3.44,0,6.7-.19,10.14-.19v24.68c-3.44,0-6.7,0-10.14.19h0Zm-116.32-7.46q.19,0,.19.19,0-.19-.19-.38c-1.53-1.91-3.25-3.63-4.78-5.55-1.53-1.91-3.25-4.02-4.78-5.93,2.49,0,4.59-.38,5.93-1.53,1.34-.96,2.11-2.49,2.11-4.4,0-1.34-.38-2.49-.96-3.63-.76-1.34-1.72-2.29-3.06-3.25-1.15-.76-2.68-1.53-4.21-2.11-1.15-.38-3.06-.76-5.55-1.34-.96,0-1.91-.19-2.87-.38-3.63-.76-7.08-1.34-10.52-2.11v25.83c3.06.57,6.31,1.15,9.38,1.72v-10.14c1.34,1.91,2.68,3.63,4.02,5.55,0,0,0,.19.19.19,1.34,1.91,2.68,3.83,4.21,5.74,3.63.57,7.27,1.15,10.9,1.53h0Zm-15.3-22.38c1.15.38,1.91.76,2.68,1.15.96.76,1.34,1.72,1.34,2.87s-.57,1.91-1.53,2.3c-.57.19-1.53.19-2.49.19-.57,0-1.34-.19-2.11-.19-.76-.19-1.34-.38-1.91-.38v-6.7c.57,0,1.34.19,1.91.38.77,0,1.53.19,2.11.38h0Zm-34.63,2.68c-.19,0-.38,0-.57-.19-1.15-.19-2.3-.38-3.63-.76v5.74c1.15.19,2.3.58,3.63.76.19,0,.38.19.57.19,2.1.38,3.44.58,4.4.38.96-.38,1.53-.96,1.53-1.91,0-1.15-.57-1.91-1.34-2.49-.96-.58-2.49-1.15-4.59-1.72h0Zm0,11.09c-.96-.19-1.91-.38-3.06-.76-3.45-.76-6.89-1.34-10.33-2.1v-26.59c3.25.76,6.7,1.53,9.95,2.29,1.34.38,2.49.76,3.44.96,2.49.57,4.21,1.15,5.36,1.53,1.53.38,2.87.96,4.21,1.72s2.3,1.72,3.06,2.87c.57.96.96,2.11.96,3.25,0,1.53-.57,2.49-1.53,3.25-1.15.58-2.68.96-4.97.96,2.49.58,4.59,1.72,5.93,3.06,1.53,1.53,2.3,3.25,2.3,5.16,0,1.34-.38,2.49-1.34,3.45-.76.76-1.91,1.34-3.44,1.72-1.34.19-2.87.19-4.59.19-1.34-.19-3.25-.57-5.93-.96h0Z"/>
  <path class="cls-1" d="m417.06,179.84v-8.42l-5.36-3.83-.19-22.38-21.62.19-3.63-5.74h-9.18v5.74l-10.14-6.5,10.14-7.84v5.55h9.76l3.25-5.55h21.23l-.19-21.62,5.93-3.63v-9.18h-5.93l6.69-10.33.77,1.15,7.08,9.18h-5.74v9.76l5.74,3.25v21.43h22.96l3.25,5.55h8.23v-5.74l10.33,6.7-10.33,7.65v-5.55h-8.42l-3.83,5.36-22.19.19v23.15l-5.74,3.25v8.23h5.93l-6.69,10.33-.57-.76-7.27-9.57h5.74Zm1.53-54.91l-13.59,13.39,13.59,13.2,13.58-13.2-13.58-13.39h0Z"/>
  <path class="cls-2" d="m245.27,387.8l-11.67-7.08c1.15,1.34,2.3,2.68,3.45,4.02,2.49,2.49,5.16,4.59,8.23,6.12,1.91,1.15,3.83,2.11,5.93,2.87l-.96-2.68-4.97-3.25h0Zm52.23-38.65l2.3,6.89-2.3,1.91-8.23,6.5-6.12-.57-6.31-.76-1.72-4.4-3.44-9.57v-.19l3.44-4.97,4.59-6.5,3.44.19,10.71.76,3.63,10.71h0Zm0-4.97l3.63,11.09.38.19,1.53,1.34c-.19-7.08-2.11-13.58-5.55-19.13-.57-.96-1.15-1.72-1.72-2.68l-.57,2.11,2.3,7.08h0Zm-14.35,42.28l10.9-6.69h1.72c-1.15,1.72-2.68,3.44-4.02,4.97-2.68,2.49-5.36,4.59-8.61,6.31-2.49,1.53-5.16,2.68-8.03,3.44-.38.19-.57.19-.96.38l.96-2.87.38-.57,7.65-4.98h0Zm0-1.72l9.18-5.74-3.25-13.01-5.93-.58-6.89-.76-1.15.76-10.9,8.61-.57,7.84,11.48,7.65h.19l7.85-4.78h0Zm-6.31-63.9c-.57-.19-1.15-.19-1.72-.38-3.44-1.15-7.08-1.53-10.71-1.53-3.83,0-7.65.58-11.1,1.53l1.34.96.57.38-.19.38,19.32.38.76-.58,1.72-1.15h0Zm-1.72,20.28l3.63-4.98-3.63-9.56-.76-2.49-19.9-.38-2.11,4.98-3.06,7.08,3.06,4.97,4.4,7.46,13.01.38,5.36-7.46h0Zm-22.77,24.87l10.33,8.03-.57,7.84-9.76,6.31-1.91,1.15-5.16-3.25-10.14-6.31,3.83-14.73,6.32-1.15,3.63-.76,3.44,2.87h0Zm0-11.29l2.87-5.74-2.87-4.97-4.21-7.08h-16.45c-3.06,4.97-5.17,10.52-5.74,16.64l1.72,1.15,10.52,8.8,7.08-1.34,3.44-.58,3.64-6.89h0Z"/>
  <path class="cls-7" d="m275.11,316.43c-.19-.76-1.15-1.34-2.3-1.53-.96-.38-2.49-.38-4.02,0-1.53.19-2.87.76-3.83,1.34-.57.38-.96.77-1.15,1.15h2.49c.57-.38,1.72-.76,2.68-.96,1.34-.19,2.68-.19,3.44,0s1.34.38,1.34.76-.19.76-.77,1.15c.57,0,1.15.19,1.72.38.19-.19.38-.58.38-.77.19-.38.19-.76.19-1.15,0,0,0-.19-.19-.38h0Zm7.84-4.97c.57,0,1.15,0,1.72.19,1.34.38,2.1,1.15,2.3,2.11.19.96-.38,1.91-1.53,2.68-.57.58-1.53.96-2.49,1.15-.38.19-.77.38-1.34.38-1.53.19-3.06.19-4.02,0-1.15-.38-2.11-.95-2.49-1.72h0v-.03h0v-.03h0v-.03h0v-.02h0v-.02h0v-.02h0v-.02h0v-.02h0v-.02h0v-.02h0v-.02h0v-.02h0v-.02h0v-.03h0v-.66h0v-.59c.38-.57.76-1.15,1.53-1.53.96-.77,2.3-1.34,3.83-1.53.96-.15,1.72-.15,2.49-.15h0Zm0,4.59c.57-.38,1.15-.58,1.53-.96.77-.38.96-.76.96-1.15,0-.19-.57-.57-1.15-.76-.38,0-.96-.19-1.34-.19-.57,0-1.34,0-2.11.19-1.34.19-2.49.76-3.25,1.34-.57.38-.96.76-.96,1.15,0,.19.57.57,1.34.76.76.19,2.1.19,3.44,0,.57-.19.96-.38,1.53-.38h0Zm0,3.44c.38,0,.57-.19.96-.19,1.34-.19,2.68-.19,3.44,0s1.34.38,1.34.76-.38.76-.96,1.15c-.76.57-1.91.96-3.25,1.34h-.38c.57.38,1.34.76,1.91,1.15,1.15-.19,1.91-.76,2.68-1.15,1.15-.77,1.72-1.72,1.53-2.87-.19-.96-1.15-1.53-2.49-1.91-.96-.38-2.49-.38-4.02,0h-.76c-1.15.38-2.3.76-3.06,1.34-.38.38-.76.58-.96.96.38.19.96.38,1.53.57,0,0,.19,0,.19-.19.57-.38,1.34-.76,2.3-.96h0Zm-7.84-4.78v1.53-1.53h0Z"/>
  <path class="cls-3" d="m259.04,285.44c-.96,0-2.3.19-3.83.38,0-.57.19-1.15.38-1.72.57-1.72,1.91-3.25,3.44-4.4h.19c1.53-1.34,3.63-2.3,5.74-2.49,1.34-.19,2.87,0,4.21.58.19.19.38.38.57.57.19.19.19.38.19.76,0,.58,0,.96-.38,1.53-.57,1.34-1.72,2.87-3.44,4.02l-1.91,1.15,2.3.38c1.15,0,2.1.38,2.87.96.57.38.76.96.76,1.72.19.58-.19,1.53-.57,2.49-.96,1.72-2.68,3.63-5.36,5.36.57-3.63.57-6.7-.57-8.8-.96-1.53-2.3-2.3-4.59-2.49h0Zm0,7.65q.19.19.38.19c1.34.19,2.3.76,3.25,1.53l.19.19c.38-2.68.19-4.78-.57-6.31-.57-.96-1.72-1.53-3.25-1.53-1.15-.19-2.68,0-4.59.58-1.72,1.34-3.25,2.68-4.4,4.02-.96,1.15-1.53,2.11-1.91,3.06,4.78-1.72,8.42-2.11,10.91-1.72h0Z"/>
  <path class="cls-1" d="m361.97,185.19h-1.15c-.96,0-1.91-.19-2.87-.57-.57-.19-1.15-.57-1.53-1.15,0,0,0-.19-.19-.19q.19,0,.38-.19c1.72-.57,3.06-1.91,3.83-3.83.19-.96.38-1.91.38-2.87.38-.19.76-.38,1.15-.57,1.91-.96,3.25-2.1,4.59-3.44.38-.19.57-.38.76-.57q.19.19.19.38c1.15,1.53,1.72,3.83,1.53,5.93,0,1.92-.76,3.83-1.91,4.98-.19.19-.38.19-.57.38-1.53.96-3.06,1.53-4.59,1.72h0Zm0-11.29c1.34-.96,2.49-1.72,3.44-2.68,1.53-1.34,2.68-2.87,2.3-4.21-.19-1.53-1.53-2.3-2.87-2.49-.96-.19-1.91-.19-2.87-.19h-2.11l-.57-1.72c.96-1.53,1.72-2.49,2.68-3.83v-.19c2.1-2.87,4.21-5.93,4.97-9.18.58-2.1.38-4.02-.38-5.36-.19-.57-.76-.96-1.15-1.34-.38-.19-.96-.19-1.72-.19-.38.19-.96.38-1.72.96-.58.38-1.53,1.34-2.29,2.3-1.72,2.1-2.49,4.97-3.45,7.65-1.15,3.25-2.1,6.7-4.59,8.99-10.9,11.48-24.49,12.24-37.11,13.2h-1.34c0,4.78-.19,9.18-1.15,13.39,5.36.38,10.71,0,16.26-1.34,5.93-1.34,11.86-4.02,18.18-8.03l.57-.38.38.38c1.15,1.15,2.49,1.91,4.02,2.49,1.34.19,3.06.19,4.59-.38,1.15-.57,2.3-1.53,2.87-3.06.19-.96.38-2.1.19-3.06-.19-.76-.57-1.53-.96-2.1-.57-.57-1.34-.96-2.29-1.15-.77-.38-1.91-.38-2.68-.38l-.19-1.53c1.15-.19,2.29,0,3.44.38,1.15.19,2.11.76,2.87,1.72.57.57.96,1.34,1.34,2.3.38-.38.96-.76,1.34-.96h0Z"/>
  <path class="cls-1" d="m407.12,334.61l-4.98,25.44h-.38l5.36-30.99,4.59-25.25.96,3.06-5.55,27.74h0Zm11.67-58.54l-3.44,17.41c-.57-2.87-.96-5.54-.96-8.03,0-12.43-.38-22,4.4-28.12,1.15-1.53,2.49-2.68,4.4-3.82l-4.4,22.57h0Zm12.25-32.33c-1.15.38-2.49.57-3.83.57l3.83-19.51.76-4.02c.57,4.78,3.06,12.24,3.06,16.07s-1.53,5.93-3.83,6.89h0Zm-58.92,4.59l-.19-17.98c-.18,2.01-.37,4.02-.38,6.02v.29c-.38,4.21-.57,8.03-.57,9.76,0,.77.23,1.53,1.15,1.91h0Zm7.27,35.78c4.21-9.95,8.99-22,0-25.83-1.34-.57-3.06-.96-4.97-1.15l.38,42.28c.19-.96.19-1.72.19-2.49,0-2.87,2.1-7.46,4.4-12.82h0Zm-7.84,26.21c-2.87,7.46-6.69,15.69-6.69,22.96,0,3.83-3.63,24.49-6.7,26.97-1.53,1.34-2.49,2.3-2.68,3.25v1.15c1.34,2.87,12.25,1.15,8.8-.76-5.36-2.87,4.21-26.4,7.27-29.65,2.49-2.11,5.55-10.14,7.84-17.79,1.72-5.55,2.87-10.9,2.87-12.82l3.45,62.37c-4.21,4.21,0,2.87,5.36,2.87,2.68,0-1.15-5.93-1.15-7.65l4.59-67.92c-4.97-9.76-11.86-31.57,8.03-31.57,1.91,0,3.44.38,4.59.96,6.12,2.87,3.44,12.05,0,19.9-2.49,5.74-5.36,10.9-5.36,11.67l-2.3,66.96c0,3.83-9.56,5.74,1.15,5.74,5.16,0,5.55-3.63,3.63-5.74l2.87-15.5,6.89-34.82,4.78,13.01,12.25,35.01,1.15,3.25c-.38.38-.77.76-1.15,1.15-3.63,3.25-2.68,4.4,0,4.4,2.49.19,6.69-.38,10.33-.76-4.4-.58-7.08-18.75-10.33-27.93-.58-1.34-1.15-2.68-1.72-3.63,0-10.52-6.31-21.23-10.52-31.37-.96-1.91-1.72-3.83-2.29-5.93l2.29-10.9,6.89-34.82c1.53-.57,3.25-1.15,5.36-1.53,3.06-.57,6.5-.76,10.71-.76,0-5.74-1.15-28.12-4.98-31.38-2.1-1.72-3.44-2.3-4.21-2.1l3.44-16.84-2.29-.38-2.68,14.16-5.93,30.61c-2.29-.38-4.4-.96-6.31-1.91-2.11-.76-3.83-1.72-4.78-2.68-1.15-.96-.19-23.15-6.89-18.18-.38.38-.76.77-1.15,1.15-.76.96.19,4.97,1.15,9.57,1.15,4.21,2.3,8.99,2.3,12.24,0,1.91-.96,3.44-2.3,4.78-4.59,4.21-14.92,3.63-14.92-2.68,0-5.74-4.59-13.97,1.53-19.13,4.59-3.83-7.27-3.44-7.27-2.87l-1.15,18.18c0,1.53-2.87,3.44-5.93,4.78-1.72.57-3.63,1.15-5.16,1.15l-.57-48.02h-2.11l.19,22.77c-.87-.19-1.15.57-2.29,3.83l-9.76,28.7c0,1.15,9.18,1.15,11.86,1.15h.58l.57,49.93c-.38,1.15-.76,2.3-1.15,3.45h0Z"/>
</svg>