<svg xmlns="http://www.w3.org/2000/svg" xml:space="preserve" width="705" height="849.93"><path fill="#FFF" d="M705 204.13v20.3c-1.01 7.81-.7 15.72-1.29 23.56-5.19 108.56-35.46 215.77-87.45 311.18-7.37 14.35-16.09 27.94-24.25 41.85-7.23 11.01-14.46 22.02-21.86 32.92-10.01 13.35-19.4 27.18-30.14 39.97-8.16 9.87-15.91 20.1-24.65 29.47-9.24 10.07-17.99 20.59-27.76 30.16-7.81 7.86-15.57 15.78-23.42 23.61-8.48 7.87-17.06 15.63-25.57 23.47-10.32 9.73-21.57 18.39-32.37 27.56-17.18 14.83-36.15 27.41-53.69 41.75h-1.04c-.05-.19-.13-.58-.18-.78-17.64-13.93-36.25-26.65-53.33-41.3-11-9.31-22.43-18.14-32.89-28.07-11.2-10.45-22.87-20.4-33.46-31.48-9.51-9.8-19.5-19.15-28.48-29.46-7.26-8.14-14.63-16.17-21.81-24.37-12.19-15.1-24.83-29.84-36-45.73-11.71-15.27-22.03-31.51-32.63-47.56-8.54-14.48-17.59-28.69-25.24-43.69C34.58 459.85 4.45 349.91.58 238.9c-.14-4.27-.04-8.55-.58-12.8v-22.69c.67-5.78.47-11.62.8-17.41 1.3-25.77 3.61-51.6 9.16-76.84 17.17 5.44 34.35 11.06 52.12 14.26 35.15 7.01 71.71 7.53 106.91.52 46.09-9.01 89.15-30.91 125.26-60.7C316.34 44.92 336.56 24.01 352.4 0c10.87 16.87 24.27 31.96 38.63 45.93 32.94 31.79 72.68 57.02 116.48 70.79 37.5 11.95 77.68 15.04 116.63 9.72 24.11-2.92 47.53-9.66 70.51-17.3 6.3 28.17 8.43 57.08 9.59 85.87.12 3.04.21 6.11.76 9.12z"/><path fill="#1F1A17" d="M329.38 38.4a282.32 282.32 0 0 0 23.05-27.9c15.18 21.45 33.84 40.3 54 57.09 30.2 24.94 65.02 44.53 102.59 55.84 39.05 11.9 80.76 14.38 121.07 8.25 20.46-3.04 40.58-8.2 60.13-14.94 5 25.1 7.04 50.7 8.03 76.24 2.91 89.66-11.9 179.73-42.39 264.05-21.65 59.92-51.33 116.89-87.57 169.28-58.17 84.34-132.96 156.4-215.99 216.06-46.39-33.46-90.25-70.55-130.04-111.68-49.93-51.48-93.47-109.32-127.8-172.35C33.77 447.44 2.42 320.38 6.39 193.91c.93-25.84 3.07-51.71 8-77.12 36.43 12.46 74.99 19.49 113.57 17.94 40.83-1.43 81.16-12.58 117.24-31.66 31.45-16.59 59.86-38.77 84.18-64.67zm22.97 16.52c-19.73 23.6-44.05 43.07-70.12 59.23-34.5 21.23-73.12 35.73-113.09 42.35-43.94 7.41-89.16 5.13-132.63-4.2-1.58 9.45-2.59 19-3.39 28.55-4.49 58.6.34 117.74 12.2 175.24 8.89 42.77 21.93 84.67 38.81 124.96 29.39 70.36 70.57 135.6 120.23 193.39 43.7 51.04 93.91 96.29 147.92 136.19 47.66-35.09 92.27-74.45 132.13-118.24 42.15-46.23 78.92-97.47 108.3-152.74 40.9-76.7 67.36-161.15 76.73-247.6 4.79-46.39 5.69-93.5-1.29-139.71-49.26 10.52-100.85 11.99-150.12.74-41.16-9.21-80.32-26.98-114.59-51.54-18.71-13.52-36.32-28.81-51.09-46.62z"/><path fill="#1F1A17" d="M292.37 127.24c22.04-14.35 42.64-31.14 60.05-50.9 13.9 16.18 30.31 30.05 47.56 42.51 34.98 24.99 74.98 43.04 117.05 52.05 44.99 9.8 91.94 8.94 136.95-.29 3.17 21.95 3.91 44.19 3.7 66.36-.42 30.56-3.24 61.09-8.25 91.25-198.09-.07-396.19-.01-594.28-.03-4.57-28.18-7.42-56.66-8.09-85.21-.47-24.16.15-48.43 3.61-72.38 41.47 8.5 84.57 9.95 126.31 2.4 41.03-7.28 80.43-23.14 115.39-45.76zM151.9 199.58c-11.04 3.84-20.6 11.65-26.63 21.66-8.73 14.34-10.52 32.38-6 48.43 3.63 12.9 12.1 24.51 23.75 31.25 13.78 8.14 30.95 9.1 46.13 4.77 11.33-3.21 22.01-10.18 27.79-20.66-7.84-4.83-15.69-9.64-23.54-14.44-2.65 7.25-9.91 11.65-17.23 12.97-7.48 1.5-16.01.47-21.79-4.89-7.05-6.49-9.41-16.5-9.54-25.75-.06-9.34 2.03-19.47 8.84-26.31 5.2-5.3 13.09-6.87 20.24-5.93 7.34.84 15.27 3.75 19.08 10.53 7.68-4.63 15.24-9.47 22.99-14-3.4-5.59-8.81-9.65-14.42-12.86-14.97-8.2-33.44-10.49-49.67-4.77zm175.35-.83c-13.19 35.77-26.67 71.44-40 107.17 9.57.13 19.13.03 28.7.05 2.29-6.41 4.47-12.87 6.82-19.26 12.45.06 24.9.01 37.36.02 2.24 6.41 4.39 12.85 6.65 19.26 9.71-.08 19.42.1 29.13-.1-13.42-35.72-26.75-71.48-40.12-107.23-9.51.04-19.03-.12-28.54.09zm137.79-.09v107.31c8.76.01 17.53.01 26.3 0 .04-26.88-.07-53.76.05-80.64 7.92 26.77 15.15 53.76 22.78 80.63 7.15-.021 14.31.14 21.46-.1 7.23-26.75 14.78-53.42 22.1-80.15.22 1.75.36 3.52.38 5.31.05 24.96.21 49.92.24 74.89 8.78.12 17.56.09 26.34.02-.12-35.79.17-71.58-.15-107.36-13.65.16-27.3.1-40.95.03-6.32 23.73-12.29 47.54-18.52 71.29-6.56-23.67-12.51-47.51-18.86-71.24-13.72.01-27.45 0-41.17.01z"/><path fill="#1F1A17" d="M329.18 265.91c4.2-12.36 7.81-24.93 12.29-37.19 3.99 12.43 8.04 24.84 12.05 37.27-8.11-.04-16.23.1-24.34-.08zM59.13 349.94c35.1.03 70.2 0 105.29.01-.02 82.39.04 164.78-.03 247.17C113.09 523 76.85 438.37 59.13 349.94zM189.1 349.96c30.84.02 61.69-.07 92.54.04-.06 127.01-.06 254.02 0 381.03-25.42-22.82-49.13-47.54-71.29-73.54-7.18-8.72-14.75-17.26-21.18-26.51-.17-93.67-.02-187.35-.07-281.02zM306.26 349.98c30.85-.04 61.7-.04 92.55 0-.08 134.19.05 268.38-.07 402.57-15.18 12.61-30.56 25.01-46.5 36.67-15.63-11.79-31.14-23.78-46.01-36.53.1-134.24.04-268.48.03-402.71zM423.43 350c30.84-.11 61.69-.02 92.54-.05-.01 93.61.021 187.22-.02 280.83-27.83 35.95-58.91 69.34-92.48 99.98-.04-126.92.04-253.84-.04-380.76zM540.64 349.95c34.96-.01 69.91.01 104.86-.01-15.97 79.96-47.24 156.71-90.85 225.55-4.56 6.95-8.77 14.17-13.91 20.71-.23-82.08-.03-164.17-.1-246.25z"/></svg>