<svg xmlns="http://www.w3.org/2000/svg" id="Layer_1" data-name="Layer 1" viewBox="0 0 378.95 502.63"><defs><style>.cls-2{fill:#231f20}.cls-3{fill:#e43031}</style></defs><path d="M160.14 177.72v-13.87l30.87-25.41V97.61l-24.77-19.84-34.55 28.42v-8.31l-25.04-20.12-21.86 17.97-21.97-18-35.83 29.45-19.58 48.93 18.56-15.27V184l22.41 18.36 4.01 3.25 17.41-14.3v21.54l30.77-25.21v25.26l28.74-23.67v13.83L21.3 291.87v85.87l141.16 115.91 141.19-116.08v-75.7l32.49-26.72V201l34.43-28.31V4.72l-210.43 173z" style="fill:#fff"/><path d="M71.34 402.87 358.33 166.9v-60.53L34.53 372.6l36.81 30.27z" class="cls-2"/><path d="M323.9 208.81v60.55L116.42 439.94l-36.81-30.27L323.9 208.81zM358.33 92.77V30.64L33.55 297.65v62.17L358.33 92.77z" class="cls-3"/><path d="m124.69 446.73 37.77 31.07L291.4 371.78v-62.11L124.69 446.73zM154 102.41V142l-1.7 1.4V101l1.7 1.32Zm-103.38.68L49 101.73v65.63l1.7 1.4Zm10.24 7.46L77 97.29l1.28 1-16.12 13.29Zm63-11.1 1.71 1.38v63.82l-1.71 1.41ZM33 127.1l-9.85 8.1 1.25-3.12L37 121.75Zm61.74-24v38.36l-1.69 1.41v-41.19Zm90.11-2.53v35L154 161v22.16l-18.24 15V196l16.54-13.58v-22.15l30.88-25.42V99.18Zm-49 75.38L107 199.63v-2.1l33-27.12Zm-31-21.46-10 8.25v21.74l-18.58 15.15v-2.1l16.82-13.78V162l11.72-9.64Zm30.62 25.14 15.53-20.7v22.18l-15.57 12.77Zm-59.55.37 15.83-19.29v21.75l-15.83 12.93Zm90.38-94.36L135.43 111v48l-12.9 10.65V98.37l-15.85-12.73L75.92 111v48.43L56.1 175.64l-8.49-6.95V110.6l-15.52 20.93v49.58l17.44 14.28 57.15-47v47l75.19-61.85V98.09ZM151 98.27 166 110v24l-15 12.31Zm-59.25.1h.31l14.62 12.12v23.59l-14.93 12.27Zm-44.14-.1v12.33l-15.52 12.77-7.42 6.08 7.42-18.54 30.74-25.27 12.72 10.44-15.11 12.39Zm30.8 75.88L51.1 196.67l1.27 1.06 20.54-16.9Z" class="cls-2"/></svg>