<svg xmlns="http://www.w3.org/2000/svg" xml:space="preserve" viewBox="-160 421.2 450.1 415.3"><g fill="#026B38"><path d="M33.293 423.411c28.3-4 57.301-2.6 85.102 4.2 27.7 6.8 54.001 18.901 77.102 35.501 44.1 31.401 76.301 79.203 88.402 132.104 3.9 16.2 5.3 33 6.2 49.601v2.9c-.7 13-1.6 26.101-4 38.901-7.4 41.201-26.8 80.103-55.202 110.803-8.8 9.6-18.5 18.5-28.8 26.401-5.6 4.3-11.2 8.5-16.8 12.7 0-14.8.1-29.7.1-44.5-19.501 16-42.202 28.2-66.502 35.4-26.701 8-55.102 9.9-82.702 5.7-26.201-4-51.602-13.7-73.902-28.1-7.2-4.6-13.9-9.8-20.4-15.1.6 15.5 1.4 30.9 2 46.4-9.8-7.6-19.801-14.9-29.101-23.2-31.201-27.801-54.502-64.502-66.002-104.803-5.5-19.1-8.3-38.801-8.8-58.702v-6.2c.4-26.8 5.4-53.501 15.1-78.502 18.2-47.301 52.902-87.902 96.703-113.303 25-14.5 52.8-24.2 81.502-28.2m-25.301 12.9c-28.1 7.6-54.601 20.9-77.402 38.9-38.3 29.902-66.202 72.903-77.502 120.204-8.8 36.3-8.1 74.802 2.1 110.703 6.7 23.8 17.6 46.401 32.001 66.602 13.5 19 30.3 35.7 49.001 49.601-.6-12.4-1.1-24.7-1.7-37.101 3.3-.6 6.5-1.3 9.8-1.8 21.7 19.2 48.202 33.2 76.302 40.201 31.301 7.9 64.802 7.2 95.703-2 24.9-7.3 48.1-20.1 67.801-37.001 2.7.5 5.4 1.1 8.1 1.6 0 12.4-.1 24.8-.1 37.101 24.601-17.9 45.602-40.601 60.902-66.902 15.1-25.8 24.8-54.701 28.1-84.402 3.6-31.8.4-64.402-9.9-94.703-15.6-46.7-47.7-87.702-89.202-114.103-27.7-17.8-59.501-29.2-92.202-32.9-27.2-3.3-55.201-1.2-81.802 6z"/><path d="M14.592 439.412c24.4-5.9 49.901-7.4 74.802-4.6 32.8 3.7 64.702 15.3 92.302 33.5 21.5 14.1 40.401 32.201 55.602 53.002 16.2 22.1 28 47.501 34.6 74.102 7.8 31.7 8.3 65.302 1.2 97.203-5.3 24.3-15 47.6-28.5 68.501-12.8 19.9-29.101 37.701-47.701 52.402 0-10.4 0-20.8.1-31.201-9.8-2-19.7-3.9-29.501-5.8 18.1-14.5 33.3-32.601 44-53.102 14.501-27.3 21.101-58.701 18.701-89.502-2.1-29.3-12.4-58.002-29.3-82.102-15.7-22.5-37.001-41.001-61.502-53.302-36.5-18.6-79.902-22.7-119.303-11.6-23.8 6.6-46.1 18.8-64.601 35.201-19.8 17.4-35.501 39.601-45.101 64.202-14 35.6-15 76.102-2.9 112.303 8.5 25.8 23.6 49.301 43.4 67.802 3.2 3.2 6.8 5.9 10.1 9-10.4 2-20.8 3.9-31.2 5.8.5 10.3.9 20.5 1.4 30.8-17.5-14.3-33-31.1-45.301-50.1-12-18.301-21.1-38.602-26.8-59.702-8.6-31.301-9.7-64.602-3.5-96.503 5.3-27 15.8-53.001 31-76.002 14.1-21.6 32.2-40.5 53.101-55.701 22.3-16.2 47.901-28.101 74.902-34.601m51.001 7.5c-3.1 2.7-4.6 6.9-4.9 11-.4 4.5.2 9.3 3.1 12.9 3.8 4.7 11 5.8 16.4 3.4 3.7-1.7 5.9-5.4 7-9.2-2.1-.1-4.1-.2-6.2-.3-.6 1.4-1.2 2.9-2.4 3.9-2.8 2.4-7.7 1.8-9.8-1.3-1.6-2.3-1.9-5.2-1.8-7.9.2-2.9.8-6 2.9-8.1 2.3-2.4 6.3-2.5 9-.8 1.5.9 2 2.8 2.6 4.3l6.3.3c-.5-3.7-2.3-7.4-5.6-9.2-5.1-3-12.1-2.9-16.6 1m-33-.3c1 10 2.1 20 3.2 29.9 7.6-.7 15.2-1.6 22.8-2.4-.2-1.8-.4-3.5-.6-5.3-5.5.6-11.1 1.2-16.6 1.8-.3-2.6-.6-5.2-.8-7.8 4.9-.5 9.7-1 14.6-1.6-.2-1.8-.4-3.5-.6-5.3-4.9.5-9.7 1-14.6 1.6-.2-2.1-.4-4.2-.7-6.3 5.3-.6 10.6-1.1 15.9-1.7-.2-1.8-.4-3.5-.6-5.3-7.3.8-14.6 1.6-22 2.4m68.901 1.5c-4.7.8-8.4 4.5-9.9 8.9-1.8 5-2.6 11 .3 15.8 4.2 6.5 13.8 8.7 20.4 4.6 4.1-2.6 6.1-7.5 6.8-12.1.7-4.1.3-8.7-2.4-12-3.7-4.4-9.7-6.4-15.2-5.2m-97.702 5.3c2.5 9.7 5 19.4 7.6 29.2 2-.5 4.1-1 6.1-1.6l-2.7-10.5c3.8-1.2 8.1-1.5 11.3-4 4.4-3.9 3.6-11.5-.8-15.1-2.2-1.8-5.2-2.1-7.9-1.4-4.6 1-9.1 2.3-13.6 3.4m113.703 28.9 21.3 8.401c.6-1.6 1.4-3.2 1.9-4.8-4.9-2.4-10.3-4.1-15.4-6.3.9-2.4 1.9-4.9 2.8-7.3 4.6 1.8 9.1 3.6 13.7 5.4.7-1.7 1.3-3.3 2-5-4.6-1.8-9.1-3.6-13.7-5.4.8-2 1.6-3.9 2.3-5.9 5 2 9.9 3.9 14.9 5.9.7-1.7 1.3-3.3 2-5-6.9-2.7-13.7-5.4-20.6-8.1-3.8 9.4-7.5 18.8-11.2 28.1m-135.704-20.1c.7 10.6 1.4 21.3 2.1 31.9 2-.9 4.1-1.7 6.1-2.6-.1-2.2-.7-4.5-.3-6.6 3.3-1.6 6.7-2.9 10-4.3 1.4 1.7 2.8 3.3 4.2 4.9 2.1-.9 4.201-1.8 6.201-2.7-7.1-7.9-14.5-15.6-21.7-23.5-2.2.9-4.4 1.9-6.6 2.9m158.803 29.4 5.1 3c3.7-6.2 7.3-12.4 10.9-18.6-.1 8.3-.1 16.6-.2 24.9 1.8 1.1 3.6 2.1 5.4 3.2 5.1-8.7 10.201-17.3 15.201-26l-5.1-3c-3.6 6.1-7.1 12.1-10.7 18.2.1-8.1.1-16.1.3-24.2-1.9-1.2-3.8-2.3-5.7-3.4-5 8.5-10.1 17.2-15.2 25.9m-179.005-19c2 3.2 4.1 6.4 6.1 9.7l-9.9 6.3c-2.1-3.2-4.1-6.4-6.1-9.6-1.8 1.1-3.6 2.3-5.3 3.4 5.4 8.5 10.8 16.9 16.2 25.4 1.8-1.1 3.5-2.3 5.3-3.4-2.4-3.8-4.9-7.6-7.3-11.4l9.9-6.3c2.4 3.8 4.8 7.6 7.3 11.4 1.8-1.1 3.5-2.3 5.3-3.4-5.4-8.5-10.8-16.9-16.2-25.4-1.7 1.1-3.5 2.2-5.3 3.3m218.505 13.4c-3.4 1.8-6.1 6-4.5 9.9 1.8 4.3 5.6 7.3 7.6 11.5 1.3 2.3-1.6 5-3.9 4-4-1.2-8.6-5.6-5.7-9.9-1.6-1.3-3.1-2.6-4.7-3.8-1.1 1.9-2.2 4-2.1 6.3.1 3.7 2.6 6.9 5.3 9.2 2.9 2.5 6.8 4.5 10.8 3.7 4.4-1 8.3-5.9 6.6-10.5-1.8-4.3-5.4-7.5-7.8-11.5-1.3-2 .7-4.6 2.9-4.3 4 .6 8.2 5.1 5.8 9.2 1.6 1.3 3.1 2.5 4.7 3.8 1.2-2.1 2.2-4.4 1.9-6.8-.5-4.3-3.8-7.6-7.3-9.8-2.8-1.9-6.5-2.6-9.6-1m-253.706 19.8c.6 4.4 3.3 8.2 6.5 11.2 3 2.8 6.9 4.801 11.1 4.501 5.5-.5 10.5-4.7 12.2-10 1.1-3.6-.1-7.4-1.7-10.6-1.6 1.4-3.1 2.7-4.7 4.1.5 1.4 1.1 2.7 1 4.2-.2 3.8-4.3 7-8 6.2-3-.6-5.4-2.7-7.2-5-1.8-2.2-3.4-4.9-3.1-7.9.3-3 2.8-5.5 5.7-6.2 1.8-.5 3.5.5 5 1.2 1.6-1.4 3.2-2.8 4.7-4.2-1.6-1.1-3.2-2.2-5.1-2.7-8.6-1.8-17.8 6.5-16.4 15.2m257.406 16.2c5.2 5.6 10.3 11.2 15.5 16.8l3.9-3.6c-3.8-4.1-7.6-8.2-11.3-12.3 1.9-1.8 3.8-3.5 5.8-5.3l9.9 10.8 3.9-3.6-9.9-10.8c1.6-1.4 3.1-2.9 4.7-4.3 3.6 3.9 7.201 7.8 10.801 11.8 1.3-1.2 2.6-2.4 4-3.6-5-5.4-10-10.9-15-16.3-7.5 6.8-14.9 13.6-22.3 20.4m-276.207.3c-7.7 2.7-12.7 12.5-8.7 20 2.9 5 8 8.7 13.7 10 9.7 1.9 18.5-8.7 16.2-17.9-1.2-4.4-4.7-7.8-8.5-10.1-3.7-2.3-8.4-3.6-12.7-2m298.807 26.1c2.3 3.8 4.5 7.7 6.9 11.501 1.6 2.7 4.3 4.8 7.4 5.2 4.3.7 8.7-.7 12.4-2.9 3.4-2.1 6.5-5.1 7.6-9 .8-2.9 0-6-1.5-8.5-2.2-3.9-4.6-7.8-6.9-11.7-8.6 5.1-17.3 10.3-25.9 15.4m-326.808-2.2c-.4.8-.8 1.5-1.1 2.3.2.8.9 1.6.6 2.5-1.2 2.2-4.1 3.5-4.4 6.2-.4 2.2 1.4 3.8 2.8 5.3.4-.8.8-1.5 1.1-2.3-.4-.8-.7-1.6-.8-2.4 1.2-2.3 3.8-3.7 4.6-6.2.6-2.2-1.3-4-2.8-5.4m5.9 7.5c-1.1 2.2-2.1 4.3-3.2 6.5 7.4 7.7 14.9 15.3 22.3 23 1-2 2-4 2.9-6l-4.6-4.6c1.6-3.3 3.3-6.6 4.9-9.9 2.2.3 4.3.6 6.5 1 1-2 2-4.1 3-6.1-10.6-1.4-21.2-2.7-31.8-3.9m334.608 18.5c2.8 7.1 5.7 14.2 8.5 21.2 1.6-.7 3.3-1.3 4.9-2-2.1-5.2-4.1-10.3-6.2-15.5 2.4-1 4.8-1.9 7.2-2.9 1.8 4.5 3.7 9.1 5.5 13.6 1.6-.7 3.3-1.3 4.9-2-1.8-4.5-3.6-9.1-5.5-13.6 2-.8 3.9-1.6 5.9-2.4 2 5 4 9.9 6 14.9 1.6-.7 3.301-1.3 4.901-2-2.8-6.9-5.5-13.7-8.3-20.6-9.2 3.8-18.5 7.5-27.8 11.3m-341.31 5.2c-5.4 2.2-8.3 8.3-8 13.9.2 4.901 3.7 9.101 8 11.201 5 2.4 11.101 3.7 16.301 1.2 3.2-1.5 5.3-4.6 6.5-7.9l3.6 2.4c0-1.6 0-3.1-.1-4.7l-2.7-1.8c.2-5.2-3.1-9.7-7.5-12l-1.8 6c1.2 1 2.5 1.9 3.2 3.3 1.6 3.4-.3 8-3.9 9.2-2.5.8-5.3.5-7.8-.2-2.8-.9-5.7-2.2-7.3-4.8-1.9-2.9-1-6.9 1.5-9.1 1.3-1.2 3.1-1.2 4.7-1.4.6-2 1.3-4 1.8-6-2.1-.1-4.4-.2-6.5.7m352.908 27.5c.4 2.1.8 4.1 1.1 6.2 4.2-.7 8.3-1.5 12.5-2.3.8 4.3 1.6 8.7 2.4 13 1.7-.3 3.5-.7 5.2-1-.8-4.3-1.6-8.7-2.4-13 2.2-.4 4.501-.8 6.701-1.2.9 5 1.8 9.9 2.8 14.9 1.7-.3 3.5-.7 5.2-1-1.3-7-2.6-14.1-4-21.1-9.8 1.8-19.6 3.7-29.5 5.5m-365.81 7.9c-.4 2.4-.7 4.8-1.1 7.2 9.4 5 18.8 10 28.301 15.001.3-2.2.6-4.4 1-6.5-1.9-1-3.9-2-5.8-3 .5-3.7 1.1-7.3 1.6-11 2.1-.3 4.3-.7 6.4-1 .3-2.3.7-4.5 1-6.8-10.5 2-21 4.1-31.4 6.1m373.309 16.3c-2.8 2.2-3.8 6-3.8 9.5s.8 7.3 3.4 9.9c2.2 2.2 5.5 2.8 8.5 2.7 6.5-.2 13-.5 19.5-.7-.1-2.1-.2-4.3-.2-6.4-6.4.2-12.9.5-19.3.7-1.8.1-3.9-.1-5.2-1.6-1.4-1.7-1.6-4.2-1.1-6.3.7-2.4 3.3-3.6 5.7-3.6 6.5-.3 13-.5 19.4-.7-.1-2.1-.2-4.3-.2-6.4-6.2.2-12.4.5-18.5.7-2.9 0-5.9.3-8.2 2.2m-375.71 5.9c-.1 2.1-.2 4.2-.2 6.3 10 .4 20.1.8 30.101 1.1.1-2.1.2-4.2.2-6.3-10.1-.4-20.1-.7-30.1-1.1m19 10.1c.1 2.1.3 4.2.4 6.2 1.3.5 2.8.8 3.9 1.7 3 2.5 3 7.8-.1 10.3-2.4 2-5.7 2.6-8.7 2.6-2.5 0-5.3-.4-7.3-2.1-2.6-2.1-3.1-6-1.6-8.9.8-1.5 2.5-2.1 3.9-2.9-.1-2.1-.3-4.2-.5-6.3-2.1.6-4.2 1.4-5.8 2.9-4.5 4-5 11.1-2.5 16.3 2.1 4.5 7 7.001 11.8 7.301 5 .3 10.4-.6 14.3-3.9 5-4.4 5.4-12.5 1.8-17.9-2.1-3.2-5.9-4.7-9.6-5.3m378.81 9.9c-.3 3-.7 6-1 9.1-8.201-.9-16.401-1.8-24.701-2.7-.2 2.1-.5 4.2-.7 6.3 8.2.9 16.4 1.8 24.7 2.7-.3 3-.7 6-1 9.1 1.8.2 3.5.4 5.3.6.9-8.1 1.8-16.3 2.6-24.4-1.6-.3-3.4-.5-5.2-.7m-381.61 20.7c-4.2 1.1-8.5 3.3-10.5 7.3-3.3 6.4-1.2 15 4.7 19.1 3.5 2.5 8.2 2.6 12.201 1.7 4.5-.9 9-3 11.4-7.1 3.7-6.5 1.5-15.5-4.6-19.7-3.8-2.6-8.9-2.5-13.2-1.3m348.408 24.1c1.7.4 3.4.9 5.1 1.3 1.5-5.4 2.8-10.8 4.2-16.2 2.5.6 5 1.3 7.6 1.9-1.2 4.7-2.4 9.5-3.6 14.2 1.7.4 3.4.9 5.2 1.3 1.2-4.7 2.4-9.5 3.6-14.2 2 .5 4.101 1 6.201 1.5-1.3 5.2-2.6 10.3-3.9 15.5 1.7.4 3.4.9 5.2 1.3 1.8-7.2 3.6-14.3 5.5-21.5-9.7-2.5-19.5-4.9-29.2-7.4-2.1 7.6-4 14.9-5.9 22.3m-6.8 16.701c-1 2.5-1.2 5.5.2 7.9 2.2 4.5 8.9 6.6 12.7 2.8.3 4.9 6.3 7.6 10.5 5.5 2.4-1.2 3.8-3.6 4.8-5.9 1.9-4.3 3.7-8.6 5.5-12.9-9.2-3.9-18.5-7.9-27.7-11.8-1.9 4.7-4.2 9.5-6 14.4m-332.309-7.2c-.7 4.9 1.3 9.7 1.4 14.6-.1 2.3-3.2 3.3-4.8 1.9-3.1-2.5-4.5-8.2-.6-10.7-.7-1.9-1.5-3.7-2.4-5.5-1.8 1.3-3.7 2.7-4.6 4.8-1.8 4-.5 8.5 1.5 12.2 1.6 2.9 4.5 5.5 8 5.6 3.8.1 8.2-2.2 8.8-6.3.7-4.9-1.7-9.7-1.2-14.6.5-2.3 3.9-2.8 5.4-1 1.9 2.1 3.2 4.9 3 7.8-.1 1.6-1.5 2.7-2.7 3.7.8 1.8 1.5 3.6 2.3 5.5 2-1.1 4-2.5 5-4.7 1.8-4 .5-8.6-1.3-12.4-1.8-3.5-5.1-6.9-9.2-6.8-3.9 0-7.9 2.1-8.6 5.9m11.2 25.2c.1 4.9 2.7 9.3 3.5 14.101.1 2.1-2.5 3.6-4.3 2.7-3.6-1.9-6-7.5-2.3-10.6-1-1.7-2.1-3.4-3.1-5.1-1.8 1.5-3.5 3.2-4.1 5.6-1.1 4.1.8 8.3 3.2 11.6 2 2.8 5.4 5 8.9 4.4 3.9-.5 7.9-3.7 7.6-7.9-.3-4.6-2.8-8.8-3.3-13.4-.3-2.4 3-3.9 4.8-2.5 2.4 1.7 4.1 4.4 4.4 7.3.2 1.7-1.1 3-2.1 4.2 1 1.7 2.1 3.4 3.1 5.1 3-2.1 5.2-5.6 4.5-9.4-.9-5.1-3.8-10.1-8.5-12.5-4.7-2.8-12.1.7-12.3 6.4m316.108-2.9c-7.9 2.8-12.8 13.1-8.4 20.6 3.2 5.1 8.9 8.7 14.9 9.5 9.6.8 17.4-10.1 14.5-19-1.5-4.3-5.2-7.4-9.1-9.5-3.6-2-8-3-11.9-1.6m-308.407 40.7c1.6 1.9 3.1 3.7 4.7 5.6l30-11.1-4.2-5.1c-2.1.8-4.1 1.6-6.1 2.4-2.4-2.8-4.8-5.7-7.1-8.5 1.2-1.8 2.4-3.6 3.5-5.5-1.5-1.7-2.9-3.5-4.4-5.2-5.6 9.1-11 18.3-16.4 27.4m277.906-4.4c1.4 1.2 2.7 2.4 4.1 3.6 3.3-3.8 6.6-7.5 9.9-11.2 6.1 5.5 12.3 10.9 18.501 16.3 1.4-1.6 2.8-3.2 4.2-4.7-7.5-6.6-15-13.3-22.6-19.8-4.9 5-9.4 10.5-14.1 15.8z"/><path d="M102.294 453.712c4-1.7 9.2.7 10.3 5 1 4.3 0 9.1-2.6 12.6-2.7 3.6-8.6 3.7-11.6.4-2.4-2.6-2.5-6.5-1.7-9.8.6-3.3 2.3-6.9 5.6-8.2zM11.192 456.812c2.5-.6 4.9-1.4 7.5-1.6 4.1-.4 5.6 6.4 2.1 8-2.3 1-4.9 1.5-7.3 2.1-.8-2.7-1.6-5.6-2.3-8.5zM-11.109 479.513l-1.2-12.6c2.7 3.2 5.5 6.4 8.3 9.6-2.4.9-4.7 1.9-7.1 3zM29.292 489.313c38.601-8.8 80.502-2.8 114.903 17 23.1 13.1 42.901 32.001 57.002 54.402 15.5 24.4 24.1 53.001 24.7 81.802.8 30.801-7.7 61.802-23.8 88.003-11.6 19.1-27.401 35.5-45.501 48.4 7.3 1.4 14.5 2.9 21.7 4.301-20.6 17-45.001 29.5-71.002 35.8-30.4 7.601-62.901 6.801-93.002-2.2-23.6-6.9-45.601-18.9-64.301-34.8 7.3-1.4 14.5-2.7 21.8-4.1-19.9-14.3-37.1-33.001-48.801-54.902-14.5-26.7-21-57.601-18.9-87.902 1.5-22 7.6-43.701 17.9-63.302 10.8-20.7 26.2-39 44.7-53.201 18.501-14 39.902-24.2 62.602-29.3m17.4 9.3c-24.3 2.9-47.8 12-67.8 26.2-21.801 15.4-39.502 36.701-50.302 61.202-9.2 20.4-13.5 43-12.8 65.301.8 29.101 10.5 57.802 27.4 81.403 15.4 21.6 36.601 39 60.802 49.9 26.4 11.901 56.201 15.601 84.802 11.101l-1.5 4.2c1.1-.2 2.3-.4 3.4-.6.5-1.4 1-2.8 1.5-4.3 32.7-6 63.102-23.5 84.902-48.601 17.9-20.4 30-45.701 34.6-72.402 5.101-29 1.301-59.502-10.8-86.302-10.9-24.401-28.5-45.702-50.3-61.002-29.801-21.3-67.602-30.7-103.903-26.1m89.302 288.707c.2 3.9 2.3 7.6 5.5 9.8 4 2.8 10 .6 12-3.7 1-2 .6-4.2.2-6.3-1.1.6-2.2 1.2-3.4 1.8.6 2.6-.9 5.4-3.6 5.7-3.5.2-5.6-3.3-6.6-6.2-1-2.5.5-5.6 3.2-6.2 1.5-.5 2.7.6 3.9 1.2 1.1-.6 2.2-1.3 3.3-1.9-1.1-1.1-2.3-2.3-3.8-2.7-4.9-1.1-10.9 3.1-10.7 8.5m-155.104-7.2c-3.6 2.4-6 6.9-5.6 11.3.7 4.9 6.6 8.3 11.2 6.4 1.3-.6 2.4-1.6 3.5-2.5-1.1-.7-2.2-1.3-3.3-1.9-.9.5-1.7 1.2-2.7 1.5-2.7.4-5.4-2-4.9-4.8.4-2.7 1.9-5.3 4.1-6.8 2.1-1.5 5.3-.4 6.4 1.8.3 1 .1 2 .2 3 1.1.6 2.2 1.3 3.3 1.9.2-1.3.7-2.6.5-3.9-.7-5.7-8-9.2-12.7-6m16.8 5.1c-2.5 5.7-5 11.4-7.4 17.2l3.6 1.5c1.1-2.6 2.2-5.1 3.3-7.7 2.2 1 4.5 1.9 6.7 2.9-1.1 2.6-2.2 5.1-3.3 7.7l3.6 1.5c2.5-5.7 4.901-11.4 7.401-17.1l-3.6-1.5c-.9 2.2-1.9 4.3-2.8 6.5-2.2-1-4.5-1.9-6.7-2.9.9-2.2 1.9-4.3 2.8-6.5-1.2-.5-2.4-1.1-3.6-1.6m123.403 5.1c-2.4 2.6-1.1 7.5 2.3 8.5 3.1.6 6.1-.9 9.2-.8 1.3.1 2.1 1.9 1.2 2.9-1.7 2.3-5.6 3.3-7.6.7l-3.3 1.5c2.7 5.4 10.3 3.7 13.5-.2 2.3-2.5 1.3-7.3-1.9-8.5-3.3-.8-6.6.8-10 .7-1.2-.4-1.7-1.9-.9-2.9 1.6-2.1 5-2.7 6.7-.5 1.1-.5 2.2-1 3.4-1.5-1.1-1.5-2.5-3.1-4.5-3.3-2.9-.1-6 1.2-8.1 3.4m-113.803 19.3 3.9 1.2 2.4-3.3c2.2.7 4.4 1.3 6.6 2 0 1.3 0 2.7.1 4 1.4.4 2.7.8 4.1 1.2-.3-6.6-.6-13.2-1-19.8-1.4-.4-2.8-.8-4.3-1.2-4 5.2-7.9 10.6-11.8 15.9m23.8-12.6c-1.1 6.1-2.2 12.3-3.3 18.4 1.3.2 2.5.5 3.8.5.5-2.1.8-4.3 1.2-6.4 2.4.3 4.8 1.1 7.2.7 4.8-1.1 6-8.9 1.4-11-3.3-1.3-6.9-1.5-10.3-2.2m55.802 1.8c-6.3 2.3-6.4 11-2.9 15.8 3.7 4.9 12.4 3.7 14.9-1.8 1.5-3.6.8-7.9-1.2-11.2-2.3-3.5-7.2-4.4-10.8-2.8m16.8 3.6c.4 1.3.7 2.5 1.1 3.8 3.9-1.1 7.8-2.1 11.7-3.2-.4-1.3-.7-2.5-1.1-3.8-3.9 1-7.8 2.1-11.7 3.2m-57.801 15.9c4.7.3 9.4.7 14.1 1 .1-1.1.1-2.2.2-3.3-3.4-.2-6.9-.5-10.3-.7l.3-4.8c3 .2 6.1.4 9.1.6.1-1.1.1-2.2.2-3.3-3-.2-6-.4-9.1-.6l.3-3.9c3.3.2 6.6.5 9.9.7.1-1.1.2-2.2.2-3.3-4.6-.3-9.1-.7-13.7-1l-1.2 18.6m18.3-14.2c-1.7 3.5-1.6 7.9.2 11.4 2.4 4.801 9.9 5.401 13.4 1.4 1.2-1.3 1.6-3 2.1-4.6-1.3 0-2.6.1-3.9.1-.6 1.3-1.2 2.9-2.7 3.4-2.1.9-4.7-.2-5.5-2.3-.9-2.5-1.1-5.3-.1-7.8 1-2.4 4.2-3.1 6.3-1.9.8.6 1.2 1.6 1.8 2.5 1.3-.1 2.6-.1 3.9-.2-.6-1.5-1.1-3.1-2.4-4.2-3.7-3.3-10.7-2.4-13.1 2.2z"/><path d="M54.393 502.513c35.1-2.7 70.902 8.1 98.602 29.701 20.801 16 37.101 37.801 46.502 62.202 10.6 27 12.5 57.301 5.8 85.502-5.8 24.5-18.3 47.401-35.601 65.702-17.7 18.8-40.601 32.8-65.502 39.801-23.2 6.5-48 7.2-71.501 1.8-25.201-5.7-48.802-18.5-67.502-36.4-18.2-17.301-31.8-39.502-38.901-63.603-5.1-17.2-6.9-35.4-5.3-53.301 1.9-23 9.6-45.501 22.1-65.002 13.5-21.2 32.701-38.8 54.902-50.401 17.4-9.1 36.7-14.6 56.401-16m31.5 30.7c-1.7 2.8-1.6 6.2-1.9 9.3-3 .8-4.5 3.7-7 5.3-2.8.4-5.6-.8-8.4-.3-2.9.5-5.7 1.7-8.6 2.3-2.9.7-6 .5-8.9 1.3-3.7 1-7.5 2.3-10.4 5-2.6 2.401-3.2 6.001-5.1 8.901-2.2 2.7-4.3 5.6-6.5 8.2-.9 2.6-.5 5.4-.9 8.1 1.4 1.7 2.7 3.6 2.6 5.9.1 2.9-1.6 5.7-4.4 6.7-1.6.9-4.3 1.1-4.7 3.301-.9 4.6 2.5 8.4 4.5 12.2 3.6 5.4 3.2 12.3 5.7 18.1 2.8 4.8 7.7 8.101 10.4 13.001 2.4-.7 5.1-1.2 6.9-3.1 1.3-1.9 2.4-3.8 3.3-5.9 1-2.2-.9-4.2-1.9-6-1.7-2.4-2.7-5.3-3-8.2-1.7-13.7-2-27.801 1.8-41.202.7-2.7 2.4-5 4.1-7.2 2.8-3.6 6.1-6.9 10-9.1 3.2-1.8 7.3-2 10.6-.4 1.8.9 2.7 2.8 3.8 4.4 1.2 1.9 3.5 2.6 5.1 4.2 3.2 2.8 4.6 7.2 4 11.3-.7 5-2.4 10.2-6.1 13.8-2.2 2.2-5.9 2.3-7.5 5.101-.7 1 0 2.5 1.1 2.9 2.4 1.2 5.3 1.3 7.9.5 3-1 5.2-3.5 7.501-5.5 1.5-1.4 3.2-2.6 4.5-4.2 1.5-2 1.1-4.7 2.5-6.8 1.5-2.3 1.8-5.2 1.7-7.8-.2-2.4-2-4.3-2.1-6.7.4-2.7 2.4-5.1 2.1-8-.2-3.701-2.9-6.601-3.9-10.001-.5-3.9.6-7.9 0-11.7-.9-1.9-3-2.9-3.8-4.8-.6-1.2-.7-2.7-1.9-3.4-.7-1-2.4-.7-3.1.5m-95.202 54.4c-2.9.3-5.8-.7-8.7-.3-1.1.1-2.3 1.2-1.8 2.4 1.4 1 4.1 1.3 3.9 3.5-.3 5.701-3.5 10.601-5.8 15.601-1.9 4.5-1.1 9.4-2 14.1-1 2-3 3.3-4.1 5.2-2.101 3.2-1.601 7.301-3.301 10.701-1.5 2-4.2 3.2-4.8 5.7-.5 2.5.7 4.9.4 7.4-.4 2.4-.9 4.7-1.5 7.1-.7 2.8-3.8 4.2-4.8 6.9-.5 2.9-.2 5.801-.7 8.701-.5 3.7-2.8 6.8-4.7 9.9-2.1 3.1-3.8 6.4-6.3 9.1-1.4 1.7-3.9 1.6-5.4 3.2-.9.9-1.9 2.2-1.4 3.5 1.3.8 3 .6 4.5.7 9.5-.1 19.1.1 28.6-.1 2.3-.2 5.2-3.1 3.8-5.4-4.1-.4-8.8-1.6-10.6-5.7-.9-2.3 1.9-3.8 2.2-5.9.4-2.6.6-5.4 2.5-7.4 15.4.1 30.8 0 46.101 0 3.2-.1 7.1 1.8 7.4 5.3.2 2.6.8 5.3 0 7.8-2.8 2.2-6.4 4.1-7.6 7.7.4 1.6 2.5 1.4 3.8 1.6 7.5.1 15 0 22.5 0 3.4.4 5.901-3.1 9.401-2.4 2.4.7 4.6 2.3 7.3 2.2 3.1 0 6.9.2 9.1-2.5.9-1.1 1.7-3.4 0-4.1-2.3-.9-4.9-.4-7.2-.8-1.1-.7-1.7-1.9-2.5-2.9-3.4-5.8-5.9-12.1-9.3-17.9-1.4-2.5-4-4.4-4.4-7.4-.2-2.2-.3-4.6 1.3-6.3 1.5-1.7 2.4-4 1.6-6.2-.8-2.5-3.7-3.1-5.7-4.2-1.8-.8-3-2.4-4-4.1-2.8-4.6-7.6-7.701-10.1-12.401-2.4-4.8-2.4-10.3-4.3-15.3-2-4.8-5.8-8.8-6.6-14.1-.3-2.901 0-6.301 2.4-8.301 1.8-1.6 4.2-2 6.2-3.2 1.9-3.4-2.3-6.1-5.2-6.6-3.2-1.2-5.5 2.5-8.6 1.8-2.301-1.4-4.401-3.5-7.301-3.5-6-.8-9.4 5.1-14.3 6.9m122.103-1.7c-1.9.9-4.7 1.5-5 4 .3 1.9 2.4 2.8 3.5 4.2 2.6 2.3 2.3 6 2.6 9.1.5 7.1 2.9 14.3 1.6 21.4-.5 2.9-.7 5.8-.9 8.701-.3 3.1-2.3 5.6-3 8.5-.4 3.3 2.9 5.5 2.8 8.8-.1 10.7-.3 21.301-.5 32.001 0 2.9-1.6 5.3-2.6 8-.8 2-2.5 3.8-4.7 4.1-1.5.2-2.9.8-3.9 2 1.2 1 2.6 1.8 4 2.5.7 1 1.2 2.5 2.7 2.4 4.9.3 8.5-4.3 13.3-4.6 2.4.3 3.8 2.6 6 3.2 1.6.4 3.2-.1 4.7-.4 3.6-1 7.5-1.2 11.2-.4 2.5.6 4.8 2 7.4 2.6 2.2.3 4.8.1 6.4-1.6 1.7-1.8 3.1-4 3.6-6.4.4-1.2-.8-2.3-2-1.8-1.3.7-1.7 2.8-3.3 3-2.9.4-5.9-.1-8.8-.5-2-.4-3.4-2.1-3.9-4-.8-2.5-3.6-3.9-3.8-6.6-.4-3.5.1-7.2-.7-10.7-.5-2.2-1.3-4.5-.7-6.8.6-2.6 1.3-5.2 1.1-7.9 0-2.2-.7-4.7.8-6.5 1.2-1.5 2.2-3.4 3.9-4.4 2.1-.3 3.7 1.2 5.1 2.4 1.8 1.6 4.1 2.2 5.8 3.9-.7 3.2-.4 7.1 2.4 9.3 1.3 1 3-.4 3.4-1.8.5-1.9.8-3.8 1.5-5.6 1-2.2-.9-4.3-.8-6.5-.5-2.8 1.6-4.9 2.4-7.3.3-2.4-2.6-3.6-2.6-6.001-.1-4.3.8-9-1.2-13.1-1.1-2-4.7-3.2-6-.9-.7 3.1 1.1 6.1.8 9.2-.6 3-3.7 4-5.7 5.9-1.8 2.5-5.8 2.8-8.2 1.1-1.7-2.1-1.8-5-1.9-7.6-.2-10.4-.3-20.9 1.8-31.1 1-2.201 3.6-2.801 5.7-3.601 2.6-.9 4.5-3.4 7.4-3.4 5-.1 9.6 1.9 14 4.1 4.001 1.8 7.301 5.6 7.701 10 .6 3.8 2.8 7.3 2.8 11.3-.3 4-6.4 5.1-6 9.3 1.9 1.9 5.2 2.2 7.4.7 6.6-2.8 11.4-9.5 11.7-16.7.3-4-1.9-7.6-2.7-11.3-.9-4.3.1-8.6 1.3-12.8.5-1.2-.2-2.9-1.7-3-1.2-.1-1.6 1.4-2.3 2.1-1.2 2.1-4 3.3-6.3 2.2-2.4-1-5.2-.6-7.4-2-4.9-3.1-11.1-3.2-16.7-2.7-2.5.2-4.9 1.2-6.9 2.6-2.4 1.8-5.8 1.5-8.4.1-2.1-1.1-4.1-2.8-6.701-2.7-4.2-.3-7 4.3-11.3 3.6-2.4-.1-3.7-2.2-5.4-3.5-1.7-1-3.1 1.3-4.8 1.9m-31.801 83.902c.6 1.8 2 3.2 3.1 4.7 1.3 1.6.4 4 1.8 5.5 1.4 1.7 2.2 3.8 2.2 6 .1 3.6 1.8 7 1.4 10.6-.1 4.8-2.5 9-4.3 13.301-.8 1.5-1.5 3.4-3.3 4-2.5.9-4.4 3.3-7.2 3.3-3 .1-6.3 0-8.9-1.7-2.6-1.7-3.8-4.7-6.2-6.6-2.9-2.4-6.3-4.5-8.401-7.8-2.4.9-4.8 2-7.3 2.5-4.5.2-9-.1-13.4.1-2.2 1.7-4.8 3.9-4.6 6.9.7 2 3 3 3.9 4.9 1.9 3.7 4.7 6.9 7.3 10.1 2.4 2.7 4.8 5.6 8.2 7 2.4 1 4.7 2.7 7.4 2.9 6 .6 12.3.6 18.1-1.4 2.9-.9 5.6-2.4 8.7-2.4 2.3 0 4.7-.1 7 .4 1.2.2 1.5 1.6 2.2 2.4 1 1.8 2.901 3 3.101 5.2.2 1.4 1 4 2.9 2.8 2.8-2 4-5.4 6-8.1.8-1.1 1.4-2.4 1.5-3.7 1-8.1.3-16.3 1.4-24.3.4-2.6-2.3-4-3.6-5.9-2.6-3-1.6-7.2-1.1-10.7-.5-1.9-3-2.5-3.3-4.5-.6-2.1-1.3-4.1-2.5-5.9-1.6-3-4.6-5-5.8-8.201-.9-2.5-4.2-2.4-6.3-1.4M39.993 751.62c-1.6 2.5-4 4.4-6.6 5.7v2.7c2-.9 3.9-2 5.6-3.3-.1 5.9 0 11.8 0 17.7h2.8v-22.8c-.7-.1-1.2 0-1.8 0m12.1 1.1c-4.7 3.1-4.2 11.5 1.2 13.5 2.9 1.2 5.9-.3 7.9-2.4-.4 2.3-.4 4.9-1.9 6.8-1.1 1.7-3.5 2.3-5.3 1.4-1.3-.6-1.6-2.1-2.1-3.2-.9.1-1.8.1-2.7.2.6 1.6 1 3.5 2.6 4.5 2.9 1.9 7.2 1.4 9.4-1.3 2.1-2.5 2.5-5.9 2.6-9.1 0-3.1-.1-6.5-2.1-9-2.2-2.7-6.6-3.4-9.6-1.4m14.6-.7v2.7h11c-4.5 5.6-7.4 12.5-7.9 19.7h2.9c.7-7 3.5-13.8 7.9-19.3.9-.8.8-2 1-3.1-5.1-.1-10 0-14.9 0m20 1.2c-1.3 1.1-1.7 2.7-2.3 4.2l2.7.6c.6-1.5 1.2-3.4 2.901-3.9 2.4-1 5.6 1.1 5 3.9-.2 2.5-3 3.2-5 3.4-.1.5-.3 1.6-.3 2.1 2.1-.3 4.8-.1 5.9 2.1 1.9 3.2-1.3 7.6-4.9 6.8-2.2-.2-3.2-2.5-3.8-4.4-.9.1-1.9.2-2.8.4.5 1.6 1 3.4 2.3 4.5 3.6 3.3 10.1 2 12.1-2.4 1.5-3.1.1-7.5-3.5-8.4 2.2-1.2 3.6-3.6 2.8-6-1.3-4.7-7.8-5.9-11.1-2.9zM-91.81 528.214c3.7-1.5 7.7.5 10.6 2.8 2.7 2.1 5.1 5.4 4.4 8.9-.6 4.2-5.1 7.4-9.2 6.3-4-1-7.7-3.7-9.8-7.3-2.2-3.7-.1-9.1 4-10.7zM213.997 551.015c5.7-3.3 11.3-6.7 16.9-10 1.4 2.7 3.7 5.2 4.2 8.3.2 3.9-3.5 6.4-6.4 8.1-3 1.6-7.1 3-10.1.6-2-1.9-3.1-4.6-4.6-7zM-110.11 559.915c4.2.6 8.3 1.3 12.5 1.9-1.1 2.3-2.3 4.6-3.4 6.9-3.1-2.9-6.1-5.8-9.1-8.8z"/><path d="M-8.008 616.617c1.4-1.8 4.8-3.5 6.4-1.1 1.4 6.8 4.8 13 7.3 19.4 2.7 5.8-.1 12.7 3 18.4 1.5 3.1 4.7 4.7 6.6 7.5 1 1.5 0 3.1-.6 4.4-13 .1-26 0-39 0 .1-1.7.3-3.4.7-5 .7-2.9 1.1-6 2.8-8.5 1.1-2.1 3.4-3.6 3.7-6.1.4-3 0-6.1 1.2-8.9.8-2.7 3.2-4.6 3.7-7.3 1.2-4.4 1.5-9.1 4.2-12.8zM-128.011 617.417c4.1-.7 8.3-1.3 12.4-2-.4 2.5-.7 5-1.1 7.6-3.8-1.8-7.6-3.7-11.3-5.6zM123.995 637.917c.4-2.2 1.4-4.2 2.6-6 1.6 1.8 4 3.4 4.1 6.1 0 1.9 2.2 2.9 2.2 4.7-1.8 1.5-4.5 1.8-6.6 1-1.5-1.6-2.5-3.7-2.3-5.8zM-29.309 644.017c1.8-.8 3.2-2.1 4.7-3.3.3 1.8 1.4 3.4 1.4 5.2-1.3 1.2-2.7 2.4-4.1 3.5-3.2 1.2-4.7-4.1-2-5.4zM21.592 641.517c1.4-1 2.4.9 3.6 1.4 1 1.1 3.3.5 3.5 2.3.2 1.6 2 3.4.9 4.9-2.6.5-6.1 2.7-8.3.4.1-3-2-6.4.3-9zM-118.311 681.718c3.2-.8 7.1-.8 9.7 1.5 3.5 3 3.4 9-.3 11.8-3.5 2.6-8.1 3.7-12.4 2.8-4.4-1-6.9-6.3-5.1-10.3 1.3-3.4 4.8-5.1 8.1-5.8zM226.197 718.62c.8-3.1 2.4-6 3.5-9.001 2.5 1 5 2.1 7.4 3.2-1.5 3-2.3 6.5-4.4 9.2-2.2 2.8-7.4 0-6.5-3.4zM238.398 724.02c.5-3.3 2.3-6.1 3.4-9.2 2 .9 4.1 1.7 6.1 2.6-1.4 2.9-2.3 6.2-4.2 8.9-1.7 2.2-5.7.3-5.3-2.3zM216.897 737.62c3.3-1.2 6.8.1 9.6 1.9 2.7 1.8 5.4 4.4 5.7 7.8.4 4.4-3.6 8.7-8 8.3-4.4-.5-8.5-3.1-11-6.7-2.8-3.9-.7-9.8 3.7-11.3zM54.793 754.12c3.2-1.4 6.2 2.1 5.9 5.2.2 3.1-2.9 5.9-5.9 4.7-4.3-1.5-3.9-8.3 0-9.9zM-77.81 760.32c1.7 2 3.3 3.9 4.9 5.9-3.9 1.6-7.8 3.2-11.7 4.7 2.2-3.6 4.5-7.1 6.8-10.6zM15.492 804.722c1.5-2.2 3-4.3 4.4-6.4 0 2.6.1 5.2.1 7.8-1.4-.5-2.9-1-4.5-1.4zM34.393 800.821c1.6.3 3.3.5 4.8 1.2 2.1 1 1.2 5-1.2 4.9-1.6 0-3.1-.4-4.6-.7.3-1.7.6-3.6 1-5.4zM88.894 801.621c2.2-.7 4.7.3 5.7 2.3 1.2 2.5 1.7 5.7.3 8.3-1.8 2.9-6.7 2.8-8.2-.3-1.8-3.2-2.1-9 2.2-10.3z"/></g><g fill="#FFF"><path d="M7.992 436.312c26.6-7.2 54.601-9.2 81.902-6.1 32.7 3.7 64.502 15.1 92.202 32.9 41.501 26.501 73.602 67.402 89.202 114.103 10.3 30.301 13.5 62.902 9.9 94.703-3.4 29.7-13 58.702-28.1 84.402-15.3 26.3-36.401 49.002-60.902 66.902 0-12.4.1-24.8.1-37.101-2.7-.5-5.4-1.1-8.1-1.6-19.6 16.9-42.9 29.7-67.801 37.001-31.001 9.2-64.402 9.9-95.703 2-28.2-7-54.601-20.9-76.302-40.201-3.3.5-6.5 1.2-9.8 1.8.6 12.4 1.1 24.7 1.7 37.101-18.7-14-35.5-30.6-49.001-49.601-14.4-20.1-25.3-42.701-32-66.602-10.201-35.901-10.901-74.402-2.1-110.703 11.3-47.301 39.2-90.402 77.501-120.203 22.7-17.9 49.201-31.301 77.302-38.801m6.6 3.1c-27 6.5-52.601 18.4-75.002 34.8-20.8 15.201-38.9 34.102-53.101 55.702-15.2 23-25.7 49.002-31 76.002-6.1 31.901-5.1 65.202 3.5 96.503 5.7 21.1 14.8 41.4 26.8 59.701 12.3 19 27.8 35.801 45.301 50.102-.5-10.3-.9-20.5-1.4-30.801 10.4-2 20.8-3.8 31.2-5.8-3.3-3.1-6.9-5.8-10.1-9-19.7-18.701-34.8-42.202-43.4-68.002-12.1-36.301-11.1-76.702 2.9-112.303 9.6-24.601 25.2-46.802 45.1-64.202 18.601-16.4 40.802-28.5 64.602-35.2 39.401-11.201 82.802-7.001 119.303 11.6 24.5 12.3 45.801 30.9 61.502 53.3 16.9 24.101 27.2 52.702 29.3 82.103 2.4 30.8-4.2 62.202-18.7 89.502-10.8 20.5-26 38.601-44.001 53.102 9.8 1.9 19.7 3.9 29.5 5.8 0 10.4-.1 20.8-.1 31.2 18.601-14.7 34.901-32.4 47.702-52.4 13.5-20.901 23.2-44.202 28.5-68.502 7.1-31.901 6.6-65.502-1.2-97.203-6.6-26.6-18.4-51.901-34.6-74.102-15.1-20.8-34.101-38.801-55.602-53.001-27.6-18.2-59.401-29.801-92.302-33.501-24.8-2.9-50.301-1.4-74.702 4.6m14.7 49.901c-22.7 5.1-44.1 15.2-62.501 29.4-18.6 14.301-34 32.502-44.801 53.202-10.3 19.5-16.4 41.201-17.9 63.302-2.2 30.3 4.3 61.202 18.9 87.902 11.7 21.9 28.9 40.601 48.901 55.102-7.3 1.3-14.5 2.7-21.8 4.1 18.8 15.8 40.8 27.8 64.301 34.8 30.1 9.001 62.502 9.701 93.002 2.2 26.001-6.4 50.402-18.8 71.002-35.8-7.2-1.4-14.5-2.9-21.7-4.3 18.2-12.9 34-29.3 45.5-48.401 16.201-26.201 24.601-57.202 23.801-88.003-.6-28.8-9.3-57.501-24.7-81.802-14.1-22.5-33.901-41.401-57.002-54.401-34.5-20.001-76.402-26.101-115.003-17.3z"/><path d="M65.593 446.912c4.5-3.9 11.5-4 16.5-1.2 3.3 1.9 5.2 5.5 5.6 9.2l-6.3-.3c-.6-1.6-1.1-3.4-2.6-4.3-2.7-1.8-6.7-1.6-9 .8-2.1 2.1-2.7 5.3-2.9 8.1-.1 2.7.2 5.6 1.8 7.9 2.1 3.1 7 3.7 9.8 1.3 1.2-1 1.8-2.5 2.4-3.9 2.1.1 4.1.2 6.2.3-1.1 3.8-3.2 7.6-7 9.2-5.4 2.4-12.6 1.3-16.4-3.4-2.9-3.6-3.5-8.4-3.1-12.9.4-3.8 1.9-8 5-10.8zM32.593 446.612c7.4-.8 14.7-1.6 22.1-2.4.2 1.8.4 3.5.6 5.3-5.3.6-10.6 1.1-15.9 1.7.2 2.1.4 4.2.7 6.3 4.9-.5 9.7-1 14.6-1.6.2 1.8.4 3.5.6 5.3-4.9.6-9.7 1.1-14.6 1.6.2 2.6.5 5.2.8 7.8 5.5-.6 11.1-1.2 16.6-1.8.2 1.8.4 3.5.6 5.3-7.6.8-15.2 1.7-22.8 2.4-1.1-10-2.2-20-3.3-29.9zM101.494 448.112c5.5-1.1 11.6.9 15.1 5.2 2.7 3.3 3.1 7.9 2.4 12-.7 4.6-2.7 9.5-6.8 12.1-6.6 4.1-16.2 1.9-20.4-4.6-2.9-4.8-2.1-10.8-.3-15.8 1.6-4.4 5.3-8.1 10-8.9m.8 5.6c-3.3 1.4-5 4.9-5.7 8.2-.7 3.3-.7 7.2 1.7 9.8 3 3.3 8.9 3.2 11.6-.4 2.6-3.5 3.6-8.3 2.6-12.6-1-4.3-6.2-6.7-10.2-5zM3.792 453.412c4.5-1.1 9-2.4 13.5-3.5 2.7-.7 5.7-.4 7.9 1.4 4.3 3.6 5.2 11.3.8 15.1-3.2 2.6-7.5 2.8-11.3 4l2.7 10.5c-2 .5-4.1 1-6.1 1.6-2.5-9.6-5-19.4-7.5-29.1m7.4 3.4c.7 2.9 1.4 5.7 2.2 8.6 2.4-.7 5-1.1 7.3-2.1 3.6-1.7 2-8.5-2.1-8-2.5.1-4.9.9-7.4 1.5zM117.495 482.313c3.7-9.3 7.4-18.7 11.1-28 6.9 2.7 13.7 5.4 20.6 8.1-.6 1.7-1.3 3.3-2 5-5-2-9.9-3.9-14.9-5.9-.8 2-1.6 3.9-2.3 5.9 4.6 1.8 9.1 3.6 13.7 5.4-.6 1.7-1.3 3.3-2 5-4.5-1.8-9.1-3.6-13.7-5.4-1 2.4-1.9 4.8-2.8 7.3 5.1 2.1 10.5 3.8 15.4 6.3-.5 1.7-1.2 3.2-1.9 4.8-7-2.9-14.1-5.7-21.2-8.5zM-18.209 462.212c2.2-1 4.4-2 6.7-2.9 7.2 7.8 14.5 15.6 21.701 23.5-2.1.901-4.2 1.801-6.2 2.701-1.4-1.6-2.8-3.3-4.2-4.9-3.3 1.5-6.7 2.8-10 4.3-.5 2.1.2 4.4.3 6.6-2 .9-4.1 1.8-6.1 2.6-.8-10.7-1.5-21.3-2.2-31.9m7.1 17.3c2.4-1 4.7-2 7.1-3-2.8-3.2-5.5-6.4-8.3-9.6.4 4.1.8 8.3 1.2 12.6zM140.595 491.613c5.1-8.7 10.1-17.3 15.2-26 1.9 1.1 3.8 2.2 5.7 3.4l-.3 24.2c3.6-6 7.1-12.1 10.701-18.2l5.1 3c-5.1 8.7-10.2 17.3-15.2 26-1.8-1.1-3.6-2.1-5.4-3.2.1-8.3.2-16.6.2-24.9-3.7 6.2-7.3 12.4-10.9 18.6-1.7-.9-3.4-1.9-5.1-2.9zM-38.41 472.613c1.8-1.1 3.5-2.3 5.301-3.4 5.4 8.5 10.8 16.9 16.2 25.4-1.8 1.1-3.5 2.3-5.3 3.4-2.4-3.8-4.9-7.6-7.3-11.4l-9.9 6.3c2.4 3.8 4.8 7.6 7.3 11.4-1.8 1.1-3.5 2.3-5.3 3.4-5.4-8.5-10.8-16.9-16.2-25.4 1.8-1.1 3.5-2.3 5.3-3.4 2 3.2 4.1 6.4 6.1 9.6l9.9-6.3c-1.9-3.2-4-6.3-6.1-9.6zM180.096 486.013c3-1.6 6.7-.9 9.5.9 3.5 2.2 6.9 5.5 7.3 9.8.3 2.4-.7 4.8-1.9 6.8-1.6-1.2-3.1-2.5-4.7-3.8 2.4-4.1-1.8-8.6-5.8-9.2-2.2-.3-4.2 2.4-2.9 4.3 2.4 4 6 7.2 7.8 11.5 1.7 4.6-2.2 9.4-6.6 10.5-4 .8-7.9-1.2-10.8-3.7-2.7-2.3-5.2-5.5-5.3-9.2-.2-2.3 1-4.4 2.1-6.3 1.6 1.2 3.2 2.5 4.7 3.8-2.8 4.3 1.8 8.8 5.7 9.9 2.3.9 5.2-1.7 3.9-4-2-4.1-5.9-7.2-7.6-11.5-1.4-3.8 1.3-8 4.6-9.8zM-73.61 505.814c-1.4-8.7 7.8-17.1 16.3-15 1.9.4 3.5 1.6 5.1 2.7-1.5 1.4-3.1 2.8-4.7 4.2-1.6-.7-3.2-1.7-5-1.2-2.9.7-5.4 3.2-5.7 6.2-.2 2.9 1.3 5.7 3.1 7.9 1.9 2.3 4.3 4.4 7.2 5 3.8.8 7.8-2.3 8-6.2.1-1.5-.6-2.8-1-4.2 1.5-1.4 3.1-2.8 4.7-4.1 1.7 3.2 2.8 7 1.7 10.6-1.7 5.3-6.7 9.4-12.2 10-4.2.3-8.1-1.7-11.1-4.5-3.1-3.1-5.8-7-6.4-11.4zM46.693 498.613c36.3-4.6 74.102 4.9 103.902 26.101 21.801 15.4 39.401 36.601 50.302 61.002 12.1 26.8 15.8 57.301 10.8 86.302-4.6 26.7-16.7 52.001-34.6 72.402-21.801 25.1-52.202 42.601-84.903 48.601-.5 1.4-1 2.8-1.5 4.3-1.1.2-2.3.4-3.4.6l1.5-4.2c-28.5 4.6-58.401.8-84.802-11.1-24.2-10.8-45.401-28.3-60.802-49.901-16.8-23.701-26.5-52.402-27.4-81.503-.7-22.4 3.6-44.9 12.8-65.301 10.9-24.401 28.5-45.802 50.301-61.202 20-14.1 43.501-23.2 67.802-26.1m7.7 3.9c-19.7 1.4-39 6.9-56.401 16.1-22.3 11.7-41.401 29.2-54.902 50.401-12.5 19.4-20.1 41.901-22.1 65.002-1.6 17.9.2 36.1 5.3 53.301 7.1 24.101 20.7 46.302 38.9 63.602 18.701 17.9 42.302 30.7 67.503 36.401 23.5 5.4 48.3 4.7 71.501-1.8 24.9-7 47.801-21 65.502-39.801 17.4-18.3 29.8-41.201 35.6-65.702 6.7-28.2 4.8-58.501-5.8-85.502-9.5-24.5-25.8-46.201-46.5-62.202-27.701-21.7-63.502-32.5-98.603-29.8zM183.796 522.014l22.2-20.4c5 5.4 10.001 10.9 15.001 16.3-1.3 1.2-2.6 2.4-4 3.6-3.6-3.9-7.2-7.8-10.8-11.8-1.6 1.4-3.1 2.8-4.7 4.3l9.9 10.8-3.9 3.6-9.9-10.8c-1.9 1.7-3.8 3.5-5.8 5.3 3.8 4.1 7.5 8.2 11.3 12.3l-3.9 3.6c-5.1-5.6-10.2-11.2-15.4-16.8zM-92.41 522.314c4.2-1.6 9-.3 12.7 2 3.8 2.4 7.3 5.7 8.5 10.1 2.4 9.3-6.5 19.8-16.2 17.9-5.6-1.3-10.8-5-13.7-10-4-7.4 1-17.2 8.7-20m.6 5.9c-4.1 1.6-6.2 6.9-4 10.8 2.1 3.6 5.8 6.3 9.8 7.3 4.2 1.1 8.6-2.1 9.2-6.3.7-3.6-1.7-6.9-4.4-8.9-2.9-2.4-6.8-4.3-10.6-2.9z"/><path d="M85.894 533.214c.7-1.2 2.4-1.4 3.4-.6 1.2.7 1.3 2.3 1.9 3.4.8 1.9 2.9 3 3.8 4.8.6 3.9-.6 7.8 0 11.7 1 3.5 3.7 6.301 3.9 10.001.2 2.9-1.7 5.2-2.1 8 .1 2.4 1.9 4.3 2.1 6.7.1 2.7-.1 5.5-1.7 7.8-1.4 2-.9 4.8-2.5 6.8-1.3 1.6-3 2.8-4.5 4.201-2.3 2.1-4.5 4.5-7.5 5.5-2.5.8-5.5.7-7.9-.5-1.1-.5-1.8-1.9-1.1-2.9 1.6-2.8 5.3-2.9 7.5-5.1 3.7-3.6 5.4-8.8 6.1-13.8.7-4.1-.8-8.6-4-11.3-1.6-1.5-3.9-2.2-5.1-4.2-1.1-1.6-1.9-3.601-3.8-4.401-3.3-1.6-7.4-1.4-10.6.4-4 2.2-7.2 5.6-10 9.1-1.701 2.2-3.401 4.5-4.101 7.2-3.8 13.4-3.5 27.501-1.8 41.202.3 2.9 1.3 5.8 3 8.2 1 1.8 2.9 3.8 1.9 6-.9 2-2 4-3.3 5.9-1.8 1.9-4.5 2.4-6.9 3.1-2.8-4.9-7.6-8.1-10.4-13-2.5-5.8-2.2-12.7-5.7-18.1-1.9-3.8-5.3-7.6-4.5-12.201.3-2.3 3-2.4 4.7-3.3 2.7-1 4.5-3.8 4.4-6.7.1-2.3-1.3-4.2-2.6-5.9.4-2.7 0-5.5.9-8.1 2.3-2.7 4.3-5.5 6.5-8.2 1.9-2.9 2.5-6.501 5.1-8.901 2.9-2.7 6.7-4 10.4-5 2.9-.8 5.9-.6 8.9-1.3 2.9-.6 5.6-1.8 8.6-2.3 2.8-.5 5.6.7 8.4.3 2.5-1.6 4-4.5 7-5.3 0-3.1-.1-6.5 1.6-9.2zM206.397 548.415c8.7-5.1 17.3-10.3 26-15.4 2.2 3.9 4.6 7.8 6.9 11.7 1.5 2.5 2.3 5.6 1.5 8.5-1.1 4-4.2 7-7.6 9-3.7 2.2-8.1 3.7-12.4 2.9-3.1-.5-5.8-2.6-7.4-5.2-2.5-3.8-4.7-7.7-7-11.5m7.6 2.6c1.5 2.4 2.6 5 4.6 7 3 2.3 7.1 1 10.1-.6 3-1.7 6.6-4.2 6.4-8.1-.5-3.1-2.8-5.6-4.2-8.3-5.6 3.3-11.2 6.7-16.9 10zM-120.411 546.215c1.4 1.5 3.3 3.2 2.7 5.5-.8 2.6-3.3 3.9-4.6 6.2.1.8.4 1.6.8 2.4-.4.8-.8 1.5-1.1 2.3-1.3-1.5-3.1-3.1-2.8-5.3.3-2.8 3.2-4 4.4-6.2.4-.9-.3-1.7-.6-2.5.5-.9.9-1.7 1.2-2.4zM-114.511 553.715c10.6 1.3 21.2 2.5 31.7 3.8-1 2-2 4.1-3 6.1-2.2-.3-4.3-.7-6.5-1-1.6 3.3-3.2 6.6-4.9 9.9 1.6 1.5 3.1 3.1 4.6 4.6-1 2-2 4-2.9 6-7.4-7.7-14.9-15.3-22.3-23 1.2-2.1 2.2-4.3 3.3-6.4m4.4 6.2c3 2.9 6 5.9 9.1 8.8 1.1-2.3 2.3-4.6 3.4-6.9-4.2-.6-8.4-1.2-12.5-1.9zM220.097 572.215c9.3-3.7 18.7-7.5 28-11.2 2.8 6.9 5.5 13.7 8.301 20.6-1.7.7-3.3 1.3-4.9 2-2-5-4-9.9-6-14.9-2 .8-3.9 1.6-5.9 2.4 1.8 4.5 3.6 9.1 5.5 13.6-1.7.7-3.3 1.3-4.9 2-1.8-4.5-3.7-9.1-5.5-13.6-2.4 1-4.8 1.9-7.2 2.9 2.1 5.2 4.1 10.3 6.2 15.5-1.6.7-3.3 1.3-4.9 2-3.1-7.2-5.9-14.3-8.7-21.3zM-121.211 577.415c2.1-.9 4.4-.9 6.6-.7l-1.8 6c-1.6.2-3.4.2-4.7 1.4-2.5 2.2-3.4 6.2-1.5 9.1 1.6 2.601 4.5 3.901 7.3 4.801 2.5.7 5.2 1.1 7.8.2 3.6-1.2 5.5-5.8 3.9-9.2-.7-1.4-2-2.4-3.2-3.3l1.8-6c4.4 2.3 7.8 6.8 7.5 12l2.7 1.8c0 1.6 0 3.1.1 4.7l-3.6-2.4c-1.2 3.3-3.3 6.4-6.5 7.9-5.2 2.5-11.3 1.2-16.3-1.2-4.3-2.1-7.8-6.3-8-11.2-.4-5.5 2.5-11.7 7.9-13.9z"/><path d="M-9.308 587.616c4.9-1.7 8.4-7.6 14.1-6.7 2.9 0 5 2 7.3 3.5 3.1.7 5.4-3 8.6-1.8 2.9.5 7 3.2 5.2 6.6-2 1.3-4.4 1.6-6.2 3.2-2.4 2-2.6 5.4-2.4 8.3.8 5.3 4.6 9.3 6.6 14.1 1.9 5 1.9 10.5 4.3 15.3 2.5 4.801 7.3 7.801 10.1 12.401 1 1.6 2.1 3.3 4 4.1 2 1.1 4.9 1.7 5.7 4.2.801 2.2-.1 4.6-1.6 6.2-1.6 1.7-1.5 4.2-1.3 6.3.5 3 3.1 4.9 4.401 7.401 3.3 5.8 5.9 12.1 9.3 17.9.7 1 1.3 2.2 2.5 2.9 2.4.4 4.9-.2 7.2.8 1.7.8.8 3 0 4.1-2.2 2.7-6 2.5-9.1 2.5-2.6.1-4.8-1.5-7.3-2.2-3.4-.8-6 2.7-9.4 2.4h-22.5c-1.3-.2-3.4 0-3.8-1.6 1.2-3.6 4.8-5.5 7.6-7.7.8-2.5.3-5.3 0-7.8-.3-3.6-4.1-5.5-7.4-5.3H-29.51c-1.9 2-2.2 4.8-2.5 7.4-.2 2.1-3 3.6-2.2 5.9 1.8 4.1 6.5 5.3 10.6 5.7 1.4 2.2-1.5 5.1-3.8 5.4-9.5.2-19.1 0-28.6.1-1.5-.1-3.1.2-4.5-.7-.5-1.4.5-2.6 1.4-3.5 1.5-1.6 4-1.5 5.4-3.2 2.6-2.7 4.3-6 6.3-9.1 1.9-3.1 4.2-6.2 4.7-9.9.5-2.9.2-5.8.7-8.7 1-2.7 4-4.1 4.8-6.9.6-2.3 1.2-4.7 1.5-7.1.3-2.5-.9-4.9-.4-7.4.7-2.6 3.3-3.7 4.8-5.7 1.7-3.301 1.1-7.501 3.3-10.701 1.1-1.9 3.1-3.2 4.1-5.2.9-4.6.1-9.6 2-14.1 2.3-5 5.5-9.901 5.8-15.601.1-2.3-2.5-2.5-3.9-3.5-.5-1.2.7-2.3 1.8-2.4 3.1-.6 6 .4 8.9.1m1.3 29c-2.7 3.7-3 8.5-4.1 12.7-.5 2.8-2.9 4.701-3.7 7.301-1.2 2.8-.9 5.9-1.2 8.9-.3 2.5-2.6 4-3.7 6.1-1.7 2.5-2 5.6-2.8 8.5-.4 1.6-.7 3.3-.7 5h39.001c.6-1.4 1.6-3 .6-4.4-1.9-2.8-5-4.5-6.6-7.5-3.1-5.7-.3-12.6-3-18.4-2.6-6.4-6-12.6-7.3-19.4-1.7-2.3-5.2-.6-6.5 1.2m-21.301 27.4c-2.6 1.3-1.2 6.7 2 5.4 1.4-1.1 2.8-2.3 4.1-3.5 0-1.8-1.2-3.4-1.4-5.2-1.6 1.1-3 2.5-4.7 3.3m50.901-2.5c-2.2 2.6-.1 6-.3 9 2.2 2.3 5.7.1 8.3-.4 1-1.5-.8-3.3-.9-4.9-.2-1.8-2.5-1.2-3.5-2.3-1.2-.6-2.3-2.4-3.6-1.4zM112.795 585.916c1.7-.7 3.1-2.9 5.2-1.9 1.7 1.2 3.1 3.4 5.4 3.5 4.3.7 7.1-3.9 11.3-3.6 2.5-.1 4.6 1.6 6.7 2.7 2.5 1.4 5.9 1.7 8.4-.1 2.1-1.4 4.4-2.4 6.9-2.6 5.6-.5 11.7-.4 16.701 2.7 2.2 1.4 5 1 7.4 2 2.2 1.2 5.1 0 6.3-2.2.7-.8 1-2.2 2.3-2.1 1.5 0 2.1 1.7 1.7 3-1.2 4.1-2.2 8.5-1.3 12.8.9 3.8 3 7.3 2.7 11.3-.3 7.2-5.1 13.8-11.7 16.7-2.2 1.6-5.6 1.2-7.4-.7-.4-4.2 5.6-5.3 6-9.3-.1-3.9-2.2-7.4-2.8-11.3-.4-4.5-3.7-8.2-7.7-10-4.4-2.2-9-4.2-14-4.1-2.9-.1-4.8 2.5-7.4 3.4-2.1.8-4.7 1.3-5.7 3.6-2.1 10.2-1.9 20.7-1.8 31.1.1 2.601.2 5.501 1.9 7.601 2.4 1.7 6.4 1.5 8.2-1.1 1.9-1.9 5.1-2.9 5.7-5.9.3-3.1-1.5-6.1-.8-9.2 1.3-2.3 4.9-1.1 6 .9 2 4 1.2 8.7 1.2 13.1-.1 2.3 2.9 3.6 2.6 6-.8 2.5-2.9 4.6-2.4 7.3-.1 2.2 1.8 4.3.8 6.5-.7 1.8-1 3.7-1.5 5.6-.4 1.3-2.1 2.8-3.4 1.8-2.8-2.2-3.1-6-2.4-9.3-1.7-1.6-4.1-2.3-5.8-3.9-1.4-1.2-3.1-2.7-5.1-2.4-1.7 1-2.7 2.9-3.9 4.4-1.5 1.8-.8 4.4-.8 6.5.2 2.7-.5 5.3-1.1 7.9-.6 2.3.2 4.601.7 6.801.8 3.5.3 7.1.7 10.7.2 2.7 3 4.1 3.8 6.6.6 1.9 1.9 3.6 3.9 4 2.9.5 5.9.9 8.8.5 1.6-.2 2-2.3 3.3-3 1.1-.5 2.3.6 2 1.8-.5 2.4-2 4.6-3.6 6.4-1.6 1.7-4.2 1.9-6.4 1.6-2.6-.6-4.8-2-7.4-2.6-3.7-.8-7.6-.7-11.201.4-1.5.4-3.1.8-4.7.4-2.2-.6-3.7-2.9-6-3.2-4.8.3-8.4 4.9-13.3 4.6-1.5.1-2-1.4-2.7-2.4-1.4-.7-2.8-1.5-4-2.5 1-1.2 2.4-1.8 3.9-2 2.2-.3 3.9-2.1 4.7-4.1 1-2.6 2.6-5.1 2.6-8 .2-10.7.4-21.3.5-32 .1-3.2-3.3-5.5-2.8-8.8.7-2.9 2.8-5.501 3-8.501.2-2.9.4-5.8.9-8.7 1.3-7.2-1.1-14.3-1.6-21.4-.3-3.1 0-6.801-2.6-9.101-1.1-1.4-3.2-2.2-3.5-4.2-.1-2.5 2.7-3 4.6-4m11.2 52.001c-.2 2.1.9 4.2 2.3 5.8 2.1.8 4.9.4 6.6-1 0-1.8-2.1-2.8-2.2-4.7-.1-2.7-2.4-4.3-4.1-6.1-1.3 1.8-2.3 3.8-2.6 6zM231.697 604.916c9.9-1.8 19.7-3.7 29.601-5.5 1.4 7 2.6 14.1 4 21.1-1.7.3-3.5.7-5.2 1-.9-5-1.9-9.9-2.8-14.9-2.2.4-4.5.8-6.7 1.2.8 4.3 1.6 8.7 2.4 13-1.7.3-3.5.7-5.2 1-.8-4.4-1.6-8.7-2.4-13-4.2.8-8.3 1.6-12.5 2.3-.4-2.1-.8-4.1-1.2-6.2zM-134.112 612.816c10.5-2 20.901-4.1 31.401-6.1-.3 2.3-.7 4.5-1 6.8-2.1.3-4.3.7-6.4 1-.5 3.7-1.1 7.3-1.6 11 1.9 1 3.9 2 5.8 3-.3 2.2-.6 4.401-1 6.501-9.4-5-18.8-10-28.3-15 .4-2.4.7-4.8 1.1-7.2m6.1 4.6c3.8 1.9 7.6 3.8 11.3 5.6.4-2.5.7-5.1 1.1-7.6-4.1.7-8.3 1.4-12.4 2zM239.198 629.117c2.3-1.9 5.3-2.2 8.2-2.3 6.2-.2 12.4-.5 18.5-.7.1 2.1.2 4.3.2 6.4-6.5.3-13 .5-19.4.7-2.4 0-5 1.1-5.7 3.6-.5 2.1-.3 4.5 1.1 6.3 1.2 1.5 3.4 1.7 5.2 1.6 6.4-.2 12.9-.5 19.3-.7.1 2.1.2 4.3.2 6.4-6.5.2-13 .5-19.5.7-3 .1-6.3-.5-8.5-2.7-2.6-2.5-3.4-6.4-3.4-9.9 0-3.4 1-7.2 3.8-9.4zM-136.512 635.017c10 .4 20.1.8 30.101 1.1-.1 2.1-.2 4.2-.2 6.3-10-.4-20.1-.8-30.1-1.1 0-2.1.1-4.2.2-6.3zM-117.511 645.117c3.7.6 7.5 2.1 9.7 5.3 3.6 5.4 3.2 13.5-1.8 17.9-3.9 3.401-9.3 4.201-14.3 3.901-4.8-.3-9.7-2.8-11.8-7.3-2.5-5.2-2-12.3 2.5-16.3 1.6-1.5 3.7-2.3 5.8-2.9.2 2.1.3 4.2.5 6.3-1.4.8-3.1 1.4-3.9 2.9-1.5 2.8-1 6.8 1.6 8.9 2 1.7 4.8 2.1 7.3 2.1 3.1 0 6.3-.6 8.7-2.6 3.1-2.4 3.1-7.8.1-10.3-1.1-.9-2.6-1.3-3.9-1.7-.2-2-.4-4.1-.5-6.2zM261.298 655.018c1.8.2 3.5.4 5.3.6-.9 8.1-1.8 16.3-2.6 24.4-1.8-.2-3.5-.4-5.3-.6.3-3 .7-6 1-9.1-8.2-.9-16.5-1.8-24.7-2.7.2-2.1.4-4.2.7-6.3 8.2.9 16.4 1.8 24.7 2.7l.9-9z"/><path d="M80.994 669.818c2.1-1 5.4-1.1 6.3 1.5 1.3 3.2 4.2 5.2 5.8 8.2 1.1 1.8 1.9 3.8 2.5 5.9.3 2 2.8 2.6 3.3 4.5-.5 3.5-1.5 7.7 1.1 10.7 1.2 1.9 3.9 3.3 3.6 5.9-1.1 8.101-.3 16.301-1.4 24.302-.1 1.4-.6 2.7-1.5 3.7-2 2.7-3.2 6.1-6 8.1-1.9 1.2-2.7-1.4-2.9-2.8-.2-2.2-2.1-3.4-3.1-5.2-.7-.9-1-2.2-2.2-2.4-2.3-.5-4.7-.5-7-.4-3.1 0-5.9 1.5-8.7 2.4-5.8 2-12.1 2-18.101 1.4-2.7-.2-4.9-1.9-7.4-2.9-3.4-1.4-5.8-4.4-8.2-7-2.6-3.2-5.3-6.4-7.3-10.1-.9-1.9-3.1-2.9-3.9-4.901-.2-3.1 2.5-5.2 4.6-6.9 4.5-.2 9 .1 13.4-.1 2.5-.5 4.9-1.6 7.3-2.5 2.1 3.3 5.5 5.3 8.4 7.8 2.4 1.9 3.6 4.9 6.2 6.6 2.6 1.8 5.9 1.9 8.9 1.7 2.8 0 4.7-2.4 7.2-3.3 1.8-.6 2.5-2.5 3.3-4 1.8-4.3 4.2-8.5 4.3-13.3.401-3.6-1.3-7-1.4-10.6 0-2.2-.8-4.3-2.2-6-1.4-1.5-.5-3.9-1.8-5.5-1.1-1.601-2.5-3.001-3.1-4.801zM-120.311 675.718c4.4-1.1 9.4-1.2 13.3 1.4 6.1 4.2 8.2 13.3 4.6 19.7-2.4 4.1-7 6.2-11.4 7.1-4.1.9-8.7.7-12.2-1.7-5.8-4.2-7.9-12.7-4.7-19.1 1.9-4.1 6.1-6.4 10.4-7.4m2 6c-3.3.8-6.8 2.4-8.1 5.7-1.8 4.1.8 9.4 5.1 10.3 4.2.9 8.9-.2 12.4-2.8 3.7-2.7 3.8-8.8.3-11.8-2.7-2.3-6.5-2.2-9.7-1.4zM228.097 699.819l5.7-22.2c9.7 2.5 19.5 5 29.201 7.4-1.8 7.2-3.6 14.3-5.5 21.5-1.7-.4-3.4-.9-5.2-1.3 1.3-5.2 2.6-10.3 3.9-15.5-2.1-.5-4.1-1-6.2-1.5-1.2 4.7-2.4 9.5-3.6 14.2-1.7-.4-3.4-.9-5.2-1.3 1.2-4.7 2.4-9.5 3.6-14.2-2.5-.6-5.1-1.3-7.6-1.9-1.4 5.4-2.7 10.8-4.2 16.2-1.5-.5-3.2-.9-4.9-1.4zM221.297 716.52c1.8-4.9 4-9.701 6-14.501 9.2 3.9 18.5 7.9 27.701 11.8-1.8 4.3-3.7 8.6-5.5 12.9-1 2.3-2.4 4.8-4.8 5.9-4.2 2.1-10.1-.7-10.5-5.5-3.8 3.8-10.5 1.7-12.7-2.8-1.4-2.3-1.1-5.3-.2-7.8m4.9 2.1c-.9 3.4 4.3 6.2 6.5 3.5 2.1-2.7 2.9-6.2 4.4-9.2-2.5-1.1-4.9-2.2-7.4-3.2-1.1 2.9-2.7 5.7-3.5 8.9m12.2 5.4c-.4 2.7 3.6 4.6 5.3 2.3 2-2.7 2.8-6 4.2-8.9-2-.9-4-1.8-6.1-2.6-1.1 3-2.9 5.9-3.4 9.2zM-111.01 709.319c.7-3.8 4.8-5.9 8.3-6 4.2-.1 7.5 3.3 9.2 6.8 1.8 3.8 3.2 8.4 1.3 12.4-.9 2.2-2.9 3.6-5 4.7-.8-1.8-1.5-3.6-2.3-5.5 1.1-1 2.5-2 2.7-3.7.2-2.8-1.1-5.7-3-7.8-1.4-1.8-4.9-1.3-5.4 1-.5 4.9 1.9 9.7 1.2 14.6-.6 4-5 6.3-8.801 6.3-3.5-.1-6.4-2.6-8-5.6-2-3.6-3.3-8.2-1.5-12.2.9-2.1 2.8-3.5 4.6-4.8.9 1.8 1.7 3.7 2.4 5.5-4 2.4-2.6 8.2.6 10.7 1.7 1.4 4.7.3 4.8-1.9.2-4.8-1.8-9.6-1.1-14.5zM-99.81 734.52c.2-5.7 7.6-9.2 12.4-6.5 4.6 2.5 7.6 7.5 8.5 12.5.7 3.8-1.5 7.3-4.5 9.4-1-1.7-2.1-3.4-3.1-5.1 1.1-1.2 2.3-2.5 2.1-4.2-.3-2.9-2-5.6-4.4-7.3-1.8-1.4-5.1.1-4.8 2.5.5 4.6 3.1 8.7 3.3 13.4.2 4.2-3.8 7.4-7.6 7.9-3.6.5-6.9-1.7-8.9-4.4-2.5-3.2-4.401-7.4-3.2-11.6.6-2.3 2.2-4.1 4.1-5.6 1 1.7 2.1 3.4 3.1 5.1-3.6 3-1.3 8.7 2.3 10.6 1.8.9 4.4-.6 4.3-2.7-.9-4.7-3.5-9.1-3.6-14zM216.297 731.62c3.9-1.4 8.3-.4 11.9 1.6 3.9 2.1 7.6 5.2 9.1 9.5 3 8.9-4.9 19.8-14.5 19-6-.7-11.7-4.4-14.9-9.5-4.5-7.5.4-17.9 8.4-20.6m.6 6c-4.4 1.6-6.5 7.4-3.8 11.3 2.5 3.6 6.6 6.2 11 6.7 4.5.4 8.4-3.9 8-8.3-.3-3.4-2.9-6-5.7-7.8-2.7-1.8-6.3-3.2-9.5-1.9zM-92.11 772.32c5.4-9.2 10.8-18.4 16.3-27.5 1.5 1.7 2.9 3.5 4.4 5.2-1.2 1.8-2.3 3.6-3.5 5.5 2.4 2.9 4.8 5.7 7.1 8.5 2-.8 4.1-1.6 6.1-2.4l4.2 5.1-30 11.1c-1.5-1.7-3.1-3.6-4.6-5.5m14.3-12c-2.2 3.5-4.5 7.1-6.8 10.6 3.9-1.6 7.8-3.1 11.7-4.7-1.6-2-3.3-4-4.9-5.9zM38.293 751.62c.6 0 1.2-.1 1.7-.1v22.8h-2.8v-17.7c-1.7 1.3-3.6 2.4-5.6 3.3v-2.7c2.7-1.2 5.1-3.1 6.7-5.6zM50.393 752.72c3-2 7.4-1.3 9.6 1.6 2 2.5 2.1 5.9 2.1 9-.1 3.1-.5 6.6-2.6 9.1-2.2 2.7-6.6 3.2-9.4 1.3-1.6-1-2-2.9-2.6-4.5.9-.1 1.8-.1 2.7-.2.6 1.1.9 2.6 2.1 3.2 1.8.8 4.2.2 5.3-1.4 1.5-2 1.5-4.5 1.9-6.8-1.9 2.1-5 3.6-7.9 2.4-5.5-2.2-5.9-10.6-1.2-13.7m2.7 1.4c-4 1.6-4.3 8.4-.1 9.8 3 1.2 6.1-1.6 5.9-4.7.5-3-2.5-6.5-5.8-5.1zM64.993 752.02h14.8c-.1 1.1-.1 2.3-1 3.1-4.4 5.5-7.2 12.2-7.9 19.3h-2.9c.5-7.2 3.4-14.1 7.9-19.7h-11c.1-.9.1-1.8.1-2.7zM84.994 753.22c3.3-3 9.8-1.8 11.1 2.8.8 2.4-.6 4.9-2.8 6 3.6.9 5 5.3 3.5 8.4-2 4.5-8.6 5.7-12.1 2.4-1.3-1.1-1.8-2.9-2.3-4.5.9-.1 1.9-.3 2.8-.4.6 1.9 1.5 4.2 3.8 4.4 3.7.8 6.8-3.6 4.9-6.8-1.1-2.2-3.8-2.4-5.9-2.1.1-.5.3-1.6.3-2.1 2.1-.2 4.8-.9 5-3.4.6-2.8-2.6-4.8-5-3.9-1.8.5-2.3 2.4-2.9 3.9l-2.7-.6c.5-1.4 1-3 2.3-4.1zM185.796 767.92c4.7-5.3 9.2-10.7 14.1-15.8 7.6 6.5 15.001 13.2 22.601 19.8-1.4 1.6-2.8 3.2-4.2 4.7-6.2-5.5-12.4-10.9-18.5-16.3-3.3 3.7-6.6 7.5-9.9 11.2-1.4-1.2-2.7-2.4-4.1-3.6zM135.995 787.321c-.3-5.4 5.7-9.6 10.8-8.2 1.6.4 2.7 1.6 3.8 2.7-1.1.6-2.2 1.3-3.3 1.9-1.2-.6-2.5-1.8-3.9-1.2-2.7.5-4.3 3.6-3.2 6.2 1 2.9 3.1 6.4 6.6 6.2 2.8-.3 4.3-3.2 3.6-5.7 1.1-.6 2.2-1.2 3.4-1.8.3 2.1.8 4.3-.2 6.3-2 4.3-8 6.5-12 3.7-3.3-2.5-5.4-6.3-5.6-10.1zM-19.109 780.12c4.7-3.2 12 .3 12.7 5.901.2 1.3-.2 2.6-.5 3.9-1.1-.6-2.2-1.2-3.3-1.9-.1-1 .1-2.1-.2-3-1.1-2.2-4.3-3.3-6.4-1.8-2.2 1.6-3.6 4.2-4.1 6.8-.5 2.7 2.2 5.2 4.9 4.8 1-.3 1.8-.9 2.7-1.5 1.1.6 2.2 1.3 3.3 1.9-1.1.9-2.2 1.9-3.5 2.5-4.6 1.9-10.4-1.5-11.2-6.4-.4-4.4 2-8.8 5.6-11.2zM-2.308 785.221c1.2.5 2.4 1 3.6 1.6-1 2.2-1.9 4.3-2.8 6.5 2.2 1 4.5 1.9 6.7 2.9.9-2.2 1.9-4.3 2.8-6.5l3.6 1.5c-2.5 5.7-4.9 11.4-7.4 17.1l-3.6-1.5c1.1-2.6 2.2-5.1 3.3-7.7-2.2-1-4.5-1.9-6.7-2.9-1.1 2.6-2.2 5.1-3.3 7.7l-3.6-1.5c2.4-5.8 4.9-11.5 7.4-17.2zM121.095 790.321c2-2.2 5.2-3.6 8.3-3.2 2 .2 3.4 1.8 4.5 3.3-1.1.5-2.2 1-3.4 1.5-1.8-2.2-5.1-1.6-6.7.5-.8 1-.3 2.5.9 2.9 3.3.1 6.6-1.5 10-.7 3.2 1.2 4.1 6 1.9 8.5-3.3 3.9-10.8 5.5-13.5.2l3.3-1.5c2 2.6 5.8 1.7 7.6-.7.9-1 .1-2.8-1.2-2.9-3.1-.2-6.1 1.3-9.2.8-3.6-1.1-4.8-6.1-2.5-8.7zM7.292 809.622c3.9-5.3 7.8-10.7 11.7-16 1.4.4 2.8.8 4.3 1.2.4 6.6.7 13.2 1 19.8-1.4-.4-2.7-.8-4.1-1.2 0-1.4 0-2.7-.1-4-2.2-.6-4.4-1.3-6.6-2l-2.4 3.3c-1.1-.3-2.5-.7-3.8-1.1m8.2-4.9c1.5.4 3 .9 4.6 1.4 0-2.6-.1-5.2-.1-7.8-1.5 2-3 4.2-4.5 6.4zM31.093 797.021c3.4.7 7 .9 10.3 2.1 4.6 2.1 3.4 9.9-1.4 11-2.4.4-4.8-.4-7.2-.7-.4 2.1-.7 4.3-1.2 6.4-1.3.1-2.6-.3-3.8-.5l3.3-18.3m3.3 3.8c-.3 1.8-.7 3.6-1 5.4 1.5.2 3 .6 4.6.7 2.4.1 3.3-3.9 1.2-4.9-1.5-.7-3.2-.8-4.8-1.2zM86.894 798.821c3.7-1.6 8.6-.7 10.8 2.8 2 3.3 2.7 7.6 1.2 11.2-2.5 5.6-11.2 6.7-14.9 1.8-3.6-4.8-3.5-13.5 2.9-15.8m2 2.8c-4.3 1.3-4 7.1-2.2 10.3 1.5 3.1 6.4 3.2 8.2.3 1.4-2.5.9-5.8-.3-8.3-1-2-3.5-3-5.7-2.3zM103.694 802.421c3.9-1.1 7.8-2.2 11.7-3.2.4 1.3.7 2.5 1.1 3.8-3.9 1.1-7.8 2.2-11.7 3.2-.4-1.3-.7-2.6-1.1-3.8zM45.893 818.322c.4-6.2.9-12.4 1.3-18.6 4.6.3 9.1.6 13.7 1-.1 1.1-.2 2.2-.2 3.3-3.3-.2-6.6-.5-9.9-.7l-.3 3.9c3 .2 6 .4 9.1.6-.1 1.1-.2 2.2-.2 3.3-3-.2-6.1-.4-9.1-.6l-.3 4.8c3.4.2 6.9.5 10.3.7-.1 1.1-.2 2.2-.2 3.3-4.8-.3-9.5-.6-14.2-1zM64.193 804.122c2.4-4.6 9.3-5.5 13.1-2.1 1.2 1.1 1.8 2.7 2.4 4.2-1.3.1-2.6.1-3.9.2-.6-.8-1-1.8-1.8-2.5-2.1-1.3-5.3-.5-6.3 1.9-1.1 2.4-.9 5.3.1 7.8.8 2.1 3.4 3.2 5.5 2.3 1.6-.4 2.1-2.1 2.7-3.4 1.3-.1 2.6-.1 3.9-.1-.5 1.6-.9 3.3-2.1 4.6-3.5 4-10.9 3.4-13.4-1.4-1.8-3.5-1.9-7.9-.2-11.5z"/></g></svg>