<svg xmlns="http://www.w3.org/2000/svg" id="Camada_1" data-name="Camada 1" viewBox="0 0 500 500"><defs><style>.cls-3{fill:#fff}.cls-2,.cls-4{fill:#1e3d8e}.cls-2,.cls-3{fill-rule:evenodd}</style></defs><path d="M498 250c0 137-111 248-248 248S2 387 2 250 113 2 250 2s248 111 248 248Z" style="fill:#fff"/><path d="M421 79.65A241.71 241.71 0 0 0 250 8.9 242.05 242.05 0 0 0 8 250a242.07 242.07 0 0 0 242 241.11A242.07 242.07 0 0 0 492 250a239.86 239.86 0 0 0-71-170.35ZM484.9 250A234.87 234.87 0 0 1 250 484 234.88 234.88 0 0 1 15.09 250 234.9 234.9 0 0 1 250 16a234.9 234.9 0 0 1 234.9 234Z" class="cls-2"/><path d="M250 80.69c-92.8 0-168.5 76.05-168.5 169.31S157.2 419.32 250 419.32 418.5 343.26 418.5 250 342.8 80.69 250 80.69Z" class="cls-2"/><path d="m254.23 334.61 6.61 20.3h21.34l-17.27 12.55 6.59 20.3-17.27-12.55-17.26 12.55 6.6-20.3-17.26-12.55h21.34l6.58-20.3zM345.17 193.4l6.59 20.3h21.36l-17.28 12.55 6.6 20.3L345.17 234l-17.27 12.55 6.6-20.3-17.27-12.55h21.35l6.59-20.3zM277.64 233.87l4.9 15.1h15.9l-12.85 9.34 4.91 15.11-12.86-9.34-12.85 9.34 4.91-15.11-12.85-9.34h15.89l4.9-15.1zM250.07 109.18l6.6 20.29h21.34l-17.26 12.55 6.59 20.3-17.27-12.54-17.26 12.54 6.59-20.3-17.27-12.55h21.34l6.6-20.29zM157.49 191.7l6.6 20.3h21.34l-17.27 12.55 6.6 20.29-17.27-12.54-17.27 12.54 6.6-20.29L129.55 212h21.35l6.59-20.3z" class="cls-3"/><path d="M83.13 127.36c-1.55-.73-6.57-2.52-9.89 2.42-3.75 5.59.48 11 5.69 14.52s11.84 5.34 15.59-.24c2.69-4 .92-7.48-2.24-10.63l7.88-11.72C108 127 112 138.88 104.4 150.22c-8.42 12.53-22 13.7-33.49 6C58.7 148 55.79 134.9 63.81 123c7.19-10.6 16.72-12.71 27.13-7.22ZM94.1 87.29l21.34-17.16c6.36-5.12 14.68-6 20.22.84 3 3.77 4.49 9.13 1.88 13.5 4-1.29 8.58.55 12.64 4.76 1.58 1.66 5.11 5.94 7.49 6.8l-11.2 9a34.36 34.36 0 0 1-5.43-4.86c-3.09-3.22-6.3-6.58-10.72-3l-6 4.8 10.21 12.67-11.21 9Zm24 6.88 5.86-4.71c2.09-1.69 4.65-4.33 2-7.59-1.85-2.3-4.18-2.59-8.46.85l-5.24 4.21ZM199.34 59.17c4.7 12 .45 20.37-12.83 25.55s-22.11 2-26.81-10.09L149.3 48l13.39-5.22 9.24 23.68c1.73 4.44 3.9 10 10.41 7.45 6.34-2.48 4.17-8 2.44-12.46l-9.24-23.68 13.39-5.23ZM215.51 62.49l19.93-25L215 39l-.87-11.93 39.31-2.87.76 10.43-20.04 25.78L257 58.74l.86 11.92-41.58 3ZM278.53 26l37.74 8.22-2.54 11.68L290 40.77l-1.24 5.69 21.52 4.67L308 62l-21.52-4.68L285.2 63l24.41 5.3-2.55 11.7-38.45-8.36ZM337.91 43l13 6.1-19.77 42.25-13-6.09ZM371.69 60.13 393.23 77c6.43 5 9.19 12.94 3.75 19.89-3 3.8-7.89 6.44-12.73 4.88 2.16 3.61 1.4 8.48-1.78 13.38-1.26 1.93-4.64 6.33-4.94 8.84l-11.31-8.88a33.5 33.5 0 0 1 3.51-6.38c2.44-3.74 5-7.63.52-11.14l-6-4.72-10.05 12.8-11.3-8.88ZM370.42 85l5.91 4.63c2.11 1.66 5.26 3.56 7.84.27 1.83-2.31 1.59-4.66-2.73-8l-5.3-4.15ZM436.19 123c8 11.73 4.86 25.29-6.93 33.3s-25.54 5.89-33.5-5.84-4.86-25.29 6.92-33.3 25.54-5.9 33.51 5.84Zm-30.82 20.93c2.06 3 7.22 6.31 15.81.47s7.44-11.84 5.38-14.87-7.21-6.31-15.8-.48-7.44 11.84-5.39 14.87ZM429.11 255.64l-2.91-38.52 11.93-.9L440 240.4l5.8-.44-1.65-22 11.08-.84 1.66 22 5.79-.44-1.87-24.89 11.93-.9 3 39.23ZM419.88 307.72l5.37-25c2.58-12 9.91-13.11 14.57-12.11s6.61 3.76 7.74 7.54c2.28-3.79 6.36-6.92 13.08-5.47 9.13 2 12.16 10.9 10.43 18.95l-5.57 25.88Zm20.79-10.25 1.6-7.41c.62-2.94.19-5-2.74-5.6-2.3-.49-3.55 1.24-4.17 4.12l-1.59 7.42Zm17 3.66 1.77-8.24c.63-2.94.34-5.68-3.17-6.44-2.68-.57-4.5.71-5.21 4l-1.89 8.81ZM440.75 332.88c11.3 6.33 13.29 15.47 6.32 27.9S431.23 376.33 420 370l-25-14 7-12.54 22.18 12.43c4.16 2.34 9.36 5.24 12.77-.86 3.32-5.93-1.86-8.84-6-11.17l-22.18-12.43 7-12.55ZM363.45 388.89l10.18-10.16 24.49 24.59 14.63-14.59 8.44 8.48-24.81 24.72ZM351.45 418c-1.05-1.35-4.7-5.24-9.9-2.35-5.89 3.26-4.6 10-1.56 15.5s8.09 10.16 14 6.9c4.23-2.35 4.24-6.23 2.86-10.47l12.34-6.85c4.57 8.23 2.73 20.68-9.22 27.3-13.2 7.32-25.85 2.16-32.53-9.9-7.13-12.86-3.74-25.88 8.83-32.84 11.24-6.16 20.67-3.69 27.43 5.93ZM241.7 429.84l38.55-2.37.74 11.94-24.21 1.49.37 5.8 22-1.35.69 11.09-22 1.35.35 5.81 24.92-1.53.73 11.93-39.27 2.42ZM202.48 435l-12.77-2.81 2.56-11.68 39.59 8.68-2.56 11.69-12.77-2.8-7.44 33.92-14.09-3.06ZM147 397.37l24 13.17c7.17 3.92 11.19 11.27 7 19-2.33 4.23-6.73 7.64-11.76 6.89 2.72 3.21 2.76 8.15.42 13.5-.93 2.1-3.54 7-3.43 9.52l-12.61-6.91a34.38 34.38 0 0 1 2.42-6.87c1.8-4.08 3.69-8.34-1.3-11.07l-6.7-3.69-7.83 14.27-12.61-6.91Zm2.79 24.79 6.59 3.61c2.35 1.29 5.78 2.65 7.8-1 1.41-2.57.79-4.85-4-7.49l-5.9-3.24ZM122.65 373.4c9.82 10.23 9 24.13-1.25 34s-24.19 10.09-34-.14-9-24.13 1.25-34 24.17-10.09 34 .14Zm-26.88 25.8c2.54 2.63 8.17 5 15.67-2.19s5.35-12.92 2.82-15.56-8.18-5-15.67 2.18-5.35 12.92-2.82 15.57ZM82.35 313.57 93.2 335c5.72 11.31-.54 19.46-6.49 22.47-10.09 5.1-18.23.73-23.07-8.83l-3.84-7.58-12.59 6.37-6.49-12.82Zm-12.64 22.51 2.51 4.92c1.68 3.32 3.69 6.7 7.89 4.58 3.78-1.92 2.54-4.95 1-8.1l-2.89-5.72ZM43.47 283.84a8.72 8.72 0 0 0-2.92 1.16c-2.55 1.56-2.53 4.75-2 7.38.45 2.31 1.9 5.69 5.3 5 2.38-.46 2.63-2.57 3.34-10.9.63-7.65 1-16.32 10.25-18.12 10.59-2.07 16.9 6.09 18.75 15.52 1.94 9.94-.14 19.47-11.22 22l-2.61-13.34a3.57 3.57 0 0 0 3.34-2.38 7.56 7.56 0 0 0 .34-4.39c-.38-1.93-1.51-5-4.08-4.48-3.22.9-2.65 7.59-3.18 14.41s-2.29 13.84-10.69 15.48c-11.94 2.33-17.93-7.89-19.92-18.09-1-5.2-2.05-20.37 12.55-23.37ZM74 216.2l-3.12 38.51-11.92-1 2-24.17-5.8-.47-1.77 22-11.08-.89 1.78-22-5.8-.47-2 24.89-11.92-1 3.16-39.22Z" class="cls-4"/></svg>