<svg xmlns="http://www.w3.org/2000/svg" xml:space="preserve" id="Layer_1" x="0" y="0" style="enable-background:new 0 0 400 400" version="1.1" viewBox="0 0 400 400"><style>.csa0,.csa1,.csa2{fill-rule:evenodd;clip-rule:evenodd;fill:#fff}.csa1,.csa2{fill:#041e5c}.csa2{fill:#fdfdfd}</style><path d="M181.3 368.7c25.2-14.1 49.3-27.1 74.3-40.4-17 18.5-35.9 36.5-54.6 53.8-8.1-4.2-13.5-8.1-19.7-13.4zm0 0zm142.1-140.5c-1.8 7-17.9 35.3-22.7 40.3-48.5 26-97 51.9-145.5 77.9-6.7-6.2-11.8-12.7-16.7-19.8l184.9-98.4zm0 0zM325 163c5.9 4.7 8.2 6.2 16.5 9.1.4 3.2-.2 7.8-2 11.8L120.4 301.1c-1.8-2-12.7-19.5-13.4-21.8L325 163zm0 0zM82 228.1l225.6-121.5c-2.8 13.2-3.5 17-.7 30.8L92.7 251.6 82 228.1zm0 0zM301.8 44.3l24.6 36.5L77.8 216.3c-2.7-3.4-14.1-37.3-15.1-43.3L301.8 44.3zm0 0zm-200.7 1.3c25.8 3.2 39.9-7.9 45.4-30.1h108.9c3.4 12.1 9.7 22.6 22.9 27.3L93.5 142.4c2-12.2 6-20.7.3-36.5-2.8-8-10.8-20.1-17.9-23.3l25.2-37zm0 0zm26.4 32.5 5.4.3 4.4 14.5c-4.5 2.5-10.3 1.3-13.4-1l3.6-13.8zm0 0zm3.9-5.6-2.5-.2s.7-3 1.4-4.9c.4 1.6.8 3.6 1.1 5.1zm0 0zm-7.3-1c-5.3-3.3-2.2-8.1 3.1-9.2l-3.1 9.2zm0 0zm7.7-24.9c7.7 0 14.8 2.8 20.2 7.5l-3.3 4.6c-4.5-4-10.4-6.5-16.9-6.5-14 0-25.4 11.4-25.4 25.4 0 8.5 4.1 16 10.5 20.6l.9-3.1c.1-.2-3.2-2.4-5-6.2l3.9-2.9s1.6 2.3 2.6 3l3.2-11.6c-4.7-2.5-8.1-6.2-6.9-12.1 2.2-10.7 19.9-11.9 27.8-5.8-.7 1.3-1.8 3-2.4 4.4-2.8-1-3.4-1.9-7.5-2.3l3.1 10.8s8.7.7 11.3 9.2c1.6 5.5-1.3 10.9-4.6 13.5l1.2 4.5c1.9-1.1 3.6-2.4 5.2-4l4.2 3.8c-2.3 2.3-5 4.3-7.9 5.8l1.2 4.4c-1.4.8-3 1.6-4.4 2.4-.2-.6-.7-2.6-1.4-4.9-3 1-6.3 1.5-9.6 1.5-4.2 0-8.3-.9-12-2.4-.6 2.1-1.2 4.3-1.7 5.9l-4.5-3 1.6-5.2a30.92 30.92 0 0 1-14.4-26.2c-.1-17.2 13.9-31.1 31-31.1zm0 0zm-10.4 54.2c3.2 1.4 6.7 2.2 10.4 2.2 2.8 0 5.6-.5 8.1-1.3-.6-1.9-1-3.4-1.1-3.6-5.4 2.1-9.7 2.4-16.5-.7 0 0-.3 1.4-.9 3.4zm0 0zm-35.2 72.5 6.2-3.4L99 182c.6 1.2 1 2.4 1.3 3.7.2 1.3.1 2.5-.3 3.7-.4 1.2-.9 2.2-1.6 3-1 1.1-2.3 2.1-4 3-1 .5-2.1 1-3.3 1.5-1.2.5-2.4.7-3.4.8-1 0-2-.2-3.1-.6-1-.4-1.9-.9-2.6-1.6-1.1-1.1-1.9-2.1-2.4-3.1l-6.5-12.1 6.2-3.4 6.7 12.3c.6 1.1 1.4 1.8 2.3 2.1 1 .3 2 .1 3-.4 1.1-.6 1.7-1.3 2-2.3.3-1 .1-2-.5-3.1l-6.6-12.2zm0 0zm10.4-5.6 5.8-3.1 13.6 7.1-6-11.2 5.9-3.2 10.9 20.2-5.9 3.2-13.5-7.1 6 11.1-5.9 3.2-10.9-20.2zm0 0zm23.8-12.8 6.3-3.4 10.9 20.2-6.3 3.4-10.9-20.2zm0 0zm32.3 4.4-7.1 3.8.8 3.9-6.4 3.5-3.3-24.4 6.9-3.7 18.5 16.2-6.5 3.5-2.9-2.8zm0 0zm-3.6-3.7-6.1-6.1 1.7 8.5 4.4-2.4zm0 0zm-8.9-17.9 2.2-1.2c.1.2.3.4.3.6.5 1 .7 2 .5 2.8-.2.8-.7 1.5-1.5 1.9-.6.3-1.6.5-3.1.7-.9.1-1.5.2-1.7.4-.3.1-.4.3-.5.6-.1.3 0 .6.2 1l-2.2 1.2-.3-.6c-.5-1-.7-1.9-.4-2.8.2-.9.7-1.5 1.5-1.9.3-.2.6-.3 1-.4.3-.1 1-.2 1.9-.3.9-.1 1.6-.2 1.9-.4.2-.1.4-.3.4-.6.1-.2 0-.5-.2-1zm0 0zm17.6 10.1c-1.8-3.3-2.3-6.4-1.4-9.2.8-2.8 2.9-5.1 6.2-6.9 3.4-1.8 6.5-2.3 9.3-1.5 2.8.8 5.1 2.9 6.8 6.1 1.3 2.4 1.9 4.5 1.9 6.5 0 1.9-.5 3.7-1.6 5.4-1 1.6-2.7 3.1-4.9 4.3-2.3 1.2-4.4 1.9-6.2 2-1.9.1-3.7-.4-5.5-1.5-1.8-1.1-3.3-2.9-4.6-5.2zm0 0zm8.2-.7c.5.5 1 .9 1.6 1.1 1.1.4 2.3.4 3.5-.2-1.5.7-3.4.5-5.1-.9zm0 0zm5.8.6c1.1-.7 1.9-1.6 2.1-2.8.2-.9 0-2.1-.6-3.5.1.3.2.5.2.8.6 2.6-.3 4.5-1.7 5.5zm0 0zm-9-7.7c0 .6.1 1.2.3 1.9-.2-.6-.3-1.3-.3-1.9zm0 0zm33.9-26.8 15.5-8.3 2.3 4.4-9.2 4.9 1.9 3.5 7.9-4.2 2.2 4.1-7.9 4.2 4.4 8.3-6.3 3.4-10.8-20.3zm0 0zm23.5.4c-1.8-3.3-2.3-6.4-1.4-9.2.9-2.8 2.9-5.1 6.2-6.9 3.4-1.8 6.5-2.3 9.3-1.5 2.8.8 5.1 2.9 6.8 6.1 1.3 2.4 1.9 4.5 1.9 6.5 0 1.9-.5 3.7-1.6 5.4-1 1.6-2.7 3.1-4.9 4.3-2.3 1.2-4.4 1.9-6.2 2-1.9.1-3.7-.4-5.5-1.5-1.8-1.1-3.3-2.8-4.6-5.2zm0 0zm6.3-3.3.3.6c-.2-.4-.4-.8-.5-1.1-.7-1.6-1.1-2.9-1.1-4.1-.2 1.2.3 2.8 1.3 4.6zm0 0zm8.6 2.5c.6-.6.9-1.2 1.1-2 .2-.8 0-1.7-.3-2.9.4 1.8.2 3.6-.8 4.9zm0 0zm15-2.2-10.9-20.2 10.4-5.6c1.9-1 3.5-1.7 4.7-1.9 1.2-.2 2.4 0 3.5.5 1.1.6 2 1.5 2.7 2.8.6 1.1.9 2.2.8 3.3 0 1.1-.3 2.1-.9 3-.3.6-1 1.3-1.8 2 .9-.1 1.6-.2 2-.1.3 0 .8.2 1.6.5.7.3 1.2.6 1.6.8l6.2 4.2-7.1 3.8-6.7-4.4c-.9-.6-1.5-.9-2-1-.6-.1-1.2.1-1.8.4l-.5.3 4.4 8.2-6.2 3.4zm0 0zm-.2-15.4.4-.2-2.2-4.1-.4.2 2.2 4.1zm0 0zm30.6-11.7 6.4-1.3c.4 1.7.6 3.3.3 4.8s-.8 2.8-1.7 3.9c-.9 1.2-2.2 2.2-4.1 3.2-2.2 1.2-4.2 1.8-5.9 2-1.7.1-3.5-.4-5.4-1.4-1.9-1-3.5-2.9-4.9-5.4-1.8-3.3-2.3-6.4-1.5-9.2.8-2.8 2.9-5 6.1-6.8 2.6-1.4 4.9-1.9 6.9-1.7 2 .3 4 1.2 5.8 3l-4.9 4.2c-.5-.5-1-.8-1.3-1-.6-.3-1.2-.4-1.9-.4-.6 0-1.3.2-1.9.5-1.5.8-2.2 1.9-2.4 3.5-.1 1.1.3 2.6 1.3 4.4 1.2 2.2 2.4 3.6 3.5 4.1 1.1.5 2.3.4 3.5-.3 1.2-.6 1.9-1.5 2.2-2.5.4-1 .3-2.2-.1-3.6zm0 0zm23.7-6.4-7.1 3.8.8 3.9-6.4 3.4-3.3-24.4 6.9-3.7 18.5 16.2-6.5 3.5-2.9-2.7zm0 0zm-3.7-3.6-.2-.2-3.4 1.7-.8-5.8-1.8-1.8 1.7 8.5 4.5-2.4zm0 0zM183 130.2l10.8-5.8 1.5 2.8-6.8 3.7 1.1 2.1 6.3-3.4 1.5 2.7-6.3 3.4 1.4 2.6 7-3.8 1.6 3-11.1 6-7-13.3zm0 0zm97.3-35.4 2.7-1.5 2.5 3.2-3.8 2.1-1.4-3.8z" class="csa0"/><path d="M181.3 368.7c25.2-14.1 49.3-27.2 74.3-40.4-17 18.5-35.9 36.5-54.6 53.8-8.1-4.2-13.6-8.1-19.7-13.4zm0 0zm142.1-140.5c-1.8 7-17.9 35.3-22.7 40.3-48.5 25.9-97 51.9-145.5 77.9-6.7-6.2-11.8-12.7-16.7-19.8l184.9-98.4zm0 0zM325 163c5.9 4.7 8.1 6.2 16.5 9.1.4 3.2-.2 7.7-2 11.8L120.4 301.1c-1.8-2-12.7-19.5-13.4-21.8L325 163zm0 0zM82.1 228.2l225.5-121.5c-2.8 13.1-3.5 17-.7 30.8L92.7 251.6l-10.6-23.4zm0 0zM301.8 44.3l24.6 36.5L77.8 216.3c-2.7-3.4-14.1-37.2-15.1-43.3L301.8 44.3zm0 0zm-200.6 1.3c25.8 3.2 39.9-7.9 45.4-30.1h108.9c3.4 12.1 9.7 22.6 22.9 27.3L93.6 142.4c2-12.2 5.9-20.7.3-36.5-2.8-8-10.8-20.1-17.9-23.3l25.2-37zm0 0zm-4.6-15.3L57.8 86.4c16.5 7.9 27.5 19.3 26.1 38.4-.9 13-6.1 25.6-17.8 32.7-5.9 3.6-13.3 5.4-20.9 5.4 17.2 54.7 63.5 186.9 156 234.2 3.8.6 150-122.5 153.6-235.4-8.5 0-14.9-2.7-21.2-6.9-1.5-1-1.4-1.2-2.6-2.2l-4.8-4.8c-14.4-18.3-10.8-42.2 7.5-56.2 3.2-2.4 7.3-4.3 10.8-6.2l-37.9-56.6c-1.9.4-4.9 1.6-7.1 2.4-20.7 6.9-35.3-14.5-32.1-28.4H134.8c-.7 26.1-14.5 33.7-38.2 27.5z" class="csa1"/><path d="M163 142c2.4 9.5 12.1 7.5 10.5.2-2.2-10.1-12.5-8.6-10.5-.2zM228.1 101.8c-3.5 1.7-3.5 4.1-1.8 8 1.2 2.7 3.1 6 7.3 4.2 5.9-2.5.4-14.9-5.5-12.2zM296.9 75l4.5-2.2-5.6-6.1 1.1 8.3zM141.5 89.4c2.7-3.6.9-9.2-2.8-9.8l2.8 9.8z" class="csa2"/><path d="m247.7 90.3 3.7-2c1.4-.7 3-.2 3.8 1.1.7 1.3.2 3-1.1 3.8l-3.7 2-2.7-4.9z" class="csa0"/><path d="m154 99.5-4.2-3.8c-1.5 1.5-3.3 2.9-5.2 4l-1.2-4.4c3.3-2.6 6.2-8 4.6-13.5-2.5-8.6-11.3-9.2-11.3-9.2l-3.1-10.8c4.1.4 4.7 1.3 7.5 2.3.6-1.5 1.7-3.1 2.4-4.4-8-6.1-25.6-4.9-27.8 5.8-1.2 5.9 2.2 9.6 6.9 12.1l-3.2 11.6c-1-.8-2.6-3-2.6-3l-3.9 2.9c1.8 3.7 5 6 4.9 6.2l-.9 3.1c-6.4-4.6-10.5-12.1-10.5-20.6 0-14 11.4-25.4 25.4-25.4 6.5 0 12.4 2.4 16.9 6.5l3.3-4.6c-5.4-4.7-12.5-7.5-20.2-7.5-17.2 0-31.1 13.9-31.1 31 0 11 5.7 20.7 14.4 26.2l-1.6 5.2 4.5 3c.5-1.6 1.1-3.7 1.7-5.9 3.7 1.5 7.7 2.4 12 2.4 3.4 0 6.6-.5 9.7-1.5.7 2.3 1.2 4.2 1.4 4.8 1.4-.8 3-1.6 4.4-2.4l-1.2-4.4c3-1.4 5.7-3.4 8-5.7zm-12.5-10.2-2.8-9.8c3.7.6 5.5 6.3 2.8 9.8zm-11.1-21.8c.3 1.5.8 3.6 1.1 5.1l-2.5-.2s.7-3 1.4-4.9zm2.5 11 4.4 14.5c-4.5 2.5-10.3 1.3-13.4-1l3.7-13.9 5.3.4zm-5.7-16.2-3.1 9.2c-5.3-3.3-2.2-8.1 3.1-9.2zm4.6 40.8c-3.7 0-7.2-.8-10.4-2.2.6-2 1-3.4 1-3.4 6.8 3.1 11.1 2.8 16.5.7.1.2.5 1.7 1.1 3.6-2.6.8-5.3 1.3-8.2 1.3z" class="csa1"/><path d="m154 99.5-4.2-3.8c-1.5 1.5-3.3 2.9-5.2 4l-1.2-4.4c3.3-2.6 6.2-8 4.6-13.5-2.5-8.6-11.3-9.2-11.3-9.2l-3.1-10.8c4.1.4 4.7 1.3 7.5 2.3.6-1.5 1.7-3.1 2.4-4.4-8-6.1-25.6-4.9-27.8 5.8-1.2 5.9 2.2 9.6 6.9 12.1l-3.2 11.6c-1-.8-2.6-3-2.6-3l-3.9 2.9c1.8 3.7 5 6 4.9 6.2l-.9 3.1c-6.4-4.6-10.5-12.1-10.5-20.6 0-14 11.4-25.4 25.4-25.4 6.5 0 12.4 2.4 16.9 6.5l3.3-4.6c-5.4-4.7-12.5-7.5-20.2-7.5-17.2 0-31.1 13.9-31.1 31 0 11 5.7 20.7 14.4 26.2l-1.6 5.2 4.5 3c.5-1.6 1.1-3.7 1.7-5.9 3.7 1.5 7.7 2.4 12 2.4 3.4 0 6.6-.5 9.7-1.5.7 2.3 1.2 4.2 1.4 4.8 1.4-.8 3-1.6 4.4-2.4l-1.2-4.4c3-1.4 5.7-3.4 8-5.7zm-12.5-10.2-2.8-9.8c3.7.6 5.5 6.3 2.8 9.8zm-11.1-21.8c.3 1.5.8 3.6 1.1 5.1l-2.5-.2s.7-3 1.4-4.9zm2.5 11 4.4 14.5c-4.5 2.5-10.3 1.3-13.4-1l3.7-13.9 5.3.4zm-5.7-16.2-3.1 9.2c-5.3-3.3-2.2-8.1 3.1-9.2zm4.6 40.8c-3.7 0-7.2-.8-10.4-2.2.6-2 1-3.4 1-3.4 6.8 3.1 11.1 2.8 16.5.7.1.2.5 1.7 1.1 3.6-2.6.8-5.3 1.3-8.2 1.3z" style="fill:none;stroke:#fff;stroke-width:2;stroke-linecap:round;stroke-miterlimit:10"/><path d="m86.2 173.3 6.2-3.4L99 182c.6 1.2 1.1 2.4 1.3 3.7.2 1.3.1 2.5-.3 3.7-.3 1.2-.9 2.2-1.6 3-1 1.1-2.3 2.1-4 3-1 .5-2.1 1-3.3 1.5-1.2.5-2.3.7-3.4.8-1 0-2-.2-3.1-.6-1-.4-1.9-1-2.6-1.6-1.1-1.1-1.9-2.1-2.4-3.1l-6.5-12.1 6.2-3.4 6.7 12.3c.6 1.1 1.4 1.8 2.3 2.1 1 .3 2 .2 3-.4 1.1-.6 1.8-1.3 2-2.3.3-.9.1-2-.5-3.1l-6.6-12.2zm0 0zm10.5-5.6 5.8-3.2 13.6 7.1-6-11.2 5.9-3.2 10.9 20.3-5.9 3.2-13.5-7 6 11.1-5.9 3.2-10.9-20.3zm0 0zm23.7-12.8 6.3-3.4 10.9 20.3-6.3 3.4-10.9-20.3zm0 0zm32.3 4.4-7.1 3.8.8 3.9-6.4 3.4-3.3-24.4 6.9-3.7 18.5 16.1-6.6 3.5-2.8-2.6zm0 0zm-3.6-3.7-6.1-6.1 1.7 8.5 4.4-2.4zm0 0zm-8.9-17.9 2.2-1.2c.2.3.3.4.3.6.6 1 .7 2 .5 2.8-.2.8-.7 1.5-1.5 1.9-.6.3-1.6.6-3.1.7-.9.1-1.5.2-1.7.4-.3.2-.4.3-.5.6-.1.3 0 .6.3 1l-2.2 1.2-.3-.6c-.5-1-.7-1.9-.4-2.8.2-.9.7-1.5 1.5-1.9.3-.2.6-.3 1-.4.3-.1 1-.2 1.9-.3 1-.1 1.6-.2 1.9-.4.3-.1.4-.3.5-.6-.1-.2-.1-.5-.4-1zm0 0zm17.6 10.1c-1.8-3.3-2.3-6.4-1.4-9.2.9-2.8 2.9-5.1 6.2-6.9 3.4-1.8 6.5-2.3 9.3-1.5 2.8.8 5.1 2.9 6.8 6.1 1.3 2.4 1.9 4.5 1.9 6.5 0 1.9-.5 3.7-1.6 5.4-1 1.6-2.7 3.1-4.9 4.3-2.3 1.2-4.4 1.9-6.3 2-1.9.1-3.7-.4-5.5-1.5-1.6-1.1-3.2-2.9-4.5-5.2zm0 0zm6.3-3.4c1.1 2 2.3 3.3 3.5 3.8 1.2.5 2.5.4 3.8-.3 1.3-.7 2.2-1.7 2.4-3 .3-1.3-.2-3-1.4-5.3-1-1.9-2.2-3.1-3.4-3.6-1.3-.5-2.5-.3-3.9.4-1.3.7-2 1.7-2.3 3-.2 1.3.2 3 1.3 5zM196.7 113.3l15.5-8.3 2.3 4.3-9.2 4.9 1.9 3.5 7.9-4.2 2.2 4.1-7.9 4.2 4.4 8.2-6.3 3.4-10.8-20.1zm0 0zm23.5.4c-1.8-3.3-2.3-6.4-1.4-9.2.9-2.8 2.9-5.1 6.2-6.9 3.4-1.8 6.4-2.3 9.2-1.5 2.8.9 5.1 2.9 6.8 6.2 1.3 2.4 1.9 4.5 2 6.5 0 1.9-.5 3.7-1.6 5.4-1.1 1.6-2.7 3.1-4.9 4.3-2.3 1.2-4.4 1.9-6.3 2-1.9.1-3.7-.4-5.5-1.5-1.7-1.2-3.2-3-4.5-5.3zm0 0zm6.2-3.4c1.1 2 2.3 3.3 3.5 3.8 1.2.5 2.5.4 3.8-.3 1.3-.7 2.2-1.7 2.4-3 .3-1.3-.2-3-1.4-5.3-1-1.9-2.2-3.1-3.4-3.6-1.2-.5-2.5-.3-3.8.4-1.3.7-2 1.7-2.3 3-.3 1.3.1 2.9 1.2 5zm0 0zm23.7.3-10.9-20.3 10.4-5.6c1.9-1 3.5-1.7 4.7-1.9 1.2-.2 2.4 0 3.5.5 1.1.6 2 1.5 2.7 2.8.6 1.1.9 2.2.9 3.3 0 1.1-.3 2.1-.9 3.1-.4.6-1 1.3-1.8 2 .9-.2 1.6-.2 2-.1.3 0 .9.2 1.6.5.7.3 1.2.6 1.5.8l6.2 4.2-7.1 3.8-6.7-4.4c-.9-.6-1.5-.9-2-1-.6-.1-1.2.1-1.8.3l-.6.3 4.4 8.2-6.1 3.5zm0 0zm-.2-15.4 2.7-1.4c.3-.2.8-.6 1.5-1.2.4-.3.6-.7.7-1.2.1-.5 0-1-.2-1.4-.4-.7-.8-1-1.4-1.2-.6-.1-1.5.1-2.6.7l-2.7 1.5 2 4.2zm0 0zm30.6-11.7 6.4-1.3c.5 1.7.6 3.3.3 4.8-.2 1.5-.8 2.8-1.7 3.9-.9 1.2-2.3 2.2-4.1 3.2-2.2 1.2-4.2 1.8-5.9 1.9-1.7.1-3.6-.4-5.4-1.4-1.9-1.1-3.5-2.9-4.9-5.4-1.8-3.4-2.3-6.4-1.5-9.2.8-2.8 2.9-5 6.1-6.8 2.5-1.4 4.8-1.9 6.9-1.7 2 .3 3.9 1.2 5.8 3l-4.9 4.2c-.5-.5-1-.9-1.3-1-.6-.3-1.2-.4-1.9-.4s-1.3.2-1.9.5c-1.4.8-2.2 1.9-2.3 3.5-.1 1.2.3 2.6 1.3 4.4 1.2 2.3 2.4 3.6 3.5 4.1 1.1.5 2.3.4 3.6-.3 1.2-.7 1.9-1.5 2.2-2.5.2-.9.1-2.1-.3-3.5zm0 0zm23.6-6.4-7.1 3.8.8 3.9-6.4 3.5-3.3-24.4 6.9-3.7 18.5 16.1-6.6 3.5-2.8-2.7zm0 0zm-3.6-3.6-6.1-6.1 1.7 8.5 4.4-2.4zM183 130.2l10.8-5.9 1.5 2.8-6.7 3.7 1.1 2.1 6.3-3.4 1.4 2.7-6.3 3.4 1.4 2.6 7-3.8 1.6 3-11 5.9-7.1-13.1z" class="csa1"/><path d="m280.3 94.8 2.7-1.5 2.6 3.3-3.9 2.1-1.4-3.9z" style="fill-rule:evenodd;clip-rule:evenodd;fill:#010191"/></svg>