<svg xmlns="http://www.w3.org/2000/svg" xml:space="preserve" id="Layer_1" x="0" y="0" style="enable-background:new 0 0 595.28 595.28" version="1.1" viewBox="0 0 595.28 595.28"><style>.st1,.st2{fill-rule:evenodd;clip-rule:evenodd;fill:#ffdb01}.st2{fill:#fff}</style><path d="M297.67 2.79C238.15 47.27 155.8 83.25 64.57 115.97c2.83 109.85.44 168.74 24.41 241.66 34.29 103.94 111.05 177.74 208.69 234.86 97.52-57.13 174.34-130.93 208.56-234.86 24.03-72.92 21.58-131.81 24.47-241.66-91.22-32.72-173.64-68.7-233.03-113.18z" style="fill-rule:evenodd;clip-rule:evenodd;fill:#016c32"/><path d="M297.61 36.07c-48.63 37.75-116.2 68.26-190.89 95.95V254.2h381.83V132.01c-74.68-27.68-142.25-58.19-190.94-95.94z" class="st1"/><path d="M278.48 488.87v4.53h-17.11c.13-1.76.69-3.4 1.64-4.91.94-1.57 2.77-3.65 5.47-6.17 2.2-2.08 3.59-3.46 4.03-4.22.69-1.01 1.01-1.95 1.01-2.96 0-1.13-.25-2.01-.82-2.58-.63-.57-1.45-.88-2.45-.88-1.01 0-1.82.31-2.39.94-.63.57-.94 1.7-1.07 3.08l-4.84-.44c.25-2.77 1.2-4.72 2.71-5.91 1.51-1.13 3.46-1.7 5.73-1.7 2.52 0 4.47.63 5.91 2.01 1.45 1.32 2.2 3.02 2.2 5.1 0 1.2-.25 2.27-.63 3.33-.44 1.01-1.07 2.08-1.95 3.27-.63.75-1.7 1.82-3.21 3.21-1.57 1.45-2.52 2.39-2.96 2.89-.44.5-.75.94-1.01 1.38h9.74v.03zm0 0zm11.58-21.2c2.45 0 4.4.88 5.79 2.64 1.64 2.08 2.52 5.6 2.52 10.44s-.88 8.37-2.52 10.44c-1.38 1.76-3.33 2.64-5.79 2.64-2.45 0-4.47-.94-5.98-2.89-1.51-1.89-2.26-5.35-2.26-10.26 0-4.78.82-8.3 2.45-10.44 1.38-1.76 3.33-2.57 5.79-2.57zm0 0zm0 4.02c-.57 0-1.07.19-1.57.57-.44.38-.82 1.07-1.01 2.08-.38 1.26-.5 3.4-.5 6.42s.13 5.03.44 6.17c.25 1.2.63 1.95 1.13 2.33.44.38.94.57 1.51.57.57 0 1.13-.19 1.57-.63.44-.31.82-1.01 1.07-2.08.31-1.26.5-3.33.5-6.35 0-3.02-.19-5.03-.44-6.17-.31-1.2-.69-1.95-1.13-2.33-.44-.39-1.01-.58-1.57-.58zm0 0zm19.81-4.02c2.45 0 4.34.88 5.79 2.64 1.7 2.08 2.52 5.6 2.52 10.44s-.82 8.37-2.58 10.44c-1.38 1.76-3.27 2.64-5.73 2.64-2.52 0-4.53-.94-6.04-2.89-1.51-1.89-2.27-5.35-2.27-10.26 0-4.78.82-8.3 2.52-10.44 1.39-1.76 3.28-2.57 5.79-2.57zm0 0zm0 4.02c-.63 0-1.13.19-1.57.57-.44.38-.82 1.07-1.07 2.08-.31 1.26-.5 3.4-.5 6.42s.13 5.03.44 6.17c.31 1.2.69 1.95 1.13 2.33.44.38.94.57 1.57.57.57 0 1.07-.19 1.51-.63.5-.31.82-1.01 1.07-2.08.31-1.26.5-3.33.5-6.35 0-3.02-.13-5.03-.44-6.17-.31-1.2-.69-1.95-1.13-2.33a2.2 2.2 0 0 0-1.51-.58zm0 0zm24.04 21.71h-4.84v-18.5c-1.82 1.64-3.9 2.89-6.29 3.71v-4.53c1.26-.44 2.64-1.2 4.09-2.39 1.51-1.13 2.52-2.52 3.08-4.03h3.96v25.74z" class="st2"/><path d="M297.61 254.19H339L297.61 60.48v193.71z" style="fill-rule:evenodd;clip-rule:evenodd;fill:#015a28"/><path d="M256.27 254.19h41.4V60.48l-41.4 193.71z" style="fill-rule:evenodd;clip-rule:evenodd;fill:#018c35"/><path d="M208.46 344.35h31.14c6.1 0 11.01-5.22 11.01-11.83v-36.99h-13.34v36.99c0 2.45-1.82 4.47-4.15 4.47h-18.25c-2.33 0-4.15-2.01-4.15-4.47v-36.99h-13.34v36.99c0 6.61 4.97 11.83 11.08 11.83zm0 0zm-33.98-19.06h13.34v7.24c0 6.61-4.91 11.83-11.07 11.83h-30.39c-6.17 0-11.07-5.22-11.07-11.83v-25.17c0-6.54 4.91-11.83 11.07-11.83h30.39c6.17 0 11.07 5.28 11.07 11.83v7.99h-13.28l-.06-3.21c0-2.45-1.82-4.53-4.15-4.53h-17.62c-2.33 0-4.15 2.08-4.15 4.53v16.42c0 2.45 1.89 4.4 4.15 4.4h17.62c2.33 0 4.15-1.95 4.15-4.4v-3.27zm0 0zm85.69 19.06h13.34v-48.82h-13.34v48.82zm0 0zm62.16 0h13.34v-36.99c0-6.54-4.97-11.83-11.01-11.83h-30.51c-6.1 0-11.07 5.28-11.07 11.83v36.99h13.34v-20.76h25.92v20.76h-.01zm0 0zm0-29h-25.92v-5.73c0-2.45 1.82-4.47 4.15-4.47h17.62c2.33 0 4.15 2.01 4.15 4.47v5.73zm0 0zm22.9 29h41.59c6.1 0 11.01-5.22 11.01-11.83v-4.4c0-3.15-1.07-6.04-2.96-8.18 1.89-2.2 2.96-3.02 2.96-6.1v-6.48c0-6.54-4.91-11.83-11.01-11.83h-41.59v48.82zm0 0zm39.33-29h-26.05v-5.73c0-2.45 1.89-4.47 4.22-4.47h17.68c2.26 0 4.15 2.01 4.15 4.47v5.73zm0 0zm0 9.12h-26.05v5.79c0 2.45 1.89 4.47 4.22 4.47h17.68c2.26 0 4.15-2.01 4.15-4.47v-5.79zm0 0zm62.16 19.88H460v-36.99c0-6.54-4.91-11.83-11.01-11.83h-30.45c-6.17 0-11.07 5.28-11.07 11.83v36.99h13.28v-20.76h25.98v20.76h-.01zm0 0zm0-29h-25.98v-5.73c0-2.45 1.89-4.47 4.15-4.47h17.62c2.33 0 4.22 2.01 4.22 4.47v5.73h-.01zm0 0zM433 291.94l9.69-15.48h-8.24l-9.69 15.48H433z" class="st2"/><path d="M141.83 378.33h15.6v-2.83h-15.6c-.82 0-1.51-.82-1.51-1.76v-3.46h17.11v-2.89h-17.11v-3.46c0-.94.69-1.7 1.51-1.7h15.6v-2.83h-15.6c-2.2 0-3.96 2.01-3.96 4.53v9.81c-.01 2.57 1.76 4.59 3.96 4.59zm0 0zm23.21 0h15.54c2.2 0 4.03-2.01 4.03-4.59v-1.7c0-2.52-1.82-4.66-4.03-4.66H168.5c-.88 0-1.51-.75-1.51-1.7v-1.76c0-.94.63-1.7 1.51-1.7h15.54v-2.83H168.5c-2.26 0-4.03 2.01-4.03 4.53v1.76c0 2.52 1.76 4.59 4.03 4.59h12.08c.88 0 1.51.82 1.51 1.76v1.7c0 .94-.63 1.76-1.51 1.76h-15.54v2.84zm0 0zm26.62 0h2.45v-16.11h13.65c.82 0 1.51.76 1.51 1.7v1.76c0 .94-.69 1.7-1.51 1.7h-12.52v2.89h12.52c2.2 0 3.96-2.08 3.96-4.59v-1.76c0-2.52-1.76-4.53-3.96-4.53h-16.11v18.94h.01zm0 0zm31.2 0H235c2.2 0 3.96-2.01 3.96-4.59v-9.81c0-2.52-1.76-4.53-3.96-4.53h-12.14c-2.2 0-4.03 2.01-4.03 4.53v9.81c.01 2.57 1.83 4.59 4.03 4.59zm0 0zm0-16.11H235c.82 0 1.51.76 1.51 1.7v9.81c0 .94-.69 1.76-1.51 1.76h-12.14c-.82 0-1.51-.82-1.51-1.76v-9.81c0-.94.7-1.7 1.51-1.7zm0 0zm40.83 16.11h2.45v-6.29c0-1.2-.38-2.33-1.07-3.15.69-.94 1.07-2.01 1.07-3.21v-1.76c0-2.52-1.76-4.53-3.96-4.53h-16.17v18.94h2.52v-16.11h13.65c.82 0 1.51.76 1.51 1.7v1.76c0 .94-.69 1.7-1.51 1.7H249.6v2.89h12.58c.82 0 1.51.82 1.51 1.76v6.3zm0 0zm18.31 0h2.52v-16.11h8.81v-2.83H273.2v2.83h8.8v16.11zm0 0zm22.4 0h15.54v-2.83H304.4c-.88 0-1.51-.82-1.51-1.76v-3.46h17.05v-2.89h-17.05v-3.46c0-.94.63-1.7 1.51-1.7h15.54v-2.83H304.4c-2.26 0-4.03 2.01-4.03 4.53v9.81c0 2.57 1.77 4.59 4.03 4.59zm0 0zm32.78 0h15.54v-2.83h-15.54c-.88 0-1.51-.82-1.51-1.76v-9.81c0-.94.63-1.7 1.51-1.7h15.54v-2.83h-15.54c-2.26 0-4.03 2.01-4.03 4.53v9.81c0 2.57 1.77 4.59 4.03 4.59zm0 0zm26.61 0h14.47v-2.83h-14.47c-.82 0-1.51-.82-1.51-1.76V359.4h-2.52v14.34c.01 2.57 1.83 4.59 4.03 4.59zm0 0zm26.3 0h12.14c2.2 0 3.96-2.01 3.96-4.59V359.4h-2.45v14.34c0 .94-.69 1.76-1.51 1.76h-12.14c-.82 0-1.51-.82-1.51-1.76V359.4h-2.52v14.34c.01 2.57 1.83 4.59 4.03 4.59zm0 0zm23.15 0h16.17c2.2 0 3.96-2.01 3.96-4.59v-1.7c0-1.2-.38-2.33-1.07-3.15.69-.94 1.07-1.26 1.07-2.45v-2.52c0-2.52-1.76-4.53-3.96-4.53h-16.17v18.94zm0 0zm16.17-2.83h-13.65v-13.28h13.65c.82 0 1.51.76 1.51 1.7v2.52c0 .94-.69.94-1.51.94h-12.58v2.89h12.58c.82 0 1.51.82 1.51 1.76v1.7c0 .95-.69 1.77-1.51 1.77zm0 0zm15.04 2.83h15.54v-2.83h-15.54c-.82 0-1.51-.82-1.51-1.76v-3.46h17.05v-2.89h-17.05v-3.46c0-.94.69-1.7 1.51-1.7h15.54v-2.83h-15.54c-2.26 0-4.03 2.01-4.03 4.53v9.81c0 2.57 1.77 4.59 4.03 4.59z" class="st1"/><path d="M141.83 377.57h14.79v-1.26h-14.79c-.69 0-1.26-.31-1.7-.82-.38-.44-.63-1.07-.63-1.7v-4.28h17.12v-1.32H139.5v-4.22c0-.69.25-1.32.63-1.76.44-.5 1.01-.76 1.7-.76h14.79v-1.26h-14.79c-.88 0-1.7.38-2.26 1.01-.63.69-1.01 1.7-1.01 2.77v9.81c0 1.07.38 2.01 1.01 2.71.56.7 1.38 1.08 2.26 1.08zm0 0zm15.54 1.57h-15.54c-1.38 0-2.58-.63-3.46-1.64-.82-.94-1.32-2.26-1.32-3.71v-9.81c0-1.45.5-2.83 1.32-3.77a4.483 4.483 0 0 1 3.46-1.57h16.36v4.4h-16.36c-.19 0-.38.06-.5.19-.13.19-.25.44-.25.76v2.64h17.12v4.46h-17.12v2.71c0 .25.13.5.25.69.13.13.31.25.5.25h16.36v4.41h-.82v-.01zm0 0zm8.43-1.57h14.79c.88 0 1.64-.38 2.2-1.07.63-.69 1.01-1.64 1.01-2.71v-1.76c0-1.07-.38-2.01-1.01-2.71-.57-.69-1.32-1.13-2.2-1.13h-12.14c-.63 0-1.26-.31-1.64-.76-.44-.44-.63-1.07-.63-1.76v-1.7c0-.69.19-1.32.63-1.76.38-.5 1.01-.76 1.64-.76h14.79v-1.26h-14.79c-.88 0-1.7.38-2.26 1.01-.57.69-.94 1.7-.94 2.77v1.7c0 1.07.38 2.01.94 2.71.63.76 1.38 1.13 2.26 1.13h12.14c.63 0 1.26.31 1.64.82.38.44.63 1.07.63 1.7v1.76c0 .63-.25 1.26-.63 1.7-.38.5-1.01.82-1.64.82H165.8v1.26zm0 0zm14.78 1.57h-16.35v-4.41h16.35c.19 0 .31-.13.44-.25.19-.19.25-.44.25-.69v-1.76c0-.25-.06-.5-.25-.69-.13-.13-.25-.25-.44-.25h-12.14c-1.32 0-2.58-.57-3.4-1.57a5.98 5.98 0 0 1-1.38-3.84v-1.7c0-1.45.5-2.83 1.38-3.77.82-1.01 2.08-1.57 3.4-1.57h16.35v4.4h-16.35c-.19 0-.31.06-.44.19-.19.19-.25.44-.25.76v1.7c0 .31.06.57.19.69.13.19.31.25.5.25h12.14c1.32 0 2.52.63 3.4 1.64.82 1.01 1.38 2.33 1.38 3.77v1.76c0 1.45-.57 2.77-1.38 3.71-.88 1.01-2.07 1.63-3.4 1.63zm0 0zm11.83-1.57h.88v-16.11h14.47c.63 0 1.2.25 1.64.76.38.44.63 1.07.63 1.76v1.7c0 .69-.25 1.32-.63 1.76-.44.44-1.01.76-1.64.76H196v1.32h11.77c.82 0 1.64-.38 2.2-1.13.63-.69.94-1.64.94-2.71v-1.7c0-1.07-.31-2.08-.94-2.77-.57-.63-1.38-1.01-2.2-1.01h-15.35v17.37h-.01zm0 0zm1.7 1.57H190.83v-20.51H207.76c1.32 0 2.52.57 3.4 1.57.82.94 1.32 2.33 1.32 3.77v1.7c0 1.45-.5 2.77-1.32 3.84-.88 1.01-2.08 1.57-3.4 1.57h-12.89v8.06h-.76zm0 0zm.76-16.1v3.59h12.89c.19 0 .31-.06.44-.25.19-.13.25-.38.25-.69v-1.7c0-.31-.06-.57-.25-.76a.66.66 0 0 0-.44-.19h-12.89zm0 0zm27.99 14.53h12.08c.88 0 1.7-.38 2.26-1.07.57-.69.94-1.64.94-2.71v-9.81c0-1.07-.38-2.08-.94-2.77a3.042 3.042 0 0 0-2.26-1.01h-12.08c-.88 0-1.7.38-2.26 1.01-.63.69-1.01 1.7-1.01 2.77v9.81c0 1.07.38 2.01 1.01 2.71.56.69 1.38 1.07 2.26 1.07zm0 0zm12.08 1.57h-12.08c-1.38 0-2.58-.63-3.46-1.64a5.69 5.69 0 0 1-1.38-3.71v-9.81c0-1.45.57-2.83 1.38-3.77a4.483 4.483 0 0 1 3.46-1.57h12.08c1.38 0 2.58.57 3.46 1.57.82.94 1.32 2.33 1.32 3.77v9.81c0 1.45-.5 2.77-1.32 3.71-.88 1.02-2.07 1.64-3.46 1.64zm0 0zm-12.08-17.67h12.08c.69 0 1.26.25 1.7.76.38.44.63 1.07.63 1.76v9.81c0 .63-.25 1.26-.63 1.7-.44.5-1.01.82-1.7.82h-12.08c-.69 0-1.26-.31-1.7-.82-.38-.44-.63-1.07-.63-1.7v-9.81c0-.69.25-1.32.63-1.76.44-.51 1.01-.76 1.7-.76zm0 0zm12.08 1.57h-12.08c-.19 0-.38.06-.5.19-.13.19-.25.44-.25.76v9.81c0 .25.13.5.25.69.13.13.31.25.5.25h12.08c.19 0 .38-.13.5-.25.13-.19.25-.44.25-.69v-9.81c0-.31-.13-.57-.25-.76-.12-.13-.31-.19-.5-.19zm0 0zm29.51 14.53h.88v-5.54c0-.5-.06-1.01-.25-1.45-.13-.44-.38-.82-.63-1.2l-.44-.57.44-.5c.25-.31.5-.75.63-1.2.19-.44.25-.94.25-1.45v-1.7c0-1.07-.38-2.08-.94-2.77a3.042 3.042 0 0 0-2.26-1.01h-15.35v17.36h.94v-16.11h14.41c.69 0 1.26.25 1.7.76.38.44.63 1.07.63 1.76v1.7c0 .69-.25 1.32-.63 1.76-.44.44-1.01.76-1.7.76h-11.77v1.32h11.77c.69 0 1.26.31 1.7.82.38.44.63 1.07.63 1.7v5.56h-.01zm0 0zm1.7 1.57H262.87v-7.11c0-.25-.13-.5-.25-.69-.13-.13-.31-.25-.5-.25h-12.83v8.06H245.19v-20.51h16.93c1.38 0 2.58.57 3.46 1.57.82.94 1.32 2.33 1.32 3.77v1.7c0 .69-.13 1.32-.31 1.95-.13.44-.38.82-.57 1.2.19.44.44.88.57 1.26.19.63.31 1.32.31 1.95v7.11h-.75v-.01zm0 0zm-16.86-16.1v3.59h12.83c.19 0 .38-.06.5-.25.13-.13.25-.38.25-.69v-1.7c0-.31-.13-.57-.25-.76a.694.694 0 0 0-.5-.19h-12.83zm0 0zm33.47 14.53h.94v-16.11h8.81v-1.26h-18.56v1.26h8.81v16.11zm0 0zm1.76 1.57h-3.34v-16.11h-8.81v-4.4h21.71v4.4h-8.81v16.11h-.75zm0 0zm19.82-1.57h14.79v-1.26h-14.79c-.63 0-1.26-.31-1.64-.82-.38-.44-.63-1.07-.63-1.7v-4.28h17.05v-1.32h-17.05v-4.22c0-.69.25-1.32.63-1.76.38-.5 1.01-.76 1.64-.76h14.79v-1.26h-14.79c-.88 0-1.64.38-2.26 1.01-.57.69-.94 1.7-.94 2.77v9.81c0 1.07.38 2.01.94 2.71.62.7 1.38 1.08 2.26 1.08zm0 0zm15.6 1.57h-15.6c-1.32 0-2.58-.63-3.4-1.64-.88-.94-1.38-2.26-1.38-3.71v-9.81c0-1.45.5-2.83 1.38-3.77.82-1.01 2.08-1.57 3.4-1.57h16.36v4.4h-16.36c-.19 0-.31.06-.44.19-.19.19-.25.44-.25.76v2.64H320.71v4.46H303.65v2.71c0 .25.06.5.25.69.13.13.25.25.44.25h16.36v4.41h-.76v-.01zm0 0zm17.18-1.57h14.79v-1.26h-14.79c-.63 0-1.2-.31-1.64-.82-.38-.44-.63-1.07-.63-1.7v-9.81c0-.69.25-1.32.63-1.76.38-.5 1.01-.76 1.64-.76h14.79v-1.26h-14.79c-.88 0-1.64.38-2.26 1.01-.57.69-.94 1.7-.94 2.77v9.81c0 1.07.38 2.01.94 2.71.62.69 1.38 1.07 2.26 1.07zm0 0zm15.6 1.57h-15.6c-1.32 0-2.52-.63-3.4-1.64-.88-.94-1.38-2.26-1.38-3.71v-9.81c0-1.45.5-2.83 1.38-3.77.88-1.01 2.08-1.57 3.4-1.57h16.35v4.4h-16.35c-.19 0-.31.06-.44.19-.19.19-.25.44-.25.76v9.81c0 .25.06.5.25.69.13.13.25.25.44.25h16.35v4.41h-.75v-.01zm0 0zm11.07-1.57h13.65v-1.26h-13.65c-.69 0-1.26-.31-1.7-.82-.38-.44-.63-1.07-.63-1.7V360.2h-.94v13.59c0 1.07.38 2.01 1.01 2.71.56.69 1.38 1.07 2.26 1.07zm0 0zm14.47 1.57h-14.47c-1.38 0-2.58-.63-3.46-1.64a5.69 5.69 0 0 1-1.38-3.71v-15.16h4.1v15.16c0 .25.13.5.25.69.13.13.31.25.5.25h15.23v4.41h-.77zm0 0zm11.83-1.57h12.08c.88 0 1.7-.38 2.26-1.07.57-.69.94-1.64.94-2.71V360.2h-.88v13.59c0 .63-.25 1.26-.63 1.7-.44.5-1.01.82-1.7.82h-12.08c-.69 0-1.26-.31-1.7-.82-.38-.44-.63-1.07-.63-1.7V360.2h-.94v13.59c0 1.07.38 2.01 1.01 2.71.57.69 1.39 1.07 2.27 1.07zm0 0zm12.08 1.57h-12.08c-1.38 0-2.58-.63-3.46-1.64a5.69 5.69 0 0 1-1.38-3.71v-15.16h4.1v15.16c0 .25.13.5.25.69.13.13.31.25.5.25h12.08c.19 0 .38-.13.5-.25.13-.19.25-.44.25-.69v-15.16h4.04v15.16c0 1.45-.5 2.77-1.32 3.71-.9 1.02-2.09 1.64-3.48 1.64zm0 0zm11.83-1.57h15.35c.88 0 1.7-.38 2.26-1.07.57-.69.94-1.64.94-2.71v-1.76c0-.5-.06-.94-.25-1.45-.13-.44-.38-.82-.63-1.2l-.44-.57.44-.5.19-.25c.44-.5.69-.82.69-1.57v-2.52c0-1.07-.38-2.08-.94-2.77a3.042 3.042 0 0 0-2.26-1.01H414v17.38zm0 0zm15.35 1.57h-16.93v-20.51h16.93c1.38 0 2.58.57 3.4 1.57.88.94 1.38 2.33 1.38 3.77v2.52c0 1.2-.31 1.7-.88 2.45.25.38.44.76.57 1.13.19.63.31 1.32.31 1.95v1.76c0 1.45-.5 2.77-1.38 3.71-.82 1.03-2.01 1.65-3.4 1.65zm0 0zm0-2.83h-14.41v-14.86h14.41c.69 0 1.26.25 1.7.76.38.44.63 1.07.63 1.76v2.52c0 1.7-1.01 1.7-2.26 1.7h-11.83v1.32h11.77c.69 0 1.26.31 1.7.82.38.44.63 1.07.63 1.7v1.76c0 .63-.25 1.26-.63 1.7-.45.51-1.02.82-1.71.82zm0 0zm-12.83-1.57h12.83c.19 0 .38-.13.5-.25.13-.19.25-.44.25-.69v-1.76c0-.25-.13-.5-.25-.69-.13-.13-.31-.25-.5-.25h-12.83v3.64zm0 0zm0-11.7v3.59h12.89c.38 0 .69 0 .69-.13v-2.52c0-.31-.13-.57-.25-.76a.694.694 0 0 0-.5-.19h-12.83v.01zm0 0zm27.87 14.53h14.79v-1.26h-14.79c-.63 0-1.2-.31-1.64-.82-.38-.44-.63-1.07-.63-1.7v-4.28H459.18v-1.32H442.12v-4.22c0-.69.25-1.32.63-1.76.44-.5 1.01-.76 1.64-.76h14.79v-1.26h-14.79c-.88 0-1.64.38-2.2 1.01-.63.69-1.01 1.7-1.01 2.77v9.81c0 1.07.38 2.01 1.01 2.71.56.7 1.32 1.08 2.2 1.08zm0 0zm15.6 1.57h-15.6c-1.32 0-2.52-.63-3.4-1.64-.88-.94-1.38-2.26-1.38-3.71v-9.81c0-1.45.5-2.83 1.38-3.77.88-1.01 2.08-1.57 3.4-1.57h16.36v4.4h-16.36c-.19 0-.31.06-.44.19-.19.19-.25.44-.25.76v2.64H460.76v4.46H443.7v2.71c0 .25.06.5.25.69.13.13.25.25.44.25h16.36v4.41h-.76v-.01z" class="st1"/></svg>