<svg xmlns="http://www.w3.org/2000/svg" xml:space="preserve" style="enable-background:new 0 0 500 500" viewBox="0 0 500 500"><path d="M250 500c59.9-25.3 111.1-66.4 147-120.8 34.5-52.2 54.5-114.2 54.5-177.9V0h-403v201.3c0 63.7 20 125.7 54.5 177.9 35.9 54.4 87.1 95.5 147 120.8z" style="fill:#070308"/><path d="M235.6 14.8H64v152.6h171.6V14.8zM436 60.6H250v60.6h186V60.6zM111.6 363.7h276.8c11.9-19.1 21.8-39.4 29.4-60.6H82.2c7.6 21.2 17.5 41.5 29.4 60.6zM64 181.9v18.9c0 14 1 28 3 41.7h366c2-13.8 3-27.7 3-41.7v-18.9H64zm186 301.5c33.2-14.2 63.4-34.5 89.3-59H160.7c25.9 24.6 56.1 44.8 89.3 59z" style="fill:#c3281e"/><path d="M151.8 133.5V123c-6.7 3.1-14.9 4.1-22.2 3.2-20.4-2.6-33.5-19-33.5-39.3 0-18.6 12-36.1 30.9-36.1 7.6 0 14.8 3.6 18 12.4 3-6.6 3.4-20.8.9-27-1.7-.2-3.5-.2-5.3-.2-7.4 0-14.6 1.4-20.6 3.5C106 44.3 94.1 55 87 68c-4.8 8.8-6.9 16.7-12.4 16.7 6.3 27.5 26.1 50.4 55.5 52 7.2.2 14.4-.8 21.7-3.2zM140.6 32.9c23.3 0 39.2 12.8 39.2 36.2 0 8.7-2.7 17.3-8.7 23.5h11c12.3-12.5 10.1-28.1 18.4-28.1C189 35.8 173 21.9 137.2 22.8c-10.8.1-16 .2-24.9-3l6.5 16.9c6.1-2.2 13.9-3.8 21.8-3.8zm-7.7 106.7c-4.5 0-9.1-.5-13.5-1.6 0 9.7-2.2 14.1-6.3 17.1 5.1 5.3 18.3 7.6 29.2 4.5-7.1-4.4-9.4-11.4-9.4-20zm73.3-49.7c-2.4 3-5.7 5.6-13.7 5.6h-24.2v-37h7.3c-1-4-2.8-7.6-4.9-10.8h-3.2c-6.2 0-12-.9-18.1-3.2l5.3 13.9v36.9c6.5 2.1 10.9 5.9 15.6 10.8H185c8.3 0 11.6 5.6 10.9 13.3 14.7-7.7 12.2-24.7 10.3-29.5zm-37.9 49.9V131c-3.7-5.7-8.2-12.2-13.5-16.5v23.7c0 8.6-2.3 13.9-6.4 16.7 5.1 5.3 18.3 7.6 29.2 4.5-7.1-4.2-9.3-12.3-9.3-19.6zm52.3-99.4c-2.5 4.5-7.1 7.3-15.5 7.3h-9.9c2.1 3.3 4 6.9 5.9 10.8 7.9 0 10.2 8.4 9.1 13.3 15.1-7.7 12.3-26.6 10.4-31.4zM189.5 135c-7.1-7.8-14-21.3-26.6-31.7-8.7-7.2-20.4-8.7-30.1-8.7v-40c-4.6-1.3-9-1-13.5.2v65.7c4.3 1.8 8.9 2.9 13.5 3.1v-17.9c16 0 23.3 4.2 31.4 14.6 8.6 11 19.7 32.5 30.2 39.8 6.2-1.2 19.8-10.9 20.9-23.4-8.3 6-18 6.8-25.8-1.7z" style="fill:#fff"/></svg>