<svg xmlns="http://www.w3.org/2000/svg" xml:space="preserve" viewBox="-300 446 295.9 343.9"><path fill="#FFF" d="M-151.99 451.376c-37.425 46.386-85.741 64.5-144.602 53.067-1.351 151.824 68.67 223.546 144.64 281.286C-76.791 728.723-5.495 655.804-7.464 504.56c-61.14 11.355-106.752-6.257-144.525-53.183"/><path fill="none" stroke="#8E0927" stroke-miterlimit="2.613" stroke-width="2.5896051" d="M-151.99 451.376c-37.425 46.386-85.741 64.5-144.602 53.067-1.351 151.824 68.67 223.546 144.64 281.286C-76.791 728.723-5.495 655.804-7.464 504.56c-61.14 11.355-106.752-6.257-144.525-53.183z"/><path fill="#00613C" d="M-39.676 621.662c-16.57 45.42-49.282 92.616-112.391 143.945-62.336-51.059-95.05-98.641-111.773-143.945h224.164"/><path fill="#870A28" d="M-280.332 523.06c76.704.81 98.757-14.677 128.304-47.506 31.902 31.863 53.066 48.47 128.341 47.505-.309 30.164-3.244 60.367-13.479 91.342h-229.223c-10.505-31.323-13.595-61.641-13.943-91.342"/><path fill="#FFF" d="M-188.063 529.702c2.549.811 7.686-.927 10.467 4.48 1.39 2.704 3.862 5.678 4.673 11.394l15.874-2.472c-1.738-6.257-.502-6.411-2.047-11.277 9.81-.927 19.35-3.052 28.233-7.764 4.364 3.631 8.226 6.72 13.401 8.806-19.697 11.008-17.689 19.93-16.22 25.761l7.762 9.193c-.309-19.273 12.089-31.555 27.538-35.301-10.544-5.716-20.74-12.166-30.357-19.775-17.573 6.18-39.24 13.17-48.355 6.334l-10.969 10.621"/><path fill="#FFF" d="M-203.898 574.581c-.039.618 13.286-6.72 16.569-5.136l-1.236-7.57c15.603-6.991 31.477-9.926 53.067-6.334.154-3.4.038-5.948 1.583-9.347-7.183-1.274-14.328-1.545-21.667-2.124-5.098.463-12.63 1.274-18.152 3.012-5.523 1.738-11.51 4.094-16.57 4.596-5.097.502-7.53-1.12-12.165-2.278-3.824 4.403-6.064 6.334-11.819 11.47 4.674-1.08 11.664.58 10.66 11.278l-.27 2.433M-120.088 548.589c15.179 5.638 15.565.347 22.092-.193l3.862 7.53c-20.045 5.949-29.43 29.817-14.715 43.412-14.329 2.781-22.826-15.062-11.393-36.807.656-1.274-.078-3.283.695-4.557l-4.249-1.12c.773-3.283 2.24-5.137 3.708-8.265"/><path fill="#FFF" d="M-111.243 570.487c-1.661 2.588-3.129 6.064-3.322 9.926 7.802 2.704 12.243 7.068 15.295 17.458.077.309.231.618.347.927 3.94 10.157 23.482 10.428 26.881 6.99.85-3.94-.309-6.372-3.862-7.377-4.094.039-3.63 4.133-7.377 3.129-4.596-1.622-7.145-3.63-8.226-7.493-1.661-5.755 1.622-11.973 10.428-14.058l-4.403-6.064c-8.729.54-17.496.54-25.761-3.438M-123.216 567.011l-2.009-.54-.386 1.854-.927.386-2.587-3.129c-8.73-1.042-17.42-1.12-26.148-.193l-.54 10.12c10.312-.812 20.315-.387 29.623 1.274.734-3.476 1.39-6.72 2.974-9.772"/><path fill="#FFF" d="m-173.58 558.515-.695 50.788 14.792-.734.696-8.11 10.93-.696 1.776 1.777c-7.763 21.358-3.283 34.296 13.402 38.776l.348-2.124c-11.046-7.763-12.668-27.383 1.776-37.734l-4.596-9.153c-8.574-2.279-16.8 3.94-23.636-.695l2.471-34.915c-5.368.464-11.161.232-17.264 2.82"/><path fill="#FFF" d="m-192.273 654.414-1.776 13.402c20.044 4.325 42.02 5.33 67.704-3.515 13.055-4.48 25.723-9.27 39.125-7.068-2.55-3.862 10.003-27.499 20.817-13.75l5.987.348c-2.704-5.407-2.588-8.342 5.638-13.054-9.037-1.043-15.642-.348-21.86-5.291-27.422 25.606-69.481 38.583-115.635 28.928M-136.889 609.998c-2.278 3.978-3.36 6.411-2.819 10.39 5.755.54 10.814 3.36 13.054 7.57l.193-18.694-10.428.734"/><path fill="#FFF" d="m-173.889 621.16-1.622 34.683c5.446.81 9.656 1.004 14.638.888l1.043-35.61-14.059.039M-175.858 671.523c6.18.773 11.509.464 16.22.695 1.275 21.088 9.232 29.585 26.882 35.185 3.553 1.12 7.879 2.318 10.467 3.94-42.099 3.94-41.983-23.135-60.792-2.472l-5.137-7.222c6.335-5.948 10.042-17.574 12.36-30.126M-175.588 568.363c-25.49 2.472-48.741 16.917-68.67 48.741-1.545 2.24-4.674 5.717-5.253 6.373 2.588.464 4.519 2.472 5.716 3.592 10.312 18.693 21.629 29.507 33.331 35.648 1.66-4.364 2.008-8.728 2.626-13.093-7.26-3.244-22.98-17.457-21.474-33.022 7.532-19.813 31.516-37.038 53.724-36.69v-11.549"/><path fill="#FFF" d="M-203.048 590.532c4.48-3.9 9.307-6.681 14.908-7.183l.54 29.044c12.05-2.897 25.375-3.129 37.425-2.356l-1.004 9.423c-12.32.27-25.954.27-38.506 4.442-1.931 18.886-3.592 36.962-9.154 55.037 9.192 3.05 13.788 7.068 15.99 11.548l-4.21 7.879c-5.87-8.072-11.625-12.36-22.555-10.467l-5.253-4.712c11.51-22.13 10.235-65.04 11.819-92.655M-181.883 708.832c1.197-.386 4.711 6.296 10.737 7.995.308.27 4.21-.154 2.24-.927s-5.64-5.754-7.88-11.664c.04 0-6.256 4.983-5.097 4.596"/></svg>