<svg xmlns="http://www.w3.org/2000/svg" viewBox="0 0 303.6 315.9"><style>.a{fill:#fff}.b{fill:#1f5ea1}</style><g data-name="Layer 2"><g data-name="Camada 1"><path d="M8.4 80.9h286.8V8.4H8.4Zm19.5-41h12.3v6.8H27.9v19.4h-9.2V22.7H41v6.8H27.9Zm181.7 0h13.1v6.8h-13.2V59h14.8v7.2h-23.9V22.7h23.5v6.8h-14.4Zm-99.2-17.2h29.1v7.2h-10v36.2h-9.6V29.9h-9.6Zm116.7 0H253v7.2c0 3.4-16 24.4-17.1 29.1h17.9v4.8c.9-1.4 5.3-17.7 6.1-20.6-3.6 1.9-6.8 3-10.6-1.8" class="a"/><path d="m146.1 278.5.1-183.3-122.4.1 122.3 183.2z" class="b"/><path fill="#e1251b" d="M157 278.5 279.3 95.2H157v183.3z"/><path d="m0 90 151 225.9h.8L303.6 89.6V0H0ZM8.4 8.4h286.8v72.5H8.4Zm142.9 292.9L8.2 87l286.6-.1Z" class="b"/><path d="M151.2 301.3 294.8 86.9 8.2 87ZM23.8 95.3h122.4l-.1 183.3Zm133.2-.1h122.3L157 278.5Z" class="a"/><path d="M266.5 22.7c-1.8 0-3.2 8-3.7 9.8-1 3.8-2.1 7-3 10.6-.7 3-5.2 19.3-6 20.6V59h-18c1.1-4.7 17.1-25.7 17.1-29.1v-7.2h-25.8v7.2h16.7c-1.8 3.4-17.5 27.8-17.5 28.7v7.6h36.3l2.4-9.6h12.3c.1 1.7 1.5 9.6 3.2 9.6h8.4l-11.8-43.4Zm4.5 9.2 4.6 17.9h-9ZM101.6 45c2.2-3 5.6-1.8 5.6-10v-1.1c0-10.3-5.8-11.1-15.9-11.1H80.5v43.3h9.2V48.2H94c8 0 2 17.9 6 17.9h8.4c0-2.6-.8-3.6-.8-6.4 0-2 .2-4.9 0-6.8-.5-4.5-1.1-7.6-6-8M90 29.9h4.4c2.7 0 4 2 4 4.8v.4c0 4.5-1.8 6.4-6.4 6.4h-2ZM45.4 45.8c0 10.2 2.1 20.7 12 20.7H63c8.3 0 11.6-8.5 11.6-17.1V37.1c0-8.9-5.2-14.7-14.3-14.7h-.4c-10.9 0-14.3 7.1-14.3 17.9ZM144.2 66.1c1.7 0 3-7.7 3.2-9.6h12.8l2.1 9.5h9.5c-.1-4.5-5-16.9-6-22.3-.6-3.1-2-7.6-3-11-.5-2-2.1-10.2-3.7-10.2h-10.9l-12.1 43.6Zm9.7-34.3 4.5 18h-9.2ZM209.6 29.5h14.3v-6.8h-23.5v43.4h23.9V59h-14.7V46.6h13.1v-6.8h-13.1V29.5zM27.9 29.5H41v-6.8H18.7v43.4h9.2V46.6h12.3v-6.8H27.9V29.5zM110.4 29.9h9.5v36.2h9.6V29.9h9.9v-7.2h-29v7.2z" class="b"/><path fill="#2a6aaa" d="M174.9 66.1h22.7v-7.9h-13.1V22.7h-9.6v43.4z"/><path d="M54.6 40.6v5.2c0 5.2 0 14 4.8 14h1.2c3.7 0 4.8-5 4.8-8.8V39.8c0-4.6-.4-10.8-4.8-10.8h-.8c-4.7 0-5.2 6.7-5.2 11.6M90 41.4h2c4.5 0 6.4-1.8 6.4-6.4v-.4c0-2.7-1.3-4.8-4-4.8H90ZM149.2 49.7l9.2.1-4.5-18-4.7 17.9zM266.6 49.8h9L271 31.9l-4.4 17.9z" class="a"/></g></g></svg>