<svg xmlns="http://www.w3.org/2000/svg" xml:space="preserve" id="Layer_1" x="0" y="0" style="enable-background:new 0 0 590 590" version="1.1" viewBox="0 0 590 590"><style>.st0{fill:#26603c}.st1{fill:#fbfcfc}</style><path d="M303.03 589.99h-15.67c-1.99-.66-4.03-.44-6.07-.44-.5-.07-.99-.18-1.49-.21-10.33-.71-20.62-1.7-30.85-3.35-18.48-2.98-36.54-7.57-54.06-14.18-66.53-25.12-117.77-68.66-153.42-130.54C18.05 400.6 5.52 356.53 3.23 309.52c-.04-.75.07-1.54-.36-2.23.29-.84.08-1.68 0-2.51-.6-6.15-.83-12.29-.1-18.45.16-1.33.41-2.68.11-4.03.39-.61.31-1.31.34-1.98.41-10.35 1.52-20.64 3.08-30.88 3.45-22.64 9.45-44.57 18.06-65.77C59.63 96.75 133.19 32.2 223.48 8.96c15.51-3.99 31.27-6.61 47.24-7.91 6.04-.49 12.1-.78 18.15-1.04h12.64c9.51.33 19 .94 28.46 2.05a285.09 285.09 0 0 1 48.39 9.97c94.17 28.16 168.12 102.06 196.87 196.75 6.48 21.33 10.44 43.14 11.95 65.4.29 4.24.22 8.48.5 12.71v15.8c-.3 4.15-.2 8.3-.48 12.46-1.2 17.56-3.83 34.89-8.19 51.93-16.68 65.08-51.29 118.46-103.56 160.07-34.31 27.32-73 45.65-115.68 55.36-12.73 2.89-25.59 4.95-38.6 6.02-4.02.33-8.04.7-12.07 1.05-2.04-.03-4.08-.18-6.07.41z" class="st0"/><path d="M573.16 292.66c.12-9.5-.9-22.44-2.73-35.31-3.15-22.08-8.83-43.49-16.85-64.28C514.2 91.04 418.28 20.65 307.7 15.16c-19.13-.95-38.19.17-57.13 3.31-20.41 3.38-40.25 8.78-59.35 16.73C122.36 63.85 72.84 112.88 41.5 180.68c-14.51 31.39-22.31 64.62-24.25 99.2-1.07 19.21-.11 38.33 2.8 57.37 3.49 22.83 9.53 44.93 18.6 66.12 28.26 66.06 74.91 114.35 139.14 145.43 31.92 15.44 65.66 24.03 101.02 25.95 15.15.83 30.3.39 45.41-1.26 11.72-1.29 23.34-3.18 34.81-5.9 43.49-10.32 81.96-30.57 115.96-59.64 38.02-32.51 64.33-73.23 81.93-119.84 11.15-29.53 16.25-60.32 16.24-95.45z" class="st1"/><path d="M288.41 561.5c-56.96-.73-113.59-21.38-162.58-62.58-40.64-34.17-68.54-77.03-84.04-128.04-5.09-16.75-8.33-33.88-9.96-51.33-1.43-15.34-1.59-30.69-.28-46.03 9.22-108.34 82.41-202.48 189.28-234.2 14.88-4.42 30.02-7.43 45.44-9.18 14.1-1.6 28.24-2.04 42.37-1.22 50.89 2.94 97.37 18.98 138.82 48.93 54.17 39.14 89.07 91.62 104.88 156.88 5.95 24.56 7.97 49.56 6.57 74.79-2.02 36.29-11.24 70.62-27.32 103.21-27.67 56.06-69.7 97.12-125.76 123.79-21.02 10-42.96 17.04-65.87 21.06-14.95 2.61-30.94 3.88-51.55 3.92zm158.36-349.92c-.17-1.14-.64-1.85-1.07-2.56-32.69-54.68-80.57-84.35-143.83-88.48-12.47-.81-24.91.28-37.21 2.52-20.3 3.7-39.3 10.9-57.12 21.41-48.27 28.49-81.44 80.19-85.26 138.65-1.38 21.14.84 41.85 6.94 62.12 20.23 67.3 80.01 119.09 155.77 123.97 17.23 1.11 34.31-.51 51.11-4.68 30.11-7.46 56.39-22.13 78.6-43.77 34.92-34.04 52.67-75.78 53.45-124.79.05-3.21.53-3.31-3.3-3.25-17.6.26-35.2.53-52.81.75-34.87.44-69.74.84-104.6 1.26-13.64.17-27.29.35-40.93.55-5.47.08-10.95.18-16.42.3-1.83.04-1.84.07-1.9 1.85-.02.42 0 .85.01 1.27.17 13.84.35 27.67.52 41.51l.03 1.27c.02.91.48 1.42 1.39 1.46.5.02 1.01.02 1.52.02 16.25-.21 32.51-.41 48.76-.62 36.72-.47 73.44-.95 110.16-1.43.58-.01 1.18-.13 1.74.23.18.89-.34 1.61-.64 2.38-1.35 3.48-3.02 6.81-4.71 10.13-17.85 34.89-54.55 64.63-102.71 68.22-20.07 1.49-39.39-1.75-57.96-9.61-55.97-23.68-87.64-84.74-74.71-144.12 12.08-55.46 58.89-96.32 115.01-100.21 15.33-1.06 30.42.65 45.14 5.24 22.48 7.02 41.57 19.38 57.32 36.97 1.33 1.49 2.69 2.33 4.76 2.29 10.19-.2 20.38-.27 30.57-.42 7.38-.1 14.79-.28 22.38-.43zm63.52 128.02c.24.44.45.81.65 1.18 2.12 3.91 5.42 5.72 9.78 5.3 4.25-.41 7.08-2.85 8.59-6.83.42-1.1.76-2.25.95-3.41 1.02-6.35 2.01-12.71 2.96-19.07.29-1.98.2-2.09-1.82-2.41-5.97-.95-11.94-1.87-17.92-2.76-6.48-.96-12.96-1.89-19.45-2.8-1.95-.27-2.02-.22-2.33 1.82-.82 5.44-1.63 10.88-2.37 16.34-.34 2.51-.71 5.03-.58 7.59.25 4.75 3.54 8.89 8.33 10.42 4.52 1.44 8.77 0 11.8-4 .36-.46.54-1.07 1.41-1.37zM347.3 84.27c1.24-.18 2.23-.33 3.22-.46 2.23-.27 4.19-1.1 5.9-2.61 5.73-5.06 5.53-17.33-4.43-19.93-.57-.15-1.13-.33-1.7-.47-6.43-1.67-12.98-2.75-19.49-4.07-2.22-.45-2.25-.37-2.67 1.75-1.83 9.22-3.67 18.44-5.5 27.66-.67 3.41-1.31 6.82-1.99 10.23-.2 1.02.03 1.55 1.18 1.71 1.58.21 3.12.65 4.69.94 2.11.39 2.17.3 2.59-1.88.85-4.41 1.7-8.81 2.59-13.21.33-1.64.68-1.85 2.24-1.52 3.53.75 6.06 2.58 7.4 6.15 1.61 4.27 3.51 8.43 5.26 12.65.4.97.82 1.99 1.9 2.21 2.84.57 5.66 1.32 8.63 1.59-2.86-9.87-5.5-15.49-9.82-20.74zM95.65 369.23c1.32-.58 2.41-1.03 3.47-1.52 1.02-.47 1.93-.34 2.82.35 2.53 1.94 4.56 4.27 5.73 7.28 1.78 4.59.76 9.2-2.84 12.56-2.7 2.53-5.87 4.21-9.47 5.06-2.33.55-4.66.75-7.01.28-6.79-1.38-11.67-12.21-6.17-17.62.63-.62 1.1-1.25.46-2.21-1.32-1.96-2.56-3.97-3.9-6.06-4.69 3.17-7.01 7.46-6.72 12.98.3 5.76 2.38 10.9 6.06 15.33 2.33 2.81 5.29 4.65 8.83 5.59 9.52 2.54 21.54-2.34 26.6-10.85.87-1.47 1.48-3.03 1.88-4.7 2.34-9.74-3.13-21.39-12.54-27.4-.9-.58-1.86-.64-2.89-.22-4.2 1.72-8.41 3.43-12.64 5.08-1.14.44-1.29.99-.83 2.1 1.79 4.39 3.47 8.82 5.21 13.23.93 2.36.95 2.36 3.43 1.34.78-.32 1.56-.62 2.34-.95 1.65-.72 1.69-.74 1.07-2.39-.92-2.36-1.88-4.71-2.89-7.26zM265.31 75.29c-.11 3.53.59 7.01 1.8 10.37 1.62 4.51 4.61 7.79 8.92 9.88 4 1.95 8.21 2.39 12.54 1.92 7.7-.83 13.35-4.72 16-12.11 2.76-7.68 2.21-15.36-1.75-22.6-2.03-3.71-5.18-6.17-9.14-7.58-4.49-1.59-9.02-1.67-13.65-.65-6.46 1.43-10.72 5.33-13.06 11.48-1.14 2.97-1.74 6.03-1.66 9.29zM101.27 325.25c.07-1.56-.14-3.5-.64-5.39-2.17-8.17-6.99-13.62-15.58-14.96-5.17-.8-10.19-.16-15.09 1.79-6.98 2.77-10.97 7.85-12.07 15.29-.4 2.72-.14 5.42.39 8.09 1.71 8.57 6.9 13.87 15.06 15.42 5.27 1 10.38.42 15.36-1.48 8.16-3.13 12.53-9.54 12.57-18.76zm406.84 77.23c.76.04 1.11-.19 1.33-.57.29-.51.55-1.05.78-1.59 3.45-8.09 6.91-16.18 10.35-24.27.77-1.81.71-1.94-1.22-2.79-11.41-4.97-22.82-9.92-34.24-14.87-2.34-1.01-2.33-.98-3.4 1.52-2.39 5.6-4.8 11.2-7.19 16.8-1.23 2.88-2.4 5.78-3.69 8.63-.55 1.21-.33 1.88.91 2.32.87.31 1.69.76 2.54 1.12 2.31.97 2.31.97 3.32-1.3.07-.15.12-.32.18-.47 2.38-5.61 4.75-11.21 7.14-16.82.86-2.01 1.04-2.08 3-1.25 1.93.82 3.85 1.69 5.78 2.52 2.79 1.18 2.78 1.17 1.57 3.98-2.14 4.97-4.27 9.95-6.38 14.93-.73 1.72-.66 1.84 1.1 2.6 1.08.46 2.17.91 3.25 1.38.95.41 1.59.19 1.99-.81.53-1.34 1.11-2.66 1.67-3.98 1.75-4.13 3.49-8.26 5.28-12.37.72-1.65.78-1.66 2.44-1.01 1.64.64 3.27 1.32 4.89 2.02 1.93.83 1.97.87 1.18 2.78-1.61 3.91-3.28 7.79-4.93 11.69-.86 2.03-1.71 4.05-2.57 6.07-.24.57-.51 1.27.13 1.59 1.63.82 3.34 1.51 4.79 2.15zM156.32 127.8c-1.33-1.16-2.75-2.36-4.11-3.62-.61-.57-1.13-.64-1.74-.07-.8.75-1.61 1.49-2.4 2.26-3.52 3.41-7.02 6.83-10.56 10.23-1.39 1.34-1.44 1.33-2.79-.07-1.24-1.27-2.44-2.58-3.64-3.89-1.4-1.52-1.4-1.55.12-3.02 3.7-3.59 7.44-7.13 11.1-10.77 1.17-1.16 2.69-2.03 3.37-3.67-1.07-1.18-2.14-2.38-3.22-3.55-1.5-1.62-1.38-1.43-2.91.05-6.07 5.87-12.15 11.74-18.24 17.6-.85.82-1.74 1.59-2.66 2.42.54.65.89 1.13 1.29 1.55 8.73 9.19 17.47 18.38 26.21 27.56.23.24.48.48.7.73.56.65 1.12.64 1.71.04.3-.3.62-.58.92-.87 6.5-6.28 13-12.56 19.49-18.85.53-.52 1.21-.93 1.49-1.78-1.65-1.49-3.31-2.99-5.03-4.55-.17.15-.6.54-1.02.95-4.62 4.46-9.23 8.92-13.86 13.38-1.61 1.55-1.63 1.54-3.19-.08-1.64-1.7-3.28-3.41-4.9-5.13-1.36-1.44-1.38-1.57-.08-2.85 2.59-2.54 5.25-5.02 7.82-7.59 1.95-1.95 3.82-4 6.13-6.41zm299.2-11.68c-.02-.96-.7-1.28-1.21-1.68-7.22-5.57-14.47-11.1-21.67-16.7-1.03-.8-1.64-.82-2.43.28-1.62 2.27-3.35 4.47-5.04 6.69-5.97 7.9-11.94 15.79-17.9 23.7-1.37 1.82-1.39 1.98.04 3.09 7.48 5.78 14.98 11.54 22.49 17.29 1.3.99 1.47.94 2.43-.31.72-.94 1.43-1.88 2.13-2.84 1.03-1.42 1.04-1.45-.39-2.56-3.6-2.79-7.23-5.56-10.84-8.34-1.74-1.34-3.47-2.69-5.22-4.01-.7-.53-1.03-1.04-.37-1.88 1.83-2.33 3.62-4.69 5.4-7.06.58-.78 1.16-.85 1.88-.25.32.27.66.52 1 .78 4.09 3.13 8.2 6.23 12.26 9.4 2.82 2.2 2.5 1.77 4.21-.5.51-.68.99-1.38 1.55-2.01.81-.92.65-1.62-.3-2.31-1.37-.99-2.69-2.04-4.03-3.06-3.22-2.45-6.46-4.9-9.67-7.36-1.82-1.4-1.82-1.41-.39-3.33.96-1.29 1.93-2.57 2.91-3.84 1.32-1.71 1.33-1.71 3.15-.34 1.69 1.26 3.37 2.54 5.05 3.82 3.09 2.36 6.17 4.72 9.25 7.09 1.93 1.48 1.93 1.48 3.46-.58.56-.75 1.13-1.48 1.68-2.23.23-.33.42-.7.57-.95zM79.81 193.15c.08 1.51.1 2.68.48 3.84 2.07 6.36 9.41 9.42 15.44 6.36 2.91-1.48 5.18-3.75 7.26-6.22 1.63-1.94 3.31-3.85 5.15-5.6 1.44-1.38 3.13-2.08 5.07-1.28 2 .83 2.86 2.58 3.01 4.64.45 6.29-4.74 11.24-10.94 10.51-.25-.03-.5-.09-.74-.15-.8-.18-1.27.18-1.56.92-.7 1.82-1.41 3.63-2.12 5.44-.32.81-.05 1.28.77 1.52 5.52 1.64 10.66 1.33 15-2.99 4.03-4.02 6.42-8.93 7.22-14.53 1.26-8.84-7.01-16.34-15.39-14.06-2.51.68-4.56 2.17-6.34 4.02-2.4 2.5-4.71 5.08-7.07 7.62-.86.93-1.76 1.85-2.9 2.42-2.5 1.26-4.92-.06-5.04-2.87-.13-3.03 1.17-5.61 3.07-7.85 1.57-1.86 3.64-2.32 5.96-1.81.87.19 1.42-.09 1.79-.94.74-1.71 1.49-3.42 2.34-5.07.59-1.16.19-1.74-.9-2.08-3.82-1.17-7.5-1.11-10.8 1.45-5.54 4.3-8.36 10.05-8.76 16.71zm106.21-65.4c6.62-.61 12.31-3.65 16.75-8.87 3.65-4.31 3.83-9.87.9-14.68-2.78-4.57-7.52-6.62-13.04-5.53-2.39.47-4.73 1.14-7.1 1.73-2.28.56-4.53 1.29-6.91 1.37-1.43.05-2.69-.29-3.44-1.65-.79-1.44-.46-2.8.45-4.04 1.12-1.54 2.65-2.58 4.3-3.47 2.86-1.54 5.6-1.82 8.07.73.8.83 1.55.78 2.45.16 1.39-.95 2.85-1.79 4.25-2.73 1.37-.92 1.42-1.15.44-2.35-2.73-3.37-6.14-5.3-10.57-4.68-6.35.9-11.66 3.7-15.48 9.03-2.56 3.56-2.84 7.39-.95 11.29 1.93 4 5.21 6.1 9.65 6.24 1.6.05 3.19-.02 4.76-.45 2.59-.71 5.2-1.35 7.82-1.98 1.63-.4 3.25-.89 4.96-.79 2.07.12 3.46 1.32 3.84 3.36.33 1.76-.07 3.34-1.15 4.79-3.77 5.04-9.65 5.78-14.47 1.78-.13-.11-.25-.22-.37-.35-.58-.59-1.17-.52-1.8-.07-1.51 1.08-3.03 2.14-4.55 3.2-.77.54-.92 1.17-.29 1.91 2.95 3.46 6.5 5.82 11.48 6.05zm272.16 329.96c8.89.04 15.96-7.08 15.99-16.12.03-8.72-7.13-15.94-15.9-16.03-8.63-.09-15.93 7.18-15.99 15.93-.07 8.95 7.02 16.18 15.9 16.22zm-338.44-11.95c-.13 8.81 6.9 16.03 15.73 16.15 8.72.12 15.93-6.99 16.09-15.84.16-8.86-7.03-16.37-15.9-16.32-9.61.05-15.86 7.85-15.92 16.01zM99.03 268.61c.87-2.14 1.02-4.45 1.67-6.62.41-1.37-.08-2.23-1.29-2.91-1.68-.96-3.29-2.05-4.93-3.09-1.95-1.23-1.97-1.24-1.51-3.41.84-3.98 1.7-7.95 2.55-11.93.53-2.46.62-2.56 3.05-2.94 1.99-.31 4-.57 5.99-.89.84-.13 1.64-.33 1.85-1.41.46-2.47 1.18-4.89 1.42-7.52-1.14-.23-2.13 0-3.1.17-9.61 1.64-19.22 3.29-28.83 4.92-3.31.56-6.64 1.07-9.95 1.64-2.28.39-2.5.66-2.97 3.08-.24 1.25-.47 2.5-.77 3.73-.59 2.46-.61 2.46 1.51 3.88 10.79 7.23 21.58 14.45 32.37 21.67.9.6 1.79 1.26 2.94 1.63zm407.77 22.11c7.07-.33 14.07-1.32 21.11-1.94 1.51-.13 3.02-.21 4.53-.4 1.86-.24 1.98-.4 1.83-2.24-.12-1.52-.33-3.03-.47-4.55-.16-1.77-.23-1.92-1.97-1.76-4.27.39-8.53.89-12.8 1.3-4.44.43-8.88.94-13.33 1.17-5.31.27-7.57-1.79-8.21-7.09-.06-.5-.07-1.02-.07-1.52 0-4.16 2.03-6.78 6.05-7.53 2.48-.46 4.99-.77 7.5-1.03 6.53-.7 13.06-1.38 19.59-1.98 1.19-.11 1.36-.62 1.24-1.61-.2-1.6-.34-3.2-.51-4.81-.21-2.06-.22-2.11-2.27-1.92-6.12.56-12.24 1.1-18.34 1.78-3.84.43-7.71.73-11.44 1.86-4.48 1.35-7.38 4.22-8.5 8.85-1.39 5.74-.79 11.31 1.62 16.64 1.86 4.11 5.12 6.38 9.63 6.79 1.61.11 3.21.05 4.81-.01zM233.61 62.69c-.02 0-.44-.02-.85.05-7.25 1.15-14.09 3.79-21.09 5.84-.65.19-.91.71-.7 1.4.12.4.25.81.37 1.21l10.68 36c.12.41.25.81.42 1.2.27.63.74.91 1.42.7 1.92-.61 3.83-1.24 5.76-1.84.99-.31 1-.96.74-1.8-.52-1.7-1.01-3.41-1.52-5.11-.73-2.43-1.45-4.86-2.19-7.29-.29-.95-.27-1.66.96-1.82.57-.08 1.13-.33 1.69-.51 3.2-1.02 6.43-1.93 9.49-3.36 3.86-1.81 6.32-4.8 6.91-9.06.59-4.22-.57-8.08-3.16-11.44-2.15-2.77-4.99-4.23-8.93-4.17zm114.06 450.55c.5 3.11.78 5.67.19 8.27-.51 2.28-1.85 3.83-4.11 4.34-2.21.5-3.98-.27-4.99-2.44-.32-.67-.77-1.12-1.59-.85-1.75.58-3.51 1.17-5.26 1.76-.7.23-.91.67-.61 1.37 1.49 3.44 3.76 6.03 7.56 6.86 8 1.74 16.07-3.97 17.03-12.22.95-8.15-.8-15.84-4.41-23.14-.76-1.53-1.83-2.85-3.09-3.99-7.71-7.01-20.15-2.73-22.05 6.76-1.18 5.88.32 10.96 4.5 15.14 2.53 2.53 5.76 3.34 9.3 2.91 3.02-.38 5.31-1.98 7.53-4.77zm-165.76-33.16c1.59-2.37 3.13-4.26 5.11-5.71 2.08-1.53 4.31-1.26 6.43-.11 1.94 1.06 2.2 2.88 1.7 4.85-.24.96-.12 1.59.87 2.04 1.83.82 3.62 1.76 5.42 2.64 2.86-5.18 1.04-10.5-2.18-13.54-5.28-4.98-13.02-5.45-18.64-.71-6 5.05-10.09 11.52-12.58 19-.24.72-.39 1.48-.5 2.23-1.86 12.26 9.57 18.03 16.97 15.79 5.97-1.81 11.19-9.48 10.56-15.75-.53-5.25-3.88-9.33-8.52-10.52-1.44-.38-2.86-.05-4.64-.21zm314.62-293.45c2.93-2.98 4.39-6.2 4.34-10.07-.09-6.76-3.2-12.02-8.38-16.06-4-3.12-8.67-4.13-13.59-3.25-7.08 1.27-12.74 5.08-17.29 10.61-1.52 1.85-2.55 3.98-3.14 6.32-1.74 6.91.13 12.9 4.65 18.16 4.71 5.49 10.69 6.59 17.42 4.95 1.19-.29 1.45-.95 1.11-2.06-.55-1.78-1.08-3.56-1.58-5.36-.28-1.01-.71-1.3-1.8-.94-1.84.6-3.75.95-5.71.51-6.5-1.48-9.34-9.42-5.25-14.98 3.31-4.5 7.79-7.45 13.08-9.05 2.58-.78 5.15-.5 7.56.87 4.01 2.28 6.78 8.33 3.52 13.15-1.04 1.54-.96 1.61.42 2.91 1.54 1.45 3.1 2.87 4.64 4.29zM365.81 510.58c-.2 1.14 1 2.69 1.68 4.4.82 2.08.87 2.09 2.91 1.24 4.03-1.68 8.04-3.42 12.08-5.1 1.63-.68 1.76-.63 2.47.97.68 1.55 1.31 3.12 1.92 4.69.38.97 1.01 1.3 1.98.88 1.47-.63 2.92-1.31 4.41-1.88 1.01-.39 1.29-.96.85-1.95-.51-1.16-.98-2.34-1.48-3.51-1.22-2.9-1.22-2.9 1.51-4.25 1.95-.96 1.95-.96 1.13-2.97-.13-.31-.27-.62-.41-.93-.45-1-.65-2.38-1.42-2.89-1-.67-2.15.45-3.2.88-1.18.48-1.82.27-2.32-.98-2.67-6.58-5.47-13.12-8.1-19.71-1.42-3.55-1.25-3.41-4.89-2.09-2.26.82-3.07 2.23-3.49 4.42-1.21 6.4-2.61 12.77-3.87 19.17-.58 2.91-1.38 5.77-1.76 9.61zm-126.42 18.97c-.19.53.23.94.99 1.15 1.54.42 3.08.82 4.61 1.28 1.22.37 1.9-.03 2.2-1.28.37-1.56.79-3.12 1.24-4.66.52-1.76.57-1.76 2.24-1.32 3.1.82 3.1.82 4.18-2.4 1.14-3.4 1.04-3.59-2.35-4.54-1.69-.47-1.73-.48-1.26-2.25 1.79-6.7 3.63-13.39 5.43-20.09 1.35-5.03 1.27-3.72-2.92-5.18-1.71-.59-3-.28-4.37.91-7.06 6.15-14.19 12.23-21.3 18.33-.64.55-1.33 1.06-1.58 1.93-.48 1.71-.95 3.42-1.43 5.14-.19.69-.03 1.13.75 1.26.49.08.97.29 1.45.42l11.17 3.09c2.95.82 2.95.83 2.18 3.7-.37 1.4-.76 2.79-1.23 4.51zm154.78-49.17c1.16-.2 2.2-.76 3.28-1.21.93-.38 2-.47 2.77-1.16 1.11-1-.04-2.05-.09-3.08-.11-2.62 1.75-5.12 4.26-5.51 2.37-.37 4.66 1.47 5.17 4.16.4 2.13-.27 3.85-2.02 5.11-.82.58-1.48 1.23-1.05 2.31.65 1.6 1.39 3.15 2.15 4.87.78-.67 1.34-1.18 1.93-1.65 2.87-2.26 5.85-1.99 8.26.76.97 1.1 1.65 2.36 2.05 3.76.68 2.42-.19 4.95-2.12 6.33-1.95 1.4-4.4 1.45-6.42.25-.85-.5-1.33-1.75-2.48-1.55-1.1.19-1.75 1.26-2.64 1.89-.55.39-1.08.8-1.61 1.23-1.61 1.31-1.63 1.51-.15 2.92 3.4 3.22 7.4 4.07 11.92 3.19 6.71-1.32 13.06-8.93 11.29-16.73-1.39-6.12-6.02-9.6-12.11-8.85-.39.05-.83.18-1.12-.45.12-.31.24-.7.41-1.08 3.05-6.86-1.85-12.61-7.27-13.42-4.76-.71-8.81.85-12.19 4.16-3.88 3.84-4.61 8.6-2.22 13.75zm-2.88-396.94c-.25.56-.58 1.33-.95 2.08-3.46 7.06-6.93 14.12-10.38 21.18-1 2.05-1.94 4.14-2.99 6.16-.56 1.09-.34 1.7.74 2.2 1.68.77 3.35 1.58 4.99 2.43.78.41 1.27.2 1.65-.51.2-.37.37-.76.56-1.14 4.39-8.96 8.77-17.92 13.16-26.87.26-.53.53-1.06.8-1.58.28-.53.72-.69 1.27-.48.47.18.92.41 1.37.63 2.33 1.16 4.65 2.36 6.99 3.5 1.91.93 2.02.88 2.91-.88.53-1.06 1-2.15 1.55-3.19.51-.97.23-1.59-.72-2.01-.54-.24-1.06-.51-1.59-.77-7.68-3.83-15.35-7.66-23.03-11.47-1.19-.59-2.45-1.83-3.62-1.52-1.36.37-1.54 2.27-2.2 3.51-1.27 2.38-1.23 2.43 1.17 3.65 2.32 1.18 4.68 2.29 7 3.48.55.28 1.3.47 1.32 1.6zm96.66 161.78c1.07-.39 2.49-.89 3.9-1.44 1.63-.63 1.65-.66 1.08-2.31-1.9-5.43-3.83-10.86-5.74-16.29-.69-1.96-.67-2.04 1.26-2.75 4.82-1.76 9.64-3.49 14.47-5.23 4.75-1.71 9.5-3.38 14.24-5.12 1.82-.67 1.81-.73 1.19-2.55-.49-1.44-1-2.88-1.53-4.31-.69-1.84-.72-1.87-2.5-1.23-11.86 4.29-23.71 8.6-35.56 12.91-1.73.63-1.76.68-1.11 2.53 2.12 5.98 4.27 11.96 6.4 17.94.8 2.23 1.57 4.47 2.37 6.7.19.55.35 1.2 1.53 1.15zM302.61 506.64c.09.82.15 1.13.16 1.45.39 8.56.77 17.12 1.16 25.67.02.51.05 1.02.07 1.53.06 1.14.57 1.67 1.78 1.55 1.34-.14 2.69-.15 4.03-.21 2.18-.09 2.25-.09 2.15-2.31-.42-9.58-.88-19.15-1.33-28.72-.16-3.3-.34-6.61-.48-9.91-.04-1.02-.36-1.57-1.5-1.45-1 .1-2.02.1-3.03.04-1.35-.07-2.23.47-2.75 1.74-1.2 2.91-3.28 5.1-5.8 6.87-1.1.77-2.29 1.41-3.45 2.1-.84.5-1.49 1.15-1.39 2.22.17 1.82.06 3.68.59 5.55 3.73-1.19 6.6-3.53 9.79-6.12zM60.82 277.27v.02c-.67-.03-1.34-.08-2.02-.09-1.87-.03-1.93.02-2.07 1.96-.11 1.52-.15 3.05-.32 4.57-.14 1.31.34 1.86 1.66 1.89 1.34.03 2.68.23 4.02.33 8.3.63 16.61 1.27 24.91 1.89 3.19.24 6.38.46 9.56.67.74.05 1.57.2 1.64-.98.14-2.03.31-4.06.47-6.09.07-.85-.34-1.25-1.14-1.33-.92-.09-1.84-.2-2.76-.26-3.36-.24-6.71-.46-10.07-.72-7.95-.6-15.92-1.23-23.88-1.86zm159.25 228.64c-.07-.5-.33-.77-.75-.97-3.98-1.82-7.95-3.67-11.93-5.48-1.08-.49-1.72-.04-2.14 1.02a62.24 62.24 0 0 1-1.86 4.17c-.58 1.16-.32 1.85.87 2.37 3.85 1.69 7.68 3.44 11.49 5.21.85.4 1.4.36 1.81-.56.76-1.7 1.57-3.38 2.34-5.07.1-.22.12-.49.17-.69zm62.68 13.54c.1-1.63-.2-1.98-1.92-2.16-1.17-.12-2.33-.22-3.5-.37-2.83-.35-5.65-.71-8.48-1.1-.86-.12-1.55.02-1.7.99-.28 1.92-.51 3.85-.73 5.78-.08.68.26 1.15.96 1.24 4.41.56 8.82 1.12 13.22 1.66.9.11 1.41-.23 1.51-1.22.17-1.58.42-3.17.64-4.82zM53.27 225.96c-.42 3.18-.77 5.69-1.07 8.2-.08.64-.29 1.35.41 1.85 2.16 1.55 4.3 3.11 6.75 4.88.36-1.91.65-3.46.95-5 .1-.52.02-.98-.32-1.42-2.13-2.68-4.25-5.38-6.72-8.51z" class="st0"/><path d="M446.77 211.58c-7.59.15-15 .33-22.41.44-10.19.16-20.38.22-30.57.42-2.07.04-3.43-.8-4.76-2.29-15.76-17.59-34.84-29.96-57.32-36.97-14.72-4.6-29.81-6.31-45.14-5.24-56.12 3.89-102.93 44.75-115.01 100.21-12.94 59.38 18.73 120.44 74.71 144.12 18.57 7.86 37.9 11.1 57.96 9.61 48.16-3.59 84.87-33.33 102.71-68.22 1.7-3.32 3.37-6.65 4.71-10.13.3-.77.82-1.49.64-2.38-.56-.36-1.16-.24-1.74-.23-36.72.47-73.44.95-110.16 1.43-16.25.21-32.51.42-48.76.62-.51.01-1.01.01-1.52-.02-.91-.05-1.37-.55-1.39-1.46l-.03-1.27c-.17-13.84-.35-27.67-.52-41.51-.01-.42-.02-.85-.01-1.27.06-1.77.07-1.81 1.9-1.85 5.47-.12 10.95-.22 16.42-.3 13.64-.19 27.29-.38 40.93-.55 34.87-.43 69.74-.83 104.6-1.26 17.6-.22 35.2-.49 52.81-.75 3.84-.06 3.35.04 3.3 3.25-.78 49.01-18.53 90.75-53.45 124.79-22.21 21.65-48.49 36.31-78.6 43.77-16.8 4.17-33.88 5.79-51.11 4.68-75.76-4.88-135.54-56.68-155.77-123.97-6.09-20.27-8.32-40.98-6.94-62.12 3.82-58.46 36.99-110.16 85.26-138.65 17.82-10.52 36.82-17.72 57.12-21.41 12.3-2.24 24.75-3.33 37.21-2.52 63.26 4.13 111.14 33.8 143.83 88.48.45.71.92 1.41 1.1 2.55z" style="fill:#fff"/><path d="M510.29 339.6c-.86.3-1.05.91-1.4 1.37-3.03 4-7.28 5.45-11.8 4-4.78-1.53-8.07-5.67-8.33-10.42-.14-2.56.24-5.08.58-7.59.74-5.45 1.54-10.9 2.37-16.34.31-2.04.38-2.09 2.33-1.82 6.49.91 12.97 1.84 19.45 2.8 5.98.89 11.95 1.8 17.92 2.76 2.02.32 2.12.44 1.82 2.41-.95 6.36-1.94 12.72-2.96 19.07-.19 1.16-.53 2.31-.95 3.41-1.51 3.98-4.34 6.42-8.59 6.83-4.36.42-7.66-1.39-9.78-5.3-.21-.37-.42-.74-.66-1.18zm-14.32-9.26c-.06 3.91 1.52 5.84 4.73 6.33 2.79.43 5.07-.99 5.91-3.94 1.1-3.83 1.52-7.81 2-11.76.11-.91-.24-1.46-1.17-1.6-2.91-.43-5.82-.86-8.73-1.3-.72-.11-1.11.21-1.21.93-.52 3.97-1.06 7.91-1.53 11.34zm29.27-6.76c.14-.98-.05-1.64-1.2-1.8-2.33-.32-4.65-.69-6.97-1.07-1.15-.19-1.44.43-1.56 1.42-.41 3.28-.88 6.54-1.29 9.82-.07.58-.01 1.19.09 1.76.47 2.54 2.24 4.06 4.71 4.1 2.19.03 3.98-1.3 4.47-3.71.7-3.49 1.18-7.01 1.75-10.52zM347.3 84.27c4.31 5.25 6.96 10.87 9.84 20.72-2.97-.27-5.79-1.02-8.63-1.59-1.08-.22-1.5-1.24-1.9-2.21-1.75-4.22-3.66-8.38-5.26-12.65-1.34-3.56-3.87-5.4-7.4-6.15-1.56-.33-1.91-.12-2.24 1.52-.89 4.4-1.74 8.81-2.59 13.21-.42 2.19-.48 2.27-2.59 1.88-1.57-.29-3.12-.73-4.69-.94-1.15-.15-1.38-.69-1.18-1.71.68-3.41 1.31-6.82 1.99-10.23 1.83-9.22 3.66-18.44 5.5-27.66.42-2.12.45-2.2 2.67-1.75 6.5 1.32 13.06 2.39 19.49 4.07.57.15 1.13.33 1.7.47 9.96 2.61 10.16 14.88 4.43 19.93-1.71 1.51-3.67 2.34-5.9 2.61-1.01.14-1.99.3-3.24.48zm-2.45-6.66c4.5.2 6.63-1.78 6.56-5.46-.04-2.29-1.34-3.99-4.17-4.73-3.48-.92-7.05-1.52-10.57-2.27-.82-.18-1.3.1-1.46.92-.53 2.74-1.06 5.48-1.58 8.22-.15.81.14 1.25.98 1.43 3.62.76 7.21 1.59 10.24 1.89zM95.65 369.23c1.01 2.56 1.97 4.9 2.87 7.28.62 1.66.59 1.68-1.07 2.39-.77.33-1.56.64-2.34.95-2.48 1.01-2.5 1.02-3.43-1.34-1.74-4.41-3.42-8.84-5.21-13.23-.45-1.11-.3-1.66.83-2.1 4.23-1.65 8.44-3.36 12.64-5.08 1.03-.42 1.99-.36 2.89.22 9.41 6.01 14.87 17.66 12.54 27.4-.4 1.66-1.01 3.23-1.88 4.7-5.05 8.51-17.07 13.39-26.6 10.85-3.54-.94-6.5-2.78-8.83-5.59-3.68-4.43-5.76-9.58-6.06-15.33-.29-5.51 2.03-9.81 6.72-12.98 1.34 2.09 2.58 4.1 3.9 6.06.64.96.18 1.58-.46 2.21-5.51 5.41-.62 16.24 6.17 17.62 2.34.48 4.68.27 7.01-.28 3.61-.85 6.77-2.54 9.47-5.06 3.6-3.36 4.62-7.96 2.84-12.56-1.17-3.01-3.2-5.34-5.73-7.28-.9-.69-1.8-.82-2.82-.35-1.05.46-2.13.92-3.45 1.5zM265.31 75.29c-.07-3.26.53-6.32 1.65-9.27 2.34-6.15 6.6-10.05 13.06-11.48 4.63-1.02 9.17-.95 13.65.65 3.96 1.41 7.12 3.87 9.14 7.58 3.96 7.24 4.51 14.91 1.75 22.6-2.65 7.38-8.31 11.28-16 12.11-4.33.47-8.54.03-12.54-1.92-4.31-2.1-7.3-5.37-8.92-9.88-1.2-3.39-1.91-6.87-1.79-10.39zm32.02.7c.09-1.94-.2-3.95-.64-5.94-1.06-4.78-4.64-8.26-8.98-8.76-5.83-.68-9.97 1.38-12.17 6.42-2.57 5.87-2.15 11.79.86 17.35 2.18 4.03 5.95 5.61 10.42 5.22 4.48-.39 7.71-2.69 9.39-6.96.9-2.31 1.19-4.74 1.12-7.33zM101.27 325.25c-.04 9.23-4.41 15.63-12.57 18.76-4.98 1.91-10.1 2.48-15.36 1.48-8.15-1.55-13.34-6.85-15.06-15.42-.53-2.67-.8-5.37-.39-8.09 1.1-7.44 5.09-12.51 12.07-15.29 4.9-1.95 9.92-2.59 15.09-1.79 8.59 1.34 13.41 6.78 15.58 14.96.5 1.89.71 3.83.64 5.39zm-20.54-11.83c-3.65-.13-7.11.83-10.33 2.62-3.82 2.12-6.03 6.63-5.48 10.92.62 4.8 4.24 8.92 8.37 9.73 5.33 1.05 10.3.37 15.12-2.18 7.48-3.96 7.03-14.79.77-18.92-2.59-1.72-5.4-2.21-8.45-2.17zM508.11 402.48c-1.44-.64-3.16-1.32-4.8-2.16-.64-.33-.37-1.02-.13-1.59.87-2.02 1.72-4.05 2.57-6.07 1.65-3.9 3.32-7.78 4.93-11.69.79-1.91.74-1.95-1.18-2.78-1.62-.7-3.25-1.38-4.89-2.02-1.66-.64-1.72-.64-2.44 1.01-1.79 4.11-3.52 8.24-5.28 12.37-.56 1.32-1.14 2.64-1.67 3.98-.4 1.01-1.04 1.23-1.99.81-1.08-.47-2.17-.92-3.25-1.38-1.77-.76-1.84-.87-1.1-2.6 2.12-4.98 4.25-9.96 6.38-14.93 1.21-2.81 1.21-2.8-1.57-3.98-1.93-.82-3.85-1.69-5.78-2.52-1.96-.83-2.14-.76-3 1.25-2.39 5.6-4.76 11.21-7.14 16.82-.07.16-.11.32-.18.47-1.01 2.26-1.01 2.27-3.32 1.3-.85-.36-1.67-.81-2.54-1.12-1.23-.44-1.45-1.11-.91-2.32 1.29-2.85 2.46-5.75 3.69-8.63 2.39-5.6 4.8-11.19 7.19-16.8 1.07-2.5 1.06-2.53 3.4-1.52 11.42 4.95 22.83 9.91 34.24 14.87 1.93.84 1.99.97 1.22 2.79-3.44 8.1-6.89 16.19-10.35 24.27-.23.54-.48 1.08-.78 1.59-.21.39-.57.62-1.32.58zM156.32 127.8c-2.3 2.41-4.18 4.46-6.14 6.42-2.57 2.56-5.23 5.04-7.82 7.59-1.31 1.28-1.28 1.4.08 2.85 1.62 1.72 3.26 3.43 4.9 5.13 1.56 1.62 1.58 1.63 3.19.08 4.63-4.45 9.24-8.92 13.86-13.38.42-.41.86-.79 1.02-.95 1.73 1.56 3.39 3.06 5.03 4.55-.27.86-.95 1.27-1.49 1.78-6.49 6.29-12.99 12.57-19.49 18.85-.3.29-.62.57-.92.87-.59.6-1.15.61-1.71-.04-.22-.26-.47-.49-.7-.73l-26.21-27.56c-.4-.42-.75-.89-1.29-1.55.92-.83 1.81-1.6 2.66-2.42 6.09-5.86 12.17-11.73 18.24-17.6 1.53-1.48 1.4-1.67 2.91-.05 1.09 1.17 2.15 2.36 3.22 3.55-.68 1.63-2.19 2.5-3.37 3.67-3.66 3.63-7.4 7.18-11.1 10.77-1.52 1.47-1.52 1.5-.12 3.02 1.2 1.31 2.4 2.62 3.64 3.89 1.36 1.4 1.4 1.41 2.79.07 3.53-3.4 7.04-6.82 10.56-10.23.79-.76 1.6-1.51 2.4-2.26.6-.57 1.13-.5 1.74.07 1.37 1.25 2.79 2.45 4.12 3.61zM455.52 116.12c-.15.25-.34.62-.58.96-.55.75-1.13 1.48-1.68 2.23-1.54 2.07-1.53 2.07-3.46.58-3.08-2.36-6.16-4.73-9.25-7.09-1.68-1.28-3.36-2.56-5.05-3.82-1.82-1.36-1.83-1.36-3.15.34-.98 1.27-1.95 2.55-2.91 3.84-1.43 1.91-1.43 1.93.39 3.33 3.22 2.46 6.45 4.91 9.67 7.36 1.34 1.02 2.67 2.07 4.03 3.06.96.69 1.12 1.39.3 2.31-.56.63-1.04 1.33-1.55 2.01-1.7 2.27-1.39 2.7-4.21.5-4.06-3.17-8.17-6.27-12.26-9.4-.34-.26-.67-.51-1-.78-.72-.6-1.3-.53-1.88.25a365.98 365.98 0 0 1-5.4 7.06c-.66.84-.33 1.35.37 1.88 1.75 1.32 3.48 2.67 5.22 4.01 3.61 2.78 7.24 5.55 10.84 8.34 1.44 1.11 1.43 1.15.39 2.56-.7.96-1.41 1.91-2.13 2.84-.96 1.24-1.13 1.3-2.43.31-7.51-5.75-15.01-11.51-22.49-17.29-1.43-1.11-1.42-1.26-.04-3.09 5.96-7.91 11.93-15.8 17.9-23.7 1.68-2.23 3.42-4.42 5.04-6.69.79-1.1 1.4-1.08 2.43-.28 7.2 5.59 14.45 11.13 21.67 16.7.52.39 1.2.7 1.22 1.67zM79.81 193.15c.4-6.67 3.22-12.42 8.76-16.72 3.3-2.56 6.98-2.62 10.8-1.45 1.09.33 1.49.92.9 2.08-.84 1.66-1.6 3.36-2.34 5.07-.37.85-.92 1.13-1.79.94-2.32-.51-4.39-.05-5.96 1.81-1.91 2.25-3.2 4.83-3.07 7.85.12 2.81 2.54 4.13 5.04 2.87 1.15-.58 2.04-1.49 2.9-2.42 2.36-2.54 4.67-5.12 7.07-7.62 1.77-1.85 3.83-3.34 6.34-4.02 8.38-2.27 16.65 5.22 15.39 14.06-.8 5.6-3.19 10.52-7.22 14.53-4.34 4.32-9.48 4.63-15 2.99-.82-.24-1.08-.72-.77-1.52.71-1.81 1.42-3.62 2.12-5.44.28-.73.75-1.1 1.56-.92.25.06.49.12.74.15 6.2.74 11.38-4.22 10.94-10.51-.15-2.07-1.01-3.82-3.01-4.64-1.93-.8-3.62-.1-5.07 1.28-1.84 1.75-3.51 3.65-5.15 5.6-2.08 2.48-4.35 4.75-7.26 6.22-6.04 3.06-13.37 0-15.44-6.36-.38-1.14-.4-2.31-.48-3.83zM186.02 127.75c-4.98-.23-8.53-2.58-11.5-6.05-.63-.74-.48-1.37.29-1.91 1.52-1.06 3.04-2.12 4.55-3.2.63-.45 1.22-.52 1.8.07.12.12.24.24.37.35 4.82 3.99 10.7 3.26 14.47-1.78 1.08-1.44 1.48-3.03 1.15-4.79-.38-2.04-1.78-3.24-3.84-3.36-1.71-.1-3.33.39-4.96.79-2.61.63-5.22 1.28-7.82 1.98-1.57.43-3.16.49-4.76.45-4.45-.13-7.72-2.24-9.65-6.24-1.88-3.9-1.6-7.73.95-11.29 3.82-5.33 9.13-8.13 15.48-9.03 4.43-.63 7.84 1.31 10.57 4.68.97 1.2.92 1.43-.44 2.35-1.4.94-2.86 1.78-4.25 2.73-.9.62-1.65.67-2.45-.16-2.47-2.56-5.21-2.27-8.07-.73-1.65.89-3.18 1.93-4.3 3.47-.91 1.24-1.24 2.6-.45 4.04.75 1.36 2.02 1.7 3.44 1.65 2.38-.08 4.63-.81 6.91-1.37 2.36-.58 4.71-1.26 7.1-1.73 5.52-1.09 10.26.96 13.04 5.53 2.93 4.82 2.76 10.37-.9 14.68-4.42 5.22-10.11 8.25-16.73 8.87zM99.03 268.61c-1.15-.37-2.04-1.03-2.94-1.63-10.8-7.22-21.59-14.44-32.37-21.67-2.12-1.42-2.1-1.42-1.51-3.88.29-1.23.53-2.49.77-3.73.47-2.42.69-2.69 2.97-3.08 3.31-.57 6.64-1.07 9.95-1.64 9.61-1.63 19.22-3.28 28.83-4.92.97-.17 1.96-.4 3.1-.17-.24 2.63-.95 5.06-1.42 7.52-.2 1.08-1.01 1.27-1.85 1.41-1.99.32-3.99.58-5.99.89-2.43.37-2.52.47-3.05 2.94-.85 3.98-1.71 7.95-2.55 11.93-.46 2.17-.44 2.18 1.51 3.41 1.64 1.04 3.24 2.13 4.93 3.09 1.21.69 1.7 1.54 1.29 2.91-.65 2.17-.8 4.48-1.67 6.62zm-10.59-29.26c-5.34.76-10.43 1.49-15.52 2.22l-.15.55c4.35 2.76 8.7 5.51 13.31 8.44.91-3.81 1.8-7.27 2.36-11.21zM506.8 290.72c-1.6.06-3.19.12-4.79-.03-4.51-.41-7.77-2.68-9.63-6.79-2.41-5.33-3.01-10.9-1.62-16.64 1.12-4.63 4.02-7.49 8.5-8.85 3.73-1.13 7.6-1.43 11.44-1.86 6.1-.68 12.22-1.22 18.34-1.78 2.05-.19 2.06-.14 2.27 1.92.17 1.6.31 3.21.51 4.81.12.99-.06 1.5-1.24 1.61-6.54.6-13.06 1.28-19.59 1.98-2.51.27-5.02.57-7.5 1.03-4.02.75-6.05 3.37-6.05 7.53 0 .51.01 1.02.07 1.52.64 5.29 2.9 7.36 8.21 7.09 4.45-.23 8.89-.74 13.33-1.17 4.27-.41 8.53-.92 12.8-1.3 1.74-.16 1.8 0 1.97 1.76.14 1.52.34 3.03.47 4.55.15 1.84.03 2.01-1.83 2.24-1.5.19-3.02.27-4.53.4-7.06.66-14.07 1.65-21.13 1.98zM233.61 62.69c3.94-.06 6.77 1.4 8.91 4.17 2.59 3.36 3.75 7.23 3.16 11.44-.6 4.26-3.05 7.25-6.91 9.06-3.05 1.43-6.29 2.34-9.49 3.36-.56.18-1.11.43-1.69.51-1.22.16-1.25.86-.96 1.82.74 2.43 1.47 4.86 2.19 7.29.51 1.7.99 3.41 1.52 5.11.26.83.25 1.49-.74 1.8-1.92.6-3.84 1.23-5.76 1.84-.67.21-1.15-.07-1.42-.7-.16-.39-.29-.79-.42-1.2l-10.68-36c-.12-.41-.25-.81-.37-1.21-.21-.69.05-1.21.7-1.4 7-2.04 13.85-4.69 21.09-5.84.43-.07.86-.05.87-.05zm-2.81 7.83c-2.9.4-6.09 1.42-9.27 2.51-.67.23-.61.74-.47 1.23.94 3.16 1.91 6.3 2.87 9.45.2.66.59.96 1.32.73 3.04-.94 6.18-1.62 8.98-3.23 2.45-1.41 3.37-3.83 2.6-6.49-.77-2.69-2.84-4.25-6.03-4.2zM347.67 513.24c-2.23 2.79-4.51 4.4-7.54 4.77-3.54.43-6.77-.38-9.3-2.91-4.18-4.18-5.68-9.26-4.5-15.14 1.9-9.49 14.35-13.77 22.05-6.76 1.26 1.15 2.33 2.47 3.09 3.99 3.61 7.29 5.36 14.99 4.41 23.14-.96 8.25-9.03 13.95-17.03 12.22-3.8-.83-6.06-3.42-7.56-6.86-.3-.7-.09-1.14.61-1.37 1.75-.59 3.51-1.17 5.26-1.76.82-.27 1.27.18 1.59.85 1.02 2.17 2.78 2.93 4.99 2.44 2.25-.51 3.59-2.06 4.11-4.34.6-2.6.32-5.16-.18-8.27zm-14.01-10.78c.02 2.86.77 5.15 2.23 7.2 1.17 1.63 2.75 2.47 4.76 2.19 2.19-.3 3.65-1.58 4.35-3.7 1.09-3.29-.54-8.5-3.3-10.54-3.03-2.24-7.05-.75-7.83 2.93-.15.73-.16 1.5-.21 1.92zM496.53 186.63c-1.54-1.42-3.1-2.84-4.63-4.28-1.38-1.3-1.46-1.37-.42-2.91 3.26-4.82.48-10.87-3.52-13.15-2.41-1.37-4.98-1.65-7.56-.87-5.3 1.6-9.77 4.55-13.08 9.05-4.09 5.56-1.26 13.5 5.25 14.98 1.96.45 3.87.1 5.71-.51 1.09-.36 1.52-.07 1.8.94.49 1.79 1.02 3.58 1.58 5.36.34 1.1.08 1.77-1.11 2.06-6.74 1.64-12.71.53-17.42-4.95-4.52-5.26-6.39-11.26-4.65-18.16.59-2.33 1.62-4.47 3.14-6.32 4.55-5.54 10.21-9.34 17.29-10.61 4.93-.88 9.59.13 13.59 3.25 5.18 4.04 8.3 9.3 8.38 16.06.04 3.86-1.42 7.08-4.35 10.06zM365.81 510.58c.38-3.84 1.18-6.7 1.75-9.61 1.26-6.4 2.66-12.76 3.87-19.17.41-2.19 1.23-3.6 3.49-4.42 3.64-1.32 3.47-1.46 4.89 2.09 2.64 6.6 5.43 13.13 8.1 19.71.5 1.24 1.14 1.46 2.32.98 1.05-.42 2.19-1.55 3.2-.88.77.51.97 1.9 1.42 2.89.14.31.28.62.41.93.82 2.01.82 2.01-1.13 2.97-2.73 1.35-2.73 1.35-1.51 4.25.49 1.17.96 2.35 1.48 3.51.44.99.16 1.56-.85 1.95-1.49.57-2.94 1.25-4.41 1.88-.97.41-1.59.09-1.98-.88-.62-1.57-1.24-3.15-1.92-4.69-.71-1.6-.83-1.65-2.47-.97-4.03 1.68-8.05 3.42-12.08 5.1-2.04.85-2.08.84-2.91-1.24-.67-1.7-1.87-3.26-1.67-4.4zm6.74-3.02c2.59-1.09 4.82-2.03 7.05-2.97 1.82-.77 1.86-.79 1.14-2.55-1.24-3.06-2.5-6.1-3.81-9.13-.21-.49-.27-1.2-1.22-1.38-1.03 5.25-2.06 10.48-3.16 16.03zM239.39 529.55c.47-1.72.86-3.1 1.24-4.49.77-2.87.77-2.88-2.18-3.7-3.72-1.04-7.44-2.06-11.17-3.09-.49-.13-.96-.34-1.45-.42-.78-.13-.95-.57-.75-1.26.48-1.71.94-3.43 1.43-5.14.25-.87.94-1.38 1.58-1.93 7.11-6.1 14.24-12.18 21.3-18.33 1.37-1.19 2.66-1.5 4.37-.91 4.19 1.45 4.27.15 2.92 5.18-1.8 6.7-3.63 13.39-5.43 20.09-.47 1.76-.43 1.77 1.26 2.25 3.39.95 3.49 1.14 2.35 4.54-1.08 3.22-1.08 3.22-4.18 2.4-1.67-.44-1.72-.44-2.24 1.32-.45 1.54-.87 3.1-1.24 4.66-.3 1.25-.98 1.65-2.2 1.28-1.53-.46-3.07-.86-4.61-1.28-.78-.23-1.2-.64-1-1.17zm-5.45-16.86c2.96.84 5.39 1.47 7.77 2.24 1.2.39 1.7.03 1.99-1.12.84-3.28 1.74-6.54 2.59-9.82.15-.6.52-1.21.03-2.09-4.06 3.54-8.05 7.01-12.38 10.79zM394.17 480.38c-2.4-5.15-1.67-9.91 2.24-13.75 3.38-3.32 7.43-4.87 12.19-4.16 5.42.81 10.31 6.56 7.27 13.42-.17.38-.3.78-.41 1.08.29.63.73.5 1.12.45 6.09-.75 10.72 2.72 12.11 8.85 1.77 7.8-4.58 15.41-11.29 16.73-4.52.89-8.52.03-11.92-3.19-1.48-1.41-1.46-1.61.15-2.92.52-.43 1.06-.84 1.61-1.23.88-.63 1.53-1.7 2.64-1.89 1.14-.2 1.63 1.05 2.48 1.55 2.02 1.2 4.47 1.15 6.42-.25 1.93-1.38 2.81-3.91 2.12-6.33a9.487 9.487 0 0 0-2.05-3.76c-2.42-2.74-5.39-3.02-8.26-.76-.59.47-1.15.98-1.93 1.65-.76-1.72-1.5-3.28-2.15-4.87-.44-1.08.23-1.72 1.05-2.31 1.75-1.25 2.42-2.98 2.02-5.11-.51-2.7-2.8-4.54-5.17-4.16-2.51.39-4.37 2.89-4.26 5.51.04 1.03 1.19 2.07.09 3.08-.77.69-1.84.78-2.77 1.16-1.09.45-2.13 1.02-3.3 1.21zM391.29 83.44c-.02-1.13-.77-1.32-1.33-1.61-2.32-1.19-4.67-2.3-7-3.48-2.4-1.22-2.45-1.27-1.17-3.65.66-1.24.84-3.14 2.2-3.51 1.17-.31 2.42.93 3.62 1.52 7.68 3.81 15.35 7.64 23.03 11.47.53.26 1.05.53 1.59.77.94.42 1.23 1.03.72 2.01-.55 1.05-1.02 2.14-1.55 3.19-.89 1.76-.99 1.81-2.91.88-2.34-1.14-4.66-2.33-6.99-3.5-.45-.23-.9-.45-1.37-.63-.54-.21-.99-.05-1.27.48-.27.52-.54 1.05-.8 1.58-4.39 8.96-8.77 17.91-13.16 26.87-.19.38-.36.77-.56 1.14-.38.71-.87.92-1.65.51-1.64-.85-3.3-1.66-4.99-2.43-1.08-.49-1.3-1.11-.74-2.2 1.05-2.02 1.99-4.11 2.99-6.16 3.46-7.06 6.93-14.12 10.38-21.18.38-.74.71-1.52.96-2.07zM487.95 245.22c-1.18.05-1.34-.59-1.53-1.13-.81-2.23-1.58-4.47-2.37-6.7-2.13-5.98-4.28-11.95-6.4-17.94-.65-1.85-.63-1.9 1.11-2.53 11.85-4.31 23.7-8.62 35.56-12.91 1.78-.65 1.81-.61 2.5 1.23.53 1.43 1.04 2.86 1.53 4.31.62 1.82.63 1.88-1.19 2.55-4.74 1.73-9.49 3.41-14.24 5.12-4.83 1.74-9.65 3.46-14.47 5.23-1.93.71-1.95.78-1.26 2.75 1.91 5.43 3.84 10.85 5.74 16.29.58 1.65.55 1.68-1.08 2.31-1.42.52-2.84 1.02-3.9 1.42zM302.61 506.64c-3.19 2.6-6.06 4.94-9.78 6.13-.54-1.87-.42-3.73-.59-5.55-.1-1.07.55-1.72 1.39-2.22 1.16-.69 2.35-1.33 3.45-2.1 2.52-1.78 4.61-3.96 5.8-6.87.52-1.27 1.4-1.81 2.75-1.74 1.01.05 2.03.06 3.03-.04 1.15-.12 1.46.43 1.5 1.45.14 3.3.33 6.61.48 9.91.45 9.57.91 19.15 1.33 28.72.1 2.22.04 2.22-2.15 2.31-1.35.05-2.7.07-4.03.21-1.21.13-1.72-.41-1.78-1.55-.03-.51-.05-1.02-.07-1.53-.39-8.56-.77-17.12-1.16-25.67-.02-.33-.08-.65-.17-1.46zM60.82 277.27c7.96.63 15.93 1.26 23.89 1.88 3.35.26 6.71.47 10.07.72.92.07 1.84.17 2.76.26.8.08 1.21.49 1.14 1.33-.17 2.03-.34 4.06-.47 6.09-.08 1.18-.91 1.02-1.64.98-3.19-.21-6.38-.44-9.56-.67-8.3-.62-16.61-1.26-24.91-1.89-1.34-.1-2.68-.31-4.02-.33-1.32-.02-1.8-.57-1.66-1.89.17-1.52.21-3.04.32-4.57.14-1.94.2-1.99 2.07-1.96.67.01 1.35.06 2.02.09-.01-.02-.01-.03-.01-.04zM220.07 505.91c-.05.2-.07.47-.17.7-.77 1.69-1.58 3.37-2.34 5.07-.41.92-.96.96-1.81.56-3.81-1.77-7.64-3.52-11.49-5.21-1.2-.53-1.45-1.21-.87-2.37.68-1.36 1.3-2.76 1.86-4.17.42-1.06 1.07-1.52 2.14-1.02 3.98 1.82 7.95 3.66 11.93 5.48.42.18.68.45.75.96zM282.75 519.45c-.22 1.65-.47 3.24-.63 4.83-.1.99-.61 1.33-1.51 1.22-4.41-.55-8.82-1.1-13.22-1.66-.7-.09-1.04-.56-.96-1.24.22-1.93.45-3.86.73-5.78.14-.97.83-1.11 1.7-.99 2.82.39 5.65.75 8.48 1.1 1.16.15 2.33.25 3.5.37 1.72.17 2.02.52 1.91 2.15zM53.27 225.96c2.47 3.14 4.59 5.83 6.71 8.51.35.43.42.9.32 1.42-.29 1.55-.58 3.09-.95 5-2.45-1.77-4.59-3.33-6.75-4.88-.7-.5-.49-1.21-.41-1.85.32-2.51.66-5.02 1.08-8.2z" class="st1"/><path d="M495.97 330.34c.47-3.43 1-7.38 1.54-11.32.1-.72.49-1.04 1.21-.93 2.91.43 5.82.87 8.73 1.3.93.14 1.28.69 1.17 1.6-.49 3.95-.91 7.92-2 11.76-.84 2.95-3.12 4.37-5.91 3.94-3.22-.51-4.79-2.44-4.74-6.35zM525.24 323.58c-.57 3.51-1.05 7.03-1.75 10.51-.49 2.41-2.28 3.74-4.47 3.71-2.47-.04-4.23-1.56-4.71-4.1-.11-.58-.16-1.19-.09-1.76.41-3.27.89-6.54 1.29-9.82.12-.99.42-1.61 1.56-1.42 2.32.38 4.64.75 6.97 1.07 1.15.17 1.34.83 1.2 1.81zM344.85 77.61c-3.03-.3-6.63-1.13-10.24-1.89-.84-.18-1.13-.62-.98-1.43.53-2.74 1.05-5.48 1.58-8.22.16-.82.64-1.1 1.46-.92 3.53.76 7.09 1.36 10.57 2.27 2.83.74 4.13 2.45 4.17 4.73.07 3.68-2.06 5.66-6.56 5.46zM297.33 75.99c.07 2.59-.22 5.02-1.13 7.33-1.68 4.27-4.91 6.57-9.39 6.96-4.47.39-8.24-1.19-10.42-5.22-3.01-5.57-3.43-11.48-.86-17.35 2.21-5.04 6.34-7.1 12.17-6.42 4.34.51 7.92 3.98 8.98 8.76.45 1.99.74 4 .65 5.94zM80.73 313.42c3.05-.04 5.87.45 8.46 2.16 6.26 4.13 6.71 14.96-.77 18.92-4.83 2.56-9.8 3.23-15.12 2.18-4.13-.81-7.76-4.93-8.37-9.73-.55-4.29 1.66-8.79 5.48-10.92 3.21-1.79 6.67-2.74 10.32-2.61zM88.44 239.35c-.56 3.94-1.45 7.41-2.35 11.21-4.62-2.93-8.96-5.68-13.31-8.44l.15-.55c5.08-.73 10.17-1.46 15.51-2.22zM230.8 70.52c3.19-.05 5.26 1.51 6.04 4.2.77 2.67-.15 5.08-2.6 6.49-2.8 1.61-5.94 2.28-8.98 3.23-.74.23-1.12-.07-1.32-.73-.96-3.15-1.93-6.3-2.87-9.45-.15-.49-.2-1 .47-1.23 3.17-1.09 6.36-2.11 9.26-2.51zM333.66 502.46c.04-.43.06-1.2.21-1.93.78-3.68 4.8-5.17 7.83-2.93 2.76 2.05 4.4 7.26 3.3 10.54-.71 2.12-2.16 3.4-4.35 3.7-2.01.28-3.59-.56-4.76-2.19-1.46-2.03-2.21-4.32-2.23-7.19zM187.79 490.93c-.55 3.4-2.25 6.43-5.41 8.46-1.53.98-3.24.91-4.78-.07-1.89-1.21-2.69-3.13-2.5-5.24.31-3.36 1.89-6.13 4.72-8.05 1.77-1.2 3.65-1.18 5.48-.09 1.75 1.04 2.52 2.65 2.49 4.99zM372.55 507.56c1.1-5.55 2.14-10.79 3.17-16.03.95.18 1.01.89 1.22 1.38 1.3 3.03 2.57 6.07 3.81 9.13.71 1.77.68 1.79-1.14 2.55-2.24.95-4.48 1.88-7.06 2.97zM233.94 512.69c4.33-3.78 8.32-7.25 12.38-10.79.49.88.12 1.49-.03 2.09-.85 3.28-1.75 6.54-2.59 9.82-.29 1.15-.79 1.51-1.99 1.12-2.38-.77-4.81-1.4-7.77-2.24z" class="st0"/></svg>