<svg xmlns="http://www.w3.org/2000/svg" xml:space="preserve" width="360.93" height="360.93"><path fill="#231F20" d="M360.93 180.46c0 99.67-80.79 180.47-180.47 180.47C80.8 360.93 0 280.14 0 180.46 0 80.8 80.8 0 180.46 0c99.68 0 180.47 80.8 180.47 180.46"/><path fill="#FFF" d="M352.62 180.46c0 95.08-77.08 172.16-172.16 172.16S8.3 275.55 8.3 180.46C8.3 85.38 85.38 8.3 180.46 8.3c95.09 0 172.16 77.08 172.16 172.16"/><path fill="#0E93D2" d="M131.51 335.38c15.45 4.88 31.9 7.52 48.96 7.52 17.07 0 33.51-2.64 48.96-7.52-13.82-10.68-30.72-16.99-48.96-16.99s-35.14 6.31-48.96 16.99M229.43 25.55c-15.45-4.88-31.9-7.53-48.96-7.53a162.2 162.2 0 0 0-48.95 7.53c13.82 10.67 30.71 16.98 48.95 16.98s35.13-6.3 48.96-16.98M242.78 116.75a180.083 180.083 0 0 0 63.09-39.53c-17.85-21.66-41.21-38.58-67.93-48.7-8.98 7.73-19.33 13.69-30.59 17.39 18.2 13.21 31.67 39.39 35.43 70.84M153.58 45.91c-11.26-3.7-21.61-9.67-30.59-17.39a162.745 162.745 0 0 0-67.93 48.7c17.82 17.22 39.28 30.79 63.09 39.53 3.76-31.45 17.23-57.64 35.43-70.84M118.15 244.18c-23.81 8.74-45.27 22.31-63.09 39.53 17.85 21.66 41.22 38.59 67.93 48.7 8.98-7.73 19.33-13.68 30.59-17.39-18.2-13.21-31.67-39.38-35.43-70.84M242.78 244.18c-3.76 31.45-17.23 57.63-35.42 70.83 11.26 3.71 21.61 9.67 30.59 17.39 26.72-10.11 50.08-27.03 67.93-48.7a180.335 180.335 0 0 0-63.1-39.52"/><path fill="#231F20" d="M310.65 277.64c20.27-27.1 32.26-60.74 32.26-97.18 0-36.44-12-70.08-32.26-97.18-33.69 32.28-79.61 52.22-130.18 52.22-50.57 0-96.49-19.94-130.17-52.22-20.26 27.1-32.26 60.74-32.26 97.18 0 36.44 12 70.08 32.26 97.18 33.68-32.27 79.6-52.21 130.17-52.21 50.57 0 96.49 19.94 130.18 52.21"/><path fill="#231F20" d="M209.79 96.89c1.78-.58 3.4-2.41 3.4-5.34 0-1.78-.49-3.24-1.62-4.37-1.13-1.14-2.59-1.62-4.69-1.62-4.2 0-5.69 2.4-6.96 4.05l2.9 1.94c1.28-1.62 2.62-2.1 3.41-2.1 1.44 0 2.75 1.2 2.75 2.75 0 1.14-.39 1.89-1.13 2.59-.59.56-1.47.97-2.76.97h-1.13v3.4h1.62c1.3 0 2.3.3 2.91 1.14.49.68.97 1.49.97 3.08 0 3.04-1.8 3.56-3.08 3.56-.84 0-1.45-.09-1.95-.49-.62-.51-1.13-1.3-1.45-2.11l-3.72 1.46c.48 1.62 1.3 2.92 2.59 3.73 1.13.81 2.75 1.29 4.69 1.29 2.1 0 3.89-.65 5.18-1.94 1.29-1.46 1.94-3.24 1.94-5.67.01-1.79-.58-5.28-3.87-6.32M178.19 96.24c0 4.69-.8 8.42-2.26 10.85-1.13 1.95-2.76 3.23-4.86 3.72-.52.13-1.22.16-1.78.16-1.33 0-2.44-.34-3.88-1.29l1.45-3.24c.78.37 1.76.65 2.6.65.99 0 1.93-.48 2.75-1.45.82-.98 1.3-2.6 1.62-4.7-.9.73-1.45 1.46-3.56 1.46-1.78 0-3.23-.65-4.38-2.11-1.13-1.46-1.62-3.4-1.62-5.83 0-2.92.65-5.02 1.79-6.48 1.13-1.46 2.91-2.27 5.02-2.43h.15c2.44 0 4.22.97 5.35 2.76 1.14 1.77 1.61 4.37 1.61 7.93m-7.12 2.43c1.03 0 1.6-.54 1.95-1.3.35-.8.48-1.94.48-3.4s-.11-2.68-.48-3.4c-.44-.84-1.14-1.13-1.95-1.13-.68 0-1.44.39-1.78 1.13-.44.95-.65 2.24-.65 3.4 0 2.34.67 4.7 2.43 4.7M147.59 87.98v3.24l4.37-1.29v16.51h-4.7v3.73h13.28v-3.73h-4.37v-20.4zM208.17 255.29h-5.03l-5.99 24.3h4.05l1.45-6h5.67l1.3 6h4.54l-5.99-24.3zm-4.7 14.42 1.46-7.13.52-2.75h.07l.48 2.59 1.52 7.29h-4.05zM146.77 255.62v23.97h4.54v-10.36h6.16v-3.89h-6.16v-5.83h8.91v-3.89z"/><path fill="#FFF" d="M159.94 136.57s8.7.15 9.08.16c.17.32 7.12 13.38 7.59 14.26h-5.13l-6.96-8.94-7.39 9.06-4.88-.11c.47-.87 7.69-14.43 7.69-14.43M282.5 209.08c-5.29-5.6-7.86-13-7.86-22.62 0-9.59 2.65-17.25 7.85-22.78 5.05-5.52 12.11-8.32 20.99-8.32 8.88 0 15.93 2.8 20.97 8.32 5.29 5.6 7.85 13.05 7.85 22.78 0 9.62-2.57 17.02-7.85 22.62h-.01c-4.99 5.46-12.05 8.32-20.98 8.48-8.75 0-15.82-2.86-20.96-8.48m8.43-38.22c-3 3.83-4.46 8.93-4.46 15.59 0 6.56 1.45 11.61 4.44 15.42 2.97 3.79 7.08 5.63 12.57 5.63s9.59-1.84 12.56-5.63c2.99-3.81 4.44-8.86 4.44-15.42 0-6.66-1.45-11.77-4.44-15.59h-.01c-3-3.68-7.11-5.46-12.56-5.46-5.27.01-9.37 1.79-12.54 5.46M258.14 156.98h11.66v58.79h-11.66zM250.51 156.98v58.79h-10.85v-47.62l-.63-.08s-11.97 47.22-12.08 47.7h-11.97c-.13-.48-12.25-47.7-12.25-47.7l-.63.08v47.62h-10.86v-58.79h17.57c.13.48 12.08 46.15 12.08 46.15s11.95-45.67 12.08-46.15h17.54zM185.57 156.98v9.55h-31.1v13.45h28.51v9.56h-28.51v15.87h32.72v10.36h-44.06v-58.79zM118.35 156.98c6.48 0 11.26 1.34 14.2 3.97 3 2.69 4.59 7.03 4.59 12.56 0 3.4-.77 6.48-2.22 8.9-1.36 2.26-3.53 3.9-6.46 4.88l-.96.32.96.3c2.5.77 4.4 2.18 5.48 4.06 1.04 1.62 1.57 4.27 1.74 8.59l.32 7.3c.17 3.67.88 5.7 2.26 6.6v1.32h-12.9c-.44-.94-.65-1.67-.82-2.43-.22-.95-.46-2.17-.53-4.7l-.16-6.32c-.17-3.91-.87-6.34-2.2-7.67-1.18-1.35-3.5-2.04-6.87-2.04h-13.45v23.16H89.68v-58.79h28.67zm-16.68 9.56h-.32v16.36h14.74c3.19 0 5.67-.7 7.17-2.02 1.48-1.16 2.23-3.25 2.23-6.24 0-2.6-.72-4.58-2.2-6.06-1.53-1.36-3.72-2.04-6.55-2.04h-15.07zM36.31 208.92c-5.1-5.59-7.69-13.2-7.69-22.63 0-9.45 2.52-16.79 7.69-22.45 4.98-5.62 11.82-8.48 20.33-8.48 7.5 0 13.42 1.73 18.11 5.28 4.62 3.67 7.37 8.44 8.21 14.16H71.1c-.78-2.69-2.45-5.2-4.71-6.9-2.34-1.76-5.46-2.65-9.26-2.65-5.16 0-9.11 1.84-12.08 5.62v.01c-2.83 3.84-4.27 8.97-4.27 15.26 0 6.56 1.45 11.6 4.44 15.42 3.17 3.85 7.4 5.79 12.56 5.79 4.07 0 7.32-1.19 9.94-3.64 2.61-2.12 4.28-5.35 4.96-9.59l.06-.37h-13.5v-9.55H83.2v31.58h-7.68c-.1-.47-1.55-7.42-1.55-7.42l-.43.59c-2.09 2.9-4.61 5.1-7.49 6.54-2.59 1.38-5.87 2.07-9.73 2.07-8.19 0-14.91-2.91-20.01-8.64"/><path fill="#231F20" d="M173.18 266.8c1.47.48 2.59 1.13 3.41 2.26.81 1.14 1.13 2.43 1.13 4.05 0 2.1-.63 3.75-2.11 4.86-1.38 1.03-3.21 1.62-5.09 1.62h-6.9v-23.97h7.13c3.47 0 6.15 2.11 6.15 5.82 0 1.3-.32 2.43-.97 3.4-.62.95-1.61 1.56-2.75 1.96m-3.57-7.62h-1.46v6.15h1.46c1.88 0 2.91-1.42 2.91-3.24.01-2.32-1.03-2.91-2.91-2.91m3.57 13.45c0-1.53-.45-2.42-1.05-2.97-.64-.58-1.87-.76-2.67-.76h-1.3v7.13h2.36c1.17-.01 2.66-.72 2.66-3.4M182.09 255.62v23.97h4.53v-9.07h2.11c1.95-.16 3.57-.81 4.87-1.95 1.45-1.46 2.1-3.23 2.1-5.67 0-2.42-.65-4.21-1.95-5.51-1.13-1.13-2.91-1.78-5.02-1.78h-6.64zm8.85 7.29c0 2.78-1.27 4.21-3.19 4.21h-1.13v-7.93h1.13c1.67-.01 3.19.74 3.19 3.72M183.71 88.96c-1.3 2.1-1.95 5.34-1.95 9.39 0 4.05.65 7.13 1.95 9.23 1.3 2.11 3.07 3.23 5.51 3.23 2.43 0 4.21-1.13 5.51-3.23 1.3-2.11 1.95-5.18 1.95-9.23 0-4.05-.65-7.29-1.95-9.39-1.3-2.27-3.07-3.41-5.51-3.41s-4.22 1.14-5.51 3.41m8.41 9.39c0 3.02-.15 5.43-.65 6.71-.47 1.25-1.13 1.88-2.27 1.88-1.13 0-1.79-.62-2.26-1.88-.49-1.28-.64-3.69-.64-6.71 0-3.12.15-5.63.64-6.97.47-1.3 1.13-1.94 2.27-1.94 1.14 0 1.8.64 2.26 1.94.5 1.33.65 3.84.65 6.97"/></svg>