<svg xmlns="http://www.w3.org/2000/svg" xml:space="preserve" width="500" height="500" viewBox="-347.5 574.5 500 500"><path fill="#006E4D" d="M-97.5 1074.5c138.3 0 250-112.2 250-250 0-138.3-111.7-250-250-250-137.8 0-250 111.7-250 250 0 137.8 112.2 250 250 250z"/><path fill="#FFF" d="M-97.5 596.2c-125.8 0-227.8 102-227.8 228.1 0 125 102 227.5 227.8 227.5s227.8-102 227.8-227.8c0-126-102-228.3-227.8-228.3v.5zm0 465.5c-131.1 0-238-106.4-238-237.2 0-131.6 107.1-238.3 238-238.3 131.1 0 238 106.6 238 238s-107.1 237.2-238 237.2v.3z"/><path fill="#FFF" d="M-97.5 677.6c-80.9 0-146.7 65.8-146.7 146.7 0 80.6 65.8 146.7 146.7 146.7S49.4 904.6 49.4 824c0-81.1-66.3-146.9-146.9-146.9v.5zm0 304.3c-86.7 0-157.4-70.7-157.4-157.7 0-86.5 70.7-157.9 157.4-157.9S60.2 737 60.2 823.7-10.7 981.6-97.5 981.6v.3zm76.5 25.8c3.8 0 7.1-3.3 7.1-7.7 0-4.1-3.3-7.7-7.7-7.7-3.8 0-7.1 3.6-7.1 7.7.1 4.1 3.4 7.7 7.7 7.7zM77.2 901c4.1 0 7.7-3.6 7.7-7.7s-3.6-7.7-7.7-7.7-7.7 3.6-7.7 7.7c.1 4.2 3.7 7.7 7.7 7.7zm-353.8-3.3c4.1 0 7.7-3.3 7.7-7.7 0-3.8-3.6-7.1-7.7-7.1s-7.7 3.1-7.7 7.1c.1 4.1 3.6 7.7 7.7 7.7z"/><g fill="#FFF"><path d="M-280.9 825.5c1.5-.3 2.8-1 4.1-1.8 1-1.3 2.6-2.3 3.6-3.8.8-1.8 1.5-4.3 1.5-7.7.3-2.8 0-5.1-.5-6.9-.8-1.5-1.5-3.3-2.6-4.1-1.3-1.5-2.8-2.6-4.3-2.6-1.5-.5-4.8-1-9.2-1l-18.6-1.3-.5 7.1 19.6 1.3 5.9.8c1.3.3 2.3.8 3.1 2 .5 1 1 2.6.5 4.6 0 2-.5 3.6-1.5 4.6-1.3 1-2 1.8-3.8 1.8h-5.6l-19.1-1-.8 6.9 19.4 1h8.8zM-271.7 856.6c1-3.3 1.5-6.6 1-10.2-.5-2.8-1.3-5.9-2.6-8.4-1.8-2.6-3.3-4.6-5.1-6.1l-14 2.5 2 15.3 5.9-1h.5l-1-7.7 4.3-1c1 1 2 2 2.6 3.6l1.8 4.3c0 3.1-.8 5.6-2.6 7.7-1.8 2.3-4.8 3.6-8.9 4.1-4.1.5-6.6 0-9.2-1.5-2-1.5-3.3-3.8-3.8-7.1-.3-1.8 0-3.6.8-5.1.8-1.5 2-2.5 3.8-3.6l-2.6-6.9c-3.1 1-5.4 3.1-6.9 6.1-1.3 2.6-1.8 5.9-1.3 10.2.5 3.1 1.5 6.1 3.1 8.2 2 2.8 4.6 4.6 7.1 5.9 3.3 1 6.6 1.5 10.2 1 3.3-.5 6.6-1.8 9.2-3.6 2.6-1.6 4.6-4.1 5.7-6.7zM-269.9 789.3l-7.1-5.1 3.6-13.8 8.7-.8 2-7.7.3-.3-38.3 4.3-1.8 7.7 30.6 22.5 2-6.8zm-12-9.2-11.7-7.7 13.8-1.5.5.3-2.6 8.9zM-261.3 760l3.1-6.4-13.3-6.6.5-1.5 1.8-2.6c.8-.5 1.5-1.3 2.6-1.3l6.4-1 9.2-1.3 3.6-7.7-.7.1 4.5-5.4-5.1-7.1 8.9-11.5 7.7 2.6 5.1-6.1v-.8l-37-9.7-4.3 5.9 19.3 32.3-6 .6c-3.6.3-5.9.8-7.7 1.3l-4.3 1.8c1-2.6 1-5.1.5-7.7-1.3-2-2.6-3.6-5.1-5.1-2-.8-3.8-1.3-5.6-1.3-2 .5-3.8 1.3-5.1 2.6-1.3 1.3-2.8 3.6-4.3 6.9l-6.9 13.8 31.9 15.3h.3zm1.6-57.9 13.5 4.1-5.9 7.7-7.6-11.8zm-14.8 37.5-2.6 5.1-8.4-3.8 2.6-5.1 2.6-4.6c.8-1 1.5-2 2.6-2 1-.3 1.8 0 3.1.5l2 1.8c.3.8.8 1.5.8 2.6l-2.7 5.5zM-153.6 639.8c.8 3.6 1.8 6.6 2.6 8.7l2.3 3.1c1.5 1 3.1 1.8 5.1 1.8 1.8.8 4.3.5 7.7 0 2.8-.8 4.8-1.8 6.4-2.6 1.5-.8 2.8-2.3 3.6-3.3.8-1.8.8-3.3.8-5.1l-1.3-9.2-4.1-17.9-7.7 1.8 5.1 18.6.3 6.4c0 1.3-.3 2.3-.8 3.1-1 1.3-2.3 2-4.3 2.6-2 .5-3.6.3-5.1-.5-1 0-2-1.3-2.6-2.5l-1.8-6.1-3.8-18.6-6.9 1.5h.5l4 18.2zM-170.5 663.8l-6.1-13.8 13.8-6.1-2.6-5.1-13.5 5.6-3-7.7 16-6.3-2.5-5.6-22.5 9.4 13.8 32.6zM-206.2 824.5c0-44.9 27-83.7 65.6-100.8V702c-49.7 18.4-85.5 66.3-85.5 122.4s35.7 104.1 85.7 122.4V814.3h-39.8v19.9h19.9v79.1c-28-19.9-45.9-52.3-45.9-88.8zM-37.3 659.2c1.8.3 3.6.3 5.1-.5 1.5 0 2.8-1 3.6-2.5 1.5-1 2.6-2.6 2.6-4.1 1-1.8 1-3.8 0-5.6-.5-2-1.8-3.3-3.6-4.6 1.8 0 3.1-.8 4.3-1.8 1.3-1.3 2.3-2.3 3.1-3.8V632c-.3-1.3-1-2.6-1.5-3.3-.5-1.3-1.8-2.6-3.1-2.6-1-1-3.1-1.8-5.6-2.6l-13.5-4.6v.3l-11.2 33.7 11.5 3.8c4.2 1.2 7 2.5 8.3 2.5zm-4.1-32.1.3.3 4.3 1 5.1 1.8c1.3.8 2 1.5 2.6 2.5v2.6c-.5 1-1 1.8-2 2.5h-3.1l-4.6-1.5-5.1-1.5 2.5-7.7zm-4.1 13.5.3-.3 5.1 1.5c3.3 1.3 4.8 1.8 5.9 2.6 1 .8 1.5 1.5 1.5 2.5.5.5.5 1.5 0 2.6-.3 1.3-1 2-1.8 2.5-1 .5-1.8.5-2.6.5l-5.1-1.3-6.4-2 3.1-8.6zM60.2 721.9l.1.2c.2-.1.4-.2.7-.2h-.8zM-110.3 619.4l1.3 29.6v.2l7.2-.5-1.3-29.8h10.2v-6.1L-121 614l.5 5.9zM55.6 739.6l.2-.1-.2-.5zM75.7 799l.5 12 .8 8.7c.3 2 1 3.3 2 4.6.8 1.3 2 2.3 3.8 3.1 1.5.8 3.1 1.3 4.6 1.3 2-.5 3.8-1.3 5.6-2.5 1-1 2-2.6 2.6-5.1.8 1.5 1.8 2.8 3.3 3.6 1.5 1 3.1 1 4.6 1 1.8 0 3.1-.5 4.3-1.3 1-.5 1.8-1.8 2.6-3.1s1.3-2.3 1.3-3.8V811l-.8-14.3.5-.3-35.7 2.6zm15.8 18.1c-.3 1.3-.8 2-1.5 2.6-.8.5-1.5 1-2.6 1-1.3 0-2.3-.3-3.1-1-.8-.5-1.5-1.3-1.5-2.6-.5-.5-.5-2-.5-5.1l-.5-6.4 9.4-.8.3.3v5.9c.5 3.6.5 5.3 0 6.1zm14.3-2.5c0 1.3-.5 2-1.3 2.5-.5.5-1.3 1-2.6 1-1 0-2-.3-2.6-.8-.8-.5-1.5-1.8-1.5-3.1l-.8-5.1v-4.6l8.2-.5v.3l.5 4.1v6.2zM74.7 764.6c-1.3.5-2.3 1.3-3.3 2.6-1 1.5-1.5 3.1-2 5.1-.3 1.8 0 4.3 1.3 7.7 0 2.6 1.3 4.6 2.6 6.4 1 1.5 2.6 2.8 3.6 3.3 1.8 1 3.3 1 5.1 1s4.8-.5 8.9-1.5l18.4-5.1-1.8-7.1-19.1 5.1c-2.6.8-4.6 1.3-5.9 1.3-1 0-2.3-.3-3.6-1-1-.8-2-2.3-2-4.1-.8-2-.8-3.6 0-4.6 0-1.5 1.3-2.6 2.6-3.1.5-.5 3.1-1 5.6-1.8l18.6-5.1-2-6.9-.5-.3-17.9 5.1c-4 .4-6.8 1.7-8.6 3zM66.5 762l5.1-2.6-7.6-16 26.5-12.3-3.1-6.3-31.6 14.7zM-61.5 651.5l.7-5.8-19.6-2.6 1.3-9.7 17.3 2.6 1-5.6-17.8-2.6 1.3-7.6 18.8 2.5.8-6.1-26-3.3-4.6 35.2.2-.3zM-193.2 676.5l-19.6-29.3-5.9 3.8 19.2 29.6z"/><path d="M52.5 729.6c2.6 1 6.1.8 10.2-.5l-2.5-6.9c-2.2.8-4.1.8-5.7.8-1.8-.5-3.1-1.5-4.3-3.1-1.5-2-1.5-4.1-1.5-6.6.8-2.6 2.8-5.1 6.4-7.7 3.6-2.3 6.6-3.1 8.7-3.1 2.6.3 4.6 1.3 6.1 3.3 1.3 1.8 1.3 3.3 1.3 5.1-.3 1.8-1 3.1-1.8 4.3l5.1 5.1c1.8-2.3 2.8-4.3 3.3-6.9.5-3.6-.5-7.1-3.1-10.7-2.8-4.3-6.4-6.4-11-6.9-4.3-1-8.7.8-13.8 4.1-4.6 3.6-7.1 6.9-8.2 11.2-.8 4.6 0 8.4 3.1 12.2 2.1 3.2 4.6 5.3 7.7 6.3zM-11.5 672.7c4.6 2.5 8.9 3.3 13.5 1.8 4.1-1.5 7.7-4.1 10.2-9.2 3.1-5.1 4.1-9.7 2.6-14-.8-4.6-3.8-7.7-8.4-10.2-2.6-1.8-4.6-2.5-7.1-2.5-1.8-.5-3.6-.5-5.6 0l-5.1 2.5c-2 1.8-4.1 3.8-5.9 6.9v.5c-2.6 4.8-3.6 9.4-2.6 14 .7 4.1 3.8 7.7 8.4 10.2zm.7-21.2h-.2c1.8-3.6 4.3-5.9 6.9-6.6 2.6-.8 5.1-.5 7.7 1 2.6 1 4.3 3.6 5.1 6.1 0 2.6-.5 5.6-2.6 9.2-2 3.6-4.1 5.6-6.6 6.6-2.6.8-5.1.5-7.7-1-2.6-1-4.3-3.6-5.1-6.1 0-2.5 0-5.8 2.5-9.2zM6.8 683.2l18.9 16.3 3.8-4.3L16 683.4l18.6-21.9-5.1-5.1-22.4 26.8zM-159.2 992.6c-.5-2.6-1.5-4.1-3.1-5.1l-7.7-3.8-10.7-4.6-13.8 32.4h-.3l6.6 2.6 5.1-12.2 4.3 1.8c3.1 1.5 5.4 2.6 7.1 2.6h4.1c1.5-.3 2.8-1 4.1-2 1.3-1 2.3-2.6 3.3-4.3 1-3.1 1.5-5.3 1-7.4zm-7.9 4.3c-.5 1.3-1 2-2 2.5-.5.8-1.5.8-2.6.8-1 0-2.6-.8-5.1-2l-3.6-1.5 3.8-8.9h.3l3.1 1 4.3 2.6c1 .8 1.8 1.5 1.8 2.5.5 1 .5 2.3 0 3zM4.3 867.9l.2.1v-.1h-.2zM27.8 951.5c-3.6-.5-6.6.5-9.2 3.1-2.6 2-3.8 4.6-3.8 7.7-.3 3.1 1 6.1 3.6 8.7 2 2.6 4.6 4.1 7.7 4.1 2.6 0 5.1-.5 7.7-2.6 1.8-1.8 2.6-3.8 2.6-6.9 2.6 3.6 4.1 5.9 4.1 7.7 0 1.5-.5 2.8-1.8 4.1-.5 1-1.3 1-2.6 1-.8 0-1.5-.5-2.6-1.5l-4.6 5.1.3.3c2.3 1.5 4.3 2.5 6.9 2.5 2.3-.5 4.6-1 6.6-3.1 2.8-2.5 4.1-5.6 4.1-9.7-.3-3.3-2.6-7.7-6.9-12.8-4.5-4.3-8.3-7.1-12.1-7.7zm3 16.4c-1 1.3-2.3 1.3-3.6 1.3-1.8-.5-3.1-1.3-4.3-3.1-1.5-1.5-2.6-3.1-2.6-4.1 0-1.3.5-2.3 1.8-3.3.8-.8 2-.8 3.8-.8 1.5 0 3.1 1 4.1 2.6l-.5-.3c1.8 1.8 2.6 3.1 2.6 4.3 0 1.6-.3 2.6-1.3 3.4zM3.3 966.1l-4.3 3.1c.5 1.8.5 4.3-.8 6.9-.5 2.6-1.5 4.6-2.6 6.4l3.6 5.1c2.3-2.8 3.6-5.9 4.3-9.2l14.3 21.2 5.6-3.6-.5-.3-19.6-29.6z"/><path d="M4.5 868c-8.2 18.3-21.2 34.1-37.2 45.8V735.2c15.3 11 28.1 26.3 36.2 43.9l17.9-8.7c-14.3-31.6-40.8-56.1-74-68.4v244.9c33.9-12.8 61.2-38.3 75.5-71.4L4.5 868zM36.9 935.2c1.5 2 1.5 4.6 1.5 7.1s-.3 4.6-.8 6.4l4.6 4.1c1.3-3.3 1.8-6.6 1.8-10.2l19.4 16.3 4.3-5.1-27.3-22.7-3.5 4.1zM67.8 953.8v.1l.3.2zM77.2 833l-3.5 26.4 5.6.8 2.5-19.6 10.2 1-2.5 17.8 5.9.8 2.5-17.8 7.7 1-2.6 19.1 5.9.8 3-26zM76.7 832.9l.5.1v-.1zM50.5 916.8c1.3 1.5 2.6 4.1 2.6 6.6.3 2.6 0 4.6-.5 6.6l5.6 3.3c.5-3.6.8-6.9 0-10.2l21.7 13.5 3.8-5.9-30.7-19-2.5 5.1zM-50.8 1008.9c-1.5-.8-4.1-.8-7.7-.8-3.6 0-5.9-.3-6.6-.8-1-.5-1.5-1.3-1.5-2-.3-.8 0-1.5.5-2 1-1.3 2.6-2 4.3-2.6 2.6-.5 3.8 0 5.1 0 1 .8 1.8 1.8 2.6 3.3l6.6-1.8c-.5-3.1-2.6-5.4-5.1-6.9-2.6-1.3-5.9-1.5-10.2-.5-2.6 0-4.8 1.3-6.4 2.6-1.8 1-3.3 2.6-3.3 4.6-.5 1.5-1 3.3-.5 5.1.5 2.6 2 4.8 4.6 6.1 1.8 1 4.8 2 8.9 2h6.1c1 .3 2 .5 2.6 1 .8.5 1.3 1 1.3 2 .3 1.3 0 2.3-1 3.3-1 1.5-2.6 2.5-5.1 2.5-1.8.8-3.6.5-5.1 0-1.5-1-2.6-2.5-3.6-5.1l-6.6 2.6-.8.3c1 3.3 3.6 6.1 6.1 7.7 3.1 1.5 6.4 1.8 10.7.8 3.1-.5 5.4-1.5 7.1-2.5 2-1.5 3.3-3.1 3.8-5.1.8-2 .8-4.1.8-6.1-.8-2-1.5-3.8-2.6-5.1-1.4-1.3-3-2.1-5-2.6zM-260.3 937.3l.3-.3c-2.6.5-4.8 1-6.4.5-1.8-.5-3.3-1.5-4.3-3.1-1-2.3-1.5-4.6-1-6.6.8-2.6 3.1-5.1 6.9-7.7 3.8-2 6.4-3.1 8.9-2.6 2.6.3 4.6 1.5 5.6 3.6 1.3 1.8 1.3 3.6 1.3 5.1-.3 2-1 3.3-2 4.6l5.1 5.1c1.8-2.3 3.1-4.1 3.6-6.6.5-3.6 0-7.4-2.6-10.7-2.6-4.3-6.1-6.9-10.7-7.7-4.6-.8-8.9.3-14 3.6-4.8 3.3-7.7 6.6-8.7 11-1.3 4.1-.5 8.2 2 12.2 2 3.3 4.6 5.4 7.7 6.4 2.6 1 6.1 1 10.2 0l-1.9-6.8zM-193.7 971.2l-18.9 16.1 8.7-23.5-8.9-6.1-19.9 29h-.3l5.1 3.6 16.1-22.9-10.2 26.7 5.6 4.1 21.7-19.1-15.8 23 5.1 3.8 20.4-28.6zM-228.4 941.3l-34.9 14.5 5.1 5.1 7.7-3.1 9.7 10.2-3.6 7.7 5.1 5.6 16.1-34.9-5.2-5.1zm-9.4 21-6.9-7.1 12.8-5.6-5.9 12.7zM-225.1 702.6l-.2-.3-.3.3zM-123 1021.2l-10.2-25.5-6.9-1.3-5.9 34.9.3.6 6.6 1 3.6-23 10.2 25.5 7.6.8 5.1-35-6.3-1zM-151.6 990.6l-10.2 34.2v.2l6.6 1.8 10.3-33.7zM-97.2 999.2-110 1035h7.7l2.6-8.2 14.3-.5 3.3 8.2 7.7-.5.3.3-15.3-35h-7.8zm8.9 21h-9.4l4.6-12.8 5.1 12.8h-.3zM-61.3 814.3h-51v-98.5c5.1-.8 10.2-1.3 15.8-1.3v.3c12.8 0 24.2 1.8 35.7 5.6v-20.9c-11.5-3.3-23.5-5.1-35.7-5.1-12.8 0-24.5 2-35.7 5.1v250c6.4 1.5 12.8 3.1 19.9 3.8V834.2h51v-19.9zM-220.5 698.2l-15.3-17.1 26.1 7.7 5.1-4.6-23.5-26.5-4.6 4.3 15.3 17.9-26.8-8.5-5.1 5.1 24 25.8z"/></g></svg>