<svg xmlns="http://www.w3.org/2000/svg" xml:space="preserve" width="1200" height="1200" viewBox="110 80 1000 1000"><path fill="#FFF" stroke="#E5050F" stroke-width="8" d="M1104.19 579.912c0 271.737-220.287 492.023-492.024 492.023S120.142 851.649 120.142 579.912c0-271.738 220.287-492.024 492.024-492.024s492.024 220.286 492.024 492.024z"/><path fill="#FFF" stroke="#E5050F" stroke-width="8" d="M1007.087 579.301c0 216.725-175.689 392.414-392.414 392.414S222.258 796.026 222.258 579.301s175.69-392.415 392.415-392.415 392.414 175.69 392.414 392.415z"/><path fill="#E5050F" d="M990.966 579.14c.03 208.002-168.563 376.646-376.565 376.676S237.755 787.253 237.725 579.251v-.11c-.031-208.002 168.563-376.646 376.564-376.676 208.002-.03 376.646 168.563 376.677 376.565v.11z"/><g fill="#FFF"><path d="M766.513 483.383c2.224-17.331 9.476-32.986 18.073-48.192l24.899 11.245 22.489-30.522 22.49 6.827c.332 40.145-.758 81.507 14.057 109.237l-11.245 14.057c-25.475-24.07-52.604-47.038-90.763-62.652z"/><path d="M724.653 524.989c-49.754-.195-13.695-58.454-6.423-80.696 6.532-19.98-3.355-60.301-41.503-74.603v-51.152c75.118 21.773 83.5 71.845 126.728 48.848v25.346c-67.41 69.122-37.886 131.86-78.802 132.257z"/><path d="M524.192 413.469c73.795-18.67 129.186-12.801 181.106-2.305 7.465 21.782.978 36.588-5.991 51.152-50.774-8.302-105.079-10.428-170.507 6.912-11.053-16.682-11.983-35.39-4.608-55.76z"/><path d="M567.904 369.61c-88.537 15.046-68.631 119.869 0 148.172v91.463c-194.461-56.13-159.322-267.64 0-289.024v49.39zM663.636 698.27c-26.344 3.566-53.74 2.925-81.707 0V469.61c27.235-2.77 54.472-3.705 81.707 0v228.66z"/><path d="M295.343 584.245c47.368-22.912 57.836-73.19 126.829-123.78 1.979 23.458 4.659 46.354 14.635 63.414-29.248 42.249-27.272 82.355 16.463 131.098-10.176 23.333-22.557 40.053-35.976 53.659-61.515-36.612-75.703-84.217-121.951-124.391zM515.545 753.123c17.548-19.38 22.42-33.69 29.905-49.045 46.576 9.8 100.816 13.794 182.22-2.791 8.508 17.049 5.264 33.03 2.393 49.045-48.231 17.325-138.083 21.397-214.518 2.79z"/><path d="m381.172 745.547 5.981 25.918 35.886 2.392c41.377 29.297 85.641 56.828 145.936 74.563v-50.64c-32.65-5.558-53.687-22.005-69.379-43.462 46.449-49.967 55.864-112.69 26.477-125.455-39.094-16.981-56.55 23.004-78.88 59.086-14.563 23.532-35.586 46.98-66.021 57.598zM663.894 317.194c.187-38.723 29.875-34.033 43.89-20.085-1.965-48.562-41.369-54.34-60.255-36.823-5.598-9.195-12.835-16.21-24.363-21.945-10.324 4.859-18.563 12.064-24.92 21.387-17.832-16.28-58.458-12.258-60.256 36.637 15.024-12.966 43.332-17.547 43.332 21.015l.186 74.132a571.636 571.636 0 0 1 82.479-.2l-.093-74.118z"/><path d="M663.977 850.177c.187 38.723 29.876 34.033 43.89 20.085-1.964 48.562-41.368 54.34-60.255 36.823-5.598 9.195-12.835 16.209-24.362 21.944-10.324-4.86-18.563-12.064-24.921-21.387-17.832 16.279-58.458 12.258-60.255-36.637 15.023 12.966 43.331 17.547 43.331-21.015l.187-74.133a571.635 571.635 0 0 0 82.479.199l-.094 74.12z"/><path d="M675.961 554.58v87.607c100.186 33.326 84.326 158.114 1.282 155.129v50.427c107.41-10.646 148.984-77.258 149.645-142.18.749-74.397-58.051-127.064-150.927-150.982zM837.927 702.444c.13-11.436 1.15-21.597-6.41-44.018l23.077-15.385 26.068 21.368c-10.204 15.373-25.747 27.186-42.735 38.035z"/></g><text fill="#E5050F" font-family="'Arial-Black'" font-size="75.013" transform="rotate(14.579 -3779.21 2307.243)">1</text><text fill="#E5050F" font-family="'Arial-Black'" font-size="75.013" transform="rotate(7.987 -7204.945 4411.969)">9</text><text fill="#E5050F" font-family="'Arial-Black'" font-size="75.013" transform="rotate(-7.718 8113.383 -4175.168)">0</text><text fill="#E5050F" font-family="'Arial-Black'" font-size="75.013" transform="rotate(-10.327 6095.391 -3460.714)">9</text><path fill="#E5050F" d="m1045.187 586.495-.934-26.527 40.007-1.386-.61-17.356-51.162 1.773 1.542 43.881 11.157-.385zm-2.005-104.348-4.078-16.236 20.176 3.882-16.098 12.354zm-26.112-20.239 9.965 1.753 6.433 25.617-8.039 5.921 4.629 18.425 43.548-36.682-4.608-18.356-56.093-13.263 4.165 16.585zm-43.299-98.047 7.71 14.396 30.448-16.073-19.898 35.77 10.549 19.696 45.2-23.861-7.711-14.398-30.323 16.008 19.409-36.389-10.184-19.011-45.2 23.862zm-30.506-81.398c8.049-6.948 15.953-6.848 21.645-.347 6.157 7.033 5.069 14.611-3.302 21.837-7.674 6.623-14.763 6.382-20.967-.705-6.112-6.98-5.267-13.976 2.624-20.785m-10.975 26.868c14.229 16.25 28.368 18.824 41.301 7.662 13.147-11.345 13.102-25.71-.474-41.214-13.714-15.664-28.369-17.98-41.032-7.051-13.093 11.298-13.136 25.366.205 40.603m-60.304-58.193 13.783 10.692 31.518-40.053-13.783-10.69-31.518 40.051zm-29.288-59.907 15.795 8.694c5.073-10.688-.108-20.479-15.595-29-17.909-9.857-32.594-6.56-41.04 8.568-7.654 13.707-2.734 27.322 14.119 36.598 17.037 9.375 28.618 8.874 36.32-2.303l-15.856-8.728c-3.706 4.742-8.644 5.577-14.238 2.497-7.649-4.21-9.253-11.387-4.392-20.094 5.068-9.074 12.274-11.646 19.984-7.402 4.854 2.669 6.507 6.404 4.903 11.17m-99.541-28.56-16.276-4.329 13.201-15.636 3.075 19.965zm-30.486 12.863 6.376-7.802 25.687 6.833 1.317 9.851 18.477 4.915-11.201-55.6-18.407-4.897-38.878 42.276 16.629 4.424zM606.28 164.849l16.422-.222.091-34.231 21.863 34.369 22.467 1.65 2.935-52.079-16.425-.033-2.639 34.091-22.9-34.745-21.683-.125-.131 51.325zm-78.675-32.241 9.593-1.679c4.621-.809 6.887.157 7.54 3.841.617 3.476-1.21 5.375-5.761 6.17l-9.594 1.681-1.778-10.013zm-9.788 42.859 16.876-2.955-3.482-19.605 10.644-1.863c4.832-.846 6.717-.387 7.875 4.501l1.725 6.865c.583 2.479 1.271 4.724 2.426 6.743l17.503-3.063c-1.787-3.558-2.854-6.309-3.384-8.082l-2.379-8.113c-1.849-6.341-5.536-7.99-13.592-7.009 7.872-2.024 11.691-7.353 10.542-13.817-.791-4.45-3.266-7.815-6.634-9.304-4.226-1.842-9.897-.848-18.089.587l-28.921 5.062 8.89 50.053zm-77.67 26.682 43.61-16.621-4-10.347-27.613 10.523-3.566-9.225 24.626-9.386-3.897-10.083-24.628 9.386-2.93-7.579 26.618-10.145-3.951-10.216-42.615 16.241 18.346 47.452zm-61.575 35.459 14.833-9.202-21.175-33.644 16.16-10.027-5.954-9.458-47.151 29.252 5.952 9.46 16.16-10.027 21.175 33.646zm-84.584 76.542 11.41-11.729-24.805-23.784 40.416 7.737 15.607-16.047-36.826-35.308-11.408 11.731 24.702 23.685-40.855-7.079-15.065 15.488 36.824 35.306zm-31.869 45.281 9.526-14.564-42.933-27.682-9.527 14.564 42.934 27.682zm-19.007 34.261-10.957-5.071-6.521 13.882 10.957 5.072 6.521-13.883zm-49.279 28.884 5.882-16.955c-11.482-3.104-20.296 3.665-26.061 20.285-6.666 19.221-.847 33.008 15.626 38.639 14.924 5.102 27.577-2.07 33.849-20.158 6.344-18.287 3.834-29.525-8.589-35.114l-5.903 17.021c5.347 2.799 7.031 7.48 4.948 13.486-2.847 8.211-9.688 11.022-19.168 7.783-9.881-3.379-13.685-9.979-10.813-18.256 1.805-5.206 5.225-7.474 10.229-6.731m11.482 86.472-11.971-1.671-2.146 15.168 11.968 1.672 2.149-15.169zm-22.631 58.862-.59 16.722.784.027c12.151.421 17.273-7.312 17.886-24.738.646-18.342-5-28.143-15.231-28.499-4.546-.157-8.523 1.611-11.129 4.911-3.205 4.128-4.601 9.447-6.246 15.747-2.385 9.171-2.965 13.459-6.59 13.333-2.343-.081-3.673-2.739-3.499-7.678.218-6.209 2.251-9.389 5.734-9.267l.212.007.56-15.874-.568-.019c-10.375-.361-15.418 7.516-16.004 24.167-.603 17.143 4.557 26.151 14.577 26.499 4.05.14 7.438-1.084 9.947-3.682 4.133-4.235 5.65-10.963 7.959-19.925 1.812-7.001 2.434-10.582 5.845-10.464 2.701.093 4.367 3.259 4.174 8.763-.247 6.984-2.211 10.305-6.264 10.166-.497-.018-.992-.104-1.557-.196"/></svg>