<svg xmlns="http://www.w3.org/2000/svg" width="224" height="290"><path d="m438.753 562.09-.168-.401-.21-.403-.169-.402-.252-.403-.21-.361-.252-.362-.251-.362-.295-.321-.252-.363-.293-.28-.338-.323-.335-.321-.294-.281-.337-.242-.377-.281-.378-.241-.378-.242-.379-.201-.378-.201-.42-.202-.419-.16-.42-.161-.421-.16-.462-.121-.42-.121-.463-.12-.461-.08-.462-.082-.504-.04-.461-.04-.506-.04h-40.324l-1.176-1.77-1.219-1.728-1.26-1.73-1.302-1.648-1.387-1.648-1.427-1.57-1.471-1.527-1.513-1.487-1.595-1.448-1.597-1.408-1.68-1.326-1.721-1.288-1.765-1.246-1.765-1.206-1.848-1.126-1.89-1.086-1.89-1.005-1.975-.965-1.974-.925-2.016-.845-2.059-.764-2.1-.723-2.1-.684-2.184-.603-2.142-.523-2.227-.442-2.226-.402-2.268-.321-2.268-.282-2.31-.161-2.312-.12-2.352-.041-2.268.04-2.351.12-2.27.162-2.268.282-2.268.321-2.227.402-2.184.442-2.184.523-2.184.603-2.1.684-2.1.723-2.06.764-2.015.845-1.975.925-1.932.965-1.932 1.005-1.89 1.086-1.848 1.126-1.764 1.206-1.764 1.246-1.723 1.288-1.68 1.326-1.596 1.408-1.597 1.448-1.512 1.487-1.47 1.528-1.429 1.569-1.386 1.648-1.302 1.649-1.302 1.729-1.176 1.728-1.176 1.77h-40.158l-.504.04-.461.04-.505.04-.462.081-.462.08-.462.12-.42.122-.462.12-.42.161-.42.16-.42.161-.42.202-.378.2-.379.202-.377.242-.378.24-.378.282-.336.242-.295.28-.336.323-.336.321-.293.281-.253.363-.294.321-.252.362-.252.362-.21.361-.252.403-.21.402-.168.403-.168.401-.126.443-.126.402-.126.442-.084.442-.084.483-.084.482-.042.483-.042.482-.042.524v1.045l.042.523.042.562.042.523.084.563.084.523.084.563.126.522.126.563.126.523.168.523.168.523.21.522.21.483.21.523.252.442.252.483.294.442.295.443.293.402.295.402.377.361.043.121.293.282.378.402.42.482.462.483.463.442.336.402.252.281.084.161.125.201.084.242.127.24.084.282.084.241.084.242v78.249l.042.523.042.483.042.523.084.523.042.522.084.523.125.523.127.523.126.522.126.523.126.523.168.523.168.562.21.483.168.523.21.523.252.482.21.522.21.484.253.481.25.483.253.443.294.482.294.442.294.442.295.403.294.442.294.401.336.404.336.362.294.36 87.413 93.17.252.28.252.282.294.241.252.243.294.24.294.24.294.202.295.242.293.2.295.201.293.202.336.16.337.202.294.16.336.162.336.12.336.16.336.121.336.12.336.122.336.08.336.121.378.08.337.08.377.081.336.04.378.08.378.04h.336l.336.041H329.285l.378-.04h.379l.336-.04.377-.08.337-.041.377-.081.336-.08.379-.08.336-.121.336-.08.336-.121.336-.12.336-.121.336-.161.336-.12.336-.161.294-.161.337-.201.336-.161.294-.202.294-.201.293-.2.295-.242.294-.201.294-.24.293-.241.253-.243.294-.241.252-.282.252-.28 87.414-93.17.336-.36.335-.362.294-.404.295-.401.336-.442.294-.403.252-.442.293-.442.295-.482.251-.443.253-.483.252-.481.21-.484.21-.522.251-.482.21-.523.169-.523.21-.483.126-.562.168-.523.168-.523.126-.523.127-.522.125-.523.126-.523.042-.523.085-.522.083-.523.042-.523.043-.483v-.523l.041-.521v-77.728l.085-.242.083-.24.085-.282.125-.241.086-.242.125-.2.083-.162 2.689-2.895.337-.361.294-.402.293-.402.294-.443.294-.442.252-.483.252-.442.21-.523.21-.483.21-.522.169-.523.168-.522.125-.523.126-.563.126-.523.084-.563.084-.523.084-.563.043-.523.04-.562.043-.523v-1.045l-.042-.524-.041-.482-.043-.483-.084-.482-.084-.483-.084-.442-.126-.442-.126-.402-.125-.443z" style="fill:#373535;fill-opacity:1;fill-rule:evenodd;stroke:none" transform="translate(-216.571 -484.03)"/><path d="m432.787 565.146-.125-.24-.127-.283-.126-.24-.126-.242-.168-.241-.125-.242-.21-.24-.169-.202-.168-.2-.21-.202-.168-.201-.209-.201-.21-.16-.21-.202-.254-.16-.209-.121-.252-.162-.251-.16-.253-.12-.253-.121-.293-.08-.252-.121-.294-.12-.295-.041-.293-.08-.294-.081-.294-.04-.295-.04-.335-.041-.337-.04h-.293l-.336-.04h-41.166l-1.008-1.73-1.093-1.728-1.176-1.649-1.217-1.649-1.261-1.608-1.302-1.528-1.387-1.528-1.427-1.448-1.47-1.447-1.513-1.367-1.555-1.327-1.595-1.287-1.68-1.206-1.68-1.167-1.723-1.126-1.765-1.085-1.848-1.006-1.847-.965-1.892-.924-1.931-.804-1.932-.804-2.017-.724-2.017-.643-2.058-.604-2.057-.523-2.142-.442-2.1-.402-2.185-.322-2.143-.24-2.226-.203-2.226-.12-2.269-.04-2.184.04-2.226.12-2.184.202-2.184.241-2.185.322-2.1.402-2.142.442-2.059.523-2.058.604-2.017.643-1.974.724-1.974.804-1.932.804-1.89.924-1.848.965-1.807 1.006-1.806 1.085-1.722 1.126-1.68 1.167-1.681 1.206-1.595 1.287-1.555 1.327-1.512 1.367-1.47 1.447-1.429 1.448-1.386 1.528-1.302 1.528-1.26 1.608-1.219 1.649-1.134 1.649-1.134 1.729-1.008 1.728h-40.997l-.337.041h-.336l-.293.04-.336.04-.295.04-.293.041-.295.08-.293.08-.295.041-.294.12-.251.122-.295.08-.252.12-.252.121-.252.16-.252.162-.21.12-.252.161-.21.202-.21.16-.21.201-.168.201-.21.201-.168.201-.21.201-.168.241-.127.242-.167.24-.126.242-.126.241-.126.282-.127.241-.084.282-.084.321-.084.322-.084.322-.041.321-.043.362-.041.362v.362l-.042.402v.362l.042.402v.402l.041.362.043.442.041.362.084.403.043.442.125.362.084.402.085.402.126.362.126.402.126.402.168.362.168.321.168.363.168.321.168.322.21.322.21.28.21.283.252.24 2.689 2.896.125.161.169.2.125.202.126.241.168.282.127.281.125.282.127.322.125.322.084.28.085.322.084.282.084.282.042.281.042.241v76.762l.042.402v.402l.042.403.042.441.084.442.084.404.084.441.084.403.125.442.084.401.127.442.126.444.168.401.126.443.168.402.168.442.168.403.168.401.21.403.168.402.252.362.168.402.252.361.21.362.252.363.21.362.253.321.251.322.252.322.252.321.253.281 85.69 91.359.337.362.42.362.377.322.421.28.378.282.463.282.419.24.462.202.462.2.462.163.504.16.462.08.504.12.504.041.463.04h1.008l.462-.04.546-.04.462-.12.461-.08.505-.161.463-.162.462-.2.419-.202.461-.24.464-.283.376-.281.421-.281.379-.322.378-.362.377-.362 85.693-91.359.25-.28.252-.322.253-.322.251-.322.253-.321.253-.362.209-.363.21-.362.253-.36.21-.403.21-.362.168-.402.21-.403.168-.401.168-.403.168-.442.168-.402.126-.443.168-.401.125-.444.127-.442.126-.4.083-.443.125-.403.043-.441.085-.404.083-.442.043-.441.042-.403.042-.402v-77.163l.042-.242.042-.281.084-.282.084-.282.084-.322.084-.28.127-.322.125-.322.126-.282.126-.28.168-.283.126-.24.126-.202.167-.201.127-.16 2.73-2.896.211-.241.209-.282.21-.281.211-.322.168-.322.168-.321.168-.363.168-.321.167-.362.126-.402.126-.402.126-.362.084-.402.086-.402.125-.362.04-.442.086-.403.042-.362.04-.442.043-.362v-.402l.043-.402v-.362l-.043-.402v-.362l-.042-.362-.041-.362-.085-.321-.042-.322-.083-.322-.083-.32-.086-.282z" style="fill:#fff;fill-opacity:1;fill-rule:evenodd;stroke:none" transform="translate(-216.571 -484.03)"/><path d="M263.757 588.468V586.941l.042-.765.042-.723.042-.764.043-.764.041-.724.084-.764.084-.723.084-.725.084-.764.126-.724.126-.723.084-.724.168-.724.126-.723.126-.724.168-.684.168-.724.21-.724.169-.683.167-.724.21-.683.21-.724.21-.683.253-.684.21-.684.252-.684.252-.643.251-.684.252-.683.295-.684h-37.343l-.21.04h-.21l-.252.04h-.168l-.21.041-.169.04-.168.08-.168.041-.125.08-.127.081-.125.08-.085.12-.084.082-.084.12-.042.08-.084.12-.042.122v.12l-.042.16v.122l.042.16v.121l.042.16.042.161.084.162.084.16.084.162.085.16.168.201.125.161.127.16.167.202 2.73 2.895.337.403.336.441.294.443.294.483.294.522.252.523.294.563.21.563.21.603.168.562.21.604.126.563.126.603.043.564.084.562v80.582l.084.564.083.562.084.562.126.604.168.563.21.602.21.564.21.603.252.564.295.523.294.521.294.483.294.443.168.24.168.202.167.201.17.16 47.8 51.228v-83.918l-1.343-1.086-1.26-1.125-1.219-1.126-1.217-1.208-1.177-1.205-1.134-1.247-1.092-1.246-1.092-1.287-1.05-1.328-.967-1.367-.966-1.326-.924-1.408-.882-1.447-.882-1.448-.798-1.488-.756-1.487-.756-1.488-.672-1.568-.63-1.569-.589-1.568-.545-1.608-.547-1.609-.461-1.648-.421-1.65-.336-1.688-.336-1.689-.294-1.689-.21-1.729-.21-1.728-.126-1.73-.084-1.77v-1.768z" style="fill:#373535;fill-opacity:1;fill-rule:evenodd;stroke:none" transform="translate(-216.571 -484.03)"/><path d="M425.94 565.508h-37.3l.294.684.251.683.253.684.25.643.254.684.21.684.251.683.211.684.209.723.21.684.168.724.211.683.168.724.168.724.168.684.125.724.169.723.127.724.125.724.083.723.126.724.085.764.085.725.083.723.085.764.04.724.043.764.084.764v.723l.042.765v3.297l-.084 1.769-.126 1.73-.21 1.769-.21 1.688-.294 1.729-.294 1.69-.378 1.688-.421 1.649-.462 1.648-.503 1.609-.588 1.608-.589 1.568-.63 1.568-.714 1.529-.714 1.528-.756 1.487-.84 1.489-.84 1.447-.882 1.447-.924 1.367-.967 1.407-1.008 1.328-1.05 1.327-1.05 1.327-1.092 1.246-1.176 1.246-1.177 1.207-1.218 1.166-1.218 1.126-1.26 1.126-1.344 1.086v83.878L418 668.487l.169-.16.127-.201.168-.202.168-.24.335-.443.294-.483.296-.522.25-.523.294-.563.21-.603.211-.564.168-.602.168-.563.168-.604.083-.562.085-.562.083-.564v-80.582l.043-.563.085-.563.124-.603.127-.563.168-.563.21-.604.21-.602.21-.563.293-.563.253-.523.293-.523.296-.482.294-.443.168-.241.168-.2.168-.202.168-.2 2.729-2.896.168-.201.127-.161.126-.161.125-.201.127-.16.084-.161.084-.161.041-.162.043-.16.084-.16v-.684l-.084-.122-.043-.12-.041-.08-.084-.12-.084-.082-.127-.12-.125-.08-.084-.081-.17-.08-.125-.04-.168-.081-.209-.04-.17-.04h-.208l-.21-.04h-.211l-.21-.041z" style="fill:#ee3338;fill-opacity:1;fill-rule:evenodd;stroke:none" transform="translate(-216.571 -484.03)"/><path d="M317.986 566.755v34.822h.084v.04h-.084v.643l-.042.322-.084.282-.042.322-.126.321-.084.282-.126.281-.126.281-.126.282-.169.281-.167.242-.21.241-.168.242-.21.24-.253.202-.21.241-.251.201-.252.16-.252.202-.295.16-.252.122-.293.16-.294.12-.294.122-.295.08-.335.08-.294.08-.336.081-.336.04h-1.345l-.336-.04-.336-.08-.335-.081-.295-.08-.294-.08-.336-.121-.294-.12-.252-.161-.294-.121-.294-.161-.252-.201-.252-.16-.252-.202-.21-.241-.21-.201-.21-.241-.21-.242-.168-.241-.168-.242-.168-.28-.127-.283-.168-.28-.126-.282-.084-.282-.084-.321-.083-.322-.042-.282-.042-.322-.042-.321v-8.524h-9.956v8.604l.042.804.084.805.126.764.168.764.21.724.21.764.294.723.294.684.337.684.377.683.42.644.42.602.463.604.504.603.504.563.546.523.588.523.588.482.63.442.63.442.672.403.672.362.715.362.713.281.757.281.756.242.798.241.756.161.84.12.798.122.84.04.84.04.84-.04.84-.081.84-.08.84-.161.8-.161.755-.2.798-.283.756-.281.714-.282.714-.362.715-.401.63-.403.671-.442.63-.482.589-.483.588-.523.545-.563.547-.563.463-.603.461-.643.462-.644.378-.643.379-.684.335-.723.295-.724.252-.724.21-.764.21-.764.125-.764.085-.804.042-.805.041-.844v-34.822h-9.955zM322.985 565.428l.294-.04h.294l.253-.041.293-.04.252-.08.252-.04.294-.12.252-.081.21-.121.252-.081.252-.12.21-.161.21-.12.21-.202.21-.16.21-.161.168-.202.168-.2.168-.161.168-.241.127-.202.126-.241.083-.201.127-.24.084-.242.084-.241.083-.242.085-.281.041-.282.042-.242v-.28l.042-.242-.042-.282v-.281l-.042-.281-.041-.242-.085-.241-.083-.281-.084-.242-.084-.24-.127-.242-.083-.2-.126-.243-.127-.2-.168-.202-.168-.2-.168-.202-.168-.2-.21-.162-.21-.16-.21-.161-.21-.161-.21-.121-.252-.12-.252-.161-.21-.08-.252-.08-.294-.122-.252-.04-.252-.08-.293-.04-.253-.04h-1.134l-.294.04-.253.04-.293.08-.252.04-.252.121-.252.08-.252.08-.252.162-.21.12-.21.12-.252.162-.211.16-.21.161-.167.161-.21.201-.127.201-.21.2-.126.203-.168.2-.126.242-.126.2-.083.242-.127.241-.084.242-.084.28-.042.242-.042.242-.042.28v.282l-.042.282.042.241v.281l.042.242.042.282.042.281.084.242.084.24.127.242.083.24.126.202.126.241.168.202.126.24.21.162.126.2.21.202.168.16.21.161.21.201.252.12.21.162.21.12.253.08.252.122.252.08.252.12.252.041.293.08.253.04.294.04h.293l.253.041z" style="fill:#373535;fill-opacity:1;fill-rule:evenodd;stroke:none" transform="translate(-216.571 -484.03)"/><path d="m351.59 580.99-.168.321-.21.362-.209.321-.253.322-.252.322-.294.282-.251.28-.336.283-.294.24-.338.242-.377.241-.335.201-.379.201-.379.201-.418.16-.337.122-.336.12-.336.08-.378.081-.336.081-.379.04-.336.04h-.336l-.378.04h-.334l-.338-.04-.335-.04h-.127l-.21-.04-.336-.04-.377-.08-.294-.081-.337-.08-.336-.122-.294-.12-.336-.16-.294-.121-.336-.162-.293-.16-.253-.201-.294-.16-.252-.202-.294-.241-.253-.201-.251-.241-.21-.242-.252-.282-.21-.24 5.712-2.212 4.832-1.85 4.747-1.85 5.25-2.01-.126-.523-.168-.523-.169-.482-.21-.523-.251-.643-.336-.603-.336-.604-.379-.562-.378-.564-.462-.522-.461-.523-.463-.442-.462-.483-.547-.402-.502-.402-.59-.402-.546-.322-.588-.321-.63-.322-.587-.241-.632-.242-.63-.241-.672-.16-.67-.162-.631-.12-.715-.081-.672-.04-.672-.04h-.672l-.672.04h-.042l-.672.08-.713.08-.672.162-.674.16-.713.201-.672.242-.672.281-.63.282-.63.362-.588.361-.589.362-.546.403-.505.442-.503.442-.462.483-.462.482-.42.523-.379.523-.377.563-.336.563-.294.563-.295.562-.25.644-.211.603-.21.603-.169.643-.126.644-.083.643-.042.643-.042.644v.684l.042.643.083.684.127.643.126.644.168.683.21.643.251.643.294.644.336.603.336.603.379.563.378.563.462.523.421.523.461.442.504.482.547.403.504.402.545.402.589.362.588.281.588.322.63.241.63.241.63.242.672.16.63.161.672.121.672.08.504.04.168.041h2.059l.714-.08.672-.121.715-.12.67-.202.674-.2.713-.242.336-.16.378-.163.336-.16.379-.16.336-.161.336-.201.336-.201.293-.202.336-.24.295-.201.335-.243.253-.24.294-.241.295-.242.25-.281.252-.242.294-.28.21-.283.253-.281.21-.282.211-.281.209-.281.253-.322.168-.282.166-.321.212-.322.166-.322.168-.322.128-.321.125-.362.126-.322.127-.321-5.504-1.006-.167.362zm-16.214-3.419v-.925l.043-.321.042-.281.083-.322.085-.282.04-.322.128-.28.085-.283.124-.28.127-.282.126-.282.168-.281.125-.242.168-.281.211-.24.168-.242.21-.241.209-.242.21-.201.253-.241.209-.201.253-.201.252-.201.252-.202.294-.16.294-.161.294-.202.294-.12.294-.161.295-.12.336-.121.336-.08.294-.12.335-.041.337-.08.336-.081H342.979l.336-.041.336-.04h.632l.335.04.295.04.334.04.337.041.294.08.294.081.335.08.294.121.296.08.293.121.294.121.253.16.294.121.293.161.253.201.251.161.253.201.251.202.253.2.251.202.21.24-7.435 2.855-7.435 2.856zM344.533 613.72l-.46-.039h-.462l-.422-.08-.42-.08-.462-.082-.42-.12-.378-.12-.419-.162-.379-.16-.378-.202-.378-.2-.336-.202-.378-.241-.337-.241-.293-.282-.336-.281-.294-.281-.253-.322-.25-.322-.253-.322-.252-.321-.21-.363-.21-.36-.169-.363-.125-.402-.168-.402-.126-.403-.083-.402-.085-.402-.042-.442-.043-.403v-.884l.043-.442.042-.402.085-.402.083-.443.126-.362.168-.401.125-.403.168-.362.21-.361.211-.363.252-.321.252-.322.251-.362.253-.281.294-.281.336-.282.293-.281.337-.241.378-.242.336-.242.378-.2.378-.162.379-.2.42-.121.378-.16.42-.081.46-.121.421-.08.422-.04.461-.04h.966l.504.04.504.08.461.08.464.12.461.161.462.161.42.162.42.241.42.201.378.241.42.282.337.281.336.322.336.322.336.36 3.864-3.738-.253-.241-.251-.242-.293-.24-.252-.242-.253-.241-.293-.242-.296-.201-.293-.2-.294-.202-.293-.241-.338-.161-.294-.2-.336-.162-.336-.16-.336-.161-.293-.161-.379-.16-.336-.122-.336-.12-.336-.121-.378-.12-.377-.122-.378-.04-.337-.12-.378-.04-.377-.081-.378-.04-.379-.08h-.378l-.42-.04-.378-.041h-.379l-.756.04-.713.04-.714.08-.715.122-.672.16-.672.201-.672.201-.63.242-.63.281-.63.282-.588.321-.589.362-.587.402-.504.402-.504.443-.504.442-.464.482-.461.483-.42.523-.42.523-.377.563-.336.563-.295.603-.294.603-.253.603-.25.643-.169.643-.168.644-.127.684-.083.683-.041.684-.043.724.043.683.04.724.084.683.127.644.168.684.168.643.251.643.253.603.294.603.295.604.336.562.377.563.42.523.42.523.461.482.464.483.504.443.504.442.504.402.587.362.589.362.587.32.631.323.63.281.63.242.672.2.672.201.672.122.715.16.714.04.713.08h1.554l.38-.04.377-.04.379-.04.42-.04.377-.08.379-.08.377-.082.378-.08.336-.12.379-.08.336-.161.335-.121.379-.12.335-.161.336-.162.337-.16.336-.16.336-.162.294-.2.336-.202.294-.201.293-.201.295-.24.294-.203.294-.24.252-.242.251-.241.295-.241.252-.282.253-.241-3.866-3.74-.336.362-.294.362-.377.281-.337.322-.42.282-.378.241-.42.241-.42.2-.461.202-.464.201-.461.121-.462.121-.504.12-.504.04-.504.041-.505.04z" style="fill:#ee3338;fill-opacity:1;fill-rule:evenodd;stroke:none" transform="translate(-216.571 -484.03)"/><path d="m374.82 586.176-.169-2.251-.294-2.211-.42-2.213-.503-2.13-.631-2.132-.756-2.05-.797-2.011-.925-2.01-1.05-1.89-1.092-1.85-1.218-1.81-1.302-1.729-1.387-1.689-1.47-1.608-1.511-1.568-1.597-1.448-1.68-1.407-1.764-1.327-1.85-1.207-1.889-1.165-1.933-1.086-1.974-.965-2.058-.885-2.142-.804-2.143-.724-2.184-.603-2.268-.483-2.269-.362-2.31-.281-2.395-.2-2.352-.042h-.042l-2.31.041-2.394.2-2.31.282-2.268.362-2.269.483-2.184.603-2.142.724-2.1.804-2.1.885-1.975.965-1.932 1.086-1.891 1.165-1.848 1.207-1.722 1.327-1.723 1.407-1.595 1.448-1.513 1.568-1.47 1.608-1.386 1.69-1.303 1.729-1.218 1.81-1.091 1.849-1.051 1.89-.924 2.01-.798 2.01-.757 2.051-.63 2.132-.503 2.13-.42 2.213-.295 2.21-.168 2.252-.084 2.292.084 2.293.168 2.252.295 2.21.42 2.173.504 2.17.63 2.092.756 2.09.798 2.011.924 1.97 1.05 1.93 1.092 1.85 1.218 1.81 1.303 1.729 1.386 1.689 1.47 1.608 1.513 1.528 1.595 1.488 1.723 1.367 1.722 1.327 1.848 1.247 1.89 1.166 1.933 1.085 1.974.965 2.1.885 2.1.804 2.143.684 2.184.603 2.269.483 2.268.401 2.31.282 2.395.16 2.31.081h.041l2.352-.08 2.395-.161 2.31-.282 2.27-.401 2.267-.483 2.184-.603 2.143-.684 2.142-.804 2.058-.885 1.974-.965 1.933-1.085 1.89-1.166 1.85-1.247 1.763-1.327 1.68-1.367 1.597-1.488 1.511-1.528 1.47-1.608 1.387-1.689 1.302-1.73 1.218-1.809 1.092-1.85 1.05-1.93.925-1.97.797-2.01.756-2.091.631-2.091.504-2.171.42-2.172.293-2.211.168-2.252.085-2.292-.085-2.293zm-3.193 4.424-.168 2.091-.252 2.05-.378 2.051-.504 2.01-.587 1.971-.673 1.89-.756 1.89-.883 1.85-.966 1.769-1.008 1.729-1.134 1.689-1.218 1.608-1.26 1.568-1.386 1.528-1.429 1.408-1.511 1.367-1.554 1.327-1.639 1.206-1.68 1.166-1.765 1.086-1.806 1.006-1.848.884-1.933.844-1.974.724-2.016.643-2.016.563-2.1.483-2.143.362-2.142.241-2.226.161-2.185.08h-.042l-2.184-.08-2.184-.16-2.142-.242-2.143-.362-2.1-.483-2.016-.563-2.016-.643-1.975-.724-1.89-.844-1.89-.884-1.807-1.006-1.764-1.086-1.68-1.166-1.638-1.206-1.554-1.327-1.512-1.367-1.428-1.408-1.387-1.528-1.26-1.568-1.218-1.608-1.092-1.689-1.05-1.73-.966-1.768-.84-1.85-.799-1.89-.672-1.89-.588-1.97-.462-2.01-.378-2.052-.294-2.05-.168-2.091-.042-2.132.042-2.13.168-2.132.294-2.05.378-2.051.462-2.011.588-1.93.672-1.93.799-1.89.84-1.81.966-1.81 1.05-1.728 1.092-1.689 1.218-1.608 1.26-1.568 1.387-1.489 1.428-1.447 1.512-1.367 1.554-1.327 1.638-1.206 1.68-1.166 1.764-1.086 1.807-.965 1.89-.925 1.89-.804 1.975-.764 2.016-.643 2.016-.564 2.1-.442 2.143-.402 2.142-.241 2.184-.161 2.184-.04h.042l2.185.04 2.226.16 2.142.242 2.143.402 2.1.442 2.016.564 2.016.643 1.974.764 1.933.804 1.848.925 1.806.965 1.765 1.086 1.68 1.166 1.64 1.206 1.553 1.327 1.511 1.367 1.43 1.447 1.385 1.489 1.26 1.568 1.218 1.608 1.134 1.69 1.008 1.728.966 1.81.883 1.81.756 1.889.673 1.93.587 1.93.504 2.01.378 2.052.252 2.05.168 2.132.085 2.13-.085 2.132zM349.306 715.776v-1.328h-.546l-.756.04-.756.08-.672.081-.715.08-.63.122-.63.16-.63.121-.587.16-.547.162-.546.2-.546.162-.504.2-1.008.403-.882.362-.168-.122-.462-.36-.336-.242-.42-.281-.463-.281-.545-.282-.589-.323-.63-.321-.378-.161-.336-.12-.378-.162-.378-.12-.378-.16-.42-.122-.42-.12-.42-.08-.463-.12-.419-.082-.462-.08-.462-.04h-.169l-.377-.04h-.672l-.841.04-.42.04h-.546l-.545.08-.589.081-.588.08-.588.12-.63.163-.63.159-.252.04-.589.082h-.461l-.505.039h-.25l-.295-.04-.294-.04h-.336l-.337-.04-.293-.081-.379-.08-.336-.081-.336-.08-.378-.12-.379-.12-.377-.161-.336-.161-.378-.201-.379-.202-.378-.242-.378-.28-.335-.282-.378-.322-.336-.321-.043-.04-.168-.162-.083-.08-.17-.12-.166-.08-.21-.121-.294-.12-.295-.122-.336-.12-.377-.12-.42-.082-.462-.08-.547-.08-.587-.04-.632-.04h-.672l-.797.04-.798.04-.882.08-.966.12-1.008.162-1.093.241-1.134.241-1.26.281-1.302.362-1.387.402-1.47.482-1.554.523-1.68.605-1.68.682.042-.201.21-.522.21-.322.21-.402.125-.202.168-.2.21-.241.169-.241.251-.202.21-.2.253-.241.294-.242.294-.2.337-.242.377-.202.378-.201.42-.16.42-.2.462-.162.463-.16.545-.122.547-.161.589-.08.587-.081h.083l.21-.04h.379l.504.04.63.04.714.041.42.04.42.04.42.081.505.08h.083l.295.04.252.041h.25l.38-.04.335-.041.463-.04.462-.12.545-.121.589-.161.63-.202.671-.2.337-.16.378-.161.378-.202.42-.16.042.08.083.241.128.12.125.162.168.12.21.16.126.082.169.08.125.04.168.04.168.04.21.04.21.041h.211l.251.04h.253l.251-.04h.294l.336-.081.336-.04.336-.08.379-.08-.084-.082-.21-.2-.336-.362-.378-.442-.21-.282-.211-.282-.21-.321-.21-.322-.21-.362-.209-.36-.21-.404-.21-.36.125-.041h.295l.462.04.587.04.715.04.798.082.42.079.42.082.462.08.42.119.293-.281.842-.684.587-.482.63-.522.757-.564.755-.643.84-.603.84-.604.84-.603.883-.523.378-.28.42-.241.378-.202.42-.201.379-.16.335-.162.336-.12.295-.12.545.401.546.402.547.321.504.323.42.281.42.281.378.202.252.2.252.201.294.202.294.28.294.283.588.683.63.684.546.683.463.563.293.402.168.2-.378.322-.335.323-.379.282-.378.28-.336.202-.294.202-.252.12-.21.12-.504-.322-.504-.322-.252-.12-.252-.16-.294-.12-.252-.123-.252-.12-.295-.08-.252-.081-.293-.08-.295-.08-.251-.04-.294-.04-.252-.041h.042l.168.081.251.08.336.12.463.242.504.282.294.16.336.242.336.2.336.283.336.28.378.282.42.362.42.362.42.402.42.442.463.482.46.523.464.564.462.603.503.643.504.643.504.723.547.804.504.805.546.845.252-.121.714-.402.504-.282.588-.28.672-.323.756-.362.756-.321.84-.322.42-.161.42-.16.463-.121.462-.12.42-.122.462-.12.461-.12.463-.081.42-.08.462-.04.336-.041v-1.246l-.546.08-.42.04-.504.08-.546.121-.63.16-.672.202-.757.202-.798.28-.881.322-.421.2-.462.163-.504.24-.462.202-.504.24-.504.242-.504.281-.546.281-.084-.16-.336-.483-.21-.322-.253-.442-.336-.402-.335-.522-.42-.482-.42-.564-.462-.522-.462-.563-.546-.564-.547-.562-.293-.281-.295-.243-.294-.28-.336-.243.378-.24.379-.242.335-.24.336-.281.546-.444.42-.401.295.28.336.282.293.242.295.202.336.2.293.16.252.122.295.16.294.08.252.12.294.041.252.081.252.04.252.04h1.05l.168-.04.337-.04.293-.08.378-.12.126-.082v-.562l-.042-.202-.042-.322-.126-.321-.168-.442-.084-.202-.126-.401-.21-.443-.21-.402-.21-.362-.252-.403-.294-.36-.294-.363-.294-.362.672-.562.21.08.462.2.756.282.924.281.504.202.547.16.504.122.504.16.504.12.504.081.462.08h.42l-.714.885 1.764.885.21-.08.546-.323.126-.08v-1.086l-.126.08-.588.322-.42-.12 1.05-1.246h-.168l-.42-.04h-.337l-.42-.041-.461-.08-.504-.08-.588-.121-.63-.161-.673-.202-.756-.2-.378-.161-.378-.12-.42-.162-.42-.201-.42-.16-.461-.202-.42-.2-.463-.242-1.176 1.207-.252-.242-.294-.241-.294-.282-.295-.2-.587-.484-.63-.442-.588-.361-.588-.362-.547-.362-.545-.281-.504-.242-.463-.241-.42-.201-.378-.161-.504-.202-.168-.08.126-.04.126-.08.168-.04.168-.041.336-.08.378-.08.42-.041.379-.04h.42l.377-.04h.757l.63.04.42.04h.168l-.168-.12-.21-.12-.21-.08-.21-.081-.21-.041-.252-.08-.252-.04-.295-.04-.546-.042-.546-.039h-1.134l-.546.04-.504.04-.462.04-.378.041-.63.12-.21.041-2.226-1.006.168.162.125.16.21.161.211.16.462.323.546.362.504.321.588.322.588.361.546.282 1.092.603.882.442.63.322.21.081.547.36.545.324.463.36.461.322.42.322.421.321.378.322.336.322.294.281.294.323.294.281.252.322.21.281.21.242.168.281.169.24.168.242.125.241.126.242.084.202.168.36.126.322.126.484v.12l-.294.041-.252.039h-.252l-.294-.039-.252-.04-.252-.042-.21-.04-.252-.039-.21-.081-.21-.081-.21-.08-.168-.12-.378-.16-.336-.243-.295-.201-.252-.2-.21-.202-.21-.201-.252-.281-.084-.081-.503-.644-.505-.603-.504-.523-.462-.482-.378-.442-.377-.401-.379-.363-.294-.282-.546-.482-.378-.32-.252-.203-.085-.04-.84-.483-.755-.441-.672-.444-.63-.441-.546-.402-.463-.362-.42-.362-.378-.322-.336-.281-.251-.243-.21-.24-.169-.16-.21-.282-.084-.081.462-.161.63-.2.714-.16.84-.202.462-.122.546-.08.63-.12.63-.08.673-.121.756-.081.798-.08.882-.122.42-.039h1.26l.378.04.378.08.379.041.336.08.336.122.336.08.293.12.336.08.252.161.295.12.252.123.252.119.42.282.378.28.337.243.293.24.378.363.126.12-.168-.562-.252-.363-.252-.28-.252-.281-.252-.283-.252-.24-.252-.202-.252-.202-.21-.16-.252-.161-.21-.12-.21-.122-.21-.08-.379-.16-.335-.12h.924l.882.038.882-.039.756-.04h.714l.714-.08.63-.081.546-.08.924-.122.714-.12.378-.08.168-.04-1.638.04h-1.596l-1.554-.04-1.512-.04-1.47-.121-1.387-.122-1.386-.16-1.302-.2-1.26-.202-1.218-.24-1.177-.242-1.134-.282-1.05-.282-.966-.281-.965-.281-.925-.283-.882-.32-.798-.322-.756-.282-.714-.281-.672-.281-.59-.282-.546-.282-.461-.24-.84-.403-.547-.361-.377-.201-.084-.082h1.597l1.595.04 1.555.042 1.47.079 1.47.122 1.387.159 1.302.122 1.302.201 1.26.2 1.218.202 1.176.201 1.093.24 1.05.243 1.007.24.967.242.924.241.84.282.798.24.756.241.714.242.63.242.588.24.546.202.504.201.798.362.547.241.335.16.127.081-.799-.643-1.05-.522-1.008-.483-1.05-.443-1.008-.401-1.008-.403-1.008-.402-.966-.321-.966-.322-.924-.322-.967-.28-.924-.243-.924-.24-.882-.242-.882-.161-.84-.2-.883-.16-.462-.524-.63-.725-.671-.804-.757-.924-.798-.925-.672-.885-.336-.362-.253-.402-.209-.321-.168-.282.21.04.588.16.462.121.504.122.589.201.672.2.714.242.798.281.882.322.881.362 1.008.401 1.009.443 1.05.523 1.092.523 1.135.602 1.176.644 1.176.684 1.176.763 1.218.804 1.26.846 1.218.924 1.219.966 1.217 1.045 1.219 1.085 1.218 1.207.756.804v-1.728l-.126-.122-.672-.643-.84-.804-1.05-.886-.589-.481-.63-.523-.671-.523-.715-.523-.756-.562-.797-.564-.84-.562-.883-.603-.924-.564-.924-.563-1.008-.603-1.008-.562-1.05-.562-1.135-.524-1.134-.563-1.134-.523-1.218-.483-1.218-.482-1.26-.442-1.302-.403-.085-.041-.293-.119-.463-.121-.588-.161-.714-.16-.84-.202-.923-.161-.968-.12.127.16.294.564.21.361.252.403.336.523.336.522.378.563.42.603.462.643.503.603.547.645.589.642.293.282.295.321.294.323.336.28-.798-.12-.757-.081-.714-.08-.714-.08-.713-.041-.674-.04-.63-.04-.672-.04-1.217-.04-1.135.04-1.008.04-.966.04-.84.04-.756.08-.63.082-.547.08-.42.081-.294.08h-.168l-.084.04.757.442.798.442.755.403.715.442.756.362.756.36.714.363.757.322.713.362.715.281.714.281.715.283.712.28.673.243.714.24.63.202.672.201.673.201.67.2.59.161.629.161.63.161.631.12.63.122.588.12.588.12.588.082.546.08 1.134.16 1.092.122h-1.344l-.63.039-.588.04-.588.041-.588.04-.546.04-.504.081-1.05.12-.882.161-.798.202-.798.16-.673.202-.545.16-.506.162-.419.16-.546.202-.21.08.337.441.335.404.335.441.379.403.42.402.42.362.463.401.42.362-.254.08-.544.242-.379.16-.42.242-.505.282-.587.321-.63.402-.672.443-.757.482-.798.604-.882.643-.925.723-.964.804-1.05.886-.169-.041-.42-.082-.672-.038-.798-.122-.966-.08-.967-.04-.504-.04h-1.385v.522l.04.201v.243l.086.28.084.282.126.362.126.322.208.402.211.402.253.4.168.202.168.243.21.24.168.201h-.085l-.21-.04-.125-.04-.168-.04-.168-.04-.21-.082-.212-.12-.208-.16-.043-.08-.125-.082-.084-.08-.084-.121-.085-.12-.083-.12-.043-.161-.083-.161-.042-.161-.043-.16-.042-.202-.041-.202-.127.082-.379.24-.504.323-.712.402-.38.2-.42.2-.42.202-.418.16-.464.162-.461.16-.21.041-.21.041-.253.04-.21.04h-.336l-.378.04h-1.008l-.588-.04-.295-.04-.293-.04-.294-.04-.251-.08-.296-.082-.335-.04-.42-.08h-1.554l-.588.04-.588.08-.336.041-.336.04-.296.08-.294.082-.335.08-.335.12-.295.08-.336.121-.336.12-.294.122-.294.16-.295.16-.293.161-.294.202-.294.2-.252.202-.294.2-.21.242-.252.201-.21.241-.21.202-.168.201-.21.24-.127.202-.168.201-.125.201-.126.241-.127.202-.209.401-.127.362-.168.403-.04.36-.086.363-.042.362v.603l.042.283.043.24h.042l.21-.08.294-.121.42-.202.546-.2.63-.242.756-.281.84-.281.924-.322 1.05-.362 1.134-.321 1.261-.403 1.302-.361 1.386-.362 1.512-.362 1.554-.363.63-.16.63-.08.589-.12.587-.081.504-.041.547-.04h1.387l.419.04.378.04.379.041.378.08.294.08.293.08.294.081.295.08.209.082.21.08.253.12.336.161.251.2.379.282.083.121.21.12.547.403.42.24.462.282.545.281.547.283.336.16.293.12.379.162.336.12.336.122.378.12.377.08.378.122.379.04.378.08.38.04h.418l.42.04.38-.04.419-.04.378-.08 1.05-.162.924-.161.882-.12.882-.121.798-.04.715-.08h1.092l.377.04.336.04h.378l.337.04.294.08.378.081.336.08.336.08.336.121.336.082.336.12.336.16.337.161.377.161.378.16.337.202.377.24.084.042.252.079.336.201.42.243.504.321.505.32.251.202.252.201.252.202.21.201.294-.122.127-.12.42-.24.294-.163.42-.2.42-.201.546-.2.63-.201.672-.243.378-.08.378-.121.378-.08.42-.12.462-.081.463-.08.462-.08.504-.042.504-.08.545-.04.547-.04.588-.04.63-.04h.084zm0-16.527-1.932.121.168-1.327 1.05.32.714.242v.644zm3.57-3.498-1.301-1.287.293.081.799.24.21.08v-1.085l-.294-.12-.504-.161-.63-.202-.673-.201-.672-.201-.126-.12-.294-.322-.378-.361v1.728l.42.402 1.177 1.327 1.133 1.368.84 1.126v-2.292zm-3.57 2.854v.644l1.974-.12h-.042l-.126-.041-.21-.04-.336-.08-.504-.161-.672-.202h-.084zm0 4.946v1.086l.294-.16.462-.243.504-.321.546-.322.547-.402.587-.402.589-.402.042-.04v-1.327l-.294.282-.421.322-.42.32-.462.322-.504.362-.504.322-.546.362-.42.24zm0 7.198v1.246h1.386l.42.04.379.082.377.08.378.08.378.12.252.08v-1.286l-.084-.04-.63-.121-.63-.12-.63-.12-.714-.041-.714-.04-.168.04zm0 3.699v1.328H351.07l.546.04.588.039.547.04h.125v-1.205l-.293-.04-.756-.082-.756-.039-.757-.04-.756-.041h-.252zm3.78-18.496-.21-.201v2.292l.252.32 1.051 1.529-.127.121-.293.282-.504.442-.379.28v1.328l.505-.403.587-.481.505-.443v-2.816l-.126-.16-.127-.24-.168-.202-.168-.2-.125-.161h.041l.168.12.295.16.21.121v-1.205l-.126-.04-.336-.162-.295-.12-.335-.122-.295-.039zm-.21-1.087.337.122.63.2.63.242v-1.046l-.714-.322h-.084l-.252-.12-.337-.12-.21-.041v1.085zm0 16.326v1.287l.084.04.337.12.336.122.294.16.293.162.253.12v-1.408l-.042-.04-.504-.2-.588-.202-.463-.161zm0 3.499v1.206l.379.04 1.008.12.21.041v-1.166l-.505-.08-.671-.122-.42-.039zm1.597-19.26.042.04.756.321.798.322.798.36.84.404.798.442.42.2.379.243.42.24.378.241.377.282.337.241.335.281.337.283.083.08.253.241.377.362.421.442.21.2.21.242.167.242.169.24.168.243.126.2.042.12.042.081v.202h-.084l-.253.039H363l-.293-.04-.295-.04-.293-.081-.378-.12-.379-.161-.378-.161-.21-.16-.21-.121-.21-.12-.251-.161-.21-.161-.253-.202-.21-.2-.251-.202-.924-.884-.841-.725-.378-.362-.378-.32-.378-.281-.336-.283-.336-.281-.336-.242-.336-.2-.294-.201-.168-.12v1.205l.168.122.252.2.251.16.295.241.294.242.336.281.337.363.377.321.378.401.169.203.377.442.294.281.378.322.42.362.462.361.252.161.253.16.293.162.294.162.295.16.294.12.293.121.336.12.337.081.378.08.336.04.378.041h.756l.378-.04.378-.04.084-.041.168-.08.084-.04.084-.08.084-.12.042-.122.042-.08.042-.081V702.264l-.042-.12-.042-.161-.042-.12-.084-.161-.084-.12-.126-.162-.084-.2-.168-.202-.126-.161-.21-.24-.672-.805-.714-.765-.337-.36-.42-.363-.462-.362-.462-.362-.588-.361-.63-.362-.714-.404-.84-.4-.924-.484-1.092-.441-1.176-.523-.63-.242v1.046zm0 2.772.168.242.252.483.251.403.168.321.127.202.042.08-.253.28-.21.242-.25.281-.253.242-.042.04v-2.816zm0 13.592v1.408l.042.04.294.161.251.161.252.16.463.362.42.322.336.321.252.242.42.442.127.161-.21-.08-.547-.121-.882-.2-1.092-.202-.126-.04v1.166l.714.12.882.161.756.12.714.202.63.16.504.162.462.121.588.241.21.08-.042-.08-.084-.24-.168-.324-.252-.4-.168-.282-.125-.242-.21-.281-.21-.281-.21-.322-.253-.283-.294-.321-.294-.322-.293-.32-.337-.323-.378-.282-.379-.321-.42-.281-.42-.283-.503-.24-.42-.242zM316.432 742.958h-2.227v-8.002l-.293.241-.336.241-.336.242-.336.202-.379.2-.378.16-.378.161-.42.16v-1.93l.21-.079.253-.08.21-.121.251-.12.252-.122.21-.16.253-.162.252-.2.252-.162.21-.24.21-.202.21-.2.167-.242.127-.24.125-.242.127-.242h1.764v11.14zM323.32 741.39h.085l.168-.04.168-.04.168-.041.126-.12.126-.082.126-.12.126-.16.126-.161.084-.202.084-.281.084-.281.084-.322.042-.403.085-.4.041-.445-.21.202-.252.202-.084.079-.168.081-.126.08-.126.04-.126.082-.125.04-.127.039h-.168l-.21.041v-1.527H323.615l.168-.081.126-.041.126-.08.126-.081.126-.08.126-.121.084-.12.084-.161.085-.161.041-.161.084-.2v-.201l.043-.202V735.48l-.043-.242v-.2l-.084-.202-.084-.201-.042-.161-.126-.16-.126-.162-.126-.12-.126-.12-.126-.122-.125-.08-.17-.04-.125-.04-.168-.04h-.042v-1.77h.21l.21.04h.21l.21.04.168.041.21.04.168.08.21.082.168.08.168.12.168.08.168.121.169.16.125.121.168.161.126.161.169.16.125.161.126.202.085.242.125.2.084.242.085.24.084.242.041.281.085.281.042.322.041.322.042.323v2.13l-.042.362-.04.281-.086.322-.042.321-.083.283-.043.24-.125.241-.085.242-.084.242-.127.24-.125.202-.126.161-.168.201-.127.12-.166.161-.168.161-.168.12-.17.12-.167.122-.168.08-.21.12-.21.041-.168.081-.21.08-.21.04-.252.041h-.21l-.21.04v-1.77zm-3.486-1.005 2.143-.201v.16l.042.12.041.121.043.122.042.12.084.08.084.121.042.08.126.08.084.04.084.04.126.082h.084l.126.04h.336v1.768h-.252l-.294-.04h-.336l-.294-.08-.294-.08-.252-.08-.252-.121-.252-.12-.21-.161-.21-.202-.168-.2-.168-.241-.127-.242-.125-.241-.127-.322-.084-.321-.042-.322zm3.487-1.207-.084.04h-.63l-.168-.04-.168-.041h-.126l-.168-.08-.168-.04-.126-.04-.168-.08-.127-.081-.168-.08-.125-.081-.252-.202-.252-.24-.127-.12-.125-.161-.084-.12-.127-.161-.084-.122-.041-.161-.085-.16-.084-.162-.042-.16-.042-.161-.083-.2v-.16l-.043-.404-.042-.403.042-.2v-.402l.043-.2v-.163l.083-.2.042-.16.042-.202.084-.16.085-.162.084-.16.084-.122.125-.16.084-.121.127-.16.125-.121.127-.12.125-.12.168-.122.127-.08.168-.12.168-.081.168-.08.168-.081.126-.04.21-.041.168-.04.168-.08h.21l.168-.041h.42v1.77h-.252l-.168.04-.126.04-.127.04-.125.04-.127.08-.125.121-.084.081-.127.161-.083.12-.042.161-.084.201v.2l-.042.202-.042.242V735.84l.042.24.042.242.041.202.043.16.084.2.084.12.126.162.126.122.084.079.126.081.168.08.126.04.168.082H323.32v1.527zM328.74 733.99v-1.97h7.56v1.528l-.21.241-.25.242-.211.281-.253.322-.25.322-.254.362-.21.362-.252.401-.253.444-.208.441-.21.402-.211.443-.168.443-.168.482-.126.442-.126.442-.127.482-.125.442-.084.444-.042.401-.084.403-.041.401v.765h-2.143v-.563l.084-.603.085-.564.083-.602.168-.563.168-.604.168-.603.21-.602.252-.564.253-.603.293-.562.294-.523.336-.523.336-.523.378-.483.379-.483h-5.042zM345.247 734.593l-2.14.202-.043-.12v-.161l-.043-.12-.042-.122-.083-.12-.043-.12-.084-.082-.084-.08-.083-.08-.084-.04-.126-.04-.085-.082h-.126l-.084-.039h-.126l-.168-.04-.042.04v-1.77h.504l.337.04.294.081.251.04.294.121.253.12.21.161.251.161.21.161.168.201.17.241.167.242.125.281.086.281.082.322.084.322zm-3.486 1.167h.672l.169.04h.167l.17.041.125.04.168.08.126.04.168.08.125.082.168.08.126.08.252.202.294.24.085.12.126.12.083.162.127.122.083.16.085.161.043.161.082.161.084.16.042.162.043.159.042.203.042.401v.764l-.042.201v.202l-.042.201-.043.16-.084.2-.042.162-.082.201-.043.16-.085.121-.125.162-.085.16-.126.122-.126.16-.125.12-.125.12-.128.121-.125.122-.168.08-.168.12-.127.08-.167.08-.168.041-.168.081-.168.04-.21.04-.168.04-.168.041h-.21l-.211.04h-.168v-1.77h.252l.126-.039.126-.04.127-.041.168-.08.083-.08.126-.08.127-.122.083-.12.085-.12.083-.202.042-.161.043-.202.041-.2v-1.005l-.041-.201-.043-.202-.083-.201-.042-.161-.125-.16-.085-.16-.126-.081-.126-.12-.127-.082-.125-.08-.169-.04-.125-.041-.168-.04h-.127v-1.568zm0-2.171h-.083l-.168.04-.169.04-.168.04-.125.08-.168.122-.127.12-.126.161-.125.16-.085.202-.083.281-.085.281-.084.322-.042.362-.084.442v.442l.21-.2.21-.201.253-.161.251-.12.253-.12.294-.082.25-.04v1.567h-.166l-.167.04h-.128l-.168.082-.126.08-.125.04-.085.12-.126.123-.125.12-.085.16-.083.12-.042.2-.043.163-.042.2-.041.242v.442l.04.242.043.242.043.2.083.201.085.162.083.16.127.16.125.121.126.12.127.122.167.08.127.04.167.041.127.04h.083v1.769h-.251l-.211-.04h-.209l-.17-.04-.208-.041-.21-.08-.168-.08-.211-.041-.168-.08-.168-.12-.168-.081-.168-.161-.126-.12-.168-.122-.168-.16-.125-.16-.169-.161-.126-.202-.084-.16-.125-.242-.085-.2-.126-.242-.085-.24-.042-.243-.083-.28-.043-.282-.083-.322-.042-.323v-.32l-.043-.324v-1.447l.043-.36.042-.322v-.363l.083-.28.043-.283.083-.281.085-.282.083-.28.085-.202.126-.242.084-.2.168-.201.126-.202.125-.16.168-.202.128-.12.168-.161.166-.12.168-.12.21-.122.169-.08.168-.12.21-.081.168-.081.21-.04.253-.04.209-.04h.21l.21-.041h.042v1.77z" style="fill:#373535;fill-opacity:1;fill-rule:evenodd;stroke:none" transform="translate(-216.571 -484.03)"/><path d="m269.26 588.589-.042-2.091 6.72-.08h.631l.546.04h.252l.21.04.21.04.168.041.252.08.21.121.21.12.21.12.168.122.168.16.168.202.126.2.168.202.084.201.126.242.084.28.042.242.042.282.042.321v.683l-.042.362-.042.322-.084.322-.084.16-.042.121-.084.16-.084.122-.084.12-.084.12-.084.122-.126.08-.084.12-.126.081-.126.08-.126.121-.168.08-.126.041-.168.08-.126.04-.337.121-.377.08-.379.04h-.419l-.252-1.97.42-.04.378-.08h.126l.126-.081.126-.04.126-.04.125-.08.085-.121.126-.121.084-.121.042-.12.042-.161v-.161l.042-.161-.042-.16v-.162l-.042-.16-.042-.12-.042-.121-.084-.121-.084-.08-.084-.082-.126-.04-.126-.08-.21-.04-.168-.04-.252-.04H276.107l-6.847.08zM276.57 576.084H276.862l.21.04.21.04.21.04.21.04.21.08.168.081.21.04.168.081.168.12.168.082.168.12.168.12.126.121.168.12.126.121.126.161.126.121.126.16.084.16.126.203.084.16.084.161.043.202.084.16.041.16.043.202.041.201v.16l.043.202v.201l-.043.2v.202l-.041.2v.202l-.084.241-.043.242-.126.24-.084.243-.126.2-.126.242-.126.24-.168.202-.168.2-.168.161-.21.161-.21.161-.21.161-.21.08-.252.121-.21.08-.294.081-.252.04-.252.04h-.63v-2.05l.168.04h.251l.21-.04h.211l.21-.08.21-.04.167-.122.17-.12.167-.08.126-.121.126-.161.084-.16.084-.162.084-.16.042-.201V579.703l-.084-.201-.042-.161-.126-.161-.084-.161-.168-.16-.126-.121-.168-.12-.21-.121-.21-.121-.252-.08-.253-.081-.252-.04-.293-.04h-.042v-2.05zm-.884 7.68-.251-.04-.253-.04-.21-.121-.251-.08-.21-.121-.211-.12-.252-.161-.167-.161-.253-.161-.168-.161-.168-.202-.126-.2-.168-.202-.084-.24-.126-.201-.084-.282-.084-.2-.042-.283-.042-.241v-.764l.042-.282.042-.28.042-.202.042-.201.042-.2.084-.162.084-.201.084-.161.084-.161.126-.2.084-.12.126-.162.126-.12.126-.162.126-.12.168-.12.126-.121.169-.121.167-.08.168-.121.168-.081.21-.08.168-.08.168-.04.168-.041.21-.04h.168l.21-.04h.505v2.05l-.21-.04H275.897l-.21.08-.21.04-.21.081-.168.08-.169.081-.168.121-.126.16-.084.121-.126.16-.083.162-.043.16-.084.202V580.266l.084.16.084.201.084.161.126.161.127.16.125.122.21.12.168.12.21.082.211.12.294.08.252.04.252.04h.126v2.052h-.253l-.294-.04-.336-.081zM273.124 572.706l-1.764-.563.588-1.89 1.806.563-.63 1.89zm8.275 2.654-7.309-2.333.672-1.89 7.31 2.333-.673 1.89zM285.39 565.227l-.84 1.81-3.57-1.569-.547-.241-.42-.16-.168-.041-.168-.04-.126-.04H279.089l-.168.04-.168.08-.126.12-.126.121-.126.161-.084.161-.084.12v.121l-.042.12v.122l-.042.12v.12l.042.122v.12l.042.12v.121l.084.12.042.081.042.121.084.12.084.081.084.08.126.08.126.08.126.081.168.121.462.242.546.24 3.15 1.408-.797 1.81-7.015-3.097.756-1.689 1.05.443-.126-.161-.084-.16-.043-.203-.084-.16-.041-.2-.043-.161v-.363l-.041-.16.041-.16v-.202l.043-.161.041-.16.043-.202.041-.161.084-.16.127-.282.21-.282.084-.12.084-.121.126-.12.084-.08.21-.202.252-.12.126-.081.084-.04.126-.04.126-.04.21-.04H279.467l.252.04.294.08.294.08.336.12.378.162 4.369 1.93zM287.742 561.809l-8.023-2.132 1.302-1.688 3.99 1.206 1.303.442-.126-.2-.126-.161-.084-.12-.084-.081-.084-.122-.084-.16-.126-.12-.084-.161-2.226-3.458 1.26-1.65 4.284 6.957-1.092 1.448zM286.356 549.263l.336.322-.336.322v-.644zm0 2.775v-.644l1.093-1.126 5.502 5.268-1.428 1.448-5.167-4.946zm-1.092-1.046-1.345-1.286 1.387-1.408 1.05.965v.644l-1.092 1.085zm1.092.402v.644l-.337-.322.337-.322zM294.547 554.129l-6.805-7.962 1.555-1.287 6.804 8.002-1.554 1.247zM297.698 551.635l-5.923-8.685 1.68-1.086 5.923 8.646-1.68 1.125zM303.746 545.041l1.975-.603.042.281V545.242l-.042.282-.042.241-.084.241-.085.242-.084.2-.125.241-.169.202-.168.2-.167.202-.21.16-.253.162-.252.2-.252.121-.21.121-.251.08-.21.08-.21.08-.211.081-.21.04-.21.04H301.52l-.084-.04v-1.93l.126.081.126.08.168.081.168.04.168.04H302.486l.168-.04.168-.04.168-.04.126-.081.126-.04.084-.08.084-.08.084-.04.084-.082.042-.08.042-.08.043-.12.041-.081.042-.121v-.12l.042-.08v-.122l-.042-.16v-.121l-.042-.16zm-2.31-4.463v1.608h.126l.168.04.126.04.168.041.126.08.168.12.126.081.126.16.126.122.085.16.125.202-1.47.764v1.367l3.822-1.97-.125-.242-.127-.281-.125-.201-.168-.242-.127-.2-.168-.161-.125-.202-.168-.16-.168-.161-.127-.12-.168-.121-.168-.121-.168-.12-.168-.121-.168-.08-.168-.041-.21-.08-.168-.04-.168-.041-.168-.04-.168-.04h-.504zm0 7.84h-.084l-.21-.04-.168-.08-.21-.04-.168-.08-.294-.161-.252-.201-.252-.201-.252-.202-.252-.281-.21-.282-.21-.321-.21-.321-.084-.202-.084-.201-.084-.2-.084-.202-.084-.201-.043-.201-.041-.161-.043-.2-.042-.202-.042-.201v-.362l.042-.16v-.202l.042-.16.043-.202.041-.16.084-.162.043-.16.084-.161.084-.161.084-.12.084-.161.126-.121.125-.16.085-.081.125-.121.169-.12.126-.121.168-.08.126-.121.168-.08.21-.081.168-.12.21-.041.168-.08.21-.04.168-.041.168-.04.168-.04h.084v1.608h-.168l-.126.04h-.126l-.168.081-.126.04-.126.08-.126.08-.126.122-.084.12-.084.12-.084.121-.042.161-.084.121v.16l-.042.162v.16l.042.162.042.16.042.2.084.162.084.201 1.218-.643v1.367l-.672.362.126.16.126.202.126.12.126.162.126.08.042.04v1.93zM312.105 544.116l-2.352-10.173 7.645-1.729.42 1.729-5.587 1.247.505 2.251 5.208-1.166.42 1.689-5.208 1.206.63 2.735 5.796-1.287.42 1.689-7.897 1.809zM321.052 539.813l2.017-.401.042.16.042.121.084.12.042.121.084.08.084.122.084.08.084.08.126.04.126.08.126.04.126.041.168.04h.672l.168-.04.168-.04.168-.04.126-.04.126-.04.127-.081.084-.08.041-.04.084-.041.042-.08.042-.08v-.04l.042-.082v-.28l-.042-.081-.042-.12-.085-.08-.125-.041-.125-.04-.211-.08-.252-.041-.588-.121-.504-.08-.504-.121-.42-.08-.378-.12-.294-.081-.252-.121-.21-.08-.21-.162-.21-.16-.085-.08-.084-.122-.041-.08-.085-.12-.042-.08-.084-.121-.041-.12-.043-.122-.041-.241V536.115l.04-.242.085-.2.084-.202.168-.201.127-.201.168-.201.084-.08.125-.08.127-.041.084-.08.293-.162.253-.08.336-.08.335-.081.379-.04.42-.04h1.05l.294.04.295.08.25.081.253.08.21.12.168.122.21.12.126.16.168.162.126.201.126.2.127.242.083.202-1.89.441-.042-.08-.042-.12-.084-.08-.042-.081-.085-.08-.083-.08-.042-.042-.084-.08-.126-.04-.084-.04-.126-.04h-.126l-.126-.04h-.125l-.127-.04-.168.04-.378.04-.294.04-.168.04-.084.04-.127.04-.084.04-.083.122-.084.08-.042.12v.201l.042.12.084.081.083.04.084.081.168.04.168.04.21.081.547.12.756.121.378.08.379.081.335.08.293.121.296.081.21.12.251.08.168.161.168.12.126.122.085.16.083.202.084.16.043.201.083.242V539.532l-.042.241-.041.242-.085.241-.125.2-.085.243-.168.2-.21.202-.084.08-.126.12-.125.081-.128.08-.293.12-.294.122-.337.12-.377.04-.378.08-.42.041h-.756l-.336-.04-.337-.08-.293-.04-.295-.08-.252-.162-.252-.12-.21-.161-.21-.161-.21-.161-.126-.201-.168-.201-.168-.242-.084-.24-.084-.283zM334.157 534.144l.126-.04h.17l.209-.04h.336l.21.04h.168l.168.04.126.04.17.04.125.081.168.04.126.08.168.08.125.081.085.08.168.122.083.08.253.241.21.282.084.12.083.161.085.161.084.161.042.16.084.161v.201l.083.161v.201l.043.201v.202l.042.201-.042.442-.043.402-.083.482-.042.403-.084.2-.084.201-.041.201-.085.161-.084.202-.084.12-.125.16-.085.162-.126.16-.127.121-.083.122-.126.12-.294.24-.295.162-.125.08-.126.08-.168.041-.126.04-.168.08h-.17l-.124.041-.17.04H334.243l-.084-.04v-1.608h.125l.128-.041.167-.04.169-.04.125-.08.169-.122.125-.08.127-.16.126-.162.084-.16.126-.242.04-.2.086-.282.042-.282.042-.281.043-.282v-.522l-.043-.242v-.24l-.084-.202-.085-.16-.083-.161-.126-.16-.085-.122-.125-.12-.168-.08-.126-.122-.168-.04-.127-.04-.209-.04H334.158v-1.447zm-3.233-.402 1.89.241-.126 1.086.085-.12.125-.122.126-.12.168-.08.125-.121.128-.08.168-.081.168-.08.168-.04.168-.08h.04v1.447H333.95l-.168.04-.168.08-.128.08-.168.081-.125.12-.168.162-.126.12-.084.201-.084.201-.084.201-.084.242-.042.24-.042.242-.041.322v.563l.04.24.043.242.042.201.084.201.127.161.083.161.126.12.127.161.168.081.125.08.168.081.169.04.167.04h.252v1.609h-.083l-.169-.041-.125-.04-.168-.04-.128-.04-.125-.08-.126-.04-.125-.081-.127-.08-.126-.081-.126-.121-.084-.12-.252-.282-.25-.282-.464 3.78-2.016-.241 1.26-10.374zM343.147 535.592h.294l.253.04.293.04.21.04.211.04.168.081.209.08.168.081.17.08.166.081.17.12.166.08.168.121.127.12.126.122.125.16.169.121.084.16.126.162.085.161.125.2.085.161.041.161.085.201.04.161.043.161.042.201.043.201V539.894l-.043.201-.042.202-.042.24-.084.162-.042.2-.085.202-.083.16-.083.201-.085.161-.126.161-.084.161-.126.12-.126.162-.125.12-.17.16-.126.121-.168.121-.125.12-.21.081-.169.12-.168.081-.168.08-.168.041-.209.08-.17.04-.167.04-.21.04h-.588v-1.647h.085l.209-.04.17-.04.166-.081.168-.081.167-.12.128-.12.168-.122.125-.2.126-.162.126-.241.042-.201.085-.241.083-.281.043-.282.042-.241v-.482l-.042-.202-.043-.201-.083-.2-.085-.162-.125-.161-.084-.161-.127-.12-.168-.121-.126-.12-.168-.08-.21-.041-.168-.04-.21-.041-.168-.04-.126.04v-1.648zm-3.822 3.015.043-.241.083-.241.083-.201.085-.241.125-.2.127-.243.167-.2.17-.202.167-.201.168-.16.21-.202.21-.12.21-.121.21-.12.252-.122.252-.08.252-.04.253-.04.25-.04h.505v1.648h-.083l-.169.04-.167.04-.168.041-.168.121-.168.08-.168.12-.169.161-.126.161-.084.201-.127.201-.083.242-.083.241-.085.241-.042.282v.281l-.041.201.04.242.043.24.042.202.043.16.125.202.085.16.125.161.126.121.126.12.168.08.168.082.168.08.21.04.168.04h.294v1.649h-.379l-.208-.04-.21-.04-.253-.081-.252-.04-.251-.12-.253-.081-.21-.12-.21-.122-.252-.16-.21-.161-.21-.161-.168-.161-.169-.2-.168-.202-.125-.201-.085-.241-.126-.241-.083-.242-.042-.241-.042-.242-.041-.281-.043-.282v-.28l.043-.282.04-.322.085-.322zM349.449 545.604l-1.89-.764 2.981-6.916 1.765.683-.42 1.005.336-.24.336-.161.126-.08.126-.04.168-.041.083-.041h.463l.21.04.252.081.168.08.125.08.168.081.126.12.128.121.125.12.126.122.125.12-1.301 1.368-.168-.201-.168-.201-.084-.08-.127-.041-.083-.08-.085-.04-.21-.081-.21-.04h-.25l-.085.04-.126.04-.085.04-.083.04-.085.08-.21.162-.209.241-.085.16-.125.162-.126.241-.127.241-.335.644-.335.804-.925 2.131zM359.698 542.227l-.756 1.406-1.218-.683-1.514 2.654-.209.402-.125.281-.085.161-.084.161v.16l.041.042v.08l.043.08.085.08.04.04.085.041.168.08.169.041.21.08.25.04-.588 1.448-.209-.04-.168-.04-.21-.041-.168-.04-.209-.08-.21-.08-.169-.081-.21-.121-.21-.12-.21-.161-.21-.161-.168-.201-.125-.161-.085-.161-.083-.201v-.16l-.043-.202.043-.2.04-.202.085-.242.084-.2.126-.282.167-.322.253-.442 1.595-2.895-.797-.442.797-1.367.8.402.756-1.287 2.351-.04-1.301 2.332 1.176.644zM362.47 550.51l1.26 1.166-.251.161-.253.16-.252.081-.252.12-.21.081h-.042v-1.77zm0-6.072v1.688h.252l.168.041.127.04.168.08.125.081.126.08.126.121.085.12.083.122.042.12.084.12.042.122v.16l.042.16v.162l-.042.16-.042.162-.041.16-.085.16-.083.202-.128.161-1.049-.683v1.487l2.016 1.367.169-.241.125-.241.168-.202.126-.24.085-.202.125-.24.084-.202.084-.201.085-.2.041-.202.042-.201.043-.201.04-.2V547.493l-.04-.201-.043-.161-.042-.16-.04-.202-.086-.161-.084-.16-.084-.162-.084-.16-.084-.12-.125-.162-.126-.16-.127-.121-.168-.12-.126-.162-.168-.12-.168-.12-.168-.081-.168-.121-.168-.08-.125-.04-.169-.08-.168-.081-.168-.04-.168-.04h-.167l-.169-.041zm-.21 5.83.21.242v1.769l-.21.04-.253.04h-.546l-.251-.04-.252-.08-.252-.08-.252-.08-.252-.122-.294-.16-.21-.162-.21-.16-.21-.12-.168-.161-.168-.162-.127-.16-.168-.16-.125-.162-.085-.16-.126-.162-.083-.2-.042-.162-.084-.2-.042-.162-.042-.2V548.297l.084-.362.126-.281.083-.322.168-.321.168-.323.253-.32.126-.202.127-.202.166-.12.128-.16.167-.161.126-.16.168-.122.168-.12.126-.121.168-.08.168-.081.168-.12.168-.041.168-.08.21-.04.168-.041.168-.04.168-.04h.168l.21-.04.168.04h.168v1.688h-.168l-.168.04h-.126l-.168.081-.167.08-.127.081-.126.12-.125.161-.128.121-.125.161 1.428 1.006v1.487l-2.184-1.528-.127.202-.083.16-.085.201-.042.161-.04.201-.043.161v.16l.042.202v.12l.041.162.085.16.083.12.085.12.084.162.126.08.168.12.083.082.085.04.126.04.084.04h.084l.125.04H361.378l.083-.04h.127l.126-.04.085-.04.125-.04.084-.081.126-.08.126-.081zM373.517 560.844l.672 2.05-.377.121-.42.121-.379.08h-.42l-.168.04h-.377l-.169-.04h-.167l-.168-.04-.168-.04-.21-.04-.169-.04-.126-.08-.168-.041-.168-.08-.293-.202-.295-.2-.294-.201-.294-.282-.253-.281-.25-.323-.169-.24-.125-.202-.126-.2-.127-.243-.083-.2-.085-.242-.083-.2-.043-.202-.042-.24-.043-.242-.04-.241V558.23l.04-.241.043-.24.042-.242.083-.202.043-.24.125-.242.085-.202.125-.24.128-.202.125-.24.168-.202.168-.201.167-.201.21-.161.21-.2.211-.202.253-.2.209-.162.294-.201.252-.16.294-.162.253-.12.251-.161.253-.12.251-.081.295-.08.252-.081.25-.08.253-.04.253-.041h.756l.251.04h.253l.25.081.211.04.253.08.21.08.21.081.252.12.168.121.21.121.21.161.21.16.168.162.168.16.168.201.21.201.168.201.126.202.126.2.127.202.083.2.126.202.085.2.042.161.083.202.042.201.041.201.043.2v.202l.042.202v.2l-.042.201v.201l-.043.242-.04.28-.126.242-.085.242-.125.241-.169.24-.168.282-.168.242-1.68-1.408.126-.16.125-.161.085-.161.083-.161.085-.16.041-.202.042-.16V557.144l-.042-.202-.041-.16-.085-.201-.083-.161-.085-.161-.125-.161-.168-.24-.21-.203-.21-.16-.21-.12-.253-.122-.251-.08-.253-.08-.251-.04H373.98l-.127.04h-.168l-.168.08-.126.04-.168.04-.336.161-.378.16-.336.242-.377.242-.42.281-.337.281-.295.282-.251.281-.126.161-.085.12-.083.162-.083.121-.085.12-.042.161-.043.12-.04.121-.085.282v.523l.042.24.083.242.085.241.126.241.168.242.126.16.125.162.168.12.127.12.168.08.21.082.169.08.209.04.21.04h.42l.21-.04.252-.04.252-.04.252-.08.294-.121zM372.13 566.553l9.747-4.1.798 1.849-9.745 4.101-.8-1.85zM375.282 574.998l1.134-.322-.21-.04-.167-.08-.17-.081-.126-.08-.167-.12-.126-.081-.168-.121-.126-.16-.127-.121-.125-.161-.126-.12-.085-.162-.083-.2-.085-.161-.042-.161-.083-.16-.043-.203-.04-.16v-.2l-.044-.162v-.16l.043-.202v-.161l.041-.16.043-.162.042-.16.083-.161.085-.12.083-.162.085-.12.126-.12.125-.082.127-.12.169-.12.167-.08.169-.122.208-.04.21-.12.254-.08.251-.081 4.662-1.287.547 1.89-3.361.964-.713.202-.546.201-.21.08-.169.04-.168.08-.084.041-.126.12-.126.122-.127.16-.04.161-.084.161v.402l.083.201.041.12.043.121.042.08.085.122.04.12.085.08.084.081.084.08.126.08.085.041.083.08.125.04.085.041.126.04h.504l.21-.04.252-.04.546-.12.755-.202 3.11-.885.546 1.89-7.352 2.132-.545-1.81zM380.617 577.974l5.964-1.046.377 1.97-3.78.684.294.16.253.202.126.12.084.121.126.12.084.122.084.12.084.12.084.162.043.12.083.121.042.161.043.16v.162l.083.321v.482l-.042.162-.041.16v.161l-.043.12-.042.161-.083.122-.043.16-.084.12-.084.161-.084.121-.126.161-.084.12-.126.121-.126.12-.127.122-.167.08-.127.12-.167.08-.169.122-.166.08-.17.08-.209.08-.21.04-.378.122-.462.08-.504.08-.21.041v-2.05l.21-.041.336-.08.293-.081.252-.08.253-.081.21-.12.168-.08.168-.162.126-.12.127-.162.083-.12.083-.16.043-.162.042-.16v-.523l-.042-.161-.043-.161-.083-.16-.083-.122-.127-.12-.126-.12-.126-.121-.168-.08-.17-.121-.166-.04-.21-.081h-.21l-.252-.04-.21.04h-.294l-.084.04v-2.05zm-4.495.804 4.495-.804v2.05h-.169l-.293.04-.253.08-.251.081-.211.08-.21.08-.168.122-.169.08-.125.12-.168.161-.125.161-.126.161-.085.202-.042.2-.041.202v.2l.04.202.043.16.043.162.083.12.085.12.083.162.125.08.17.12.126.08.168.081.21.08.21.041h.21l.25.04.253-.04h.337v2.051h-.841l-.208-.04-.211-.041h-.168l-.21-.08-.168-.04-.168-.04-.168-.081-.168-.08-.126-.081-.17-.08-.124-.12-.127-.081-.125-.121-.126-.12-.127-.121-.083-.08-.085-.162-.084-.12-.085-.121-.083-.16-.042-.121-.083-.16-.043-.162-.042-.12-.043-.162V582.115l.043-.12.042-.202.043-.16.04-.162.085-.16.043-.16.125-.162.084-.16.127-.122.083-.16.168-.161-1.134.2-.336-1.808zM382.8 587.464l.126.04.21.08.169.04.167.08.169.121.168.08.126.122.167.12.127.121.126.12.126.12.084.121.126.161.083.121.085.161.085.16.083.161.042.16.043.122.04.201.043.16.042.161v.202l.041.16v.202l-.04.2v.202l-.043.2v.161l-.084.202-.042.2-.042.161-.083.161-.085.16-.085.162-.083.16-.083.161-.127.122-.126.12-.126.12-.127.122-.167.12-.169.12-.166.121-.169.08-.169.081-.209.08-.21.04-.042.04v-1.89l.042-.04.126-.08.126-.08.126-.08.126-.121.084-.12.084-.122.041-.12.085-.12.042-.162v-.12l.042-.16-.042-.162v-.12l-.042-.161-.041-.161-.085-.12-.084-.122-.084-.12-.126-.12-.126-.081-.126-.121-.126-.08h-.042v-2.01zm-2.981 4.704-.38 1.97-.25-.12-.253-.081-.253-.16-.208-.121-.211-.202-.168-.16-.168-.201-.168-.202-.125-.2-.126-.242-.085-.24-.083-.243-.042-.28-.043-.282-.042-.282v-.522l.042-.242.043-.24.042-.202.04-.241.043-.2.085-.162.083-.201.083-.16.085-.162.127-.16.124-.162.127-.16.126-.12.168-.122.168-.16.253-.122.294-.16.293-.12.336-.12.336-.081.336-.04.379-.04H381.499l.209.04h.21l.21.04.21.04.211.04.21.04.042.04v2.011l-.126-.04-.168-.04-.21-.04h-.168l-.211-.041-.041 3.016.21-.04h.21l.168-.04.21-.04.126-.041v1.89l-.168.04-.21.04-.252.041-.21.04-.253.04H381.163l-.253.04-.293-.04.084-4.986h-.253l-.21.04-.168.04-.209.04-.168.04-.126.081-.168.121-.127.08-.125.12-.085.121-.126.162-.043.12-.082.16-.043.162v.642l.043.122.042.08.04.08.043.12.043.081.083.08.085.041.083.08.085.08.125.04.127.042.126.08.126.04z" style="fill:#ee3338;fill-opacity:1;fill-rule:evenodd;stroke:none" transform="translate(-216.571 -484.03)"/><path d="m277.03 610.142.295-.04.294-.04.252-.08.294-.081.252-.12.252-.121.21-.16.21-.203.168-.2.21-.241.126-.202.126-.24.084-.282.084-.242.042-.281v-.563l-.042-.322-.084-.241-.084-.282-.126-.241-.126-.242-.21-.2-.168-.201-.21-.201-.21-.122-.252-.16-.252-.12-.294-.08-.252-.081-.294-.04-.294-.04-.336.04-.294.04-.253.08-.294.08-.251.121-.252.16-.21.122-.21.2-.169.202-.21.2-.126.242-.126.24-.084.283-.084.24-.042.323v.562l.042.282.084.242.084.281.126.241.126.202.21.24.168.201.21.202.21.16.253.121.251.12.294.081.253.08.294.04.336.041zM378.39 610.142l.293-.04.296-.04.293-.08.295-.081.252-.12.25-.121.211-.16.21-.203.211-.2.126-.241.168-.202.125-.24.085-.282.083-.242.043-.281.042-.281-.042-.282-.043-.322-.083-.241-.085-.282-.125-.241-.168-.242-.126-.2-.21-.201-.21-.201-.211-.122-.251-.16-.252-.12-.295-.08-.293-.081-.296-.04-.293-.04-.294.04-.294.04-.253.08-.293.08-.251.121-.21.16-.254.122-.208.2-.21.202-.169.2-.127.242-.126.24-.125.283-.043.24-.04.323-.043.282.042.28.041.282.043.242.125.281.126.241.127.202.168.24.21.201.21.202.252.16.211.121.25.12.294.081.253.08.294.04.294.041z" style="fill:#373535;fill-opacity:1;fill-rule:evenodd;stroke:none" transform="translate(-216.571 -484.03)"/><path d="M368.436 630.93v-1.728c.209 0 .42-.12.587-.282.252-.2.42-.522.504-.884.043-.281 0-.523-.127-.764-.083-.16-.25-.362-.587-.724l-.251-.24a.814.814 0 0 0-.126.2v-2.936c.209.162.461.403.713.644l1.554 1.608c.42.483.798.764 1.05.965.252.161.547.322.924.443l-1.427 1.286c-.127-.08-.295-.16-.506-.28-.125-.081-.167-.122-.209-.122-.042.443-.125.845-.293 1.206-.168.363-.42.684-.715.965-.378.322-.714.523-1.091.644zm0-7.358v2.936a9.33 9.33 0 0 1-.546.764c-.296.442-.504.764-.547.924-.042.322 0 .563.209.724a.893.893 0 0 0 .674.322c.083 0 .125 0 .21-.04v1.729c-.21.04-.42.08-.632.08-.629 0-1.133-.241-1.554-.643a2.177 2.177 0 0 1-.546-1.005c-.084-.362-.04-.684.084-1.045.168-.363.422-.805.84-1.328.547-.724.924-1.246 1.051-1.568l-.127-.16c-.251-.243-.503-.363-.756-.363-.25 0-.546.161-.924.523a1.558 1.558 0 0 0-.462.643c-.042.242 0 .523.168.804l-.546.363v-3.016c.588-.523 1.135-.885 1.554-1.005.463-.12.84-.12 1.218-.041.169.08.38.201.632.402zm-3.404 9.853 1.345-.925-1.345-1.77v2.695zm0-9.21v3.017l-.966.602c-.336-.642-.462-1.246-.336-1.808.126-.523.546-1.127 1.218-1.77.043 0 .043-.04.084-.04zm0 6.515-1.344-1.769a8.179 8.179 0 0 0-.84-.965 2.114 2.114 0 0 0-.798-.402c-.294-.08-.63-.08-1.008 0-.379.08-.756.24-1.093.482-.796.523-1.175 1.327-1.217 2.332l-.63-.845-.168.122v2.613l3.024 3.981 1.553-1.085-1.931-2.574c-.504-.643-.8-1.126-.882-1.407a1.596 1.596 0 0 1 0-.885c.125-.282.293-.523.588-.724.21-.16.42-.241.672-.241.21 0 .42.08.63.2.21.122.546.524 1.008 1.127l2.227 2.896.209-.161v-2.695zm-7.098 7.077v-3.016l1.302 2.333-1.302.683zm0-8.122v2.613l-1.303-1.729 1.303-.884zm0 5.106-2.143-3.86-1.596.804v.282l3.319 5.99.42-.2v-3.016zm-3.739 4.906v-.282l.084.242-.084.04zm0-9.047v-1.97l.294-.121.84 1.528-1.134.563zm0-1.97v1.97l-.588.28-.84-1.487 1.428-.764zm0 3.055v.282l-.127-.241.127-.041zm0 7.68v.282l-1.68.724-2.1-4.544v-2.252l.756-.361.42.924c.084-.563.21-.924.378-1.166.168-.242.377-.402.672-.563.42-.161.84-.2 1.302-.161l.17 1.73c-.38-.081-.717-.041-.968.08a.985.985 0 0 0-.547.442c-.125.2-.125.523-.083.884.083.403.336 1.126.84 2.252l.84 1.73zm-3.78 2.01.882-.28c-.294-.282-.504-.524-.631-.805-.084-.12-.168-.321-.252-.562v1.648zm0-7.8v2.252l-.883-1.89.882-.362zm0 6.153a7.396 7.396 0 0 1-.252-.725l-.674-2.09c-.208-.764-.461-1.247-.755-1.488-.25-.281-.587-.402-1.05-.483a1.42 1.42 0 0 0-.587 0v1.609c.21.08.376.281.503.643l.043.16c-.128.122-.295.242-.546.363v1.327c.418-.201.712-.403.923-.523l.127.361c.126.443.209.725.168.885.04.242-.042.483-.253.724-.21.282-.504.483-.84.603-.043 0-.083 0-.125.04v1.368c.376-.121.754-.322 1.05-.563.336-.242.587-.563.797-.965.041.04.084.08.169.201.125.2.25.362.336.482l.965-.281v-1.648zm-3.318-4.786v1.609-.04c-.21-.08-.59-.04-1.094.08-.336.12-.545.241-.714.442-.126.16-.209.443-.209.765l-1.513.16v-1.367c.084-.12.127-.201.21-.322.378-.442 1.008-.805 1.933-1.086.546-.16 1.008-.24 1.387-.24zm0 2.775c-.296.2-.673.402-1.134.603-.589.321-1.05.603-1.345.844a2.19 2.19 0 0 0-.589.925c-.084.362-.042.724.043 1.126.21.563.546.965 1.091 1.247.547.24 1.177.24 1.891.04h.043v-1.367c-.252.04-.505 0-.715-.12-.251-.122-.42-.283-.504-.564-.085-.241 0-.482.168-.723.126-.121.461-.322.925-.604.04 0 .083-.04.126-.08v-1.327zm-3.53 5.508v-1.004l.294.803c-.084.08-.167.122-.294.201zm0-6.634v1.367l-.294.04c0-.522.085-1.005.294-1.407zm0 5.63-.21-.564c-.293.201-.546.322-.714.362-.125 0-.251 0-.336-.04-.083-.04-.168-.08-.21-.201-.041-.08-.168-.402-.294-.965l-.672-2.774 1.302-.282-.336-1.448-1.302.282-.587-2.412-1.64 1.487.336 1.367-.335.08v1.528l.672-.16.714 2.975c.168.644.294 1.086.378 1.287.126.281.252.482.42.643.168.161.42.241.714.282.294.04.63.04.966-.04.42-.08.799-.242 1.134-.403v-1.004zm-4.998 2.17v-1.245c0 .12.042.2.084.28.084.283.21.604.42.925l-.504.04zm0-7.277v1.527l-.21.041-.337-1.448.547-.12zm0 6.032c-.084-.282-.126-.644-.168-1.046l-.211-2.172c-.083-.804-.251-1.367-.462-1.648-.21-.282-.545-.482-.965-.644-.379-.12-.881-.2-1.555-.16v1.447c.295 0 .547.08.674.161.209.12.334.362.377.724v.2c-.21.122-.59.242-1.05.403v1.206h.042c.504-.16.924-.322 1.133-.402l.043.362c.042.442.082.764.042.925-.042.24-.168.442-.42.644-.252.24-.546.361-.84.441v1.247c.21-.04.42-.12.63-.24a3.151 3.151 0 0 0 1.007-.805c0 .04.042.12.085.2.084.242.168.443.252.563l1.386-.16v-1.246zm-3.36-5.67v1.447c-.126 0-.252.04-.38.04-.376.04-.629.121-.797.282-.168.12-.293.402-.377.724l-1.807-.121c.127-.724.42-1.247.84-1.609.461-.361 1.176-.602 2.1-.723.126 0 .295 0 .42-.04zm0 2.935v1.206c-.505.16-.841.322-.967.443-.253.16-.336.402-.336.683.043.242.169.482.377.643.253.161.506.241.8.201h.125v1.247c-.168.08-.378.08-.546.12-.756.08-1.385-.08-1.849-.402-.461-.362-.755-.843-.797-1.447-.04-.362 0-.724.168-1.086a2.02 2.02 0 0 1 .756-.804c.337-.161.84-.362 1.47-.563.294-.08.547-.16.798-.241zm-20.961 3.016v-1.126c.168-.04.293-.08.462-.12.294-.121.462-.282.587-.524.085-.12.211-.442.295-.844l.084-.362h-1.429v-1.166c.798.04 1.387.04 1.723-.04l.042-.16c.084-.363.041-.644-.084-.805-.126-.201-.463-.363-.966-.482a2.086 2.086 0 0 0-.714 0v-1.489c.336 0 .756.04 1.176.161.84.16 1.47.402 1.848.684.336.281.588.603.672.925.084.321.042.884-.126 1.688l-.546 2.132c-.126.603-.21 1.045-.21 1.326-.042.322 0 .644.126 1.006l-1.89-.402c-.042-.12-.042-.322-.042-.604-.042-.08-.042-.16-.042-.2-.336.16-.63.321-.966.402zm14.828-1.81 1.974.644c-.336 1.085-.882 1.85-1.597 2.332-.714.523-1.595.764-2.646.764-1.344-.04-2.478-.483-3.318-1.407-.84-.885-1.26-2.092-1.218-3.619 0-1.649.461-2.896 1.385-3.78.883-.846 2.018-1.287 3.445-1.287 1.218.04 2.227.402 2.983 1.126.462.402.798 1.005 1.008 1.81l-2.058.441a1.814 1.814 0 0 0-.715-1.206c-.378-.321-.797-.482-1.343-.482-.757 0-1.387.241-1.849.764-.461.482-.714 1.327-.756 2.493 0 1.246.21 2.09.63 2.654.462.522 1.05.804 1.806.804.547 0 .966-.16 1.387-.482.377-.322.672-.845.882-1.569zm-14.828-5.308v1.489c-.043 0-.084 0-.127.04-.21.08-.42.281-.63.562l-1.638-.683c.337-.603.799-1.046 1.344-1.247.295-.12.63-.16 1.05-.16zm0 2.976v1.166c-.42 0-.715.04-.883.08a.915.915 0 0 0-.545.563c-.042.282 0 .523.168.724a.879.879 0 0 0 .672.443c.21.04.378.08.588.04v1.126c-.084 0-.168.04-.21.04-.42.08-.84.04-1.26-.04-.588-.121-1.05-.362-1.387-.684v-2.815s.042 0 .042-.04a2.03 2.03 0 0 1 .967-.523c.378-.08.924-.08 1.638-.08h.21zm-2.857-2.171.085.04.461-1.407-.546-.161v1.528zm0-3.82v-.282l.085-.04-.085.321zm0-.282v.281l-.714 2.051.714.242v1.528l-1.176-.362-.924 2.694c-.168.563-.294.885-.294.965 0 .12.042.201.084.282.084.08.168.16.295.2.168.04.42.08.797.04l-.294 1.448c-.503.04-1.008-.04-1.554-.2a1.849 1.849 0 0 1-.84-.443 1.448 1.448 0 0 1-.42-.482v-1.167c.042-.241.168-.563.294-1.005l1.008-2.895-.882-.282.504-1.407.84.282.462-1.327 2.1-.443zm0 6.916c-.252.282-.42.563-.504.925-.126.603-.042 1.126.294 1.609.042.08.126.2.21.28v-2.814zm-4.326-4.302c0-.08 0-.12.042-.162a2.808 2.808 0 0 0 0-.843c0-.081-.042-.161-.042-.201v1.206zm0-1.206v1.206a8.424 8.424 0 0 1-.462 1.005l-1.974 3.94-1.765-.804 1.638-3.257c.337-.683.546-1.126.588-1.366 0-.242-.042-.443-.126-.644-.125-.2-.294-.321-.546-.443-.293-.16-.63-.2-.924-.16-.336.08-.588.2-.84.402-.21.241-.504.684-.882 1.406l-1.428 2.856-.84-.362v-2.251l2.31-4.504 1.638.723-.504.966c.967-.482 1.849-.482 2.73-.08.379.2.715.402.967.683.21.241.336.443.42.684zm0 5.669c-.042.121-.084.201-.084.282-.042.322-.042.563.041.764 0 .04 0 .08.043.12v-1.166zm-7.561-6.796.126-.16c.462-.644.756-1.166.798-1.488 0-.362-.084-.723-.294-1.126a2.958 2.958 0 0 0-.63-.683v3.457zm-3.655-8.886c.126.281.21.562.252.845.042.482-.042.964-.252 1.407v-2.252zm3.655 5.429v3.457l-1.219 1.609a6.707 6.707 0 0 0-.713 1.207c-.127.24-.252.602-.295.965l-1.428-.965v-.564c0-.04 0-.08.042-.08.042-.12.042-.201.042-.24 0 0-.042 0-.084.039v-1.005c.294 0 .504-.08.715-.241.125-.121.336-.362.587-.724l.253-.282a10.84 10.84 0 0 1-1.177-.442 47.86 47.86 0 0 0-.378-.12v-1.287c.126.04.294.12.463.2.84.363 1.428.564 1.805.644l.127-.161c.21-.281.294-.523.21-.764-.042-.241-.294-.482-.714-.764-.295-.2-.547-.281-.799-.281-.209 0-.503.08-.798.28l-.294-.28v-1.448c.252-.12.504-.16.799-.16.587 0 1.259.28 2.058.804.294.2.588.402.798.603zm0 6.112-.924 1.809.924.442v-2.251zm-5.293-13.43c.126.08.252.16.336.24.63.563 1.05 1.086 1.302 1.649v2.252c-.125.281-.336.563-.546.804l-1.092-.884v-4.062zm1.638 6.07v1.449l-.966-.925c.336-.242.63-.403.966-.523zm0 2.574v1.287c-.294-.12-.504-.16-.672-.16-.294 0-.546.08-.714.321-.126.2-.21.442-.126.724.042.241.21.482.462.643.294.202.63.282 1.009.282h.041v1.005c-.42.04-.84.04-1.176-.04-.168-.04-.294-.08-.462-.121v-4.262c.21-.04.378 0 .546 0 .294.04.672.16 1.092.322zm0 4.383v.564l-.168-.122c.043-.08.084-.24.168-.442zm-9.073-10.535 1.597 1.166c-.379.563-.547 1.086-.463 1.529.042.441.295.884.756 1.286.463.442.924.684 1.387.684.42.04.756-.081 1.008-.362a.928.928 0 0 0 .293-.563c0-.201-.083-.443-.252-.764-.125-.242-.42-.684-.881-1.407-.63-.885-.966-1.65-1.008-2.212-.084-.805.125-1.487.672-2.051a2.714 2.714 0 0 1 1.344-.724c.504-.12 1.05-.08 1.596.121.461.16.924.402 1.386.804v4.062l-.462-.403c.294-.402.378-.804.336-1.126-.042-.362-.294-.724-.715-1.125-.419-.363-.84-.604-1.259-.644-.294-.04-.504.04-.672.241a.687.687 0 0 0-.21.644c.042.281.336.884.924 1.688.546.805.924 1.488 1.133 1.97.169.483.211.966.084 1.448-.084.483-.335.926-.797 1.408a2.763 2.763 0 0 1-1.47.804c-.588.161-1.177.121-1.765-.08a6.447 6.447 0 0 1-1.89-1.206c-.924-.845-1.429-1.69-1.554-2.534-.084-.885.21-1.769.882-2.654zm7.435 5.83c-.168 0-.378.082-.546.121-.379.161-.672.402-.882.724-.378.482-.505 1.045-.378 1.568.126.563.504 1.086 1.134 1.488.21.16.462.282.672.362v-4.262z" style="fill:#ee3338;fill-opacity:1;fill-rule:evenodd;stroke:none" transform="translate(-216.571 -484.03)"/><path d="m284.177 484.904 4.109 12.192 13.377-.025-10.837 7.51 4.158 12.177-10.807-7.55-10.806 7.55 4.158-12.177-10.837-7.51 13.377.025 4.108-12.192zM372.965 484.904l4.109 12.192 13.377-.025-10.837 7.51 4.158 12.177-10.807-7.55-10.806 7.55 4.158-12.177-10.837-7.51 13.377.025 4.108-12.192z" style="fill:#ffde23;fill-opacity:1;fill-rule:evenodd;stroke:none" transform="translate(-216.571 -484.03)"/></svg>