<svg xmlns="http://www.w3.org/2000/svg" xml:space="preserve" width="500" height="500" viewBox="-232.5 683.5 500 500"><path fill="#118E4C" d="M17.7 683.5c137.5 0 249.8 112.4 249.8 250 0 137.7-112.4 250-249.8 250-137.9 0-250.2-112.4-250.2-250s112.3-250 250.2-250z"/><path fill="#FFF" d="M17.7 696.1C148.2 696.1 255 803 255 933.5c0 130.7-106.8 237.5-237.3 237.5-130.9 0-237.7-106.9-237.7-237.5s106.8-237.4 237.7-237.4z"/><path fill="#118E4C" d="M-95 921.4c16.5 0 30.7 13.7 30.7 31.1 0 16.6-14.3 30.8-30.7 30.8-17.4 0-31.3-14.3-31.3-30.8 0-17.4 13.9-31.1 31.3-31.1zm55.4 141.5-24.3 22.9-5.9-7 17.8-17-4.7-.4-.1-7 9.3.6 7.9 7.9z"/><path fill="#118E4C" d="M-140.6 774c32.7-32.5 75.4-55 123-62.5-40.9 42.8-66.1 114.2-63.7 201.2-4.3-1.5-8.9-2.3-13.5-2.3-8.8 0-17 2.6-23.7 7.1-12.5-30.8-24.3-98.9-22.1-143.5zm-49.1 246.9c-11.5-26.9-17.8-56.5-17.8-87.4 0-22.1 3.3-43.5 9.2-63.7 23.6 38.1 44.1 58.2 63.2 69-1.5 4.5-2.3 9.1-2.3 13.9 0 2.6.2 5.2.8 7.7-23.6 20.6-41.9 39.5-53.1 60.5zm193.5 137c-59.3-3.7-112.5-30.4-150.7-71.3-5.5-35.3-4-80.9 19.2-107.8 6.3 7.6 15.3 13.1 25.6 14.9-4.5 76.2 49.1 128.5 105.9 164.2zm152.4-401.2C202.3 793 234 846.9 241 908.1c-84.5-64.2-216.6-28.9-295.3 34.8-2.2-9-7.2-16.8-13.9-22.5 25.8-50.8 106.6-153.5 224.4-163.7zM-54.7 963.1c95.6 83.9 205.4 88.4 294.4 4.7-9.7 63.1-46 117.9-97 152.3-106 4.5-175.1-39.2-226.8-127.4 14.1-4 25.5-15.5 29.4-29.6zm74.4-177.4c3 0 5.5 2.5 5.5 5.5s-2.5 5.5-5.5 5.5c-2.9 0-5.3-2.5-5.3-5.5 0-3.1 2.4-5.5 5.3-5.5zM94.2 747c3 0 5.5 2.5 5.5 5.5 0 2.9-2.5 5.4-5.5 5.4s-5.5-2.5-5.5-5.4c0-3.1 2.5-5.5 5.5-5.5zm-66.6 2.9 27-15.6c5.3-2.9 11.9-1.2 15 4.1l.9 1.4-9.7 5.6c-1.8-2.9-3.7-3.3-6.3-1.8l-18.6 10.8c-3 1.8-3.3 4.1-1.7 7.1l5.2 8.9c1.7 2.9 3.9 3.1 7 1.4L64.9 761c2.9-1.8 2.7-4 .9-7.3l9.6-5.5 1.4 2.4c3 5.3 1.2 12-4.1 15l-27 15.5c-5.2 3-11.9 1.3-15-4L23.6 765c-3.1-5.3-1.2-12.1 4-15.1zm-62.3 57.3 25.1-23.9-5.3-5.6-33.2 31.7 24.9 26.2 33.9-32.2-5.3-5.5-25.6 24.5-5.1-5.3 24.5-23.3-4.7-5-24.5 23.3-4.7-4.9z"/><path fill="#118E4C" d="M-12 925.3v21.1c0 6.6.1 12.9 0 19-.2 9.5-6.5 12.1-15.5 6.6-1.8-1.1-3.3-2.5-5-3.7-6-4.5-5.3-8.6-5.3-15.4 3.8 0 6.5 0 9.8.4v6.1c0 2.2 1.5 3.9 2.9 4.5 1.4.7 2.9.6 2.9-2.1 0-6.4.1-8 .1-14.9v-15.5c3.4-2.2 6.7-4.2 10.1-6.1zm31.3-15.8c.4 11.9.4 27.4.4 38.9v34.4c0 5.1-2 9.2-4.3 10.2-4.9 2.1-8.5 0-12.7-2.2-9.3-4.9-8.9-9-8.9-18.3V950c0-9.2 0-18.4-.4-27.7 3.3-1.8 6.6-3.5 10-5.3v60.7c0 2.1 0 3.6.5 4.1.5 1 1.4 1.6 2.4 1.6.5 0 1.9 0 2.4-.6.5 0 1-2 1-3.6V914c3.1-1.6 6.3-3.1 9.6-4.5zm12.8-5.3c.5 6.5 1 14.3 1.4 21.2.5 6.7 1.4 13.9 1.9 20.6 0 5 1 12.9 1 20.1 0 7.8.5 15.1 1 20.7h.5c0-6.2.6-12.3 1-18.5 0-6.1.5-12.9.9-19 .6-8.4 1.5-16.1 1.5-24 .4-7.5 1-17.2 1.5-25.2 3.3-1.2 6.7-2.3 10.1-3.3-1 18.6-3 39.6-4 56.9-1.4 17.8-2.6 36.9-4.1 54.6-5.1-1.5-10.1-3.3-15.2-5.2-1.4-16.3-2.3-32.5-3.7-48.3-1-15.8-2.3-31.5-3.7-46.7 3.2-1.3 6.5-2.7 9.9-3.9zM56 1011.3V895.8c7.3-2.2 14.6-4.1 22.1-5.7v18.6c-3.8.6-8.1 1.2-11.9 1.8v31.1c3.8-.6 7.6-.6 11.5-.6v15.8H66.2v41.5c3.8 0 8.1.6 11.9.6.5 5.1.5 11.7.5 16.4-7.5-.9-15-2.2-22.6-4zm40.3-124.7 8.7 111.9c0-25.6-.5-51.2-.5-76.7l-.2-36.2c2.7-.3 5.5-.6 8.2-.9 0 20.9.1 47.1.1 68.2v63c-4.8.3-9.6.5-14.4.5l-8.1-107.2v106.9c-2.5-.1-5.1-.3-7.6-.5v-62.2c0-19.6-.2-44.1-.2-64.3 4.7-.9 9.3-1.7 14-2.5zm47.7-2.4c0 5.9-.1 15.1-.1 20.3-2.4-.6-5.8-1.2-8.7-1.2v109.5c-3.2.6-6.4 1.2-9.6 1.7V902h-9.2c0-4.3.4-11.9.6-17.7 9.1-.4 18.1-.5 27-.1zm34.9 114.1V889.5c3.7.9 7.2 1.9 10.8 3 .5.2.9.3 1.3.5 4.8 2 8.6 5.9 11 9.8 1.9 4 3.3 12.3 3.3 19.4v26c0 6.1-.2 13.1-.4 19.8-.2 14.8-1.7 17.5-14.4 24.4-3.9 2.1-7.7 4.1-11.6 5.9zm-5.3-110.1v97.1c0 6.4-1.4 12.3-3.8 15.4-2.8 3.7-7.8 4.6-12.2 6.1-2.3.8-3.3 1-5.6-.2-2.4-2.5-3.8-8.4-3.8-16.1 0-18.1-.5-33.8-.5-51.2v-54.8c3.3.2 6.7.6 10 1v101.1c0 3.3 0 5.8.5 6.4 1.2 1.6 4.2.5 4.8-1.3 0-.6.5-3.3.5-5.8v-99.6c3.4.6 6.8 1.2 10.1 1.9z"/><path fill="#FFF" d="M189.5 907.2c0 13.1-.5 25.4-.5 38.4v34.2c5.1-2.3 5.7-4.1 5.7-8.5v-55c0-3.9-.1-8-5.2-9.1z"/><path fill="#118E4C" d="M210.6 980v-79.3c7.7 3.7 15.1 7.9 22.1 12.8v10c-3.8-2-8.2-3.9-12-5.9V933c3.8.6 7.7.5 11.5 1v8h-11.5v17.5c3.8-1.9 8.3-5 12-6.8.2 1.1.4 5.7.5 9.9-7.5 6.4-15 12.2-22.6 17.4zM13.5 1108.6-6.9 1135l-7.2-5.7L1 1109.5l-4.7.3-1.2-6.9 9.3-.9 9.1 6.6zm15.7 7.8 15.1 7.9c3.9 2 5.5 6.8 3.5 10.7l-.7 1.4c-1.4 2.9-4.5 3.9-8.5 3.7 3 2.3 4 5.3 1.9 9.3l-1 1.9c-2 3.9-6.9 5.5-10.8 3.5l-15.1-7.8c-3.9-2-5.5-6.8-3.5-10.7l1.7-3.3 8.4 4.3-.9 1.6c-.3.7-.4 1.5-.2 2.2s.8 1.3 1.4 1.6l7.3 3.9c.7.3 1.5.4 2.2.2.7-.2 1.3-.8 1.6-1.4l.8-1.5c.6-1.1-.1-2.9-1.2-3.6l-7.5-3.9 2.9-5.7 7.4 3.9c1.4.7 2.9.5 3.7-1.1l.5-1c.7-1.4.2-3.1-1.3-3.8l-7.3-3.8c-1.4-.7-3.1-.2-3.8 1.2l-.9 1.7-8.4-4.3 1.6-3.3c2.3-4.2 7.2-5.8 11.1-3.8zm-42-15.6-3.4 3.5-10.1 10c-3 3-8 3-11 0l-12.3-12.2c-3-3-3-8 0-11.1l2.1-2 6.3 6.3-.7.7c-1 1-1 2.5 0 3.4l6.9 6.9c1 1 2.5 1 3.4 0l3.3-3.3-2.2-2.1-9.1-9c-3-3-3-8 0-11.1l3.4-3.4c3-3 8-3 11.1 0l12.3 12.2c3 3.2 3 8.1 0 11.2z"/><path fill="#FFF" d="m-27.8 1084.7 7.6 7.6c.8.7.8 2 0 2.8l-2.1 2.2c-.8.7-2 .7-2.9 0l-7.6-7.6c-.8-.8-.8-2 0-2.8l2.2-2.2c.7-.7 2-.7 2.8 0z"/></svg>