<svg xmlns="http://www.w3.org/2000/svg" xml:space="preserve" style="enable-background:new 0 0 595.3 595.3" viewBox="0 0 595.3 595.3"><path d="M297.6 5.8c161.2 0 291.9 130.7 291.9 291.9S458.8 589.6 297.6 589.6 5.8 458.9 5.8 297.7 136.5 5.8 297.6 5.8z" style="fill-rule:evenodd;clip-rule:evenodd;fill:#ed2129"/><path d="M297.6 24.4c150.9 0 273.3 122.4 273.3 273.3S448.5 571 297.6 571 24.4 448.6 24.4 297.7 146.7 24.4 297.6 24.4zm0 453.8 8.5 24.1 25.1.3-20.3 15.5 7.5 24-21-14.6-20.5 14.6 7.3-24.5-20.2-15 25.6-.6 8-23.8zm-47-5.8c-.2-.8-.3-8.4-.4-9.6-.3-7-.2-21-.2-27.8 0-7 .1-10.2.4-13.5 0-.3-.9-.9-1.2-.7-3.6 1.6-10.1 3.9-16.3 4.4-.3.3-.5 2.6-.2 3 1.2.2 3 .4 4.1.7 1.2.3 1.9 1.5 2 2.9.2 2.3.2 8.4.2 15.2-.1 7.1-.1 12.6-.2 16.1 0 1-.1 8.4-.3 9.2h12.1v.1zm17.1.7c19-4.9 28.4-16 28.4-31.5 0-10.8-5.5-20.7-16.8-20.7-3.2 0-6.7 1-9 2.4-5.9 3.4-9.3 9.2-9.3 16.6 0 15.6 12.3 18 22.2 11.5.2-.2.4.1.3.4-2.8 8.3-5.6 12.7-17 18.3-.2.7.8 2.8 1.2 3zm9.3-48.9c5.8 0 8.2 7.7 8.2 16.5 0 1.7-.2 3.3-.6 5.8-.1.5-.6 1.2-.9 1.4-.9.4-2.3.9-3.2.9-4.9 0-9.4-4.2-9.4-14.1-.1-6.9 2.9-10.5 5.9-10.5zm45.1-3.4c-3.8 0-7.9 1.2-11 4-5.4 4.8-7.5 13.6-7.5 21.7 0 9.4 1.6 18.7 7.5 23.5 2.6 2.2 5.7 2.9 9.7 2.9 3.2 0 6.5-1 9-2.8 6.7-5 8.9-14.4 8.9-24.4 0-8.8-2-15.3-5-19.2-2.4-3.4-6.3-5.7-11.6-5.7zm-1.4 3.3c4.3 0 6.9 7.9 6.9 23.1 0 14.8-1.6 19.4-3.2 21.2-.5.5-1.3 1-2.4 1-4.2 0-7.1-7.2-7.1-24.6 0-10.4 1.5-17.4 3.7-19.7.5-.6 1.4-1 2.1-1zm42 48.3c-.2-.8-.3-8.4-.4-9.6-.3-7-.2-21-.2-27.8 0-7 .1-10.2.4-13.5 0-.3-.9-.9-1.2-.7-3.6 1.6-10.1 3.9-16.3 4.4-.3.3-.5 2.6-.2 3 1.2.2 3 .4 4.1.7 1.2.3 1.9 1.5 2 2.9.2 2.3.2 8.4.2 15.2-.1 7.1-.1 12.6-.2 16.1 0 1-.1 8.4-.3 9.2h12.1v.1zM318.9 44l7.4 6 8.8-4.3-3.4 8.9 6.8 7-9.5-.5-4.6 8.7-2.5-9.2-9.6-1.7 8-5.2-1.4-9.7zm-42.6 0-7.4 6-8.8-4.3 3.4 8.9-6.8 7 9.5-.5 4.6 8.7 2.5-9.2 9.6-1.7-8-5.2 1.4-9.7zM165.8 79.4l-3.4 8.9-9.8.7 7.4 6-2.4 9.5 8-5.2 8.3 5.2-2.5-9.2L179 89l-9.5-.5-3.7-9.1zm54.2-24-5.6 7.7-9.6-1.9 5.6 7.7-4.8 8.6 9.1-2.9 6.7 7.2v-9.6l8.9-4.1-9.1-3-1.2-9.7zm209.5 24 3.4 8.9 9.8.7-7.4 6 2.4 9.5-8-5.2-8.3 5.2 2.5-9.2-7.5-6.3 9.5-.5 3.6-9.1zm-54.2-24 5.6 7.7 9.6-1.9-5.6 7.7 4.8 8.6-9.1-2.9-6.7 7.2v-9.6l-8.9-4.1 9.1-3 1.2-9.7zM154.8 211l3.2-3.6-5.7-5.8-6-1-3.6 3.4h-.9c.7.7 1.4 1.4 2.2 2.1 3.5 3 7.6 4.9 11.9 5.7l-1.1-.8zm145.6-42.8c11.8-3.1 57.7-14.7 66.1-7.5 9.6 8.3-9.6 33 20.6 28.9 27.4-3.7 109.8-28.8 125.5-33.6-8.8-13.3-18.8-25.8-29.9-37.3-23.7 7.7-106.2 33.5-112.1 24.1-6.9-11 4.1-23.4-6.9-28.9-8.7-4.3-47.4 5.9-63.3 10.4v43.9zm232.8 25.5c5.9 13.4 10.7 27.3 14.3 41.7-45.7 13-139.1 39.2-161.7 42.3-30.3 4.1-11-20.6-20.7-28.9-8.1-6.9-51.1 3.6-64.7 7.1v-44c16.7-4.7 53.5-14.2 62-10 11 5.5 0 17.9 6.9 28.9 5.6 9.2 123.3-25 163.9-37.1zm21.1 83.4c.5 6.8.8 13.7.8 20.6 0 8.3-.4 16.4-1.2 24.5-53.2 13.4-151.8 37.9-173.7 40.9-30.3 4.1-11-20.7-20.7-28.9-7.6-6.5-43.8 2.3-59.2 6.4v-43.9c17.7-4.9 51.2-13.2 59.2-9.2 11 5.5 0 17.9 6.9 28.9 6.1 9.6 152.4-29.6 187.9-39.3zm-6.6 87.5c-29.5 110.5-130.3 191.9-250.1 191.9-94.4 0-177-50.6-222.3-126.2 71.7-16.7 278.3-64.2 282.8-56.3 5.5 9.6-4.1 26.2 9.6 33 9.5 4.9 114.3-23.7 180-42.4zm-395.3 12.8s-12.3 11.4-11.9 1.8c.3-9.6 0-59.5 0-59.5s-7.8-7.8 5.1-9.3c12.9-1.5 12 4.2 12 4.2l31.4 32.6v-36.5s-10.5-4.8-3-6.9c7.5-2.1 10.2-3 13.2-3.6 3-.6-1.8 7.8-1.8 7.8v57.1s-4.8 7.5-12-.9-33.8-37.1-33.8-37.1V372c-.1 0 3.5 2.7.8 5.4zm121.2-158 1.6-12.9c-28.2-7.1-52.7 13.6-53.5 43.1-1 37.5 46.8 36.4 55 14.2 1.4-3.3-4.1-6.3-6.3-2.5-5.3 9-36.7 25.3-34.4-17.7 2.1-42.9 39.6-34 37.6-24.2zm-168 37.9 1.6-12.9C79 237.3 54.5 258 53.7 287.5c-1 37.5 46.8 36.4 55 14.2 1.4-3.3-4.1-6.3-6.3-2.4-5.3 9-36.7 25.3-34.4-17.7 2.2-43 39.6-34.1 37.6-24.3zm-23.4 92.8c-8.2 9.9.8 14.5.8 14.6h.1c5.6 2.5 9-2.1 9.4-2.7l78.2-94 76.2 59.5c.5.5 4.8 4.3 9.6.6l.1-.1s7.7-6.4-2.3-14.2c-4.9-3.8-43.9-33.9-74.2-57.3l28.9-34.8c15.4-7.7 23.3-15.9 23.3-15.9l.1-.1 27.4-32c3.1-3.6 3.4-6.8 1.9-9.9-1.3-2.8-4.1-5.3-7.6-7.9-4-3-7.5-4.9-10.7-5.1-3.5-.2-6.5 1.3-9.6 5.1l-22.5 28c-7.2 9.1-12.1 25.1-12.8 27.5-1.5 1.8-14 16.6-30.3 36l-24.1-18.5c-1.2-2.2-9.3-16.6-18.2-23.9l-22.7-18.6c-3.7-3.1-7-3.9-10.3-2.9-3.1.9-6 3.5-9.3 7.3-2.8 3.3-5 6.3-5.7 9.3-.8 3.3.2 6.3 4 9.1l28.3 21.4.1.1s9.4 6.2 25.9 10.4l22.5 17.6c-32 38.4-72.6 86.7-76.5 91.4zm172.5-24.3c.1-.1.7-.6 1.1-1.5L86 192.9c-2.5 2.9-4.4 5.5-4.9 7.9-.5 2.1.2 4 2.8 6l28.3 21.4c.9.6 9.8 6.2 25.3 10.1l.3.1.3.2L249 325.3l.1.1c-.1 0 2.6 2.6 5.6.4zm-86.4-59.7-3.6-2.8L83 360.7c.6.8 1.3 1.1 1.4 1.2 3.5 1.5 5.5-1.6 5.5-1.7l.1-.1 78.3-94zm5.9-14.1 3.6 2.7 29.2-35.1.2-.3.3-.1c14.4-7.2 22-14.7 22.7-15.4l27.4-32c2.1-2.5 2.4-4.6 1.5-6.5-1-2.2-3.5-4.4-6.6-6.7L174.2 252zm-36.1-48.4c-.1-.2-.2-.3-.4-.5l-.1-.2c-.1-.2-.2-.3-.3-.5l-.2-.3-.3-.4-.2-.3-.3-.4-.2-.3-.3-.5-.1-.2-.3-.6-.1-.2-.2-.5-.2-.4-.1-.3c-.1-.2-.1-.3-.2-.5l-.1-.3c-.1-.2-.1-.4-.2-.5l-.1-.3c-.1-.2-.1-.4-.2-.6l-.1-.3-.2-.5v-.1c-.6-1.9-1.1-3.8-1.4-5.9v-.3l-.1-.6v-.1c-.1-.6-.1-1.2-.2-1.8v-.7c-.4-8.5 2-17.7 7.1-26l.1-.1c.5-.8 1-1.6 1.6-2.4l.1-.1.1-.1.1-.1.1-.1.2-.3.1-.1.3-.4.2-.3.1-.1c.1-.2.3-.3.4-.5l.1-.1v-.1c.2-.2.4-.5.6-.7l.1-.1c.2-.2.3-.4.5-.6l.2-.2.2-.2.6-.6.1-.1.6-.6.1-.1.6-.6.1-.1.6-.6.6-.6.2-.2c.2-.2.4-.4.6-.5l.2-.1c.2-.2.4-.3.6-.5l.2-.2.2-.2.3-.2.5-.4.3-.3.5-.4.3-.2.4-.3.4-.3c.2-.2.4-.3.6-.5.2-.2.5-.3.7-.5l.2-.1c.5-.3 1-.7 1.5-1 8.7-5.4 18.4-7.6 27.1-6 1.1.2 2.2.5 3.2.8 3.2 1 6.2 2.5 9 4.5l.1.1.1.1.1.1c.1.1.3.2.4.3l.1.1.1.1.3.3.3.3.7.7c12.5 12.5 11.6 35.4-2.4 52.3-4.1 4.9-8.8 8.8-13.9 11.6l-.2.1-.6.3c-12.9 6.7-27.4 6.5-37.4-2-1.5-.6-2.9-2.1-4.1-3.8zm-3.7-22.8.1-.2 4.1 2.3 6.7-7.7-.8-9.7-5.9 1.2.1-1.6c-2.5 5.1-4 10.5-4.3 15.7zm24.9-36.8v.3l-.5 5.6 9.1 1.8 8.1-5.8-1.6-5.8.6-.2c-5.2.1-10.6 1.5-15.7 4.1zm39.3 7.9.5 2.2-6.3 1.2-.4 11.3 4.4 3 4.7-3.6 1.8 2.7c.1-6.2-1.5-12-4.7-16.8zm-1.6 39-4 2.2-1.2-3.3-7.4 1.9-5.5 11.2 3.8 1.4-.7 1.9c4-2.5 7.7-5.7 10.9-9.7 1.5-1.7 2.9-3.6 4.1-5.6zm-36.2 14.9c3 0 8.6-.5 14.7-2.8l6-12.2-7.4-4.4-11 3.9-7.9 9.9 5.6 5.6zm14.6-22.2 8 4.8-.3.5 8.5-2.2c1.3-1.8 3.8-6.3 4.1-14.3l-5.6-3.8-.3-.2-10 3.7-4.4 11.5zm3.4-14.4 10.8-4 .4-11.1c-4.9-3.6-9.5-5.3-11.9-6l-8.3 6v10.8l9 4.3zm-12.1-2.9v-11.7l-8.5-1.7c-1.4 1-7.1 5.3-10.9 9.9l.9 10.7 8.8.8 9.7-8zm-18.6 10.3-.1.1-7.3 8.4c.2 2.2.9 7.5 4.3 12.1l7.6 1.3 8.6-10.7-6.2-10.5-6.9-.7z" style="fill-rule:evenodd;clip-rule:evenodd;fill:#fff"/></svg>