<svg xmlns="http://www.w3.org/2000/svg" data-name="Layer 0 Imagem" viewBox="0 0 300 300"><path d="M22.18 178.7c.88-2.34.76-4.84 1.11-7.26 1.59-11.3 5.24-21.92 10-32.25 8-17.49 10.33-35.61 5.69-54.43a52.85 52.85 0 0 0-5.15-12.68c-2.87-5.27-5.64-10.6-8.53-15.87a1.66 1.66 0 0 1 .48-2.49Q56.41 27.59 87 1.37c1.1-.94 1.87-.6 2.87-.14 9 4.13 17.91 8.61 27.32 11.88C148.14 23.9 178.38 22 208 8.14c5-2.33 10-4.67 14.92-7.08a2.16 2.16 0 0 1 2.8.31q30.51 26.16 61.12 52.2a1.9 1.9 0 0 1 .54 2.85c-2.9 5.25-5.63 10.61-8.53 15.87-6.61 12-8.06 24.89-7.07 38.27.88 12.26 5.22 23.44 10.22 34.55a97.42 97.42 0 0 1 8 31.45c0 .34 0 .73.44.85v3.44c-.47 1.1-.11 2.27-.23 3.4.11 1-.24 2.06.23 3.05v3a85 85 0 0 1-2.44 15.19 82.86 82.86 0 0 1-19.34 34.28c-14.44 15.6-32.4 25.46-52.18 32.48-8.26 2.93-16.83 4.7-25.22 7.14a60.5 60.5 0 0 0-20.51 10.07c-3.85 3-7.89 5.73-11.74 8.71a6.74 6.74 0 0 1-1.86 1.06 4.15 4.15 0 0 1-3.54-1.14c-4.58-3.44-9.25-6.76-13.84-10.18-6.39-4.77-13.76-7.31-21.33-9.31-10.6-2.79-21.22-5.49-31.35-9.78-13.07-5.54-25.31-12.47-35.94-22-13.57-12.1-23.15-26.76-27.36-44.67-.95-4.05-1.06-8.19-1.61-12.27v-.43c.46-.87.1-1.8.22-2.69v-2.45c-.12-1.15.24-2.33-.22-3.46Z"/><path d="M290.1 184.3c.09-1.15-.5-2.38.37-3.45v3.44c-.12.19-.24.18-.37.01Z" style="fill:#737071"/><path d="M22.18 180.85c.87 1.07.27 2.3.36 3.45-.13.18-.25.17-.36 0Z" style="fill:#969595"/><path d="M290.1 184.3h.37v3c-.88-.91-.27-2-.37-3Z" style="fill:#848283"/><path d="M22.18 184.29h.36v2.58c-.12.18-.24.17-.35 0Z" style="fill:#a9a7a8"/><path d="M22.18 186.87a2 2 0 0 0 .35 0c-.09.86.53 1.82-.35 2.57Z" style="fill:#bebdbd"/><path d="M89.81 11.62c.66.29 1.25.54 1.83.82C102.74 17.75 114 22.6 126 25.62c29.67 7.49 58.19 4 85.75-8.85 3.37-1.57 6.74-3.15 10.07-4.79a1.76 1.76 0 0 1 2.25.31q25.62 22 51.32 43.83c1.06.9.81 1.51.3 2.5-3.05 5.9-6.66 11.53-8.89 17.83-6.11 17.2-5.68 34.56-1.09 52a97.75 97.75 0 0 0 5.93 15.84c5.92 12.88 9.68 26.26 9.49 40.59-.24 18.21-6.77 33.92-18.86 47.35-12.57 14-28.4 22.92-45.77 29.44a160.82 160.82 0 0 1-21 6.16 83.86 83.86 0 0 0-35.5 17.24c-3.46 2.88-3.78 2.9-7.17 0-11.57-9.8-25.19-14.85-39.71-18.33-20.64-5-39.67-13.47-55.75-27.69-12.11-10.72-20.58-23.73-24.12-39.67-3-13.46-1.84-26.75 2.05-39.87a124.74 124.74 0 0 1 6.13-16C50.71 123 53.32 101.87 47.11 80 45 72.51 41 66 37.32 59.26c-1-1.74-.69-2.57.77-3.81Q63.32 34 88.45 12.5c.42-.37.78-.85 1.36-.88Z" style="fill:#fdfdfd"/><path d="m91.57 25.64 1.62.78A154.1 154.1 0 0 0 140 40.6a134.49 134.49 0 0 0 64.79-7.85 151.25 151.25 0 0 0 15.13-6.57 1.89 1.89 0 0 1 2.44.3q19 16.32 38.07 32.53a1.61 1.61 0 0 1 .49 2.44c-8.29 15.43-11.18 32-9.93 49.32a106.88 106.88 0 0 0 10.25 38.94 80.8 80.8 0 0 1 8.19 30.29c1.13 18.45-5.42 33.93-18.34 46.85-10.2 10.19-22.5 17.07-35.77 22.41-8.85 3.56-18.13 5.68-27.3 8.14-11 3-21.34 7.39-30.31 14.62-.86.69-1.5 1-2.55.11-11.27-9.22-24.71-13.49-38.56-16.87-18.28-4.46-35.31-11.61-49.9-23.79-10.57-8.83-18.46-19.56-21.92-33.06-3.21-12.55-1.76-25 2.09-37.16 1.74-5.51 4.27-10.7 6.48-16 10.37-24.89 12.15-50.1 2.42-75.66a53 53 0 0 0-4-8.08c-.56-.94-.61-1.52.33-2.31q19.21-16.36 38.3-32.71c.38-.32.8-.58 1.17-.85Z"/><path d="M250.15 72.29a97.53 97.53 0 0 0-4.82 37.7A90 90 0 0 0 247 123c.29 1.4.16 2.21-1.48 2.85q-96.2 37.15-192.3 74.47c-1.58.62-2.13.45-2.59-1.23-3.13-11.48-2.2-22.82 1-34.1a109.36 109.36 0 0 1 7-17.74 3.87 3.87 0 0 1 2.22-2.11q93.53-36.27 187-72.57c.64-.24 1.26-.78 2.3-.28ZM174.27 256.09v-2.36q0-46.08-.05-92.17a2.75 2.75 0 0 1 2.09-3.1c8.22-3.08 16.41-6.27 24.58-9.49 1.36-.54 1.91-.71 1.91 1.16q-.09 47.91 0 95.82c0 1.05 0 1.8-1.35 2.17-9.05 2.43-18.21 4.39-27.18 7.97ZM138.45 256.09c-9.08-3.62-18.33-5.56-27.41-8.06-1-.28-1.17-.77-1.17-1.66v-60.83c0-1.09.46-1.44 1.37-1.79 8.55-3.27 17.08-6.56 25.58-9.93 1.53-.61 1.66-.09 1.66 1.22v81.05ZM109.94 120.17v-80.8c4 1.16 8 2.35 12 3.4a105.65 105.65 0 0 0 14.5 2.88c1.86.22 2.08 1 2.07 2.58v59.11c0 .92.13 1.75-1.1 2.22-9.13 3.44-18.16 6.99-27.47 10.61ZM238.54 229.9v-78.15c0-5.16.07-10.32 0-15.48a2.3 2.3 0 0 1 1.83-2.62c2.36-.81 4.67-1.78 7-2.68.61-.23 1.18-.55 1.41.51 2.24 10.21 7.44 19.31 10.93 29.05 4.61 12.83 6.11 25.88 2 39.16-3.94 12.66-12.1 22.23-22.47 30.12-.17.08-.34.05-.7.09ZM202.76 39.43v42.85a2.19 2.19 0 0 1-1.6 2.52q-12.52 4.74-25 9.68c-1.65.65-2 .41-2-1.38q.09-22.54 0-45.08c0-1.53.38-2 2-2.24a140.67 140.67 0 0 0 24.38-5.65ZM74.17 47.66v84.1a2.8 2.8 0 0 1-2.17 3.17c-3.25 1.1-6.4 2.45-9.62 3.71-.55-.87.08-1.56.28-2.24 6.08-20.52 6.95-41.11.84-61.79a73 73 0 0 0-4.72-11.94c-.36-.73-.7-1.3.17-2 4.95-4.21 9.88-8.45 15.22-13.01ZM74.12 198.15v31.9a18.34 18.34 0 0 1-3.81-2.81 62.2 62.2 0 0 1-16-19.68c-.29-.58-1.19-1.28.2-1.81 6.49-2.47 12.88-4.99 19.61-7.6ZM238.54 47.66l12.72 10.85 1.47 1.26c2.07 1.75 1.7 4.28-.84 5.3-3.91 1.57-7.87 3-11.77 4.57-1.21.49-1.62.38-1.6-1 .05-6.82.02-13.64.02-20.98Z" style="fill:#fdfdfd"/><path d="M159.81 155v-42.31a2.31 2.31 0 0 1 1.76-2.64c5.23-1.9 10.41-4 15.62-5.95 6.59-2.49 11.86.38 13.44 7.28a20.34 20.34 0 0 1-11.74 22.71c-2 .82-3.95 1.69-6 2.35-1.27.42-1.55 1.11-1.52 2.34.07 3.44 0 6.87 0 10.31 0 .65.27 1.38-.74 1.75-3.55 1.32-7.05 2.72-10.82 4.16ZM202.81 138.41V95.52a1.68 1.68 0 0 1 1.28-1.87c5.55-2.09 11-4.31 16.62-6.34 5.86-2.13 10.76.42 12.59 6.38 2.77 9-2.21 19.77-11 23.6-2.15.95-4.35 1.8-6.57 2.61a1.8 1.8 0 0 0-1.39 2c.08 3.44 0 6.88.06 10.31a2 2 0 0 1-1.52 2.35c-3.3 1.15-6.52 2.44-10.07 3.85ZM108.62 174.76c2.26-9.44 4.43-18.53 6.6-27.61 1.52-6.33 3.07-12.64 4.54-19a3.41 3.41 0 0 1 2.52-3c2.8-.84 5.51-2 8.23-3.08 1.05-.42 1.6-.41 2 .85q6 18.21 12.08 36.39c.33 1 .25 1.51-.87 1.9-2.9 1-5.77 2.12-8.6 3.29-1 .43-1.36.15-1.58-.83-.32-1.44-.15-3.63-1.24-4.08s-2.74.79-4.15 1.3a9.73 9.73 0 0 1-1.21.43c-4.35.84-7.24 3-7.06 7.86a1.64 1.64 0 0 1-1.27 1.73c-3.2 1.22-6.39 2.48-9.99 3.85ZM61.42 193.15c1.22-5 2.33-9.64 3.47-14.26 2.68-10.89 5.39-21.76 8-32.66a3.46 3.46 0 0 1 2.59-2.92c2.66-.81 5.24-1.88 7.82-2.93 1-.39 1.32-.28 1.67.75q6.2 18.36 12.5 36.68c.35 1 .11 1.36-.8 1.68-2.88 1-5.78 2.07-8.61 3.24-1.18.49-1.43.06-1.71-.94-1.13-4.08-1.16-4.08-5.11-2.63a47.94 47.94 0 0 1-5.24 1.89 3 3 0 0 0-2.64 3.27c0 3.38-1.54 5.28-4.89 6.09a55.15 55.15 0 0 0-7.05 2.74ZM100.62 177.75c-.26-5.1-1.38-3.66 5.34-6.18 1.04 4 .21 4.91-5.34 6.18ZM153.65 153.21a3.2 3.2 0 0 1 .08.66c-.1 1.19.59 2.81-.31 3.48-1.31 1-3.1 1.35-4.69 2a.54.54 0 0 1-.72-.22c-.68-1 .13-3.95 1.22-4.39 1.25-.5 2.52-1 3.79-1.44a3 3 0 0 1 .63-.09ZM230.94 127.47a5.83 5.83 0 0 1-.09-1c.12-1.1-.56-2.62.36-3.24a23.64 23.64 0 0 1 4.86-2 .61.61 0 0 1 .54.15c.66.74-.11 4.07-1.05 4.44-1.49.5-3.01 1.05-4.62 1.65ZM194.5 137.19a5.64 5.64 0 0 1 .12 1c-.08 1.13.54 2.7-.27 3.29-1.34 1-3.11 1.36-4.71 2a.51.51 0 0 1-.69-.27c-.7-1.18.19-3.92 1.48-4.43s2.65-1.05 4.07-1.59Z"/><path d="M171.37 127.28v-9.94c0-.42-.12-1 .36-1.15 2.11-.8 4-2.21 6.44-2.09a2.78 2.78 0 0 1 2.55 2 7.48 7.48 0 0 1-2.12 7.81c-2.09 1.62-4.6 2.33-7.23 3.37ZM214.37 110.76v-9.81c0-.77 0-1.36.91-1.67 1.41-.5 2.75-1.2 4.17-1.64 2.39-.76 4 .31 4.5 2.78a7 7 0 0 1-3.47 7.63c-1.87 1-3.87 1.73-6.11 2.71Z" style="fill:#fdfdfd"/><path d="M126.71 136.76q1.65 6.84 3.32 13.68a.61.61 0 0 1-.44.82c-2.2.72-4.26 1.92-6.62 2.09l3.36-16.48ZM79.73 155.54c.94 4 1.82 8.05 2.87 12 .37 1.39.17 2.08-1.25 2.5-1.76.52-3.47 1.22-5.55 2 1.1-5.54 2.14-10.81 3.18-16.08.18-.28.27-.72.75-.42Z" style="fill:#fcfcfc"/><path d="M79.73 155.54 79 156c-.08-.43-.17-1 .32-1.1s.43.3.41.64Z" style="fill:#969495"/></svg>