<svg xmlns="http://www.w3.org/2000/svg" xml:space="preserve" width="199.37" height="249.45"><g fill-rule="evenodd"><path fill="#ee2722" d="M99.683 249.445C-20.032 178.888-2.086 64.343 5.902 21.184 16.022 39.6 34.626 41.769 46.63 36.31 61.583 29.51 68.82 14.363 67.11 0c18.544 23.137 46.608 23.134 65.146.006-1.71 14.36 5.528 29.51 20.48 36.308 12.004 5.46 30.608 3.292 40.728-15.126 7.988 43.161 25.935 157.702-93.782 228.26"/><path fill="#fff" d="M99.683 235.508C5.453 178.71 8.968 81.46 14.271 45.473c22.186 13.228 51.127-.018 61.185-22.469 15.76 7.982 32.697 7.987 48.456.006 10.059 22.45 39 35.695 61.185 22.469 5.302 35.99 8.816 133.239-85.414 190.035"/><path fill="#198538" d="M110.846 184.518v-77.405c8.256.83 17.478 2.543 29.74 5.145l-1.23.224c-6.504-1.356-11.219 1.41-12.061 4.272-.574 1.957.636 4.009 4.26 4.928 3.706.94 6.38-2.373 10.52-1.292 3.837 1.004 6.68 5.085 12.28 6.077 2.596.46 6.512-.318 7.763-3.694.817-2.204.061-4.548.852-7.727.965-3.878 3.568-3.19 4.634-8.462 1.163-5.252-1.494-5.682-.798-9.617.57-3.226 2.214-5.059 2.364-7.406.23-3.594-3.03-5.897-5.59-6.533-5.518-1.37-9.775 1.202-13.69.558-4.222-.695-5.316-4.81-9.084-5.459-3.685-.635-5.626.748-5.895 2.77-.396 2.957 2.749 7.392 9.243 8.8l1.048.708c-14.27-3.026-24.844-4.973-34.356-5.842V66.505l.476 1.172c.025 6.645 3.712 10.645 6.685 10.871 2.035.155 3.79-1.454 3.935-5.19.149-3.821-3.648-5.747-3.45-10.021.183-3.963 3.584-7.592 3.39-13.275-.09-2.637-1.664-6.303-5.227-6.826-2.325-.341-4.461.885-7.736.773-3.994-.138-3.861-2.826-9.24-2.781-5.378-.052-5.246 2.636-9.24 2.775-3.274.112-5.41-1.115-7.736-.774-3.563.522-5.138 4.19-5.228 6.827-.194 5.681 3.207 9.312 3.39 13.274.2 4.273-3.598 6.2-3.449 10.02.145 3.737 1.9 5.346 3.935 5.192 2.973-.228 6.66-4.266 6.686-10.91l.474-1.155v18.089c-9.51.872-20.085 2.82-34.356 5.85l1.048-.708c6.495-1.407 9.64-5.844 9.244-8.8-.27-2.022-2.21-3.404-5.895-2.769-3.768.648-4.863 4.763-9.085 5.457-3.914.644-8.172-1.928-13.689-.557-2.56.637-5.82 2.94-5.59 6.533.15 2.347 1.793 4.18 2.364 7.405.696 3.937-1.961 4.367-.799 9.619 1.067 5.27 3.67 4.582 4.634 8.46.791 3.18.036 5.525.853 7.728 1.252 3.377 5.166 4.154 7.764 3.694 5.598-.991 8.441-5.072 12.279-6.076 4.14-1.083 6.813 2.231 10.519 1.291 3.625-.918 4.835-2.97 4.26-4.928-.841-2.861-5.557-5.628-12.062-4.272l-1.228-.223c12.26-2.605 21.483-4.322 29.739-5.153v77.47l-.538-1.254c-.026-6.644-3.649-10.644-6.623-10.87-2.035-.156-3.79 1.454-3.934 5.19-.15 3.82 3.648 5.747 3.45 10.021-.184 3.963-3.585 7.593-3.391 13.275.09 2.636 1.664 6.304 5.228 6.825 2.326.342 4.461-.885 7.735-.772 3.995.138 3.863 2.826 9.24 2.774 5.38.045 5.246-2.644 9.24-2.781 3.275-.113 5.411 1.113 7.737.773 3.562-.523 5.137-4.19 5.227-6.827.194-5.682-3.207-9.311-3.39-13.274-.199-4.274 3.598-6.2 3.45-10.02-.146-3.737-1.9-5.347-3.935-5.192-2.974.228-6.647 4.227-6.672 10.872l-.49 1.19"/><path fill="#fff" d="M102.571 70.971c-.061-1.528-1.342-2.746-2.889-2.746-1.533 0-2.808 1.197-2.888 2.708V92.24C86.063 92.54 74.863 94.492 58 98.1c-1.48.377-2.407 1.885-2.085 3.397.319 1.501 1.755 2.499 3.25 2.263 16.334-3.483 27.214-5.372 37.63-5.67v81.987c.08 1.51 1.355 2.708 2.889 2.708 1.546 0 2.827-1.219 2.889-2.747V98.091c10.417.293 21.295 2.178 37.632 5.657 1.493.236 2.93-.761 3.25-2.263.32-1.512-.606-3.018-2.087-3.396-16.865-3.604-28.064-5.553-38.795-5.849V70.971"/></g></svg>