<svg xmlns="http://www.w3.org/2000/svg" xml:space="preserve" id="Layer_1" x="0" y="0" style="enable-background:new 0 0 700 700" version="1.1" viewBox="0 0 700 700"><style>.st0,.st3,.st4{fill-rule:evenodd;clip-rule:evenodd;fill:#f9c620}.st3,.st4{fill:#2d3492}.st4{fill:#fff}</style><path d="M189.3 203.8h321.3v339c0 31.1-25.7 56.5-57.3 56.5H357l-7 9.1-6.2-9.1h-97.2c-31.6 0-57.3-25.4-57.3-56.5v-339z" class="st0"/><path d="M189.3 198.4h46.3l8.6 10.4h-49.8v64.8L184 261.1V198.4h5.3zm280.4 0h46.4V267.5l-10.4 12.9v-71.5h-44.5l8.5-10.5zM516 540.7v2.1c0 16.9-7.2 32.4-18.5 43.6-8.8 8.6-20.4 14.7-32.9 16.9l-8-9.4c13.1-.8 24.9-6.4 33.7-15 9.4-9.4 15.3-22.2 15.3-36.1v-15l10.4 12.9zm-275.8 63.4c-14.5-1.3-27.9-8-37.8-17.7-10.4-10.4-17.1-24.1-18.2-39.4l10.2-12.6v8.3c0 13.9 5.9 26.8 15.3 36.1 9.6 9.1 22.5 15 37 15h2.1l-8.6 10.3z" style="fill-rule:evenodd;clip-rule:evenodd;fill:#231f20"/><path d="M465.4 203.8h45.3V274L404.1 404.1l106.6 130.1v8.6c0 28.7-22 52.5-50.1 56l-107.9-132L244.5 599c-30.5-1.1-55.2-26-55.2-56.2v-1.9l112.2-136.8-112.2-136.6v-63.7h50.6l112.7 137.6 112.8-137.6z" style="fill-rule:evenodd;clip-rule:evenodd;fill:#267946"/><path d="M189.3 198.4H516v344.4c0 16.9-7.2 32.4-18.5 43.6-11.2 11-27 17.9-44.2 17.9h-91.6l-5.1 9.1-6.7 12-7.2-12-5.1-9.1h-91c-17.1 0-32.9-7-44.2-17.9-11.2-11.2-18.5-26.8-18.5-43.6V198.4h5.4zm316.3 10.5H194.4v333.9c0 13.9 5.9 26.8 15.3 36.1 9.6 9.1 22.5 15 37 15h98l2.1 3.7 3.2 6.2 3.5-6.2 2.1-3.7h97.7c14.5 0 27.3-5.9 37-15 9.4-9.4 15.3-22.2 15.3-36.1V208.9z" class="st3"/><path d="m508.3 170.8-3.7 11.2c2.7 1.6 4.3 4 4.8 6.2.3 1.1 0 2.1-.3 3.2-.3.8-1.1 1.9-1.9 2.4-2.1 1.6-5.4 1.9-9.9.3-50.1-19.3-100.2-29.2-150-29.5-50.3-.5-100.4 8.6-150.5 26.8-4.3 1.6-7.8 1.3-9.6-.3-1.1-.5-1.6-1.6-2.1-2.7-.3-.8-.3-1.9 0-3.2.5-2.4 2.7-5.4 6.7-7h.5l-3.7-11h-.3c-4.6 1.9-8 1.3-10.2-.3-1.1-.5-1.6-1.6-2.1-2.7-.3-1.1-.3-2.1 0-3.2.5-2.9 2.9-5.9 7.2-7.5l-48.7-62.9h-.8c-1.6-.3-2.7-.8-3.5-2.1l-.3-.3c-.5-1.3-.3-2.9.5-4.6h.3L121 72l-10.2-12.3-1.3-1.6 1.9-1.1 10.4-4.6 2.4-1.1v5.9l5.1-2.4V49l1.1-.3 13.7-5.9 2.4-1.1v5.4l4.6-1.9V37h14.2v16.9l-1.1.5-1.1.3v14.2h.8c1.6.3 2.9 1.1 3.7 2.7v.3c.5 1.3.3 2.7-.8 4-.3.8-1.1 1.3-1.9 2.1l3.2 3.2 14.7-2.1 1.9-.3v8.1l9.4-2.4V74.9l1.3-.3 13.1-3.5 2.4-.8v9.4l9.6-2.4V68l1.3-.3 13.7-3.7 2.1-.5V74.2l10.2-2.7v-8.8l1.1-.3 12.1-3.2.3-4.8h-.3c-1.6.3-3.2-.3-4.6-1.1-1.1-1.1-2.1-2.7-2.1-4.3-.3-1.9.3-3.2 1.3-4.6.8-1.1 2.4-2.1 4-2.1l-3.2-9.9-17.9-15.3-3.5-2.9h18.5l-.3 1.6v1.9l5.9-1.3V9.9H273v4.6l8.8-2.1V6.7h13.6l-.5 2.1-.5 2.4h6.4V3.8H317.2l-1.1 2.4-14.2 31.1c1.1.3 2.4.5 3.2 1.3 1.3 1.1 2.1 2.4 2.4 4.3.3 1.6-.3 3.2-1.3 4.6-.5.8-1.3 1.3-2.4 1.6l2.4 7h13.7v9.6h9.4v-9.9h15.3v9.6h6.4v-9.6h15.3v9.9h9.4V56h15l2.4-7c-1.1-.3-1.9-.8-2.4-1.6-1.1-1.3-1.6-2.9-1.3-4.6.3-1.9 1.1-3.2 2.4-4.3.8-.8 2.1-1.1 3.5-1.3l-14.5-31-1.1-2.4h16.4v7.5h6.4l-.5-2.5-.5-2.1h13.6v5.6l8.8 2.1V9.9h14V16.1l5.9 1.3v-3.5H462l-3.5 2.9-17.9 15.3-3.2 9.9c1.6 0 3.2 1.1 4 2.1 1.1 1.3 1.6 2.7 1.3 4.6 0 1.6-1.1 3.2-2.1 4.3-1.3.8-2.9 1.3-4.6 1.1h-.3l.3 5.1 10.7 2.9 1.3.3v8.8l9.9 2.7V63.2l2.1.5 13.9 3.7 1.3.3V77l9.6 2.4V70l2.1.8 13.1 3.5 1.3.3V84.2l9.4 2.4v-8.1l1.9.3 22 2.1.3-.3c-.8-.5-1.6-1.3-1.9-1.9-1.1-1.3-1.3-2.9-.8-4.3v-.3c.8-1.3 2.1-2.1 3.8-2.4.3 0 .5 0 .8-.3V57.8l-1.1-.5-1.1-.5V39.9h14.2v8.3l4.6 2.1v-5.6l2.4 1.1 13.7 5.9 1.1.5V57.9l5.1 2.4v-5.8l2.4 1.3 10.4 4.6 1.9.8-1.3 1.9L579 75.2l-9.6 11.5s0 .3.3.3c.8 1.3 1.1 2.9.5 4.3l-.3.5c-.8 1.1-1.9 1.9-3.5 2.1h-.8L515 158.8c1.9 1.6 2.9 3.5 3.5 5.1.3 1.3.3 2.4-.3 3.5-.3 1.1-1.1 1.9-1.9 2.7-1.9 1.3-4.6 1.8-8 .7z" class="st4"/><path d="m159.3 120.2 26.2 34 18.2-6.7c-6.1-14.7-13.3-28.9-44.4-27.3zM540.7 123.2l-26.2 34-18.2-6.7c6.1-14.7 13.3-28.9 44.4-27.3zM311.4 126.7c-18.2-54.4-29.7-53-34 4.3l34-4.3zM385.6 126.7c18.2-54.4 29.7-53 34 4.3l-34-4.3z" class="st3"/><path d="m563.2 65.9 13.9 6.2 7.8-9.6-5.6-2.4v5.6l-2.4-1.1-8.8-4-.8-.3V54.4L557 50.1v5.6l-2.4-1.1-8-3.7-1.1-.3v-7.2h-7.2v11.2l1.1.5 23.8 10.8zM244.5 17.4l5.4 4.6v-4.5h-5.4v-.1zM305 22l7-14.7h-7.5v7.5H290l.5-2.1.5-2.4h-5.6V15l-1.3.3-12.1 3.2-2.4.5V13.7h-7v5l-1.3.3-9.1 2.4-2.1.5 8 7L305 22zM134.2 80.9l24.9-11.2c.3 0 .3 0 .5-.3V56.2L139 65.6l-13.9 6.2 8 9.6.5-.3c.3 0 .6-.2.6-.2zm25.4 12-6.2-9.6 8.3-3.7 8.3 8.8-10.4 4.5zm-14.5 5.9 11.2-4.6-6.4-9.4-11.8 5.4 7 8.6zm21.2 10.2c-3.5 1.3-7 2.4-10.7 3.7l8.8 11.2c3.2-1.1 6.4-2.1 9.6-3.2l-7.7-11.7zm13.9-4.3 8.3 11.8c-3.7 1.1-7.2 2.1-11 3.2l-7.8-11.8c3.6-1.1 7-2.1 10.5-3.2zm4-1.3c-.3 0-.3.3-.5.3l8.3 11.8c.8-.3 1.9-.5 2.7-.8l-10.5-11.3zm-10.4-.6c2.7-.8 5.1-1.6 7.8-2.1l-8.8-9.6-5.4 2.4 6.4 9.3zm-10.7 3.5c2.4-.8 4.8-1.6 7.2-2.1l-6.4-9.4-7 2.9 6.2 8.6zm-9.7 3.5-6.2-8 6.4-2.7 5.9 8.6c-1.8.5-3.9 1.3-6.1 2.1zm56.8 34.5-7.8-10.7c-8.3 2.1-16.6 4.6-24.9 7l9.1 11.8c7.8-2.7 15.8-5.4 23.6-8.1zm.3-12.8 9.4 9.9c-1.9.8-4 1.3-6.2 1.9l-7.5-10.7c1.3-.3 2.9-.8 4.3-1.1zm-35.4 6.1-8.3-10.7c10.2-3.5 20.4-6.4 30.5-9.4l10.4 11c-10.9 2.7-21.6 5.9-32.6 9.1zm40.5-28.3-3.2-13.7c-8 2.1-16.3 4.3-24.4 6.7l10.7 11.2c5.6-1.3 11.2-2.9 16.9-4.2zm12.3 29.9-2.7-11.2c-3.7.8-7.2 1.6-10.7 2.4l9.1 9.9c1.6-.2 2.9-.5 4.3-1.1zm.5-12 2.9 11.2c5.4-1.6 11-2.9 16.6-4l-2.1-10.7c-5.6 1.1-11.5 2.4-17.4 3.5zm6.5-4.8-2.7-13.1c-10.2 2.1-20.6 4.6-30.8 7.2l10.2 11c7.7-1.9 15.5-3.5 23.3-5.1zm19.8-3.8-1.1-13.4c-5.9 1.1-12.1 2.1-17.9 3.2l2.7 13.4c5.3-1.3 10.9-2.1 16.3-3.2zm-12.6-15c-7.8 1.6-15.5 3.2-23.3 4.8l-2.9-13.7c7.8-1.9 15.8-3.5 23.6-5.1l2.6 14zm57.6-7.5-1.1-14.7c-6.7.5-13.7 1.3-20.4 2.1l1.6 14.5c6.7-.8 13.4-1.6 19.9-1.9zm-38.9-13.6c-25.2 3.7-50.3 9.6-75.5 16.9l-14.5-15.3 10.4-1.3v8.5l2.1-.5 12.9-3.5 1.3-.3V77.4l9.9-2.7V84l2.1-.5 13.1-3.5 1.3-.3v-9.3l10.2-2.7V78.4l2.1-.5 13.7-3.7 1.3-.3v-8.8l9.6-2.7v20.1zm-.2 18.2.3-14.7c-5.9.8-12 1.9-17.9 3.2l2.4 13.9c5-.8 10.1-1.9 15.2-2.4zm-.3 17.1.3-13.7c-1.1 0-2.4.3-3.5.5l1.1 13.4c.8.1 1.3.1 2.1-.2zm-.3 14c-2.9.5-5.9 1.3-8.6 1.9l-2.1-10.4c3.8-.5 7.2-1.1 11-1.9l-.3 10.4zm4.3-46.4-.3 14.7c4.3-.8 8.3-1.3 12.3-1.9l-1.6-14.5c-3.4.7-6.9 1.2-10.4 1.7zm3-16-2.7.3-.3 12.3c1.3-.3 2.9-.5 4.3-.8l-1.3-11.8zm10.1-1.4-6.7.8 1.3 12.1c2.1-.3 4.3-.8 6.4-1.1l-1-11.8zm7.5-.8-4 .5 1.1 11.8c1.3-.3 2.9-.3 4.3-.5l-1.4-11.8zm7.3-.8-3.7.5 1.3 11.8c1.1-.3 2.4-.3 3.7-.5l-1.3-11.8zm8.3-.8-4.8.5 1.3 11.8c1.6 0 3.5-.3 5.1-.3l-1.6-12zm9.3 11.3-4-12-1.9.3 1.6 12.3c1.4-.4 3-.4 4.3-.6zm6.2 18.2-4.8-14.7c-3.2.3-6.2.5-9.1.8l1.1 14.7c4.2-.6 8.5-.8 12.8-.8zm10.2 28.9-2.9-8.6c-19.8.8-39.6 2.7-59.4 5.4l-.3 10.4c20.8-4 41.7-6.4 62.6-7.2zm-11.5-25.5 1.1 13.7c2.1 0 4-.3 6.2-.3l-4.6-13.7c-1.1.3-1.9.3-2.7.3zm-46.4 18.3c-1.6.3-2.9.3-4.6.5l.3-13.7c1.1-.3 2.1-.3 3.2-.5l1.1 13.7zm2.4-14.2c13.4-1.9 26.8-2.9 40.4-3.8l1.1 13.7c-13.4.8-27 1.9-40.4 3.7l-1.1-13.6zm66.4 21.1v-8.6c-3.5 0-7 0-10.4.3l2.9 8.6c2.5-.3 5.1-.3 7.5-.3zm-9.9-11.8h-1.6l-4.8-13.7c2.1 0 4.3-.3 6.4-.3v14zm30 12.1v-8.6c-2.7-.3-5.4-.3-8-.3h-8.6v8.6h6.7c3.2 0 6.7 0 9.9.3zm-11.5-12.3v-14c-4.8 0-9.9 0-15 .3v13.7h15zm3.8-14v13.9c5.4 0 11.2.3 17.1.5V98.3c-5.9-.3-11.8-.3-17.1-.6zm-14.2-3.4c-5.1.3-10.4.3-15.5.5l-5.1-14.7c7-.3 13.9-.5 20.6-.5v14.7zm3.7-15v15h10.2c2.9.3 5.9.3 9.1.3v-15H350c-3.5-.3-7.2-.3-11-.3zM447.2 22l5.4-4.6h-5.4V22zm-8.3 6.9 8-7-1.9-.5-9.4-2.4-1.3-.3v-5h-7V19l-2.4-.5-12-3.2-1.3-.3v-4.8H406l.5 2.4.5 2.1H392.6V7.2h-7.2L392 22l46.9 6.9zm-6.4 33h-.3.3zm-34 20.3-1.1 15c6.4.5 12.9 1.3 19.6 2.4l1.9-15c-6.8-.8-13.7-1.9-20.4-2.4zm-15.3-4.8c-11-.8-22.2-1.3-33.2-1.6-12.1 0-24.4.3-36.4 1.1l-5.9-17.4h8.9v9.9h16.3V59.2h8.3v9.6h13.5v-9.6h8.3V69.4h16.3v-9.9h10.2l-6.3 17.9zM377 95.6l5.1-14.7c-6.7-.5-13.7-1.1-20.4-1.1v15c5.2 0 10.3.3 15.3.8zm-5.6 16.9 4.6-13.7c-1.9 0-3.7-.3-5.9-.3v13.9c.5.1.8.1 1.3.1zm-4.3 11.8 2.9-8.3c-2.9-.3-6.2-.5-9.1-.5v8.6c2-.1 4.1.2 6.2.2zm18.8-43.2c2.9 0 6.2.3 9.1.8l-1.1 15c-4.5-.5-8.8-.8-13.1-1.3l5.1-14.5zm5.6-3.2 1.6-12.9-1.9-.3-4.2 13c1.6 0 2.9.2 4.5.2zm8.6.8 1.3-12.6-5.1-.5-1.3 12.6c1.6.3 3.5.5 5.1.5zm7.2.8 1.3-12.6-3.7-.5-1.3 12.9c1.3 0 2.6.2 3.7.2zm7.8 1.1 1.1-12.9-4-.5-1.3 12.9c1.5.2 2.8.2 4.2.5zm9.6 1.3 1.6-13.1-6.7-.8-1.1 13.1c1.9.3 4.1.6 6.2.8zm8 1.4-.3-13.7-2.7-.3-1.6 13.1c1.4.3 3 .6 4.6.9zm.3 18.7-.3-15.3c-3.5-.5-7-1.1-10.4-1.6l-1.9 15c4 .6 8.3 1.1 12.6 1.9zm.5 31.1-.3-10.2c-19.8-3.5-39.6-5.6-59.4-7l-2.9 8.6c20.9 1.4 41.8 4.3 62.6 8.6zM381.3 113c-2.1 0-4.3-.3-6.4-.3l4.6-13.7c1.1.3 2.1.3 2.9.3l-1.1 13.7zm43.9 5.1c-13.4-2.1-27-3.7-40.4-4.8l1.1-13.7c13.4 1.1 26.8 2.7 40.4 4.8l-1.1 13.7zm4.6-13.1c1.1.3 2.1.5 3.2.5l.3 13.9c-1.6-.3-2.9-.5-4.6-.8l1.1-13.6zm21.2.5 4-14.5c-6.2-1.3-12.6-2.4-18.7-3.7l.3 15.3c4.7 1 9.5 1.8 14.4 2.9zm7.5-13.6c8 1.6 16.1 3.5 24.4 5.6l-4 14.5c-8-2.1-16.1-4-24.4-5.9l4-14.2zm-21.7 26.2 2.9-11.2c-1.1-.3-2.1-.5-3.2-.5l.3 11.7zm7.5 17.4 2.7-10.2c-3.5-.5-6.7-1.1-10.2-1.9l.3 10.4c2.3.6 4.8 1.2 7.2 1.7zm20 5.4 2.9-11c-5.6-1.3-11.2-2.7-16.9-3.7l-2.9 10.2c5.7 1.5 11.3 2.8 16.9 4.5zm-5.8-16.6 3.5-12.9c-6.2-1.3-12.6-2.7-18.7-4l-3.5 13.1c6.1 1.1 12.5 2.4 18.7 3.8zm55.7-21.2c-26-8.3-52-14.7-77.9-19.3l-.3-21.1 8.3 2.4v8.8l1.3.3 13.7 3.7 2.1.5V67.7l10.2 2.7v9.3l1.3.3 13.1 3.5 2.4.5v-9.3l9.6 2.7V87l1.3.3 12.9 3.5 2.1.5v-8.5l17.4 1.6-17.5 18.7zm-13.7 14.7 11-11.8c-8.3-2.7-16.9-5.4-25.4-7.5l-3.7 14.2c6 1.6 11.9 3.3 18.1 5.1zm-12.9 13.7c-8.6-2.4-17.1-4.6-25.7-6.4l3.5-12.9c10.7 2.4 21.4 5.4 32.4 8.3l-10.2 11zm-12 12.8 9.4-10.2c-4.8-1.1-9.6-2.4-14.5-3.5l-2.9 11.2c2.6.7 5.3 1.5 8 2.5zm26-22.5-10.2 10.7c10.7 2.9 21.4 6.2 32.1 9.9l8.3-10.7c-10.1-3.7-20.1-6.9-30.2-9.9zm-16.1 25.8c-1.9-.8-4-1.6-6.2-2.1l9.4-10.2c1.6.5 2.9.8 4.6 1.3l-7.8 11zm11.2-10c8.3 2.4 16.3 4.8 24.6 7.5l-9.4 12.1c-.3-.3-.5-.3-.8-.5-7.5-2.9-15-5.6-22.2-8l7.8-11.1zm4.6 43.2c-51.4-20.1-102.8-30.3-154-30.8-50.6-.5-101.2 8.6-151.8 27l-3.8-10.7c51.7-18.7 103.6-27.8 155.6-27.3 52.2.5 105 10.7 157.5 30.8l-3.5 11zm7-10-3.7 11.2c2.7 1.6 4.3 4 4.8 6.2.3 1.1 0 2.1-.3 3.2-.3.8-1.1 1.9-1.9 2.4-2.1 1.6-5.4 1.9-9.9.3-50.1-19.3-100.2-29.2-150-29.5-50.3-.5-100.4 8.6-150.5 26.8-4.3 1.6-7.8 1.3-9.6-.3-1.1-.5-1.6-1.6-2.1-2.7-.3-.8-.3-1.9 0-3.2.5-2.4 2.7-5.4 6.7-7h.5l-3.7-11h-.3c-4.6 1.9-8 1.3-10.2-.3-1.1-.5-1.6-1.6-2.1-2.7-.3-1.1-.3-2.1 0-3.2.5-2.9 2.9-5.9 7.2-7.5l-48.7-62.9h-.8c-1.6-.3-2.7-.8-3.5-2.1l-.3-.3c-.5-1.3-.3-2.9.5-4.6h.3L121 72l-10.2-12.3-1.3-1.6 1.9-1.1 10.4-4.6 2.4-1.1v5.9l5.1-2.4V49l1.1-.3 13.7-5.9 2.4-1.1v5.4l4.6-1.9V37h14.2v16.9l-1.1.5-1.1.3v14.2h.8c1.6.3 2.9 1.1 3.7 2.7v.3c.5 1.3.3 2.7-.8 4-.3.8-1.1 1.3-1.9 2.1l3.2 3.2 14.7-2.1 1.9-.3v8.1l9.4-2.4V74.9l1.3-.3 13.1-3.5 2.4-.8v9.4l9.6-2.4V68l1.3-.3 13.7-3.7 2.1-.5V74.2l10.2-2.7v-8.8l1.1-.3 12.1-3.2.3-4.8h-.3c-1.6.3-3.2-.3-4.6-1.1-1.1-1.1-2.1-2.7-2.1-4.3-.3-1.9.3-3.2 1.3-4.6.8-1.1 2.4-2.1 4-2.1l-3.2-9.9-17.9-15.3-3.5-2.9h18.5l-.3 1.6v1.9l5.9-1.3V9.9H273v4.6l8.8-2.1V6.7h13.6l-.5 2.1-.5 2.4h6.4V3.8H317.2l-1.1 2.4-14.2 31.1c1.1.3 2.4.5 3.2 1.3 1.3 1.1 2.1 2.4 2.4 4.3.3 1.6-.3 3.2-1.3 4.6-.5.8-1.3 1.3-2.4 1.6l2.4 7h13.7v9.6h9.4v-9.9h15.3v9.6h6.4v-9.6h15.3v9.9h9.4V56h15l2.4-7c-1.1-.3-1.9-.8-2.4-1.6-1.1-1.3-1.6-2.9-1.3-4.6.3-1.9 1.1-3.2 2.4-4.3.8-.8 2.1-1.1 3.5-1.3l-14.5-31-1.1-2.4h16.4v7.5h6.4l-.5-2.5-.5-2.1h13.6v5.6l8.8 2.1V9.9h14V16.1l5.9 1.3v-3.5H462l-3.5 2.9-17.9 15.3-3.2 9.9c1.6 0 3.2 1.1 4 2.1 1.1 1.3 1.6 2.7 1.3 4.6 0 1.6-1.1 3.2-2.1 4.3-1.3.8-2.9 1.3-4.6 1.1h-.3l.3 5.1 10.7 2.9 1.3.3v8.8l9.9 2.7V63.2l2.1.5 13.9 3.7 1.3.3V77l9.6 2.4V70l2.1.8 13.1 3.5 1.3.3V84.2l9.4 2.4v-8.1l1.9.3 22 2.1.3-.3c-.8-.5-1.6-1.3-1.9-1.9-1.1-1.3-1.3-2.9-.8-4.3v-.3c.8-1.3 2.1-2.1 3.8-2.4.3 0 .5 0 .8-.3V57.8l-1.1-.5-1.1-.5V39.9h14.2v8.3l4.6 2.1v-5.6l2.4 1.1 13.7 5.9 1.1.5V57.9l5.1 2.4v-5.8l2.4 1.3 10.4 4.6 1.9.8-1.3 1.9L579 75.2l-9.6 11.5s0 .3.3.3c.8 1.3 1.1 2.9.5 4.3l-.3.5c-.8 1.1-1.9 1.9-3.5 2.1h-.8L515 158.8c1.9 1.6 2.9 3.5 3.5 5.1.3 1.3.3 2.4-.3 3.5-.3 1.1-1.1 1.9-1.9 2.7-1.9 1.3-4.6 1.8-8 .7zm-1.1-51.1c-1.1-.3-2.1-.5-2.9-.8l11-11.8c.3 0 .3.3.5.3l-8.6 12.3zm14.2 4.6c-3.5-1.1-7.2-2.1-10.7-3.5l8.6-12.3c3.5 1.1 7 2.4 10.4 3.5l-8.3 12.3zm11.5-11c3.5 1.1 7 2.4 10.4 3.7l-9.1 11.8c-3.2-1.1-6.2-2.1-9.4-3.2l8.1-12.3zM136.8 62.7l-13.9 6.2-7.8-9.4 5.6-2.7v5.9l2.4-1.3 8.8-3.8.8-.5V51.4l10.2-4.3v5.6l2.4-1.3 8-3.5 1.1-.5v-7h7.2v11.2l-1.1.3-23.7 10.8zm406.8 34.5 11.2 4.8 7-8.8-11.8-5.4-6.4 9.4zM530 91.6l10.4 4.3 6.4-9.4-8.6-4-8.2 9.1zm2.6 4.8-5.4-2.1-9.4 10.2c2.4.8 5.1 1.6 7.8 2.4l7-10.5zm10.5 4.6-7-2.9-7.2 10.2 7.2 2.4 7-9.7zm9.6 4-6.4-2.7-7 9.6c2.1.5 4.3 1.3 6.2 2.1l7.2-9zm-11.8-32.2c-.3-.3-.3-.3-.5-.3V59.4l20.6 9.1 13.9 6.2-8 9.6-.5-.3c-.3 0-.5 0-.5-.3l-25-10.9zm-373.3-1.3zm221.8-28.7zm-81.7 0zm224.7 31.6zM399 37.8l-5.4-12.1 43.1 6.4-3.2 9.4-34.5-3.7zm-135.5 3.7-3.2-9.4 43.1-6.4-5.4 12.1-34.5 3.7zm169 18.5-.3-6.2-6.4-.8v12.3l6.7.8V60zm-10.5-.6v-6.7l-17.9-2.1v12.3l17.9 1.9v-5.4zm-21.7-1v-8l-3.7-.5-2.9 8.3-1.1 3.5 7.8.8v-4.1h-.1z" class="st3"/><path d="m296.7 50.3 3.7-.5 4 11.8-7.8.8V50.3h.1zM275 52.8l17.9-2.1V63L275 64.8v-12zm-10.2 1 6.4-.8v12.3l-6.7.8.3-12.3zM135 82.5l24.9-11.2c2.7-1.1 5.4-.8 6.2.8.5 1.6-.8 4-3.5 5.4l-24.9 11c-2.7 1.3-5.4.8-6.2-.8-.8-1.7.8-4.1 3.5-5.2zM260 43.7l41-4.6c2.4-.3 4.8 1.3 5.1 3.7.3 2.7-1.6 4.8-4 5.1l-41.2 4.6c-2.4.3-4.6-1.6-4.8-4-.4-2.4 1.5-4.6 3.9-4.8zM437 43.7l-41-4.6c-2.4-.3-4.8 1.3-5.1 3.7-.3 2.7 1.6 4.8 4 5.1l41.2 4.6c2.4.3 4.6-1.6 4.8-4 .4-2.4-1.5-4.6-3.9-4.8zM565 85.4l-24.9-11c-2.7-1.3-5.4-.8-6.2.8-.5 1.6.8 4 3.5 5.1l24.9 11.2c2.7 1.1 5.4.8 6.2-.8.8-1.5-.8-3.9-3.5-5.3z" class="st4"/><path d="m581.6 635.5 4.6-8c-1.6-11 1.6-18.2 6.7-22 3.2-2.4 7.2-3.2 11-2.9 3.7.5 7.5 2.4 10.2 5.9 4.6 5.1 6.7 13.9 2.9 25.7l-.8 2.7c-.5 2.1-1.1 3.7-1.3 5.4-4.8 17.1-9.6 34-22.2 47.9l-.5.8h-.8c-7.8-.5-15.5-.5-23.3-.8-5.9 0-11.8 0-17.7-.3-26.8-1.1-53.6-1.6-80.1-1.3-26.5.5-53.3 2.1-79.8 5.9-7.2.8-14.2.8-21.2 1.1-6.4 0-12.9 0-19.3.8-6.4-.8-12.9-.8-19.3-.8-7-.3-13.9-.3-21.2-1.1-26.5-3.8-53.3-5.4-79.8-5.9-26.5-.3-53.3.3-80.1 1.3-5.9.3-11.8.3-17.7.3-7.8.3-15.5.3-23.3.8h-.8l-.5-.8c-12.6-13.9-17.4-30.8-22.2-47.9-.3-1.6-.8-3.2-1.3-5.4l-.8-2.7c-3.7-11.8-1.6-20.6 2.9-25.7 2.7-3.5 6.4-5.4 10.2-5.9 3.7-.3 7.8.5 11 2.9 5.1 3.7 8.3 11 6.7 22l4.6 8c5.4-.3 11-.5 16.1-.8h3.2c3.2-.3 6.7-.3 10.4-.5 46.9-2.1 91-4.3 133.4 1.3 11.2 1.3 22.2 1.9 32.9 2.1 12.1.5 23.8 1.1 35.6 2.9 11.8-1.9 23.6-2.4 35.6-2.9 10.7-.3 21.7-.8 32.9-2.1 42.3-5.6 86.5-3.5 133.4-1.3 3.7.3 7.2.3 10.4.5h3.2c5.2.2 10.8.5 16.1.8z" class="st0"/><path d="M141.1 645.6h-23v31.6h23.6v-5.6h-17.4v-8h15.5V658h-15.5v-6.7h16.8v-5.7zM153.2 670.8h-6.7v6.4h6.7v-6.4zM193.1 652.9c-.5-4.6-4.3-11-13.7-11-8 0-14.5 5.6-14.5 16.6 0 10.7 6.2 16.3 14.5 16.3 7.8 0 12.3-4.8 13.7-11.5h-6.7c-.8 3.7-3.2 5.9-7 5.9-5.4 0-7.8-5.1-7.8-10.7 0-8.8 4.8-11 7.8-11 5.6 0 6.4 3.5 7 5.4h6.7zM204.1 667.6h-6.7v6.4h6.7v-6.4zM229.5 667.6c0 3.7 1.9 10.4 13.4 10.4 2.7 0 12.3-.8 12.3-10.4 0-5.6-3.7-7.2-8-8.3l-7.8-1.9c-1.3-.3-3.2-.8-3.2-3.2 0-2.9 2.9-3.7 5.4-3.7 5.6 0 6.2 3.2 6.4 4.6h6.2c0-3.7-2.4-10.2-12-10.2-10.2 0-12.1 6.2-12.1 9.6 0 7 4.8 8 9.9 9.4l3.5.8c3.2.8 5.6 1.3 5.6 3.7 0 3.5-3.5 4-6.7 4-5.6 0-6.4-3.2-6.7-4.8h-6.2zM270.7 672.1h11.8l1.9 6.4h7.2l-11.2-31.3h-7.5l-11.2 31.3h7l2-6.4zm5.9-17.6 4 12.3h-8l4-12.3zM367.9 668.4c0 14.7 11 16.6 15 16.6 4.3 0 15.3-1.9 15.3-16.6 0-14.7-11-16.6-15.3-16.6-4 0-15 1.9-15 16.6zm6.7 0c0-8.8 4.8-11 8.3-11 3.7 0 8.6 2.1 8.6 11 0 8.8-4.8 11-8.6 11-3.4 0-8.3-2.2-8.3-11zM321.1 673l-12.6-21.7h-7v31.3h6.2v-22.5l12.8 22.5h6.7v-31.3h-6.1V673zM351.9 658.2h9.6v-5.6h-25.4v5.6h9.6v25.7h6.2v-25.7zM476.1 666h-.2l-12.4-22h-6.9v31.6h6.1v-22.5l12.9 22.5h6.7V644h-6.2v22zM426.1 671.9h11.5l2.1 6.4h7l-11-31.3h-7.5L417 678.3h7l2.1-6.4zm5.8-18 3.8 12.6h-7.8l4-12.6zM494.6 676.4h13.7c10.2 0 12.9-9.6 12.9-16.3 0-5.9-2.1-15-12.6-15h-13.9v31.3h-.1zm6.4-25.7h6.4c2.7 0 7 .5 7 9.9 0 5.1-1.6 10.4-7 10.4H501v-20.3zM531 678.3h6.4V666h6.7c5.1 0 5.4 1.6 5.4 5.9 0 3.2.3 4.8.5 6.4h7.2v-.8c-1.3-.5-1.3-1.9-1.3-6.4 0-5.9-1.3-6.7-4-7.8 3.2-1.1 4.8-4 4.8-7.5 0-2.7-1.3-8.8-9.9-8.8H531v31.3zm6.5-17.7v-8.3h8.3c3.7 0 4.6 2.4 4.6 4 0 3.2-1.6 4.3-5.1 4.3h-7.8zM584.3 641.1h-6.7l-4 6.2h4.3l6.4-6.2zm3.8 9.4h-23.3v31.3h23.8v-5.4h-17.4v-8.3h15.5v-5.4h-15.5V656h16.9v-5.5z" class="st3"/><path d="M347.3 135.5c53 .5 106.3 11 159.6 31.6 3.5 1.1 5.9 1.1 7.2 0l.8-.8c0-.5.3-1.1 0-1.6-.3-1.6-1.9-3.5-5.1-4.6-54.1-21.4-108.5-32.4-162.5-32.9-54.4-.5-108.7 9.4-163.1 29.7v.3c-2.9 1.1-4.6 2.9-5.1 4.6 0 .5 0 1.1.3 1.6 0 .3.3.8.8 1.1 1.1.8 3.5 1.1 7-.3 53.3-19.6 106.6-29.2 160.1-28.7z" class="st4"/><path d="M347.3 161.2c50.1.3 100.7 10.2 151 29.7 3.5 1.1 5.6 1.1 6.7.3.3-.3.5-.5.8-1.1v-1.3c-.3-1.3-1.9-3.2-4.6-4.3-51.4-20.4-102.8-30.5-154-31.1-51.4-.5-102.8 8.8-154.2 28.4-2.7 1.1-4.3 2.7-4.8 4.3 0 .5 0 1.1.3 1.3 0 .3.3.8.5 1.1 1.3.8 3.5.8 6.7-.3 50.4-18.4 101-27.5 151.6-27z" class="st4"/><path d="M613.2 634.7c4-11.2 2.1-19.5-1.6-24.1-2.4-2.7-5.4-4-8.3-4.6-2.9-.3-5.9.5-8.3 2.1-3.7 2.9-6.4 8.3-5.6 16.6h9.1c.3-.5.5-1.1 1.3-1.6.8-.8 1.9-.8 2.7-.8l1.1-1.3 2.7 2.1-1.3 1.6v.3c-.3 0-.3.3-.5.3-.3.3-.8.5-1.3.5h-.5l-.3-.3c-.5.5-.5.8-.8 1.3v8.6c3.9-.2 7.6-.5 11.6-.7zm-8.3-9.7zm0 0zm0 0zm0 0zm0 0zm0 0zm0 0zm-506.4 1.9c-.3-.5-.3-.8-.8-1.3l-.3.3h-.5c-.5 0-1.1-.3-1.3-.5-.3 0-.3-.3-.5-.3v-.3l-1.3-1.6 2.7-2.1 1.1 1.3c.8 0 1.9 0 2.7.8.8.5 1.1 1.1 1.3 1.6h9.1c.8-8.3-1.9-13.7-5.6-16.6-2.4-1.6-5.4-2.4-8.3-2.1-2.9.5-5.9 1.9-8.3 4.6-3.7 4.6-5.6 12.9-1.6 24.1 4 .3 7.8.5 11.8.8v-8.7h-.2zm491.2 1.3h8.3v7.2c-4 .3-8.3.3-12.3 0l3.7-7 .3-.2zm-8.1 7.3 4.6-8c-1.6-11 1.6-18.2 6.7-22 3.2-2.4 7.2-3.2 11-2.9 3.7.5 7.5 2.4 10.2 5.9 4.6 5.1 6.7 13.9 2.9 25.7l-.8 2.7c-.5 2.1-1.1 3.7-1.3 5.4-4.8 17.1-9.6 34-22.2 47.9l-.5.8h-.8c-7.8-.5-15.5-.5-23.3-.8-5.9 0-11.8 0-17.7-.3-26.8-1.1-53.6-1.6-80.1-1.3-26.5.5-53.3 2.1-79.8 5.9-7.2.8-14.2.8-21.2 1.1-6.4 0-12.9 0-19.3.8-6.4-.8-12.9-.8-19.3-.8-7-.3-13.9-.3-21.2-1.1-26.5-3.8-53.3-5.4-79.8-5.9-26.5-.3-53.3.3-80.1 1.3-5.9.3-11.8.3-17.7.3-7.8.3-15.5.3-23.3.8h-.8l-.5-.8c-12.6-13.9-17.4-30.8-22.2-47.9-.3-1.6-.8-3.2-1.3-5.4l-.8-2.7c-3.7-11.8-1.6-20.6 2.9-25.7 2.7-3.5 6.4-5.4 10.2-5.9 3.7-.3 7.8.5 11 2.9 5.1 3.7 8.3 11 6.7 22l4.6 8c5.4-.3 11-.5 16.1-.8h3.2c3.2-.3 6.7-.3 10.4-.5 46.9-2.1 91-4.3 133.4 1.3 11.2 1.3 22.2 1.9 32.9 2.1 12.1.5 23.8 1.1 35.6 2.9 11.8-1.9 23.6-2.4 35.6-2.9 10.7-.3 21.7-.8 32.9-2.1 42.3-5.6 86.5-3.5 133.4-1.3 3.7.3 7.2.3 10.4.5h3.2c5.2.2 10.8.5 16.1.8zm-471.3-7.3.3.3 3.7 7c-4 .3-8.3.3-12.3 0v-7.2h8.3v-.1zM330.7 692c-7-.3-13.9-.3-20.9-1.1-26.5-3.8-53.3-5.4-80.1-5.9-26.5-.5-53.3.3-80.1 1.3-5.9.3-11.8.3-17.7.3-7.5 0-15 .3-22.5.5C97.6 674 93.1 657.6 88.5 641c-.3-.8-.5-1.9-.8-2.9 15.3 1.6 31.6.8 46.9.3 1.3-.3 2.7-.3 3.2-.3 3.8-.3 7-.3 10.2-.5 46.9-2.1 91-4.3 132.8 1.1 11.5 1.6 22.5 2.1 33.5 2.7 12.1.3 23.8.8 35.3 2.7h.6c11.5-1.9 23.3-2.4 35.3-2.7 11-.5 22-1.1 33.5-2.7 41.8-5.4 86-3.2 132.8-1.1 3.2.3 6.4.3 10.2.5.5 0 1.9 0 3.2.3 15.3.5 31.6 1.3 46.9-.3-.3 1.1-.5 2.1-.8 2.9-4.6 16.6-9.1 32.9-20.9 46.1-7.5-.3-15-.5-22.5-.5-5.9 0-11.8 0-17.7-.3-26.8-1.1-53.6-1.9-80.1-1.3-26.8.5-53.6 2.1-80.1 5.9-7 .8-13.9.8-20.9 1.1-6.4 0-12.9 0-19.3.8-6.2-.8-12.7-.8-19.1-.8z" class="st3"/></svg>