<svg xmlns="http://www.w3.org/2000/svg" xml:space="preserve" width="595" height="664"><path d="M472.776 81.604c-3.174 1.72-6.348 3.439-9.523 5.157-44.693 23.275-98.647 34.911-161.854 35.043-63.342-.132-117.295-11.768-162.123-35.043-3.174-1.718-6.347-3.437-9.389-5.157l-81.855 88.203c48.136 35.439 46.416 92.3-5.157 170.585-31.738 47.87-39.142 97.855-22.217 149.958 21.157 65.326 71.938 100.5 152.469 105.657 50.119 3.174 92.833 20.761 128.271 52.895 35.308-32.134 78.02-49.721 128.137-52.895 80.531-5.157 131.312-40.331 152.471-105.657 16.793-52.103 9.521-102.088-22.087-149.957-51.701-78.285-53.422-135.146-5.29-170.585l-81.853-88.204z"/><path fill="#FFF" d="M134.647 95.622c-.926-.397-1.852-.925-2.778-1.454l-69.027 74.581c44.696 38.482 40.861 97.592-11.635 177.065-3.043 4.627-5.952 9.389-8.465 14.018l378.593-244.903c-35.439 11.241-75.507 16.794-119.938 16.926-65.061-.132-120.601-12.165-166.75-36.233M274.687 359.964l-53.689 34.646v199.019c19.043 5.155 36.895 12.824 53.557 22.743l.132-256.408zM381.929 290.539l-53.688 34.647v291.185a208.05 208.05 0 0 1 53.688-22.877V290.539zM167.309 429.389l-53.689 34.646v110.151c15.87 5.819 33.722 9.521 53.689 11.373v-156.17zM59.933 498.812l-19.571 12.563c5.421 10.313 11.902 19.568 19.571 27.901v-40.464zM489.307 221.116l-53.819 34.646V585.56c19.966-1.853 37.819-5.685 53.687-11.503l.132-352.941zM551.459 345.814c-3.043-4.495-5.952-9.124-8.596-13.488v206.817c12.958-14.147 22.876-31.472 29.619-51.837 15.87-49.189 8.862-96.267-21.023-141.492M444.346 132.384c-1.454-3.57-4.627-4.364-9.388-2.115l-69.954 46.283c-4.23 4.495-6.348 8.992-6.612 13.62v78.152c1.456 9.786 6.083 12.431 14.02 8.198l61.355-38.877c5.554-4.76 9.125-11.239 10.579-19.307v-36.099l-31.076 18.908v22.879l-17.188 11.503c-1.985 1.059-3.44.926-4.234-.396-.66-1.059-.926-3.041-1.058-6.217l-.659-39.934c.263-2.248 1.057-4.099 2.378-5.422l18.249-13.487c3.969-3.176 6.082-3.042 6.349.264v4.23l27.24-18.116v-24.067zM287.117 251.794l19.306-12.563v-26.182l-91.244 59.242v19.704l12.695-7.671v65.194l-12.298 8.33.264 18.511 60.301-38.083v-18.909l-16.002 10.315v-24.596l15.737-10.183v13.224l16.266-10.843v-40.861l-14.943 10.313v7.407l-17.456 10.049v-20.761l21.687-14.414zM196.931 388.394v-24.993l-26.051 16.397v25.787zM313.562 287.895v25.653l26.051-17.057v-24.993zM150.913 319.499c-1.984-1.057-4.893-1.19-8.994-.132l-64.663 40.067c-6.744 4.363-9.785 8.859-8.992 13.621l.132 33.983c.528 5.157 2.381 7.936 5.555 8.198 3.305.398 8.066-1.718 14.413-6.214l26.978-17.19c5.156-1.984 8.33-1.852 9.387.397v22.08l-21.687 14.55c-3.57 1.981-5.025.528-4.495-4.233v-12.298l-30.283 18.779v23.009c-.132 9.652 3.966 12.562 12.298 8.595l65.458-42.183c5.685-3.042 8.329-9.521 8.198-19.177l-.396-31.604c-4.629-6.743-11.77-8.066-21.291-3.702l-28.696 17.587c-2.777 1.059-4.363-.131-4.892-3.173v-9.919c-.265-1.454 0-2.909.926-4.232.926-1.321 2.513-2.775 5.158-4.494l14.015-8.991c3.307-1.852 5.423-1.457 6.084 1.454v7.273l29.092-17.984v-18.779c-.793-2.642-1.852-4.362-3.305-5.288M487.985 202.336v-25.124l-26.051 16.397v25.787z"/><path d="M232.105 189.511c0-17.324-6.215-32.134-18.38-44.299-12.299-12.299-27.108-18.514-44.299-18.382-17.324-.132-32.002 6.083-44.3 18.382-12.299 12.165-18.382 26.975-18.382 44.299 0 17.19 6.083 32 18.382 44.299.793.661 1.586 1.455 2.38 2.116 11.768 10.842 25.653 16.265 41.92 16.265 17.191 0 32-6.215 44.299-18.381 12.166-12.299 18.38-27.109 18.38-44.299m-65.589-56.598c1.058-.132 1.984-.132 3.041-.132 6.613 0 12.562 1.057 18.382 2.909.131.133.131.265.131.398 15.208 27.109 16.53 50.381 4.365 69.555-.132-.131-.397-.131-.66-.264 3.041-26.447-5.29-50.646-25.259-72.466m21.82 76.301c.66 0 1.454 0 2.247.132.927.133 1.72.396 2.381.795.264.263.53.528.794.924v.133c0 .264.131.528 0 .925-.133.661-.53 1.454-1.323 2.247-.397.53-.793 1.059-1.322 1.455-1.19 1.058-2.777 1.984-4.628 2.645-2.248.794-4.366 1.191-6.348 1.191-.264-.133-.529-.133-.793-.133-1.455-.264-2.381-.793-2.91-1.719-.397-.926-.264-1.85.661-3.042 0 0 .133-.131.133-.264h.132c1.322-1.719 3.437-3.041 6.083-4.099a16.504 16.504 0 0 1 4.893-1.19m-3.042-3.571c-1.19.265-2.116.531-3.305 1.058-2.645.926-4.761 2.248-6.48 3.835-29.754-5.289-44.432-26.182-44.168-62.811 8.068-7.406 17.324-12.167 27.638-14.019 21.158 21.555 29.751 45.49 26.315 71.937m39.804-27.638c-.265.794-.53 1.72-.793 2.645-5.555 16.398-14.547 25.919-26.978 28.564 12.961-19.44 12.696-42.712-.661-69.556 4.629 2.512 8.861 5.818 12.828 9.785 8.33 8.199 13.486 17.72 15.604 28.562m-15.208 51.046-.396.395c-6.877 6.877-14.678 11.637-23.407 14.283 3.968-6.217 5.289-13.621 4.233-22.613.395-.133.793-.397 1.19-.662 6.082 4.892 12.298 7.802 18.38 8.597m-13.884-12.697c.264-.395.527-.66.66-1.057 12.96-1.72 22.746-9.52 29.49-23.408-.398 11.77-4.233 22.217-11.108 31.342-6.349.265-12.695-1.985-19.042-6.877m-22.348 5.554c.395.133.661.397 1.189.662-9.917 8.331-24.86 10.843-44.696 7.273a1.809 1.809 0 0 1-.528-.397c-5.158-5.158-8.992-10.58-11.77-16.662 18.382 10.977 36.895 14.017 55.805 9.124m8.727 1.72v-.132c.661 0 1.454-.132 2.115-.265.926 9.389-1.718 16.926-7.933 22.481-2.248.132-4.629.264-7.01.396-11.108-.132-21.157-2.909-30.017-8.596 19.306 1.322 33.588-3.306 42.845-13.884m-67.704-20.1c-1.191-4.497-1.721-9.125-1.721-14.15 0-13.357 4.1-25.124 12.431-35.308 1.322 35.441 16.926 56.071 46.811 62.021-19.571 4.892-38.745.792-57.521-12.563"/></svg>