<svg xmlns="http://www.w3.org/2000/svg" xml:space="preserve" width="542.789" height="542.249"><path d="M0 0v210.24l271.35 332.009L542.789 210.24V0z"/><path fill="#FFF" d="M3.6 3.6v205.379L271.35 536.49l267.841-327.511V3.6z"/><path d="M314.64 198.629v241.11l197.189-241.11z"/><path fill="#ED1C24" d="m30.96 198.629 197.28 241.11v-241.11z"/><path d="M30.96 28.439h480.87v144.54H30.96z"/><g fill="#FFF"><path d="M490.589 85.589v-15.12c0-11.07-9.089-20.16-20.16-20.16H419.49c-11.07 0-20.16 9.09-20.16 20.16v60.48c0 11.07 9.09 20.16 20.16 20.16h50.939c11.071 0 20.16-9.09 20.16-20.16V115.83h-20.16v10.079c0 2.79-2.249 5.04-5.04 5.04H424.53c-2.79 0-5.04-2.25-5.04-5.04v-50.4c0-2.79 2.25-5.04 5.04-5.04h40.859c2.791 0 5.04 2.25 5.04 5.04v10.08h20.16zM52.29 70.47v20.16c0 11.07 8.999 20.16 20.16 20.16h45.9c2.7 0 5.04 2.25 5.04 5.04v10.08c0 2.79-2.34 5.04-5.04 5.04H52.29v20.16h71.1c11.069 0 20.16-9.09 20.16-20.16v-20.16c0-11.07-9.091-20.16-20.16-20.16h-45.9c-2.79 0-5.04-2.25-5.04-5.04V75.51c0-2.79 2.25-5.04 5.04-5.04h66.06V50.31h-71.1c-11.161 0-20.16 9.09-20.16 20.16M239.129 50.31h-71.1v100.8h20.16v-40.32h50.94c11.071 0 20.07-9.09 20.07-20.16V70.47c0-11.071-8.999-20.16-20.07-20.16m0 35.279c0 2.79-2.339 5.04-5.04 5.04h-45.9v-20.16h45.9c2.701 0 5.04 2.34 5.04 5.04v10.08zM283.59 151.109h20.16V110.79h50.94V90.629h-50.94v-20.16h71.1V50.31h-91.26z"/></g></svg>