<svg xmlns="http://www.w3.org/2000/svg" xml:space="preserve" id="HQFL" x="0" y="0" style="enable-background:new 0 0 700 700" version="1.1" viewBox="0 0 700 700"><style>.st1{fill:#ee3124}.st3{fill:#fff}.st5{fill:#ed1c24}</style><path d="M350 700c-72.5-80.4-144.1-73.3-174.3-78.6C110.3 609.1 55.2 558.1 47 482.9c-14.9-131.4-6.2-251 23.5-344.5l-24.9-29.6V66.3C150.9 16.5 250.8 0 350 0c99.4 0 199.6 16.5 304.8 66.3v42.5l-26.7 29.6c29.6 93.5 40.2 212.5 25.3 344.5-8.8 75.2-63.3 126.2-128.8 138.5-30.1 5.3-101.8-1.8-174.6 78.6z" style="fill:#034ea2"/><path d="M134.4 574.6c-28.8-21.5-45.5-46.8-54.1-83.1-13.1-90.4-10.1-182.5 3-272.9l7.8-36.7L116.9 68l17.5-5.3c139.4-44.5 292.5-44.5 433.2 0l12.6 3.5c11.4 41.4 38 148.4 44.5 191.3 7.4 77.5 9.7 156.7-1.6 233.9-11.4 55.1-57.8 95.6-113.6 100.5-61.2 3.5-113.1 23.9-158.8 65.1-45.9-41.1-97.8-61.6-159-65.1-19.3-1.6-40.7-9.1-57.3-17.3z" class="st1"/><path d="M134.4 194.4h430.9v341.4l-211.2 75.6-219.7-75.6z" style="fill:#fff200"/><path d="M132.2 302.1h434.6v202.1H132.2z" class="st3"/><path d="M603.8 242.6c-10.4-53.7-24.9-108.8-38-162.1-17.9-6.6-36.8-12-56.1-16.5-48.4-11-100.1-15.8-146.8-17-4.2-.1-8.5-.3-12.7-.3-52.9-.5-105.5 6.9-157.1 18.7-21 4.9-41.7 10.4-62.1 16.5l-24.1 103.9c-11.2 56.6-16.6 114.7-17.5 172.8v28.5c.4 23.1 1.4 46.1 3 69l4.1 31.4c14.2 53.8 45.2 80 96.6 86.7 3.7.4 7.4.8 11.2 1.1 54.7 5.7 103.1 24.1 145.4 59l.4-.4c46.1-37.2 98.4-55.1 157.2-59.4.7-.1 1.5-.1 2.3-.3 17-1.8 32.9-8.8 47.9-16.4 62-44.9 53.3-109.6 55.9-183-1.7-43.7-2.1-89.6-9.6-132.2zM239.2 559.2c-14.9-.5-29.9-2.6-46.1-8.1-9.3-3.2-19.1-7.7-29.4-13.8-18-106.1-26.7-211.9-.4-313.5 10-3.9 19.9-6.5 29.8-8.4 15.6-3 31-4.5 46.1-6.9-48.8 116.5-42.7 233.1 0 350.7zm168 18.2c-21.8 10.6-41.8 23.7-57.1 35-15.3-11.9-34.5-26.7-57.2-37.6-30.6-119.2-50.6-233.2-.4-362.4 16-6.8 36.8-10.1 57.6-10.1 20.8 0 41.7 3.4 57.5 10.1 50.4 129.2 30.2 245.4-.4 365zm132.4-40.2c-10.6 6.2-20.4 10.7-29.9 13.9-16 5.4-30.8 7.4-45.6 8 42.8-117.6 49-234.2 0-350.7 15 2.4 30.2 3.8 45.6 6.8 10 2 20.2 4.6 30.4 8.5 24.9 107.9 15.7 213.6-.5 313.5z" style="fill:#00a651"/><path d="M350 153.4c83.3-.8 147.1 11 200.8 25.8-4.7-30.2-9.6-60.7-13.9-90.9C471.8 69.1 410.6 63.5 350 64.4c-60.2.8-121.9 6.9-187 26.1-4.3 30.2-9.1 60.7-13.9 90.9 53.7-14.9 117-27 200.9-28z" class="st1"/><path d="M526 138.1c-.8 4.7-1.6 8.7-2.6 11.8-.8 2.6-2.2 4.7-4.3 6.1-1.6 1.8-4.3 2.2-8.1 1.4-5.3-1.4-8.3-3.9-9.1-7.8-.9-3.9-.9-9.2 0-16.2v-.8l.8-6.6v-.8c0-.9.4-2.2.4-3.5.5-1.8.9-3 1.4-5.3.4-2.2.8-3.9 1.2-5.7.9-1.2 1.8-2.6 2.2-3.4 1.4-2.3 3.5-3.1 4.9-3.5 1.6-.4 3.4 0 5.1.4 3.8.4 6 2.6 7.7 5.3 1.4 3 2.2 6.1 2.2 9.2 0 3.4 0 7.3-.8 11.2l-1 8.2zM477.7 97.5l6.9 1.2 4.3 25.8 2.2 15.7c.4-8.3.4-13.9.8-17.5.5-3.5.5-7 .9-10.6l1.2-11.4 6.9 1.4-6 50.2-6.9-1.2-4.7-26.2-1.4-14.5c-.4 5.3-.8 10.1-.8 14.5-.5 4.7-.9 8.8-1.4 11.4l-1.2 12.7-7-1.4 6.2-50.1zM457 94l9.5 1.8 3.1 51.9-7.4-1.3-.4-13.1-8.2-1.3-3.5 12.2-6.9-1.3zM449.7 100.9l-8.2-1.2-3.4 43.2-6.5-.8 3-43.3-7.7-.8.4-7.9 22.8 3.4zM405.6 88.3l19.5 2.2-.4 7.9-12.6-1.8-.8 12.2 11.6 1.7-.4 7.5-11.6-1.2-1 15.7 12.6 1.3-.9 7.8-19-2.7zM383.8 87l9.4.4 7.7 51.1h-7.7l-1.4-13.1-8-.4-2.1 13.1h-7.3zM367.5 102.3c0-6.1-.9-9.2-3.1-9.2-3.4-.8-5.1 2.2-5.1 8.8l-.4 17.5c-.4 3.5 0 6.5.8 8.3.4 1.8 1.8 2.7 3 2.7 1.8 0 3.1-.9 3.5-2.7.4-1.2.8-4.3.8-8.7l7.4.4c-.5 3.5-.5 6.5-.9 9.2-.4 2.6-1.2 4.7-3 6.9-1.8 2.3-3.9 3.1-7.3 3.1-3.1 0-5.3-.8-7.4-2.2-1.6-1.8-3-3.9-3.4-7-.8-3-.8-7.4-.8-12.6l.4-8.8c0-5.7.4-10 1.2-13.5.5-3.1 2.2-5.3 3.5-7 2.2-1.2 4.3-2.2 7.3-2.2 3.9 0 6.9 1.8 8.3 4.3 1.6 3.5 2.6 7.4 2.2 13.1l-7-.4zM332 116.2c0 4.9 0 8.8-.4 11.9-.4 2.6-1.8 5.1-3 7.3-1.8 2.3-4.3 3.1-7.8 3.1-5.5.4-9.1-1.4-10.3-4.7-1.4-3.5-2.2-8.8-2.7-15.8v-1.2l-.4-6.2v-4.7c0-1.4.4-3.1.4-5.3 0-2.2.5-4.3.9-5.7 0-1.8.4-3 .8-3.9 1.8-2.6 3-4.3 4.3-4.7 1.8-1.4 3.5-1.4 5.1-1.4 3.9-.4 6.5.8 8.7 3.1 1.8 2.2 2.6 5.1 3.5 8.3.4 3.5.8 7.4.8 11.4v8.5zM282 84.8c0-1.8.4-3.9 1.8-5.7.8-1.8 2.6-2.6 3.8-2.6.9-.5 2.2 0 3.5.4 1.8.8 2.6 1.2 3 1.2 1.4 0 2.6-1.2 2.6-3l3.5-.4c-.8 5.1-2.2 8.3-5.1 8.7-.9 0-2.2-.4-3.9-.4-1.4-.8-3-1.4-3.9-1.4-.4 0-.8.5-1.2.9-.4.4-.4 1.2-.9 2.2H282zM286.7 87.9l9.5-.5 10.4 50.7-7.3.4-2.7-12.7-7.7.6-1.8 13-7.3.5zM269 106.2c-.4-6.1-1.6-9.2-4.7-8.7-.8.4-1.8.8-2.6 1.6-.4.9-.8 2.3-.8 3.5.4 2.2 1.2 4.5 3 5.7 2.2 1.4 3.9 2.7 6.1 4.5 2.2 1.2 3.8 3.4 5.1 4.7 1.8 2.2 2.6 4.3 2.6 6.5.9 5.7.4 10.1-1.2 13.1-1.8 3.1-4.3 4.9-7.4 5.3-3.8.9-6.9 0-9.5-1.8-2.2-1.8-3.9-5.7-3.9-11.8v-3.5l6.5-.8c0 .4 0 .8.4.8v.9c0 .4-.4.8-.4 1.2.4 5.3 2.2 7.8 5.3 7.8.8-.4 1.2-.8 2.2-.8 0-.4.8-1.4 1.2-2.2 0-.9.4-2.2 0-3.5 0-2.6-1.2-5.3-3.4-7-1.8-1.2-3.5-2.6-5.3-3.9-1.6-1.2-3-2.6-3.8-3.5-1.4-1.2-2.2-3-2.7-4.7-1.2-1.8-1.6-3.5-1.6-6.1 0-7.8 3-12.7 9.1-13.5 7.7-1.4 12 3.4 12.9 13.5v1.8l-7.1.9zM243.1 135.4l6.9-.8.8 9.2-6.9.8zM210.8 98.4l13.4-2.2c4.2-.4 6.9 1.4 9.1 5.3 2.2 3 3 10 3.4 19.2.4 3.9.4 7.4.4 10 0 2.6-.4 5.3-.8 7.4-.4 2.6-1.4 4.3-2.6 6.1-.9 1.4-3.1 2.6-5.3 3.1l-13.3 1.8-4.3-50.7zM200.4 142.5l6.9-.9.9 8.7-6.5 1.4zM174.1 107.2l9.5-2.3 14.6 48.5-7.3 1.2-3.5-12.1-8.1 2.1v13.1l-7.3 1.8z" class="st3"/><path d="m218.1 104.9 3 35.9 3.9-.8c1.8 0 3-1.4 3.4-2.7.9-1.2 1.4-3.4 1.4-5.7 0-2.6 0-6.1-.4-10.8-.4-6.2-1.4-10.6-2.2-13.1-.8-2.7-2.2-3.5-3.9-3.1l-5.2.3zM185.4 135.4l-4.4-16.5-1.7-7.8.4 8.2-.4 17.5zM390.6 117.6l-1.8-17.1-.4-7.8h-.4l-.9 7.8-2.6 17.1zM295.4 118l-3-16.5-1-8-.4 8-1.7 17zM314.7 102.7l.5 18.4c0 6.5 2.2 9.6 5.1 9.6 3.4 0 4.7-3.5 4.7-10l-.4-17.5c0-2.3-.4-4.9-.9-7-.8-2.2-2.6-3.5-4.2-3.5-1.8 0-3.1.8-3.9 2.6-.9 1.7-1.3 4.4-.9 7.4zM510.6 120.1l-2.2 18.4c-.9 6.1.4 10 3.8 10.6 3.1.8 5.3-1.8 6.1-8.4l2.2-17.5c.4-2.2.4-4.3 0-6.5-.4-3.1-1.8-4.5-3.5-4.9-1.6-.4-3 0-3.8 1.8-1.4 1.4-2.2 3.6-2.6 6.5zM461.4 125.8 461 108v-7.9l-1.4 7.9-4.3 16.6z" class="st5"/></svg>