<svg xmlns="http://www.w3.org/2000/svg" xml:space="preserve" width="612.039" height="685.595" viewBox="-400.819 263.502 612.039 685.595"><path fill="#231F20" d="M-94.8 263.502c67.3 83.763 167.041 104.583 306 124.918 1.452 245.961-79.89 442.538-306 560.677-226.595-118.14-307.453-314.715-306-560.677 138.475-20.335 238.699-41.155 306-124.918z"/><path fill="#D91A21" d="M-388.211 399.557c.968 233.857 79.405 420.75 292.927 534.531 213.522-113.781 291.959-300.674 292.927-534.531-44.544-6.779-90.057-14.042-133.633-25.662-40.671-11.136-80.373-26.63-114.75-50.839-16.462-11.62-31.471-24.693-44.544-39.218-13.557 15.01-28.083 28.082-44.544 39.218-34.861 24.209-74.079 39.703-114.75 50.839-43.576 11.62-88.605 18.883-133.633 25.662z"/><path fill="#231F20" stroke="#231F20" stroke-miterlimit="10" d="M-388.211 399.557c0 39.702 2.421 78.437 7.747 115.233L-238.6 369.053c-5.326 1.453-10.652 2.905-15.978 4.842-43.576 11.62-88.605 18.883-133.633 25.662z"/><path fill="#231F20" stroke="#231F20" stroke-miterlimit="10" stroke-width="2" d="M-358.192 619.373c9.684 31.471 21.304 61.975 35.829 90.541L17.045 358.401c-23.725-9.199-46.481-20.82-67.785-35.345-4.358-2.905-8.231-5.81-12.589-9.199l-294.863 305.516zM-273.461 786.898c17.915 23.24 37.766 44.544 60.522 65.363l411.066-426.076c.484-8.715.484-17.43.484-26.145-28.082-4.358-56.165-8.716-84.247-14.042l-387.825 400.9zM-140.765 908.975c15.009 9.683 30.503 18.883 46.965 27.598C63.558 852.325 147.805 728.86 181.213 575.86c-.484-.484-.969-1.452-.484-1.937l-321.494 335.052z"/><path fill="#FFDA00" d="M-254.094 505.591c-30.503-18.398-45.513-46.965-46.481-91.993 24.209-.969 38.25-8.231 46.965-18.883 8.231 10.167 20.82 15.494 45.997 16.946-1.937 48.417-15.494 75.531-46.481 93.93z"/><path fill="#231F20" d="M-40.572 559.335v9.684c0 10.651-.484 20.819 1.453 30.019.968 5.326 2.421 10.652 4.842 15.979 2.421 5.325 5.326 11.136 10.167 17.43 1.937 2.421 4.358 5.326 6.779 8.231 3.873 4.842 7.747 9.199 10.652 13.557l1.452 2.905c2.421 3.39 6.294 6.294 10.652 8.23 4.842 2.422 10.167 3.39 15.494 3.39 6.294 0 12.104-1.937 16.946-6.294 3.873-3.873 6.778-8.715 7.263-15.978.968-16.462-9.2-33.893-20.335-53.744-5.326-9.199-11.136-19.367-15.494-29.535-4.357-9.683-7.747-19.366-10.167-29.05-1.937-9.684-2.905-20.336-1.453-31.472.484-7.263 2.905-14.041 5.811-19.852 3.389-6.294 7.747-11.136 12.588-14.041 2.421-1.452 4.842-2.905 7.747-3.39 2.905-.968 5.811-.968 8.715-.968 10.168 0 19.367 4.842 26.146 14.525 5.81 8.23 9.684 19.851 9.684 34.376 1.937 1.938 3.874 5.811 5.326 9.684 1.937 4.842 3.873 10.168 4.842 14.525.968 3.39.968 7.263.968 10.652 0 3.389 0 6.778.968 9.684.484 1.937 1.453 4.357 2.421 6.778 1.937 4.842 4.358 10.651 4.842 18.398 0 1.937-1.937 2.905-3.389 1.937-1.937-1.452-2.905-2.421-4.357-2.904-1.937-1.453-2.905-2.422-6.779-4.842-.968-.484-2.421-1.453-4.357-2.422-.484 0-.484-.483-.968-.483-3.39-1.937-7.747-4.358-9.684-6.295-2.905-2.421-4.842-6.294-6.778-10.167-1.937-4.357-3.39-9.684-4.358-14.041-.968-4.842-.968-11.137-.484-16.946.484-5.811 1.452-11.62 2.905-14.525 0-1.453.968-3.39 1.937-5.326.968-1.937 1.452-4.357 1.452-5.326-.484-5.326-2.905-11.136-7.263-15.01-3.389-3.389-7.747-5.325-12.588-5.325-4.842.483-7.747 2.42-10.168 5.325-2.421 3.39-4.357 7.263-5.326 11.62-1.453 4.358-1.453 9.684-1.453 15.494.484 6.294 1.453 13.557 3.389 20.336 4.842 19.367 13.073 32.924 22.272 47.449 3.873 6.294 8.231 13.072 12.104 20.335 3.873 6.778 7.263 15.01 9.199 23.24 1.937 7.747 2.905 15.494 2.905 22.757-.484 13.072-5.326 24.209-13.073 32.439-7.747 7.747-18.398 13.073-30.987 13.073-4.842 0-9.199-.484-13.557-1.452-3.39-.969-6.778-2.421-9.684-4.357-.484 1.452-.484 2.42-.969 3.873-.484 1.937-.484 4.357 0 6.778.484 2.905 1.453 6.294 2.905 9.684 1.937 4.357 3.39 7.747 4.842 10.652 1.453 2.904 2.421 4.357 3.389 5.325.969.969 1.937 1.938 3.39 2.905 5.326 5.326 9.683 9.199 14.041 11.62.968.484 1.937.484 2.905.969 2.905.484 5.326 1.452 5.326 4.842 0 1.937-.484 3.39-.968 4.842-.484.969-.484 1.937-.968 2.905-.484 2.421-.969 4.842-1.453 7.747-.484 2.904-.484 5.325-.484 7.262 0 2.905.484 6.295 1.453 10.168s1.937 7.263 2.905 10.652c.484 1.452.968 2.905 1.937 4.357.968 2.905 2.421 5.811 3.873 10.652v.483c.484 0 .969.484 1.937.969 2.421 1.452 5.81 2.905 5.326 5.811 0 2.421-2.905 4.842-5.326 7.263-1.453 1.452-2.905 2.421-3.389 3.389 0 .484-.969.969-1.453.969h-7.263c-1.937 0-5.326 2.421-7.263 4.357-.484.484-1.453.969-1.453 1.453-2.421 1.937-7.263 2.42-11.62 1.452-3.389-.484-6.294-1.937-8.231-4.357-.968.483-1.937.483-2.905.483-1.453.484-2.905.484-4.357.484-1.937 0-3.874-.484-5.81-.968-.484 0-.969-.484-1.453-.484v.968c0 1.453 0 2.422.484 3.874 0 .968-.484 2.421-1.452 2.421-2.421.484-4.357.484-6.294-.484-1.452-.484-2.905-1.452-3.873-2.905-.969-1.452-1.937-2.421-2.421-3.873 0-.969-.484-1.452-.484-2.421-.484.484-.968.969-1.453 1.452l-.968.969c-1.453 1.452-2.905 1.937-4.842.484-1.937-2.421-2.905-5.811-3.389-9.2 0-4.357.968-8.23 1.937-10.167 0-.969.484-1.453.969-2.421v-.484c.484-1.452 1.452-3.39 3.389-5.326 1.937-1.937 5.326-4.357 10.652-6.778 2.905-1.452 10.168 4.357 15.494 3.873h1.453v-1.937c.484-17.431.484-23.24-3.39-29.051-1.937-2.421-3.873-4.357-6.294-5.81-2.421-1.453-5.326-2.905-8.715-3.874-5.81-1.937-11.136-4.357-16.462-6.778-5.326-2.421-10.167-5.326-15.009-8.23-11.62-6.778-18.399-15.979-22.757-26.63l-2.905-7.263c-2.905.968-7.263 2.905-13.073 4.842-.484 0-.484.484-.969.484-4.357 1.937-12.104 7.263-18.398 13.072-4.357 4.357-7.747 9.199-8.231 13.073-.484 2.905 0 5.326.484 7.746.969 7.747 2.421 14.525-9.684 23.726-.484 2.421-1.452 4.842-2.421 6.778-1.937 4.842-3.873 9.199-3.873 15.493 2.421 2.421 2.905 5.326 2.905 8.716 0 2.904-1.937 5.81-4.358 8.23s-4.842 3.873-7.747 3.873h-3.874c-1.937-.483-4.357-.483-4.842 0-7.263 3.39-13.073 3.874-16.946 3.39-3.874-.483-6.778-1.937-7.747-3.39-1.937.484-3.874 1.453-5.326 1.453h-.484c-.484 0-.968 0-1.452-.484l-3.39 2.905c-.484.484-1.452.484-1.937.484-1.937-.484-3.389-1.937-4.842-3.39-.484-.484-.484-.969-.968-1.452-.484 1.937-.968 3.389-2.905 3.873-1.453.484-4.357-.484-7.263-3.39-1.937-1.452-3.389-3.873-4.842-6.778v-.484c0-.483-.484-.968-.484-1.452v-.484c0-.484-.484-.968-.484-1.452-.484-.969-.968-1.452-1.453-2.421-.968-2.905-1.452-5.811-.968-8.715.484-2.905 1.453-5.811 3.389-8.231 1.937-2.421 4.358-4.842 7.263-6.294 2.905-1.453 6.294-2.421 9.2-2.421 5.326 0 9.199 2.421 13.073 4.842 3.389 1.937 6.778 3.873 9.683 3.873 1.453 0 2.421-.484 3.39-.969 1.452-.968 2.421-1.937 3.389-2.904.968-1.453.968-3.39.968-5.326v-11.136c0-3.39 0-6.779-.484-10.168 0-3.39 0-7.263-.484-10.652 0-7.263 0-14.525-1.453-21.788-.484-3.873-1.452-7.263-1.452-10.651-.484-6.295 0-13.073 1.937-19.367 1.937-6.295 5.326-12.589 10.652-18.398 14.042-15.01 33.893-15.979 57.133-17.431 1.452 0 2.905 0 4.841-.484-.484-.969-.968-2.421-1.937-3.39-4.842-9.199-12.104-16.462-20.82-25.177-12.104-11.62-26.146-25.661-39.218-50.354-3.389-.484-6.778-1.453-10.167-2.421-4.357-1.452-8.231-3.874-12.589-6.294-3.873-2.422-6.778-4.358-9.199-6.295-3.389-2.421-13.557-10.168-18.398-10.651-.969 0-2.905 1.452-4.358 3.389-1.453 1.453-2.905 2.421-3.874 3.39-2.421.969-4.357.969-5.326-1.452-.484-.969-.484-1.938-.484-3.874-.968.484-2.421.969-3.873 1.937-3.389 1.938-5.81 2.905-8.715 2.905s-5.326-.968-8.231-3.389c-3.389-2.905-6.779-6.779-9.684-10.652-2.905-3.873-5.326-7.747-6.294-10.652-.968-3.389-3.873-11.136.969-13.557-1.937-2.905-2.905-7.747-2.421-11.136 1.452-1.452 3.873-1.937 5.81-1.937-.484-1.938-1.937-5.811-2.421-7.747 1.937-1.937 6.778-2.421 7.747-2.421 0-.484-.484-.484-.484-.969-.484-1.937-.968-3.873-.968-5.81 5.326-3.874 18.398-1.937 19.367.968 1.937 1.937 3.389 4.357 4.357 7.263.484 1.937 1.452 3.874 1.937 5.811 1.453 4.357 2.421 8.231 4.842 10.168l.484.483c3.389 3.874 6.294 5.326 9.684 6.779 1.452.483 2.905 1.452 4.357 2.421 1.452.968 3.389 1.937 5.326 2.904 7.262 3.874 13.557 7.263 23.24 13.558.484-.484.968-.484 1.452-.969-.968-8.715-4.357-18.883-7.263-28.566-2.905-7.747-5.326-14.525-7.747-18.883-.968-1.937-1.453-3.39-1.937-4.842-.484-1.453-.969-2.421-3.389-3.873-.484-.484-.969-.484-1.937-.969-1.937-.969-3.389-1.453-3.874-3.873-.484-1.453 0-3.39 1.453-4.842l.484-.484c-1.937-1.453-4.358-2.905-5.81-4.842-2.905-3.39-5.326-7.747-7.263-12.104-.969-2.905-1.937-6.294-2.421-9.199-.484-3.874-.969-7.747-.969-10.652 0-.968.969-1.937 1.937-1.937 2.421 0 4.842 0 6.779.484v-.484c-.484-.969-.484-2.421-1.453-3.873-.484-1.453.484-2.905 1.937-2.905h5.326c.969 0 1.937 0 2.905-.484v-.484c-.484-1.452-.969-2.905-.484-4.357 0-.484.969-.968 1.453-1.452 2.905-.969 5.81-1.453 8.715-.969h1.453c0-.969.484-1.937.968-2.421 0-.484 1.453-.968 1.937-.968 2.905 0 5.326 0 7.263.483 1.937.484 3.873.969 5.81 1.937 1.937.969 3.389 2.422 4.842 3.874 3.389 3.873 5.81 8.715 6.778 13.557.968 5.326 0 10.168-2.421 15.01-.968 1.452-1.937 2.905-3.389 4.357l-1.453 1.452c-1.937 1.453-3.389 2.905-2.905 5.811 1.452 3.873 5.326 9.684 9.684 16.462 3.873 5.811 8.231 12.104 13.072 16.946 7.263-6.294 13.557-12.104 20.82-16.462 4.357-2.905 8.715-4.842 13.557-6.778-.484-.484 0-.484-.484-.484s-.969.484-1.453.484c-1.937.968-4.357 1.937-8.231 1.937-.968 0-1.453 0-2.421-.484-2.421-.968-3.873-2.421-4.357-4.357-.969-1.937-.969-3.873-.969-5.81 0-.969.484-1.938.484-2.905 0-.969-.484-1.937-.968-2.905-.484-1.453-1.453-3.39-1.453-5.326 0-2.905 2.905-4.842 5.326-6.778.484 0 .484-.484.968-.484.484-1.452.968-2.905 1.937-3.873l.484-.484c-1.453-.484-2.421-1.937-2.905-3.39-.969-1.452-.969-2.904-1.453-3.873l-.484-.484c-1.937-.969-4.842-2.905-6.294-9.199-.968-3.873 0-6.778.484-9.684.484-1.937.969-3.39.484-5.326-.484-2.421-.969-3.873.484-5.81.968-1.937 3.389-2.905 8.231-2.421 1.937 0 5.326-.484 8.715-1.937 2.905-.968 5.326-1.937 7.747-3.389 2.421-2.905 4.842-5.326 7.747-6.778 2.905-1.453 6.779-2.421 12.104-2.905.484 0 1.453 0 2.421-.484 2.421-.484 5.326-.968 8.231-.968.968-2.421 2.421-4.842 3.873-6.778 1.937-2.421 4.357-4.358 7.263-4.358 4.842 0 10.168 3.39 13.557 7.747 1.937 2.421 2.905 4.842 3.874 7.747.484 1.452.484 3.389.484 4.842 0 .484.484.484.484.968.484 1.937 1.937 3.874 3.39 5.326.968 1.453 2.421 2.421 3.873 3.39 2.421.968 5.326 2.905 7.263 5.326 2.421 2.421 4.842 5.325 6.779 7.746.968 1.453 1.452 3.39 2.42 4.842.484.969.484 1.937.969 3.39.968 1.937 1.937 3.389 3.873 4.842 1.937 1.452 3.874 3.389 5.811 4.842 2.905 1.937 4.842 4.357 5.81 7.263 2.421 5.326 2.421 10.168 2.905 15.978 0 3.39.968 6.295 2.421 9.199 1.937 2.421 4.357 4.842 8.715 5.811.484.484 1.453 1.452 1.453 1.937v1.452c-.484 1.453-.968 2.905-2.421 3.874-1.453.968-2.905 1.452-4.842 1.452.484 5.811-.484 11.62-1.937 17.915-.969 6.294-1.937 11.62-4.842 17.431-.969 1.937-4.842 10.651-6.778 11.136-.484 9.199.968 18.398 2.905 22.756.484.969.968 1.937.484 2.421-.484.484-1.937.969-2.421.969-2.905 0-5.326-.484-7.747-1.937.484 1.452.968 2.421 1.453 3.389v1.936c1.452.969 3.389 1.938 3.389 1.938.968.484 1.937.484 1.937.968s-.969 1.937-1.453 2.421c-2.905 2.421-7.263 3.39-10.652 3.39-4.842 0-9.684-1.452-12.589-2.905h-.968c-1.453.958-2.421.958-2.905.958z"/><path d="M-272.493 481.866v-1.452c.484 0 1.453-.484 1.453-.969s.484-.968.484-2.421v-49.87c0-.969 0-1.937-.484-2.421 0-.484-.484-.968-1.453-.968v-1.453h19.852c9.199 0 15.494 7.263 15.494 16.462 0 4.357-1.937 11.62-6.294 14.525l7.263 20.819 1.453 2.905c.484.969 1.453 1.937 2.421 2.905v1.452h-10.652v-1.452c.484 0 .968-.484.968-.484.968-1.452 0-2.905-.484-4.357l-6.294-18.883c-1.453 0-3.389.484-4.842.484h-12.104v20.335c0 .969 0 1.937.484 2.421 0 .484.969.484 1.453.969v1.452h-8.718v.001z"/><path fill="#FFDA00" d="M-254.579 428.607h-10.652v21.787h10.652c8.715 0 12.104-4.357 12.104-11.62.001-6.778-3.388-10.167-12.104-10.167z"/><path fill="#231F20" d="m-234.243 459.594.969-.483 3.389 11.136-.968.484c-1.453-1.937-1.937-2.421-5.326-.484-6.294 2.905-12.589 3.873-21.788 3.873-6.778 0-12.588-.968-16.946-4.357-5.81-4.357-7.747-10.651-7.747-15.493 0-8.231 4.357-20.336 25.177-20.336 5.81 0 12.588.969 16.946 2.421 3.873.969 6.294 2.421 6.294 2.421.484 0 1.453 0 1.453-.483.484-.484 1.453-.969 1.937-1.453l.968.484-3.873 11.62-.969-.484c.484-1.937-1.937-3.873-4.357-4.842-4.357-1.937-11.136-3.389-17.915-3.389-14.525 0-19.851 6.778-19.851 14.041 0 4.842 2.905 9.684 8.231 12.104 2.421.968 9.199 1.452 14.525 1.452 3.389 0 14.041-1.452 18.398-5.81.968-.969 1.453-1.938 1.453-2.422z"/><path d="M-260.873 479.93h.969c.968 4.357 2.905 3.39 5.326-.484 1.452-2.421 1.937-6.294 1.937-10.168-.484-6.294-2.421-12.588-4.357-18.398-2.421-7.263-4.842-14.525-4.842-22.272 0-5.325 1.452-10.651 4.842-14.524 2.421-2.422 5.326-4.358 9.199-4.842 1.452 0 2.905-.484 2.905-1.938h.969v11.137h-.969c-.968-3.39-2.905-2.905-4.841-1.938-1.453.484-2.421 1.453-3.39 2.422-1.937 2.42-2.905 6.294-2.905 10.167 0 6.778 2.421 13.073 4.358 20.336 1.937 6.778 4.357 13.072 4.842 20.335.484 5.326-.484 10.168-2.905 14.041-1.453 2.421-3.874 4.842-6.778 5.811-2.421.969-2.905 1.937-2.905 3.39h-.968V479.93h-.487z"/><path fill="#FFDA00" d="M-185.825 808.686c-.484-.968-1.453-1.937-1.453-2.42H-190.183c.484.968.484 1.452.968 2.42l1.453 1.453 1.937-1.453zM-196.961 806.266c-.484-.484-1.453-.484-1.937-.484-.968 0-2.421 0-3.873.484.484.483.968 1.452 1.452 1.937 1.453 1.452 2.905 1.937 3.39 1.937s-.484 0 0-.484c-.001-1.454.484-2.423.968-3.39zM-78.822 700.23c-.484-1.453-.484-2.421-.968-3.873-1.937 0-3.874-.484-5.326-1.453-1.937-.968-3.39-2.905-3.39-4.842-.484-2.905 1.453-6.294 2.421-9.199.969-1.452 1.453-2.905 1.937-4.357v-.484c-1.452-6.778-2.905-13.557-5.326-20.335-1.937 0-4.358.483-6.294.483-22.272 1.453-41.155 2.421-54.228 15.979-4.842 5.326-7.747 10.651-9.684 16.462-1.453 5.81-1.937 12.104-1.937 17.914 0 4.842 1.453 9.2 1.937 14.041.968 5.811 3.389 9.2 7.263 14.042.484.968 1.452 1.452 1.452 1.937.484.968 1.453 1.937 0 3.389-1.937 1.453-2.905 0-3.389-.968l-4.358-5.811v6.294c0 3.39 0 7.263.484 10.652 0 3.39 0 6.778.484 10.168v11.136c0 2.905 0 5.326-1.937 7.747-.969 1.452-2.421 2.905-4.358 4.357-1.453.969-3.389 1.452-5.326 1.937-4.842.484-8.231-1.937-12.589-4.357-3.389-1.937-6.778-4.357-10.652-4.357-2.421 0-4.842.969-7.263 1.937-2.421 1.452-4.357 2.905-5.81 4.842s-2.421 3.873-2.421 5.811v1.937c.968-1.937 1.937-3.39 2.905-4.357 2.421-2.421 5.326-3.39 8.231-3.874h3.39c.968 0 2.905 0 2.421 2.421 0 2.421-1.937 1.937-2.905 1.937h-2.421c-1.937.484-4.357.969-5.81 2.905-1.453 1.453-2.905 3.873-2.905 7.263v3.39c0 .484.484.484.484.969 2.421-.969 4.357-.969 6.294-.969.968 0 2.421.484 3.389.969 0-2.905 0-5.326.968-7.747 1.453-3.39 4.842-6.295 11.136-7.263.968 0 2.421-.484 2.905 1.452.484 2.421-1.452 2.421-2.421 2.905-4.842.969-6.778 2.421-7.747 4.357s-.968 4.357-.484 7.263c.484-.484.968-.484 1.453-.969.968 0 1.452-.483 1.937-.483h.484c1.937.483 2.905 2.42 4.357 3.873v.484c.484 0 .969.484.969.968.968-.483 2.421-.968 4.357-1.452 3.873-1.452 8.231-3.39 11.62-3.39.968 0 2.421 0 2.905 1.937 0 2.422-1.453 2.422-2.421 2.422-1.937 0-3.874.968-6.294 1.452.968.484 1.937.484 3.389.968 3.39.484 8.231 0 14.525-2.904 1.937-.969 4.842-.484 7.263 0 1.453 0 2.421.484 2.905.484 1.452 0 3.389-1.453 4.842-2.905 1.452-1.453 2.905-3.874 2.905-5.326.484-5.811-4.357-8.231-9.684-8.715-.484 0-.968 0-1.937.483-.968.484-1.453.969-2.421 1.938-.968.968-1.937 1.937-3.389.968-1.453-1.452-.484-2.905 0-3.873 1.452-1.452 2.421-2.421 3.873-2.905 1.453-.969 2.905-.969 4.358-.969 2.421 0 4.842.969 6.294 1.453.484-5.326 2.421-9.684 3.874-14.041 1.453-3.39 3.389-8.231 3.873-12.104.484-3.874 0-8.231-1.452-13.558-.484-.968-.968-2.42 1.452-3.389 1.937-.484 2.421.969 2.905 1.937 1.937 5.811 1.937 10.168 1.937 14.525 5.811-5.811 4.842-10.652 3.874-15.978-.484-2.905-.968-5.811-.484-8.716.484-4.842 4.357-10.651 9.199-15.493 2.421-2.421 4.842-4.842 7.747-6.778-5.81.968-11.62 1.937-15.978.968-5.81-.968-10.168-3.389-11.62-8.23-1.453-5.811.968-10.652 5.326-14.525 3.874-3.39 8.715-6.295 12.589-7.263.968-.484 2.905-.969 3.389 1.452s-.968 2.905-2.421 2.905c-3.389.484-7.263 3.39-10.652 6.294-2.905 2.905-5.326 6.295-4.357 10.168.968 2.905 3.873 4.842 7.747 5.326 4.842.484 10.168 0 16.462-1.453 11.138-2.425 21.79-6.299 26.148-8.236zM-.87 666.822c.484 1.452.968 2.905.968 4.357.484 3.873.484 7.747 0 12.589 2.905 2.421 6.294 3.873 9.684 4.842 3.874.968 7.747 1.452 12.104 1.452 11.62 0 20.819-4.357 27.598-11.62 7.263-7.747 11.62-17.915 12.104-29.535 0-7.263-.968-14.525-2.421-21.788-1.937-8.23-5.326-15.978-8.715-22.271-3.873-7.263-8.231-14.041-12.104-20.336-9.199-15.01-17.915-28.566-22.756-48.901-1.937-7.263-2.905-14.525-3.389-21.304-.484-6.295 0-12.104 1.453-16.946 1.452-4.842 3.389-9.2 6.294-13.073 2.905-3.873 7.263-6.778 13.557-7.263 6.778-.484 12.104 2.421 15.978 6.294 4.842 4.842 7.747 11.621 8.231 17.915 0 1.937-.969 4.842-1.937 7.263-.484 1.937-1.453 3.39-1.453 4.357v.969c-.968 2.421-1.937 7.747-2.421 13.557-.484 5.326-.484 11.136.484 15.494l1.453 5.81c.968-6.294 2.905-12.589 4.842-15.009.484-.969 1.453-2.905 3.389-1.453 1.937.969.969 2.905 0 3.873-1.452 2.422-3.873 8.716-4.357 15.01-.484 4.357 0 8.231 2.421 11.137.484.483.484.483.484.968.484.484.968 1.453 1.452 1.937.484 0 .484.484.969.969-.484-1.452-.484-2.421-.969-3.873-.968-6.778 0-14.041.969-18.398.484-.969.968-3.39 2.905-2.905 1.937.483 1.453 2.905 1.453 3.873-.969 3.873-1.937 10.652-.969 16.462.484 3.873 1.937 7.263 4.842 9.199 0 0 .484 0 .484.484.484 0 .484.484.969.484-.484-1.453-.969-2.421-1.453-3.873-1.937-5.811-2.421-12.589-.484-21.305 0-.968.484-3.389 2.905-2.904s1.937 2.421 1.452 3.389c-1.452 7.747-.968 14.041.484 19.367 1.453 4.842 4.357 8.715 7.747 11.62-.484-4.842-2.421-8.23-3.873-12.104-.968-2.904-2.421-5.325-2.905-7.746-.484-3.39-.968-6.779-.968-10.168 0-3.39 0-7.263-.968-10.168-.969-4.357-2.421-9.684-4.357-14.041-1.453-4.357-3.39-7.263-4.842-9.199 0 0-.484-.969-.484-1.453 0-14.041-3.874-24.692-9.199-32.924-5.811-8.23-14.042-12.588-22.757-12.588-2.421 0-5.326.483-7.747.968s-4.358 1.452-6.778 2.905c-4.358 2.905-8.231 7.263-11.136 12.589-2.905 5.325-4.842 11.136-5.326 17.914-.968 10.652-.484 20.819 1.453 30.02 1.937 9.684 5.326 18.883 9.684 28.082 4.842 10.168 10.167 19.852 15.494 29.051 11.62 20.335 21.788 38.25 20.82 56.164-.484 8.231-3.874 14.525-8.231 18.883-5.326 4.842-12.589 7.263-19.852 7.263-5.81 0-11.62-1.452-17.431-3.873-1.939 1.448-3.391.479-4.844-.489z"/><path d="M-119.009 434.417c.968.484 1.452 1.452 1.937 2.421.968.969 4.842 8.231 5.326 8.231 3.389.483 9.684-3.874 10.167-7.263 0-.969-.968-2.905-2.905-4.842-2.905-3.39-7.747-6.295-12.589-3.874-.483.97-1.451 4.843-1.936 5.327zM-151.449 511.401c0-.484.484-1.452.968-1.937 0-.484.484-.969.484-.969.484-1.937 1.453-3.39 1.937-5.811.484-1.937 1.453-3.873 1.937-5.325-4.358 3.873-7.263 7.263-9.2 11.136-1.937 3.389-2.905 7.263-3.389 12.589 2.905-2.42 4.842-5.325 7.263-9.683z"/><path fill="#FFDA00" d="M-11.521 441.195c-.969-2.421-1.937-4.842-4.357-6.778 0 2.421 0 5.326-.484 8.231 0 .968 0 1.937-.484 2.904 2.419-.967 3.872-2.42 5.325-4.357zM-35.246 555.945c1.937.969 5.81 1.938 9.684 1.938 1.452 0 3.389 0 4.842-.969-.484-.484-1.453-.969-1.937-1.937-5.81 0-20.335-6.295-23.24-24.693.484 2.905.968 5.81 1.937 8.715 1.451 5.326 4.356 11.137 8.714 16.946zM-90.442 539.968c5.326 13.073 14.525 34.376 22.272 52.775 3.389 7.747 6.779 15.009 9.2 21.788.484.968.968 1.937-.969 2.904-1.937.969-2.421 0-2.905-1.452-.968-2.905-2.905-6.294-4.357-10.168-1.452.969-2.905 1.937-3.873 1.937-.969 0-2.905.969-3.39-1.452-.484-1.937 1.453-2.421 2.421-2.905.969-.484 2.421-1.452 2.905-1.937-.969-1.937-1.937-4.357-2.905-6.294-1.452 1.937-3.389 3.389-5.81 4.357-2.421 1.452-5.326 1.937-7.747 2.421-.969 0-2.905.969-2.905-1.452-.484-1.938 1.452-2.905 2.421-2.905 2.421-.484 4.842-.969 6.778-1.937 1.937-.969 4.842-3.39 5.81-5.326-4.842-11.136-9.683-22.757-14.041-33.408-.968 3.39-1.937 6.294-3.874 8.715-3.389 5.326-8.231 8.715-13.557 9.199-3.874.484-7.747-.968-10.652-2.421-2.905-1.452-5.326-3.389-7.263-4.842-.484 0-.968 0-1.453.484-8.715 2.421-15.978 4.357-23.725 4.357 12.104 22.757 25.661 35.829 37.282 46.966 8.715 8.715 16.946 16.462 21.788 26.146 5.326 9.199 7.263 18.883 9.199 29.051 0 .483 0 .968.484 2.421 2.42 11.62 4.357 22.756 8.715 32.439 4.358 9.684 10.652 18.398 20.82 24.693 4.842 2.905 9.684 5.811 15.009 8.23 4.842 2.422 10.168 4.358 15.978 6.295 3.389.968 6.778 2.421 9.684 4.357 2.905 1.937 5.326 4.357 7.263 6.778 4.842 6.778 4.842 13.073 4.357 31.956v1.937c3.389.484 3.389.968 6.294.484.969-.484 2.421-.484 3.39-.484 1.452 0 2.905.484 3.873.968 1.453.484 2.421 1.453 3.39 2.422.484.968 1.937 1.937 0 3.389-1.453 1.453-2.905 0-3.39-.969-.484-.483-.968-.968-1.452-.968-.484-.484-1.453-.484-1.937-.484s-1.452 0-2.42.484c-4.358.968-5.326 0-8.715-.484h-4.358c-4.357.484-14.525-3.873-14.525-3.873-4.842 1.937-7.747 3.873-9.2 5.81-1.452 1.453-1.937 2.905-2.421 3.874 0 0 0 .483-.484.968 0 .484-.484.969-.484.969v.484c0 .484.484 1.452 1.453 1.937l.968.969c.484-.969.968-1.937 1.453-2.421 1.452-1.938 3.389-3.874 5.81-4.842 3.874-1.938 8.715-1.938 14.041 0 .968.484 2.421.968 1.937 2.904-.969 1.938-2.421 1.453-3.39.969-4.357-1.452-7.747-1.452-10.652 0-1.937.969-3.389 1.937-4.357 3.39-.968 1.452-1.453 3.389-1.937 4.842 0 1.452 0 3.389.969 4.357.484 0 .484.484.484.968 1.452 0 2.905-.483 3.873-.483h2.905c.484-1.937 1.937-3.39 3.873-4.358 1.937-1.452 4.842-1.937 7.747-1.937 1.452 0 3.389 0 5.326.484.968.484 2.421.484 1.937 2.905-.484 1.937-1.937 1.937-2.905 1.452-1.452-.483-2.421-.483-3.873-.483-2.421 0-3.874.483-5.326 1.452-.968.484-1.937 1.452-1.937 1.937.484.484.968.484 1.937.484 1.452.484 3.389.484 4.842.969.968 0 2.421 0 3.389-.484.968 0 2.421-.484 3.389-.969 1.937-.484 3.874-1.452 5.326-2.421.969-.484 2.421-.969 2.905-1.452.968-.484 2.421-.969 3.389.968s-.968 2.421-1.937 2.905c-.484 0-1.453.484-2.421 1.453-.968.483-1.453.968-2.421.968 1.453.969 2.905 1.452 4.842 1.937 3.389.969 6.778.484 8.231-.484.484 0 .484-.483 1.452-.968 2.421-1.937 6.779-5.326 10.168-5.326h6.295l3.389-3.39c1.937-1.937 3.874-3.873 3.874-4.357l-2.905-1.937c-1.453-.484-2.421-.968-3.389-1.937-1.453-1.452-3.39-1.937-5.811-1.937s-4.842.968-7.747 2.905c-.968.483-2.421 1.937-3.874 0-1.452-1.938 0-2.905.969-3.39 3.389-2.421 6.778-3.873 9.684-3.873 1.452 0 2.421 0 3.873.483-.484-.968-.968-1.452-1.452-1.937-1.453-.968-2.421-1.452-3.874-1.937h-4.358c-.968 0-2.421 0-2.421-1.937s.969-2.421 1.937-2.421c1.937 0 3.389-.484 5.326 0 .484 0 .969 0 1.453.484-.484-.969-.968-2.421-.968-3.39-.969-3.39-1.937-7.263-2.905-11.136-.484-1.452-.484-2.905-.968-4.357 0 .968-.484 2.905-2.905 2.421-1.937-.484-1.937-2.421-1.453-3.39.969-5.811.484-12.104-1.937-17.914-1.937-4.842-5.81-8.716-10.167-10.652-.968-.484-2.421-1.452-1.453-3.39.968-1.937 2.421-.968 3.389-.968 5.81 2.421 10.168 7.263 12.589 13.072.968 1.937 1.453 4.357 1.937 6.295v-.969c.484-2.905.968-5.811 1.453-8.231.484-1.452.484-2.421.968-3.389.484-.969.968-1.937.968-3.39 0 0-.968 0-1.937-.484s-2.421-.484-3.873-1.452c-5.326-2.421-10.168-6.778-15.494-12.104l-3.389-3.39c-.968-.968-2.421-3.389-4.357-6.294-1.453-2.905-3.389-6.778-5.326-11.136-1.453-3.39-2.421-7.263-3.389-10.652a26.336 26.336 0 0 1 0-8.715c2.421-7.263 2.905-13.558 1.937-18.883-.968-5.326-3.389-10.168-6.294-15.494-2.421-3.873-6.294-8.715-10.168-13.073-2.421-2.904-4.357-5.325-6.778-8.23-5.326-6.778-8.715-12.589-11.136-17.915-2.421-5.81-3.874-11.136-5.326-16.946-1.937-9.199-1.453-19.851-1.453-30.987v-9.683c-3.874-.484-7.747-1.453-11.62-5.326l-2.421-2.421h-3.389c-7.263-.969-15.01-4.842-20.336-11.62-2.421-2.905-3.873-5.811-5.326-9.2l1.453 7.263c.484 1.453-.484 2.905-1.937 2.905-.001.487-.485.487-.969.487z"/><path fill="#FFDA00" d="m-160.164 526.411-.968.968c-1.937 2.421-4.358 5.326-8.715 8.715h.484c6.778-1.937 13.073-2.904 18.398-1.937.969 0 2.905.484 2.421 2.421-.484 2.421-1.937 1.938-2.905 1.938-4.358-.969-10.168 0-15.978 1.452-5.81 1.937-11.136 4.357-15.009 7.263-.968.969-2.421 1.937-3.874 0-1.452-1.453 0-2.905.969-3.39 2.905-2.421 6.294-4.357 10.167-6.294-10.167-6.294-16.946-10.168-24.209-14.041-1.453-.969-3.389-1.453-5.81-2.905-1.453-.969-2.905-1.452-4.357-1.937-3.874-1.937-7.263-3.39-11.136-7.747-3.389-2.421-4.842-7.263-6.294-12.104-.484-1.937-.968-3.873-1.937-5.811-.968-2.42-1.937-4.357-3.389-5.325-1.937-1.937-3.874-1.937-6.294-1.937-3.389.968-1.937.483-3.873 4.357 2.905 0 6.294.968 8.715 2.904 2.421 1.938 3.39 3.874 3.874 5.811 0 .969.484 2.905-1.937 3.39-.484 1.452-.484-.484-.968-1.453 0-.968-.968-2.421-1.937-3.389-.968-.969-2.905-1.453-5.326-1.937h-3.389c-2.905 1.452-2.421 1.937-2.421 6.778 7.263 1.937 10.168 5.81 12.589 8.715 1.452 1.452 4.842 4.357 2.421 6.294-2.421 1.938-4.842-1.937-5.811-3.873-2.421-2.905-4.842-6.778-12.104-7.747-3.389 0-1.452 6.294-1.452 6.778 1.452.969 1.937 1.938 3.873 2.905 1.937.969 4.358 1.937 8.715 4.842.968.484 2.421 1.452 1.453 3.39-.969 1.937-2.905.969-3.874.484-3.874-2.421-6.294-3.39-8.231-4.357-3.874 1.452-2.905 5.325-2.421 6.778.968 2.421 2.905 6.294 5.326 9.199 2.905 3.873 6.294 7.263 9.199 9.684 1.937 1.452 3.389 2.421 5.326 2.421 1.937 0 3.874-.969 6.779-2.421 1.937-.969 3.873-1.937 5.326-2.421 4.842-.969 4.842 2.421 4.842 5.81.968-.483 1.937-1.452 2.905-2.421 2.421-1.937 4.842-4.357 7.263-4.357 5.81 0 16.462 7.747 20.819 11.62 2.905 1.937 5.326 3.874 8.715 6.295 3.873 2.421 8.231 4.357 12.104 5.81 3.873 1.453 7.263 2.421 11.136 2.421 7.747.484 15.494-1.452 25.177-4.357.968-.484 1.453-.484 2.421-.484.484 0 1.453 0 1.937.484 1.937 1.452 4.357 3.39 7.263 4.842 2.42 1.452 5.81 2.421 8.23 1.937 3.874 0 7.263-3.389 10.168-7.263 1.453-2.421 2.905-5.325 3.39-8.23.968-3.874.968-6.295-.484-9.684-.969-2.905-1.937-5.326-2.905-7.263-8.231-3.874-14.525-15.01-16.946-25.178-.484 5.326 0 10.652.969 14.041.484 1.453-.969 3.39-2.905 2.905-8.715-2.905-12.589-6.294-14.041-10.168-1.453 2.421-3.39 3.39-4.842 3.874-.484.484-.969.484-.969.484-.968.968-2.905.483-3.389-.484-.968-2.421-1.452-4.842-1.937-6.779-1.937 3.39-4.357 5.811-7.263 7.747-.968.484-2.421 0-2.905-.968-.484-.969-.969-1.938-.969-2.905-1.937 2.421-4.357 4.357-7.263 5.326-.968 0-1.453.484-1.937.484z"/><path fill="#FFDA00" d="M-149.996 494.455c-4.842-5.326-9.199-11.62-13.557-17.914-4.842-6.779-8.715-13.558-10.167-17.431v-.484c-.484-5.811 1.452-7.263 4.357-9.684l1.452-1.452c.969-.969 1.937-2.422 2.905-3.39 1.937-3.39 2.421-7.747 1.937-12.104-.484-4.357-2.421-8.23-5.326-11.62-.968-1.452-2.421-2.421-3.874-3.39-1.452-.968-2.905-1.452-4.357-1.452-.484 0-1.937-.484-1.453.968 4.358 2.422 8.231 6.295 10.168 11.137 1.453 4.357 1.453 9.199-.968 15.01-.484.968-.969 1.937-2.905.968-1.937-.968-1.453-1.937-.968-2.905 1.937-4.842 2.42-8.715.968-11.62-1.453-3.873-4.842-6.778-8.231-8.715-2.421-1.452-4.842-1.937-7.263-2.421s-3.874.484-4.358 2.905c4.842.968 9.2 3.389 11.621 8.23 1.937 3.874 2.905 8.716 2.421 15.979 0 .968-.484 2.421-2.421 1.937-1.937-.484-1.937-1.453-1.937-2.421.969-5.811 0-10.168-1.452-13.073-1.937-3.389-5.326-5.326-8.715-5.81-2.421-.484-4.357-.484-6.778 0-.968 0-1.453 3.389-1.453 4.357 3.874 1.452 6.778 3.873 9.199 7.263 3.874 5.326 5.811 12.104 7.263 17.914.484.969.484 2.421-1.452 2.905s-2.421-.484-2.421-1.937c-1.453-5.326-2.905-11.62-6.778-15.978-1.937-2.905-5.326-5.326-9.2-6.295-1.453-.483-5.326 2.421-5.326 4.357 0 .969.484 1.938.484 2.905.484 2.905.968 5.811 2.421 8.716 1.453 4.357 3.874 7.746 6.294 11.136 2.421 2.905 5.326 4.842 7.747 5.326 1.937.484 1.937 3.873 0 4.357-.969.484-1.453.484-1.937 1.452-.484.484-.484.969-.484 1.453 0 0 .484 0 .968.483.484.484 1.453.484 2.421.969 3.874 2.421 4.357 3.39 5.326 6.295.484.968.969 2.42 1.937 4.357 2.421 4.842 5.326 11.62 8.231 19.851 2.905 8.716 5.81 18.399 7.747 25.662 1.937-1.938 3.389-3.874 4.357-4.842.484-.484.484-.969.968-.969v-.484c0-6.778 1.453-12.104 3.874-16.946 1.452-5.808 4.841-9.682 8.715-13.555zM-70.591 380.189c.968-1.937 2.905-2.905 4.358-3.39 1.452-.484 2.905 0 3.873 0 1.937.484 3.874 1.937 5.326 3.874s2.421 4.358 2.905 6.778c.484 3.389 0 6.294-1.453 8.231-.484.969-.968 1.453-1.453 1.937 2.421-1.452 3.389-3.389 4.357-5.326.484-1.937.484-3.874 0-6.294-.484-2.421-1.452-4.357-2.905-6.294-2.905-3.874-6.294-6.294-9.684-6.294-1.453 0-2.905.968-4.358 2.905-1.452 1.937-2.905 4.358-3.873 6.779-.484.484-1.453 1.453-1.937 1.453-2.905 0-6.294.484-8.715.968-.968 0-1.453 0-2.905.484-4.841.484-7.747 1.453-10.652 2.905-2.421 1.453-4.357 2.905-6.294 5.81l-.484.484c-2.421 1.453-5.81 2.905-8.715 3.874-4.357 1.452-8.231 1.937-10.167 1.937-2.905 0-4.357 0-4.357.484s0 1.452.484 2.905v.483c0 2.421-.484 4.842-.968 6.778-.484 2.422-.969 4.842-.484 8.231.969 4.357 2.905 5.326 4.357 6.294.969.484 1.937.969 2.421 2.422 0 1.452.484 2.42.969 3.873 0-.484.484-.484.484-.969.968-1.452 1.452-3.389 2.905-4.357 2.905-1.937 5.81-1.937 8.715-1.452 2.421.483 6.294 2.905 9.199 5.81 2.421 2.905 4.357 5.811 3.873 8.716-.484 2.905-2.905 5.81-6.294 7.747-2.905 1.937-6.778 3.389-9.199 2.904-3.39-.484-6.294-7.263-7.747-9.684-.484.969-.968 1.938-.968 2.905 0 0-.484.969-.968.969l-1.453 1.452c-1.453 1.453-3.874 2.905-3.874 3.39 0 .968.484 2.421.969 3.389.484 1.453 1.452 3.39 1.452 5.326v.969c0 .483-.484 1.452-.484 2.421 0 1.452 0 2.421.484 3.389.484.969.969 1.453 1.937 1.937h.969c2.905 0 4.842-.483 6.294-1.452 1.453-.484 2.421-.969 3.874-.969s1.937.969 2.905 1.938l1.453 1.452c2.421-.969 4.842-1.452 7.747-1.937 3.874-.969 7.747-2.905 11.136-5.811 3.389-2.905 6.778-6.778 8.715-10.651 1.453-3.39 2.421-6.778 2.905-10.168.484-3.874 0-7.263-.969-10.652-.484-.968-.968-2.421.969-2.905 1.937-.483 2.905.484 2.905 1.938 1.453 3.873 1.937 7.746 1.453 12.588-.484 3.874-1.453 7.747-3.389 12.104-2.421 4.358-5.811 8.716-9.684 12.104-3.874 3.39-8.231 5.811-13.073 6.779-2.905.483-5.326 1.452-7.747 1.937-.484.483-.968.483-.968.483-5.81 1.938-10.652 4.358-15.494 7.263-6.779 4.358-13.073 10.168-20.336 16.463h.969c1.937.968 1.452 1.937.968 2.904-.968 1.938-1.453 3.874-2.421 5.811-1.453 3.39-2.421 6.294-3.389 8.715-.484 1.453-.484 2.905-.484 4.358 0 .968 0 1.452.484 1.937 4.357-3.874 6.294-11.137 8.231-16.462l1.453-4.358c.484-1.452 1.937-1.937 2.905-1.452s1.937 1.452 1.453 2.905c-.484 1.452-.968 2.421-1.453 4.357 0 .484-.484 1.452-.484 1.937 0 1.453-.484 3.39-.484 5.326 0 2.421 0 5.326.968 8.231 1.937-.969 4.358-2.905 5.326-10.168v-7.747c0-.969.968-1.937 1.937-1.937s2.421.968 2.421 1.937c0 2.905 0 5.326-.484 7.263-.484 6.778.484 11.62 8.715 15.01-.484-3.874-.484-8.231 0-12.589.484-5.326 1.453-10.168 3.874-12.589.484-.968 1.937-.968 2.905-.968.969.483.969 1.452.969 2.421-1.453 11.136 6.294 31.955 17.915 34.376-.968-4.357-1.453-9.684-1.453-14.525 0-6.294.484-12.588 1.937-17.914.484-.969 1.453-1.937 2.421-1.453.969 0 1.937 1.453 1.937 2.421-1.937.484-1.937 2.905-1.937 5.326 0 11.136 3.39 19.852 7.747 25.661 4.842 5.811 11.136 9.199 17.431 9.684-2.421-3.873-4.358-8.23-5.811-12.588-2.905-8.716-4.357-18.883-3.873-26.146 0-.968 0-2.904 2.421-2.42 2.421 0 2.421 1.937 1.937 2.904-.484 7.263.968 16.463 3.873 24.693 2.421 7.263 5.811 13.557 10.168 17.915 3.874 3.873 7.747 4.357 12.104 4.357-3.389-4.842-5.81-10.168-7.263-15.01-1.937-6.294-2.421-12.589-2.421-19.852 0-4.842.969-9.684 2.421-14.525.484-.968.968-2.421 2.905-1.937 1.937.484 1.452 1.937 1.452 3.39-1.452 4.357-2.421 8.715-2.421 13.073v4.841c0-.483.484-.968 1.937-.968 2.421 0 2.421.968 2.421 1.937 1.452 17.915 13.073 23.725 18.883 24.693-1.453-3.39-2.905-7.263-3.874-11.62-1.452-5.326-1.937-10.652-1.937-15.494 0-3.873 0-7.263.484-11.136.484-3.39.968-6.778 1.937-9.2.484-.968.968-2.904 2.905-2.42 1.937.483 1.452 2.904.968 3.873-.968 1.937-1.453 4.842-1.937 8.23-.484 2.905-.484 6.779-.484 9.684 0-1.937.484-3.389.968-5.325s.969-3.874.969-5.811c0-.969.484-2.905 2.905-2.905 2.421.484 1.937 2.421 1.453 3.39-.484 2.421-.969 4.357-1.453 6.294-.968 4.357-1.453 7.747-.484 12.104.484 2.421 4.841 8.231 1.937 9.684-1.937.969-2.905-.484-3.39-1.452-1.452-2.421-2.421-4.357-2.905-6.778 0 1.452.484 2.904.968 3.873 1.937 3.873 3.874 5.81 5.326 6.778.968.484 1.452.969 2.421.969-1.453-5.326-2.421-13.073-2.421-21.304 0-8.231 1.452-16.946 4.842-23.241.484-.968 1.937-1.937 2.905-1.937s1.453 1.937 1.453 2.905c0 1.452 0 3.873-.484 6.294 1.453-4.357 1.937-8.23 2.905-12.588 1.452-6.778 2.421-13.558 1.452-19.367v-1.937c.969-.969 2.421-.484 4.358-.484.968 0 1.937-.484 2.421-.969-4.358-1.452-7.263-4.357-9.2-7.263-2.42-3.389-2.905-7.263-3.389-11.136 0-2.421 0-4.357-.484-6.778-.484.483-1.453.968-1.937 1.937-1.937 1.452-4.357 2.905-6.778 4.357-1.937.969-3.874-1.452-2.905-2.905.484-.484.484-1.452.968-1.937l-.484.484c-3.389 3.389-7.747 3.873-12.588 4.357-1.453 0-2.905-1.452-1.937-3.39.484-.968.484-1.452.968-2.421-3.389 4.358-8.231 7.747-14.041 9.684-1.937.484-3.389-1.452-2.905-2.904.968-1.938 1.453-3.874 1.937-5.811-3.389 4.357-7.747 7.263-12.104 9.199-1.453.484-3.389-.969-2.905-2.905 1.452-4.357 2.421-8.23 2.421-12.589 0-3.873-1.453-8.23-3.874-12.588-.484-.969-1.453-2.421.484-3.39 1.937-.968 2.905 0 3.39.969 3.389 5.326 4.842 10.168 4.842 15.009 0 2.905-.484 6.295-.969 9.2 2.421-1.453 4.358-3.39 6.294-5.811 2.421-3.39 4.358-7.263 4.358-10.651 0-.969.968-1.938 2.42-1.938.969 0 1.937.969 2.421 1.938 0 3.389 0 7.262-.484 11.136-.484 1.452-.484 3.39-.969 4.842 3.39-1.937 5.811-4.357 8.231-6.778 3.389-3.874 4.842-8.231 4.357-11.137 0-.968.484-2.42 1.452-2.42.969-.484 2.421 0 2.905 1.452.969 2.421.969 5.81.484 9.199-.484 2.421-.969 4.842-1.937 7.263 2.421-.484 4.357-1.453 6.294-2.905 2.421-2.421 4.357-6.294 4.357-13.557l-2.905-2.905c-1.937-1.937-3.874-3.873-4.842-6.294-.484-1.453-.968-2.421-1.453-3.39-.484-1.452-.968-2.905-1.937-4.357-1.453-2.421-3.39-4.842-5.811-6.778-1.937-1.937-3.873-3.39-6.294-4.357-1.937-.969-3.874-2.421-5.326-4.358-.968-.968-1.452-1.937-1.937-2.905-1.452 2.905-4.357 4.842-8.231 6.779-.968.484-1.937.484-2.905-1.453-.484-.483-.484-.968 0-1.452h-.484c-.969.484-1.937.484-2.905-1.453-.484-1.936.484-2.42 1.452-2.904 1.937-.484 2.905-1.453 3.874-2.421.968-1.453.968-3.39.968-5.326 0-1.453-.968-3.389-1.937-4.357-.968-.969-1.937-1.937-2.905-1.937h-1.937c-.485 0-.968.484-1.452.968-.484.969-.969 1.937-2.905.969-1.45-.486-.965-1.454-.481-2.423z"/><path d="M-108.357 400.041c-.968-.969-.968-2.905.484-3.39.969-.969 3.874-2.905 7.263-3.874.969-.484 1.937-.484 3.39-.484s1.937.484 3.389.968c1.453.484 2.421.969 3.389 1.937 1.453.968 2.905 1.936 2.905 2.42s.484 1.453.484 1.453c-.484 1.937-1.937 2.421-4.358 2.905-1.452 0-2.905.483-4.841 1.452-7.263 3.873-8.715 1.937-11.136-.969.484-.966-.001-1.935-.969-2.418z"/><path fill="#FFDA00" d="M-103.515 399.072c.484 0 .484 0 0 0 .968 1.452 1.937 2.421 5.81 0 1.453-.969 2.905-.969 4.357-1.453-.484-.483-.968-.483-1.452-.968-.484-.484-1.453-.484-1.937-.484s-1.453 0-1.937.484c-1.936.485-3.388 1.453-4.841 2.421z"/><path d="M-100.126 409.724c7.263 3.874 11.62 9.684 13.557 16.462 1.453 4.842 1.453 9.2.484 14.042-.968 4.357-3.389 8.715-6.778 12.104-4.357 4.357-10.652 7.262-18.883 7.262-.969 0-2.421 0-2.421-2.42 0-1.938.968-1.938 2.421-1.938 7.263 0 12.104-2.421 15.978-6.294 2.905-2.905 4.357-6.294 5.326-9.684.968-3.873.484-7.747-.484-11.62-1.452-5.811-5.326-10.652-11.62-14.041-.969-.484-1.937-.969-.969-2.905 1.453-1.936 2.421-1.452 3.389-.968zM-68.654 468.794c-.484 2.905-.484 7.263.484 11.62.484 2.421 1.937 5.326 3.389 7.263 0-2.905 0-5.811.484-8.231.484-4.842 1.937-8.715 3.39-12.104.484-.968.968-1.937 2.905-.968 1.937.968 1.453 1.937 1.453 2.904-1.453 3.39-2.421 6.779-2.905 11.137-.484 3.873-.484 7.746 0 12.588 0 1.938-1.937 2.905-3.389 1.938-5.81-3.874-8.231-8.716-9.684-13.558-.968-4.842-.968-9.684-.484-13.072 0-.969.484-2.421 2.421-1.937 2.42.483 2.42 1.451 1.936 2.42zM-44.93 462.499c0 .969-.484 2.421-.484 3.39-.484 4.842.484 10.168 2.905 14.525 1.937 3.389 4.357 6.294 7.747 7.746-.969-2.42-1.453-5.325-1.453-8.23 0-5.811 1.453-11.136 3.874-15.494.484-.968.968-1.937 2.905-.968 1.937.968 1.453 1.937.968 2.905-1.937 3.389-3.389 8.23-3.389 13.072 0 3.874.968 7.263 3.389 10.168.484.969.969 1.452.484 2.421-.968 1.937-3.389.969-5.326.969-6.294-1.453-10.652-5.811-13.557-10.652-2.421-5.326-3.389-11.136-2.905-16.946 0-1.452.484-2.421.484-3.873 0-.969.484-1.937 2.421-1.937 2.421.967 2.421 1.936 1.937 2.904zM-99.158 502.202c-.484 2.421-.484 4.842-.484 7.263 0 2.904.968 6.294 1.937 8.715.484.969.968 1.937-.969 2.905-1.937.968-2.421 0-2.905-.969-1.453-3.39-2.421-6.778-2.421-10.168-.484-4.357 0-8.715.968-11.62-1.452-1.937-1.937-3.873-2.421-5.81-1.452-4.842-.484-10.168.969-14.042.484-.968.968-2.904 3.389-1.937 1.937.484 1.453 2.421.968 3.39-.968 3.389-1.937 7.747-.968 11.62.484 1.452.968 2.905 1.453 3.874 0-1.938 0-3.874.484-5.326.484-3.39 1.937-5.811 3.389-8.231.484-.968 1.453-2.421 3.39-.968 1.937.968.968 2.42.484 3.389-1.453 1.937-2.421 3.873-2.905 6.778s-.484 5.811 0 10.168c.484 1.937-1.937 3.39-3.39 1.937.001-.483-.483-.483-.968-.968zM-73.98 510.433v2.421c-.484 5.326-.968 16.946 4.357 21.304.969.484 1.937 1.453.484 2.905-1.452 1.452-2.421.969-2.905 0-6.778-5.811-5.81-18.883-5.81-24.693v-1.937c0-.968 0-2.905 1.937-2.905 1.937-.001 1.937 1.937 1.937 2.905zM-60.423 516.243c-.484 4.357 0 7.747.484 11.136.484 3.39 1.937 6.294 3.39 9.684.484.969.968 1.937-1.453 2.905-1.937.968-2.421-.484-2.905-1.452-1.453-3.874-2.421-6.779-3.39-10.652-.968-3.873-.968-7.747-.968-12.104 0-.969 0-2.905 2.421-2.421s2.421 1.935 2.421 2.904zM-34.278 512.369c-.968 5.326 0 10.652.968 15.979 0 .968.484 2.905-1.452 3.389-2.421.484-2.421-1.452-2.905-2.421-1.453-5.81-1.937-11.62-.969-17.43 0-.969.484-3.39 2.905-2.905 1.937-.001 1.453 1.936 1.453 3.388zM-79.306 585.965c-.969 1.937-2.905 3.873-5.326 5.326-1.937 1.452-3.874 2.42-6.294 2.904-.968 0-2.905.484-2.905-1.937-.484-2.421 1.453-2.421 2.421-2.421 1.453 0 2.905-.969 4.357-1.937 1.937-1.452 3.389-2.905 3.874-4.357.484-.969 1.452-2.421 3.389-1.452 1.936 1.453.968 2.905.484 3.874zM-82.211 577.733c-1.453 2.421-3.874 4.842-6.294 6.778-2.421 1.938-5.326 2.905-7.747 2.905-.968 0-2.421 0-2.421-1.937 0-2.421 1.453-2.421 2.421-2.421 1.937 0 3.874-.484 5.81-1.937a27.756 27.756 0 0 0 5.326-5.326c.484-.969 1.452-2.421 3.389-1.452.968.969 0 2.423-.484 3.39zM-168.395 555.461c4.358.484 10.168.969 17.431.969 6.778 0 15.494-.969 24.693-2.905.969 0 1.937-.483 2.421 1.937.484 1.938-.484 2.422-1.937 2.422-9.684 1.937-18.399 2.904-25.662 2.904-7.262 0-13.073-.484-17.915-.968-.968 0-2.421 0-1.937-2.421.969-1.938 1.938-1.938 2.906-1.938z"/></svg>