<svg xmlns="http://www.w3.org/2000/svg" xml:space="preserve" id="HQFL" x="0" y="0" style="enable-background:new 0 0 500 500" version="1.1" viewBox="0 0 500 500"><style>.st0{fill:#231f20}.st1{fill:#fff}</style><path d="M249.9 474.3c-46.9-45-81.7-27.2-128.8-72.8l-13.1 11C68.4 385 42.7 350.2 26.6 309.9c-31-5.4-23.4-39.4 8.1-36.9l53.6-102.3-45.8-24.1 61.7-111.5c60.2 13.1 67.3-33.8 145.8 9 78.8-42.8 85.8 4 146.1-9l61.5 111.5-45.8 24.1L465.3 273c31.5-2.6 39 31.5 8.1 36.9-16.2 40.3-41.9 75.1-81.5 102.6l-12.9-11c-47.1 45.6-82.1 27.8-129.1 72.8z" class="st0"/><path d="M31 284.5h15l62.9-120.4-45.4-23.8 48.6-88.2c21.3 4.2 44.8-4.4 65-9.7 13.3-2.3 23.4-1.2 36.2 2.3 12.7 3.8 24.9 10.5 36.5 16.6 19-9.7 38.5-20.3 60.2-20.3 20.7 2 39.6 10.6 60.4 11.8 5.1 0 12.3.3 17.2-.7l48.6 88.2-45.4 23.8 62.9 120.4h14.1c13.3 0 11.8 15.1 0 15.1h-6.7c-9 20.9-19.5 41.9-34.2 59.6-10.6 12.7-21.9 23.3-34.3 33.7l-14.4-12.4c-14.4 14-28.3 26.9-47 34.7-10.8 4.8-22.5 8.1-33.5 12.3-17.2 5.5-34.1 14.8-47.9 26.3-13.7-11.4-30.8-20.9-47.8-26.3-16-6.2-32.8-10.6-47.7-19.5-12.4-7.4-22.5-17.4-32.8-27.5l-14.3 12.4c-23-19-40.5-38.6-55.2-64.9-4.6-9-9-19.1-13.1-28.7H31c-11 0-11.6-14.8 0-14.8z" class="st1"/><path d="M233.5 217.8H245v18h-11.5zM229.8 151.5h27.4v18h-27.4zM232.6 188.6h28v18h-28zM226.1 122.8h47.7v18h-47.7zM211.4 339.1h-.2v18.1h75.6v-18.1zM227 299.6h43.9v18H227zM234.5 243h28v18h-28z" class="st0"/><path d="M61.7 284.5h6.7c4.6 0 8.3 3.4 8.3 7.4 0 4.3-3.8 7.7-8.3 7.7l-14.7-.1c12.1 28.8 29.6 54.1 53.3 75.1l14.7-12.5 11.2 10.4c5.4 5.4 21.4 23.6 33 23.7 96.8 2 91.8-280.6 37.2-336.7-4.6-4.8-16.7-4.7-23.8-3.2-19.8 5.5-38.9 11.4-59.5 10.9l-37.4 67.6 45.1 23.7-65.8 126z" class="st0"/><path d="M437.6 284.5h-7c-4.6 0-8.2 3.4-8.2 7.4 0 4.3 3.6 7.7 8.2 7.7l14.9-.1c-12 28.8-29.5 54.1-53.2 75.1L377.7 362l-11.3 10.4c-5.4 5.4-21.4 23.6-32.9 23.7-96.9 2-91.8-280.4-37.2-336.7 4.6-4.8 16.7-4.7 23.8-3.2 19.8 5.5 38.9 11.4 59.5 10.9l37.4 67.6-45 23.6 65.6 126.2z" style="fill:#ee3124"/><path d="M211.8 154.1h42.8v12.8h-42.8zM173.8 169.5c.2-.9 1.8-2.4 2.7-2.6h11.9v-12.8h-12c-7.6 0-15.4 7.7-15.4 15.3v16.8h12.8v-16.7zM300.7 191.2h10.9V204h-10.9zM212.2 191.2h63.1V204h-63.1zM156.4 204H189v-12.8h-32.6c-14.5 0-25.2 13.2-26.2 32.2 0 .9-.1 1.8-.1 2.6 0 17.8 10.7 31 24.8 32.4v-12.7c-8.3-.8-11.9-10.5-11.9-19.8v-1.8c.5-10 5.2-20.1 13.4-20.1zM179.5 245.6h8.6v12.8h-8.6zM213.3 245.6h62.1v12.8h-62.1zM306.7 302.2h-6.1V315h6.1c15.2 0 23.4-18.9 23.4-36.7 0-5.8-.9-14.2-4.9-21.3-4.2-7.3-10.7-11.3-18.5-11.3h-6.1v12.8h6.1c2 0 4.9.5 7.4 4.9 2.1 3.7 3.2 9 3.2 15 .1 12.4-5 23.8-10.6 23.8zM212.2 302.2h63.1V315h-63.1zM179.9 302.2h7.1V315h-7.1zM146.8 302.2h7.8V315h-7.8z" class="st1"/><path d="M206.5 140.6c0-1.1.4-2.4 2.1-2.4h91c1.9 0 3.6 0 3.6 5.6H316c0-11.5-6.1-18.4-16.4-18.4h-91c-8.5 0-14.9 6.5-14.9 15.1v72h12.8v-71.9zM304 335.7c0 .2.1 1.4.1 1.6 0 1.3-.5 2.9-1.3 3.8-.5.6-.8.6-.9.6h-93.2c-1.3 0-2.1-.9-2.1-2.4V237.9h-12.8v101.5c0 8.5 6.5 15.1 14.9 15.1h93.2c4.1 0 7.9-1.8 10.8-5.2 2.7-3.3 4.3-7.7 4.3-12 0-1-.1-.5-.3-1.4l-12.7-.2z" class="st1"/><path d="M345.9 188.4v-24.1c0-8.3-6.3-15-14.1-15h-36.9c-7.8 0-14.2 6.7-14.2 15v151.5c0 8.3 6.4 15 14.2 15h36.9c8.4 0 14.1-6 14.1-15v-15.9h-12.8v15.9c0 1.3-.3 2-.4 2.1 0 0-.3.1-.9.1h-36.9c-.6 0-1.4-.9-1.4-2.2V164.3c0-1.3.9-2.2 1.4-2.2h36.9c.4 0 1.3.9 1.3 2.2v24.1h12.8zM242.3 233.2v-12.7h-68.5v-11H161v120.1h12.8v-96.4z" class="st1"/></svg>