<svg xmlns="http://www.w3.org/2000/svg" xml:space="preserve" width="430" height="501" viewBox="-0.841 -0.378 430 501"><path fill-rule="evenodd" d="M192.094 24.092c-48.087 52.174-103.672 83.053-165.21 91.78l-24.397 3.459-1.732 24.578c-2.82 39.993 2.29 82.52 14.775 122.985l.203.689c30.082 97.443 97.508 179.452 184.98 224.984l14.31 7.433 14.286-7.417c87.508-45.554 154.935-127.562 185.014-225.021l.26-.846.025-.183c11.783-39.922 16.507-82.326 13.657-122.629l-1.738-24.573-24.39-3.458c-61.34-8.7-115.446-38.792-165.405-91.99L214.3 0l-22.207 24.092z" clip-rule="evenodd"/><path fill="#FFF" fill-rule="evenodd" d="M200.716 32.04C150.748 86.25 92.816 118.362 28.53 127.48l-15.012 2.128-1.068 15.126c-2.717 38.562 2.22 79.606 14.284 118.698l.201.683c29.167 94.48 94.482 173.956 179.191 218.048l8.899 4.625 8.883-4.614c84.735-44.103 150.051-123.585 179.212-218.069l.24-.783.003-.11c11.391-38.59 15.959-79.563 13.208-118.483l-1.07-15.12-15.01-2.129c-64.083-9.09-120.447-40.352-172.306-95.57l-13.802-14.699-13.666 14.828z" clip-rule="evenodd"/><path fill-rule="evenodd" d="M384.7 257.905H44.65l.206.668c27.702 89.729 89.64 165.16 169.931 206.955l.238.12.239-.12c80.301-41.8 142.24-117.231 169.93-206.955l.207-.668h-.7z" clip-rule="evenodd"/><path fill="#F10" fill-rule="evenodd" d="M385.205 258.49c11.141-37.48 15.194-76.48 12.652-112.437-67.86-9.625-128.643-43.053-183.347-101.3C160.822 103 99.029 136.427 31.164 146.052c-2.536 35.957 2.024 74.957 13.669 112.436h340.372z" clip-rule="evenodd"/><path fill="#FFF" fill-rule="evenodd" d="m81.836 158.714 39-20.258c-.509 12.151 1.01 26.84 6.582 38.49l37.989 82.055v46.097l-56.73-118.018c-5.572-11.143-17.223-19.25-26.841-28.366zM351.289 162.258 312.284 142c.508 12.153-1.512 26.84-6.583 38.491L244.917 317.75l23.812-3.544 55.714-123.582c5.068-11.142 17.227-19.248 26.846-28.366zM161.862 391.188h34.946V270.65h36.466c7.604 0 12.151 9.616 17.731 14.69l.506-49.644c-6.086 4.56-10.136 13.17-17.728 13.17h-36.466l-.509-49.126-23.302 7.09v164.61c0 7.6-7.597 13.164-11.644 19.747zM174.014 169.857v-33.429c0-7.597-7.088-13.168-11.65-19.248h108.398v33.427c-8.615-5.57-15.704-15.695-25.337-15.695h-48.108v30.384l-23.303 4.56zM247.967 391.694h35.957v-33.427c-1.524 1.524-2.529 15.194-28.866 15.194l-7.09 18.233z" clip-rule="evenodd"/><path fill="#FFF" fill-rule="evenodd" d="M204.91 360.302v32.917l17.22 33.938 33.435-75.472-20.773.511-15.189 38.496-14.694-30.39zM165.407 314.206c-27.857-12.162-53.687-32.415-71.926-55.717 5.571-11.65 16.713-23.293 26.338-28.865l-11.143-20.258c-13.67 10.126-28.364 21.268-34.946 36.464-2.535 5.571-7.09 9.627-11.65 12.66 4.56 2.536 7.597 2.025 12.157 8.617 22.288 31.904 56.218 56.73 91.17 69.382v-22.283zM140.586 188.598l10.133 19.751c46.598-20.768 92.18-21.269 134.223-5.572l8.106-17.724c-45.587-19.757-101.302-18.239-152.462 3.545zM326.972 202.268 319.385 220l14.18 7.09c4.053 1.517 5.563 7.09 8.105 10.634l12.657-27.857c-4.563 0-9.619 2.027-13.671 0l-13.684-7.599zM204.407 321.8v19.252c51.158 11.144 99.274-4.056 143.846-30.39l-13.177-19.758c-31.395 26.846-85.088 40.02-130.67 30.897z" clip-rule="evenodd"/></svg>